M48
INCH,TZ
T1C0.0157
T2C0.0335
T3C0.0354
T4C0.0394
T5C0.0551
T6C0.0591
T7C0.0620
T8C0.0840
T9C0.1260
T10C0.1811
%
G90
G05
T1
X18895Y-72164
X21781Y-10038
X25043Y-9967
X25781Y-10038
X27400Y-14800
X31107Y-17700
X33100Y-10400
X42517Y-72991
X42542Y-64329
X52203Y-25943
X52942Y-25943
X53123Y-54487
T2
X29116Y-7400
X30100Y-7400
X9446Y-68660
X9446Y-69644
X9446Y-27124
X9446Y-28109
X9446Y-40313
X9446Y-41298
X16916Y-7400
X17900Y-7400
T3
X22872Y-71660
X23872Y-65660
X23872Y-71660
X24872Y-65660
X24872Y-71660
X30880Y-65660
X30880Y-71660
X32880Y-65660
X32880Y-71660
T4
X50588Y-54487
X39761Y-64329
X50588Y-25943
X39761Y-72991
T5
X41730Y-31849
X43895Y-31849
X41730Y-20038
X43895Y-20038
X50588Y-42676
X52754Y-42676
X50588Y-38739
X52754Y-38739
X50588Y-46613
X52754Y-46613
X41730Y-67833
X41730Y-69487
X43895Y-67833
X43895Y-69487
X50588Y-22006
X52754Y-22006
X50588Y-18069
X52754Y-18069
X41730Y-48581
X43895Y-48581
X41730Y-36770
X43895Y-36770
X41730Y-27912
X43895Y-27912
X50588Y-50550
X52754Y-50550
X41730Y-44644
X43895Y-44644
X41730Y-56455
X43895Y-56455
X41730Y-23975
X43895Y-23975
X41730Y-52518
X43895Y-52518
X41730Y-40707
X43895Y-40707
X12006Y-13148
X12006Y-14802
X14171Y-13148
X14171Y-14802
X50588Y-14132
X52754Y-14132
T6
X16100Y-40400
X16100Y-44400
X16100Y-46400
X34100Y-39400
X34100Y-43400
X34100Y-47400
T7
X14998Y-24006
X14998Y-27006
X14998Y-30006
X34998Y-25506
X34998Y-27006
X34998Y-28506
T8
X34998Y-24006
X34998Y-30006
T9
X9250Y-47203
X9250Y-75550
X9250Y-7243
X54525Y-7243
X54525Y-31849
X54525Y-75550
X54525Y-61376
T10
X22557Y-13542
X25391Y-13542
T0
M30
