G04 #@! TF.GenerationSoftware,KiCad,Pcbnew,(5.0.2)-1*
G04 #@! TF.CreationDate,2019-05-10T13:14:30+02:00*
G04 #@! TF.ProjectId,logika_main,6c6f6769-6b61-45f6-9d61-696e2e6b6963,rev?*
G04 #@! TF.SameCoordinates,Original*
G04 #@! TF.FileFunction,Paste,Bot*
G04 #@! TF.FilePolarity,Positive*
%FSLAX46Y46*%
G04 Gerber Fmt 4.6, Leading zero omitted, Abs format (unit mm)*
G04 Created by KiCad (PCBNEW (5.0.2)-1) date 10.05.2019 13:14:30*
%MOMM*%
%LPD*%
G01*
G04 APERTURE LIST*
%ADD10C,0.100000*%
%ADD11C,0.975000*%
%ADD12R,0.900000X0.800000*%
%ADD13C,1.600000*%
%ADD14C,2.500000*%
%ADD15R,1.300000X1.700000*%
%ADD16C,1.000000*%
%ADD17R,2.600000X0.600000*%
%ADD18R,2.500000X2.300000*%
G04 APERTURE END LIST*
D10*
G04 #@! TO.C,R2*
G36*
X79474142Y-25534674D02*
X79497803Y-25538184D01*
X79521007Y-25543996D01*
X79543529Y-25552054D01*
X79565153Y-25562282D01*
X79585670Y-25574579D01*
X79604883Y-25588829D01*
X79622607Y-25604893D01*
X79638671Y-25622617D01*
X79652921Y-25641830D01*
X79665218Y-25662347D01*
X79675446Y-25683971D01*
X79683504Y-25706493D01*
X79689316Y-25729697D01*
X79692826Y-25753358D01*
X79694000Y-25777250D01*
X79694000Y-26264750D01*
X79692826Y-26288642D01*
X79689316Y-26312303D01*
X79683504Y-26335507D01*
X79675446Y-26358029D01*
X79665218Y-26379653D01*
X79652921Y-26400170D01*
X79638671Y-26419383D01*
X79622607Y-26437107D01*
X79604883Y-26453171D01*
X79585670Y-26467421D01*
X79565153Y-26479718D01*
X79543529Y-26489946D01*
X79521007Y-26498004D01*
X79497803Y-26503816D01*
X79474142Y-26507326D01*
X79450250Y-26508500D01*
X78537750Y-26508500D01*
X78513858Y-26507326D01*
X78490197Y-26503816D01*
X78466993Y-26498004D01*
X78444471Y-26489946D01*
X78422847Y-26479718D01*
X78402330Y-26467421D01*
X78383117Y-26453171D01*
X78365393Y-26437107D01*
X78349329Y-26419383D01*
X78335079Y-26400170D01*
X78322782Y-26379653D01*
X78312554Y-26358029D01*
X78304496Y-26335507D01*
X78298684Y-26312303D01*
X78295174Y-26288642D01*
X78294000Y-26264750D01*
X78294000Y-25777250D01*
X78295174Y-25753358D01*
X78298684Y-25729697D01*
X78304496Y-25706493D01*
X78312554Y-25683971D01*
X78322782Y-25662347D01*
X78335079Y-25641830D01*
X78349329Y-25622617D01*
X78365393Y-25604893D01*
X78383117Y-25588829D01*
X78402330Y-25574579D01*
X78422847Y-25562282D01*
X78444471Y-25552054D01*
X78466993Y-25543996D01*
X78490197Y-25538184D01*
X78513858Y-25534674D01*
X78537750Y-25533500D01*
X79450250Y-25533500D01*
X79474142Y-25534674D01*
X79474142Y-25534674D01*
G37*
D11*
X78994000Y-26021000D03*
D10*
G36*
X79474142Y-27409674D02*
X79497803Y-27413184D01*
X79521007Y-27418996D01*
X79543529Y-27427054D01*
X79565153Y-27437282D01*
X79585670Y-27449579D01*
X79604883Y-27463829D01*
X79622607Y-27479893D01*
X79638671Y-27497617D01*
X79652921Y-27516830D01*
X79665218Y-27537347D01*
X79675446Y-27558971D01*
X79683504Y-27581493D01*
X79689316Y-27604697D01*
X79692826Y-27628358D01*
X79694000Y-27652250D01*
X79694000Y-28139750D01*
X79692826Y-28163642D01*
X79689316Y-28187303D01*
X79683504Y-28210507D01*
X79675446Y-28233029D01*
X79665218Y-28254653D01*
X79652921Y-28275170D01*
X79638671Y-28294383D01*
X79622607Y-28312107D01*
X79604883Y-28328171D01*
X79585670Y-28342421D01*
X79565153Y-28354718D01*
X79543529Y-28364946D01*
X79521007Y-28373004D01*
X79497803Y-28378816D01*
X79474142Y-28382326D01*
X79450250Y-28383500D01*
X78537750Y-28383500D01*
X78513858Y-28382326D01*
X78490197Y-28378816D01*
X78466993Y-28373004D01*
X78444471Y-28364946D01*
X78422847Y-28354718D01*
X78402330Y-28342421D01*
X78383117Y-28328171D01*
X78365393Y-28312107D01*
X78349329Y-28294383D01*
X78335079Y-28275170D01*
X78322782Y-28254653D01*
X78312554Y-28233029D01*
X78304496Y-28210507D01*
X78298684Y-28187303D01*
X78295174Y-28163642D01*
X78294000Y-28139750D01*
X78294000Y-27652250D01*
X78295174Y-27628358D01*
X78298684Y-27604697D01*
X78304496Y-27581493D01*
X78312554Y-27558971D01*
X78322782Y-27537347D01*
X78335079Y-27516830D01*
X78349329Y-27497617D01*
X78365393Y-27479893D01*
X78383117Y-27463829D01*
X78402330Y-27449579D01*
X78422847Y-27437282D01*
X78444471Y-27427054D01*
X78466993Y-27418996D01*
X78490197Y-27413184D01*
X78513858Y-27409674D01*
X78537750Y-27408500D01*
X79450250Y-27408500D01*
X79474142Y-27409674D01*
X79474142Y-27409674D01*
G37*
D11*
X78994000Y-27896000D03*
G04 #@! TD*
D10*
G04 #@! TO.C,R3*
G36*
X76261642Y-27197174D02*
X76285303Y-27200684D01*
X76308507Y-27206496D01*
X76331029Y-27214554D01*
X76352653Y-27224782D01*
X76373170Y-27237079D01*
X76392383Y-27251329D01*
X76410107Y-27267393D01*
X76426171Y-27285117D01*
X76440421Y-27304330D01*
X76452718Y-27324847D01*
X76462946Y-27346471D01*
X76471004Y-27368993D01*
X76476816Y-27392197D01*
X76480326Y-27415858D01*
X76481500Y-27439750D01*
X76481500Y-28352250D01*
X76480326Y-28376142D01*
X76476816Y-28399803D01*
X76471004Y-28423007D01*
X76462946Y-28445529D01*
X76452718Y-28467153D01*
X76440421Y-28487670D01*
X76426171Y-28506883D01*
X76410107Y-28524607D01*
X76392383Y-28540671D01*
X76373170Y-28554921D01*
X76352653Y-28567218D01*
X76331029Y-28577446D01*
X76308507Y-28585504D01*
X76285303Y-28591316D01*
X76261642Y-28594826D01*
X76237750Y-28596000D01*
X75750250Y-28596000D01*
X75726358Y-28594826D01*
X75702697Y-28591316D01*
X75679493Y-28585504D01*
X75656971Y-28577446D01*
X75635347Y-28567218D01*
X75614830Y-28554921D01*
X75595617Y-28540671D01*
X75577893Y-28524607D01*
X75561829Y-28506883D01*
X75547579Y-28487670D01*
X75535282Y-28467153D01*
X75525054Y-28445529D01*
X75516996Y-28423007D01*
X75511184Y-28399803D01*
X75507674Y-28376142D01*
X75506500Y-28352250D01*
X75506500Y-27439750D01*
X75507674Y-27415858D01*
X75511184Y-27392197D01*
X75516996Y-27368993D01*
X75525054Y-27346471D01*
X75535282Y-27324847D01*
X75547579Y-27304330D01*
X75561829Y-27285117D01*
X75577893Y-27267393D01*
X75595617Y-27251329D01*
X75614830Y-27237079D01*
X75635347Y-27224782D01*
X75656971Y-27214554D01*
X75679493Y-27206496D01*
X75702697Y-27200684D01*
X75726358Y-27197174D01*
X75750250Y-27196000D01*
X76237750Y-27196000D01*
X76261642Y-27197174D01*
X76261642Y-27197174D01*
G37*
D11*
X75994000Y-27896000D03*
D10*
G36*
X74386642Y-27197174D02*
X74410303Y-27200684D01*
X74433507Y-27206496D01*
X74456029Y-27214554D01*
X74477653Y-27224782D01*
X74498170Y-27237079D01*
X74517383Y-27251329D01*
X74535107Y-27267393D01*
X74551171Y-27285117D01*
X74565421Y-27304330D01*
X74577718Y-27324847D01*
X74587946Y-27346471D01*
X74596004Y-27368993D01*
X74601816Y-27392197D01*
X74605326Y-27415858D01*
X74606500Y-27439750D01*
X74606500Y-28352250D01*
X74605326Y-28376142D01*
X74601816Y-28399803D01*
X74596004Y-28423007D01*
X74587946Y-28445529D01*
X74577718Y-28467153D01*
X74565421Y-28487670D01*
X74551171Y-28506883D01*
X74535107Y-28524607D01*
X74517383Y-28540671D01*
X74498170Y-28554921D01*
X74477653Y-28567218D01*
X74456029Y-28577446D01*
X74433507Y-28585504D01*
X74410303Y-28591316D01*
X74386642Y-28594826D01*
X74362750Y-28596000D01*
X73875250Y-28596000D01*
X73851358Y-28594826D01*
X73827697Y-28591316D01*
X73804493Y-28585504D01*
X73781971Y-28577446D01*
X73760347Y-28567218D01*
X73739830Y-28554921D01*
X73720617Y-28540671D01*
X73702893Y-28524607D01*
X73686829Y-28506883D01*
X73672579Y-28487670D01*
X73660282Y-28467153D01*
X73650054Y-28445529D01*
X73641996Y-28423007D01*
X73636184Y-28399803D01*
X73632674Y-28376142D01*
X73631500Y-28352250D01*
X73631500Y-27439750D01*
X73632674Y-27415858D01*
X73636184Y-27392197D01*
X73641996Y-27368993D01*
X73650054Y-27346471D01*
X73660282Y-27324847D01*
X73672579Y-27304330D01*
X73686829Y-27285117D01*
X73702893Y-27267393D01*
X73720617Y-27251329D01*
X73739830Y-27237079D01*
X73760347Y-27224782D01*
X73781971Y-27214554D01*
X73804493Y-27206496D01*
X73827697Y-27200684D01*
X73851358Y-27197174D01*
X73875250Y-27196000D01*
X74362750Y-27196000D01*
X74386642Y-27197174D01*
X74386642Y-27197174D01*
G37*
D11*
X74119000Y-27896000D03*
G04 #@! TD*
D10*
G04 #@! TO.C,R13*
G36*
X29474142Y-71409674D02*
X29497803Y-71413184D01*
X29521007Y-71418996D01*
X29543529Y-71427054D01*
X29565153Y-71437282D01*
X29585670Y-71449579D01*
X29604883Y-71463829D01*
X29622607Y-71479893D01*
X29638671Y-71497617D01*
X29652921Y-71516830D01*
X29665218Y-71537347D01*
X29675446Y-71558971D01*
X29683504Y-71581493D01*
X29689316Y-71604697D01*
X29692826Y-71628358D01*
X29694000Y-71652250D01*
X29694000Y-72139750D01*
X29692826Y-72163642D01*
X29689316Y-72187303D01*
X29683504Y-72210507D01*
X29675446Y-72233029D01*
X29665218Y-72254653D01*
X29652921Y-72275170D01*
X29638671Y-72294383D01*
X29622607Y-72312107D01*
X29604883Y-72328171D01*
X29585670Y-72342421D01*
X29565153Y-72354718D01*
X29543529Y-72364946D01*
X29521007Y-72373004D01*
X29497803Y-72378816D01*
X29474142Y-72382326D01*
X29450250Y-72383500D01*
X28537750Y-72383500D01*
X28513858Y-72382326D01*
X28490197Y-72378816D01*
X28466993Y-72373004D01*
X28444471Y-72364946D01*
X28422847Y-72354718D01*
X28402330Y-72342421D01*
X28383117Y-72328171D01*
X28365393Y-72312107D01*
X28349329Y-72294383D01*
X28335079Y-72275170D01*
X28322782Y-72254653D01*
X28312554Y-72233029D01*
X28304496Y-72210507D01*
X28298684Y-72187303D01*
X28295174Y-72163642D01*
X28294000Y-72139750D01*
X28294000Y-71652250D01*
X28295174Y-71628358D01*
X28298684Y-71604697D01*
X28304496Y-71581493D01*
X28312554Y-71558971D01*
X28322782Y-71537347D01*
X28335079Y-71516830D01*
X28349329Y-71497617D01*
X28365393Y-71479893D01*
X28383117Y-71463829D01*
X28402330Y-71449579D01*
X28422847Y-71437282D01*
X28444471Y-71427054D01*
X28466993Y-71418996D01*
X28490197Y-71413184D01*
X28513858Y-71409674D01*
X28537750Y-71408500D01*
X29450250Y-71408500D01*
X29474142Y-71409674D01*
X29474142Y-71409674D01*
G37*
D11*
X28994000Y-71896000D03*
D10*
G36*
X29474142Y-73284674D02*
X29497803Y-73288184D01*
X29521007Y-73293996D01*
X29543529Y-73302054D01*
X29565153Y-73312282D01*
X29585670Y-73324579D01*
X29604883Y-73338829D01*
X29622607Y-73354893D01*
X29638671Y-73372617D01*
X29652921Y-73391830D01*
X29665218Y-73412347D01*
X29675446Y-73433971D01*
X29683504Y-73456493D01*
X29689316Y-73479697D01*
X29692826Y-73503358D01*
X29694000Y-73527250D01*
X29694000Y-74014750D01*
X29692826Y-74038642D01*
X29689316Y-74062303D01*
X29683504Y-74085507D01*
X29675446Y-74108029D01*
X29665218Y-74129653D01*
X29652921Y-74150170D01*
X29638671Y-74169383D01*
X29622607Y-74187107D01*
X29604883Y-74203171D01*
X29585670Y-74217421D01*
X29565153Y-74229718D01*
X29543529Y-74239946D01*
X29521007Y-74248004D01*
X29497803Y-74253816D01*
X29474142Y-74257326D01*
X29450250Y-74258500D01*
X28537750Y-74258500D01*
X28513858Y-74257326D01*
X28490197Y-74253816D01*
X28466993Y-74248004D01*
X28444471Y-74239946D01*
X28422847Y-74229718D01*
X28402330Y-74217421D01*
X28383117Y-74203171D01*
X28365393Y-74187107D01*
X28349329Y-74169383D01*
X28335079Y-74150170D01*
X28322782Y-74129653D01*
X28312554Y-74108029D01*
X28304496Y-74085507D01*
X28298684Y-74062303D01*
X28295174Y-74038642D01*
X28294000Y-74014750D01*
X28294000Y-73527250D01*
X28295174Y-73503358D01*
X28298684Y-73479697D01*
X28304496Y-73456493D01*
X28312554Y-73433971D01*
X28322782Y-73412347D01*
X28335079Y-73391830D01*
X28349329Y-73372617D01*
X28365393Y-73354893D01*
X28383117Y-73338829D01*
X28402330Y-73324579D01*
X28422847Y-73312282D01*
X28444471Y-73302054D01*
X28466993Y-73293996D01*
X28490197Y-73288184D01*
X28513858Y-73284674D01*
X28537750Y-73283500D01*
X29450250Y-73283500D01*
X29474142Y-73284674D01*
X29474142Y-73284674D01*
G37*
D11*
X28994000Y-73771000D03*
G04 #@! TD*
D12*
G04 #@! TO.C,Q4*
X33994000Y-72846000D03*
X31994000Y-71896000D03*
X31994000Y-73796000D03*
G04 #@! TD*
D10*
G04 #@! TO.C,R5*
G36*
X130636642Y-68197174D02*
X130660303Y-68200684D01*
X130683507Y-68206496D01*
X130706029Y-68214554D01*
X130727653Y-68224782D01*
X130748170Y-68237079D01*
X130767383Y-68251329D01*
X130785107Y-68267393D01*
X130801171Y-68285117D01*
X130815421Y-68304330D01*
X130827718Y-68324847D01*
X130837946Y-68346471D01*
X130846004Y-68368993D01*
X130851816Y-68392197D01*
X130855326Y-68415858D01*
X130856500Y-68439750D01*
X130856500Y-69352250D01*
X130855326Y-69376142D01*
X130851816Y-69399803D01*
X130846004Y-69423007D01*
X130837946Y-69445529D01*
X130827718Y-69467153D01*
X130815421Y-69487670D01*
X130801171Y-69506883D01*
X130785107Y-69524607D01*
X130767383Y-69540671D01*
X130748170Y-69554921D01*
X130727653Y-69567218D01*
X130706029Y-69577446D01*
X130683507Y-69585504D01*
X130660303Y-69591316D01*
X130636642Y-69594826D01*
X130612750Y-69596000D01*
X130125250Y-69596000D01*
X130101358Y-69594826D01*
X130077697Y-69591316D01*
X130054493Y-69585504D01*
X130031971Y-69577446D01*
X130010347Y-69567218D01*
X129989830Y-69554921D01*
X129970617Y-69540671D01*
X129952893Y-69524607D01*
X129936829Y-69506883D01*
X129922579Y-69487670D01*
X129910282Y-69467153D01*
X129900054Y-69445529D01*
X129891996Y-69423007D01*
X129886184Y-69399803D01*
X129882674Y-69376142D01*
X129881500Y-69352250D01*
X129881500Y-68439750D01*
X129882674Y-68415858D01*
X129886184Y-68392197D01*
X129891996Y-68368993D01*
X129900054Y-68346471D01*
X129910282Y-68324847D01*
X129922579Y-68304330D01*
X129936829Y-68285117D01*
X129952893Y-68267393D01*
X129970617Y-68251329D01*
X129989830Y-68237079D01*
X130010347Y-68224782D01*
X130031971Y-68214554D01*
X130054493Y-68206496D01*
X130077697Y-68200684D01*
X130101358Y-68197174D01*
X130125250Y-68196000D01*
X130612750Y-68196000D01*
X130636642Y-68197174D01*
X130636642Y-68197174D01*
G37*
D11*
X130369000Y-68896000D03*
D10*
G36*
X128761642Y-68197174D02*
X128785303Y-68200684D01*
X128808507Y-68206496D01*
X128831029Y-68214554D01*
X128852653Y-68224782D01*
X128873170Y-68237079D01*
X128892383Y-68251329D01*
X128910107Y-68267393D01*
X128926171Y-68285117D01*
X128940421Y-68304330D01*
X128952718Y-68324847D01*
X128962946Y-68346471D01*
X128971004Y-68368993D01*
X128976816Y-68392197D01*
X128980326Y-68415858D01*
X128981500Y-68439750D01*
X128981500Y-69352250D01*
X128980326Y-69376142D01*
X128976816Y-69399803D01*
X128971004Y-69423007D01*
X128962946Y-69445529D01*
X128952718Y-69467153D01*
X128940421Y-69487670D01*
X128926171Y-69506883D01*
X128910107Y-69524607D01*
X128892383Y-69540671D01*
X128873170Y-69554921D01*
X128852653Y-69567218D01*
X128831029Y-69577446D01*
X128808507Y-69585504D01*
X128785303Y-69591316D01*
X128761642Y-69594826D01*
X128737750Y-69596000D01*
X128250250Y-69596000D01*
X128226358Y-69594826D01*
X128202697Y-69591316D01*
X128179493Y-69585504D01*
X128156971Y-69577446D01*
X128135347Y-69567218D01*
X128114830Y-69554921D01*
X128095617Y-69540671D01*
X128077893Y-69524607D01*
X128061829Y-69506883D01*
X128047579Y-69487670D01*
X128035282Y-69467153D01*
X128025054Y-69445529D01*
X128016996Y-69423007D01*
X128011184Y-69399803D01*
X128007674Y-69376142D01*
X128006500Y-69352250D01*
X128006500Y-68439750D01*
X128007674Y-68415858D01*
X128011184Y-68392197D01*
X128016996Y-68368993D01*
X128025054Y-68346471D01*
X128035282Y-68324847D01*
X128047579Y-68304330D01*
X128061829Y-68285117D01*
X128077893Y-68267393D01*
X128095617Y-68251329D01*
X128114830Y-68237079D01*
X128135347Y-68224782D01*
X128156971Y-68214554D01*
X128179493Y-68206496D01*
X128202697Y-68200684D01*
X128226358Y-68197174D01*
X128250250Y-68196000D01*
X128737750Y-68196000D01*
X128761642Y-68197174D01*
X128761642Y-68197174D01*
G37*
D11*
X128494000Y-68896000D03*
G04 #@! TD*
D10*
G04 #@! TO.C,C1*
G36*
X51568504Y-110767204D02*
X51592773Y-110770804D01*
X51616571Y-110776765D01*
X51639671Y-110785030D01*
X51661849Y-110795520D01*
X51682893Y-110808133D01*
X51702598Y-110822747D01*
X51720777Y-110839223D01*
X51737253Y-110857402D01*
X51751867Y-110877107D01*
X51764480Y-110898151D01*
X51774970Y-110920329D01*
X51783235Y-110943429D01*
X51789196Y-110967227D01*
X51792796Y-110991496D01*
X51794000Y-111016000D01*
X51794000Y-114016000D01*
X51792796Y-114040504D01*
X51789196Y-114064773D01*
X51783235Y-114088571D01*
X51774970Y-114111671D01*
X51764480Y-114133849D01*
X51751867Y-114154893D01*
X51737253Y-114174598D01*
X51720777Y-114192777D01*
X51702598Y-114209253D01*
X51682893Y-114223867D01*
X51661849Y-114236480D01*
X51639671Y-114246970D01*
X51616571Y-114255235D01*
X51592773Y-114261196D01*
X51568504Y-114264796D01*
X51544000Y-114266000D01*
X50444000Y-114266000D01*
X50419496Y-114264796D01*
X50395227Y-114261196D01*
X50371429Y-114255235D01*
X50348329Y-114246970D01*
X50326151Y-114236480D01*
X50305107Y-114223867D01*
X50285402Y-114209253D01*
X50267223Y-114192777D01*
X50250747Y-114174598D01*
X50236133Y-114154893D01*
X50223520Y-114133849D01*
X50213030Y-114111671D01*
X50204765Y-114088571D01*
X50198804Y-114064773D01*
X50195204Y-114040504D01*
X50194000Y-114016000D01*
X50194000Y-111016000D01*
X50195204Y-110991496D01*
X50198804Y-110967227D01*
X50204765Y-110943429D01*
X50213030Y-110920329D01*
X50223520Y-110898151D01*
X50236133Y-110877107D01*
X50250747Y-110857402D01*
X50267223Y-110839223D01*
X50285402Y-110822747D01*
X50305107Y-110808133D01*
X50326151Y-110795520D01*
X50348329Y-110785030D01*
X50371429Y-110776765D01*
X50395227Y-110770804D01*
X50419496Y-110767204D01*
X50444000Y-110766000D01*
X51544000Y-110766000D01*
X51568504Y-110767204D01*
X51568504Y-110767204D01*
G37*
D13*
X50994000Y-112516000D03*
D10*
G36*
X51568504Y-116367204D02*
X51592773Y-116370804D01*
X51616571Y-116376765D01*
X51639671Y-116385030D01*
X51661849Y-116395520D01*
X51682893Y-116408133D01*
X51702598Y-116422747D01*
X51720777Y-116439223D01*
X51737253Y-116457402D01*
X51751867Y-116477107D01*
X51764480Y-116498151D01*
X51774970Y-116520329D01*
X51783235Y-116543429D01*
X51789196Y-116567227D01*
X51792796Y-116591496D01*
X51794000Y-116616000D01*
X51794000Y-119616000D01*
X51792796Y-119640504D01*
X51789196Y-119664773D01*
X51783235Y-119688571D01*
X51774970Y-119711671D01*
X51764480Y-119733849D01*
X51751867Y-119754893D01*
X51737253Y-119774598D01*
X51720777Y-119792777D01*
X51702598Y-119809253D01*
X51682893Y-119823867D01*
X51661849Y-119836480D01*
X51639671Y-119846970D01*
X51616571Y-119855235D01*
X51592773Y-119861196D01*
X51568504Y-119864796D01*
X51544000Y-119866000D01*
X50444000Y-119866000D01*
X50419496Y-119864796D01*
X50395227Y-119861196D01*
X50371429Y-119855235D01*
X50348329Y-119846970D01*
X50326151Y-119836480D01*
X50305107Y-119823867D01*
X50285402Y-119809253D01*
X50267223Y-119792777D01*
X50250747Y-119774598D01*
X50236133Y-119754893D01*
X50223520Y-119733849D01*
X50213030Y-119711671D01*
X50204765Y-119688571D01*
X50198804Y-119664773D01*
X50195204Y-119640504D01*
X50194000Y-119616000D01*
X50194000Y-116616000D01*
X50195204Y-116591496D01*
X50198804Y-116567227D01*
X50204765Y-116543429D01*
X50213030Y-116520329D01*
X50223520Y-116498151D01*
X50236133Y-116477107D01*
X50250747Y-116457402D01*
X50267223Y-116439223D01*
X50285402Y-116422747D01*
X50305107Y-116408133D01*
X50326151Y-116395520D01*
X50348329Y-116385030D01*
X50371429Y-116376765D01*
X50395227Y-116370804D01*
X50419496Y-116367204D01*
X50444000Y-116366000D01*
X51544000Y-116366000D01*
X51568504Y-116367204D01*
X51568504Y-116367204D01*
G37*
D13*
X50994000Y-118116000D03*
G04 #@! TD*
D10*
G04 #@! TO.C,C2*
G36*
X92174142Y-113892174D02*
X92197803Y-113895684D01*
X92221007Y-113901496D01*
X92243529Y-113909554D01*
X92265153Y-113919782D01*
X92285670Y-113932079D01*
X92304883Y-113946329D01*
X92322607Y-113962393D01*
X92338671Y-113980117D01*
X92352921Y-113999330D01*
X92365218Y-114019847D01*
X92375446Y-114041471D01*
X92383504Y-114063993D01*
X92389316Y-114087197D01*
X92392826Y-114110858D01*
X92394000Y-114134750D01*
X92394000Y-114622250D01*
X92392826Y-114646142D01*
X92389316Y-114669803D01*
X92383504Y-114693007D01*
X92375446Y-114715529D01*
X92365218Y-114737153D01*
X92352921Y-114757670D01*
X92338671Y-114776883D01*
X92322607Y-114794607D01*
X92304883Y-114810671D01*
X92285670Y-114824921D01*
X92265153Y-114837218D01*
X92243529Y-114847446D01*
X92221007Y-114855504D01*
X92197803Y-114861316D01*
X92174142Y-114864826D01*
X92150250Y-114866000D01*
X91237750Y-114866000D01*
X91213858Y-114864826D01*
X91190197Y-114861316D01*
X91166993Y-114855504D01*
X91144471Y-114847446D01*
X91122847Y-114837218D01*
X91102330Y-114824921D01*
X91083117Y-114810671D01*
X91065393Y-114794607D01*
X91049329Y-114776883D01*
X91035079Y-114757670D01*
X91022782Y-114737153D01*
X91012554Y-114715529D01*
X91004496Y-114693007D01*
X90998684Y-114669803D01*
X90995174Y-114646142D01*
X90994000Y-114622250D01*
X90994000Y-114134750D01*
X90995174Y-114110858D01*
X90998684Y-114087197D01*
X91004496Y-114063993D01*
X91012554Y-114041471D01*
X91022782Y-114019847D01*
X91035079Y-113999330D01*
X91049329Y-113980117D01*
X91065393Y-113962393D01*
X91083117Y-113946329D01*
X91102330Y-113932079D01*
X91122847Y-113919782D01*
X91144471Y-113909554D01*
X91166993Y-113901496D01*
X91190197Y-113895684D01*
X91213858Y-113892174D01*
X91237750Y-113891000D01*
X92150250Y-113891000D01*
X92174142Y-113892174D01*
X92174142Y-113892174D01*
G37*
D11*
X91694000Y-114378500D03*
D10*
G36*
X92174142Y-115767174D02*
X92197803Y-115770684D01*
X92221007Y-115776496D01*
X92243529Y-115784554D01*
X92265153Y-115794782D01*
X92285670Y-115807079D01*
X92304883Y-115821329D01*
X92322607Y-115837393D01*
X92338671Y-115855117D01*
X92352921Y-115874330D01*
X92365218Y-115894847D01*
X92375446Y-115916471D01*
X92383504Y-115938993D01*
X92389316Y-115962197D01*
X92392826Y-115985858D01*
X92394000Y-116009750D01*
X92394000Y-116497250D01*
X92392826Y-116521142D01*
X92389316Y-116544803D01*
X92383504Y-116568007D01*
X92375446Y-116590529D01*
X92365218Y-116612153D01*
X92352921Y-116632670D01*
X92338671Y-116651883D01*
X92322607Y-116669607D01*
X92304883Y-116685671D01*
X92285670Y-116699921D01*
X92265153Y-116712218D01*
X92243529Y-116722446D01*
X92221007Y-116730504D01*
X92197803Y-116736316D01*
X92174142Y-116739826D01*
X92150250Y-116741000D01*
X91237750Y-116741000D01*
X91213858Y-116739826D01*
X91190197Y-116736316D01*
X91166993Y-116730504D01*
X91144471Y-116722446D01*
X91122847Y-116712218D01*
X91102330Y-116699921D01*
X91083117Y-116685671D01*
X91065393Y-116669607D01*
X91049329Y-116651883D01*
X91035079Y-116632670D01*
X91022782Y-116612153D01*
X91012554Y-116590529D01*
X91004496Y-116568007D01*
X90998684Y-116544803D01*
X90995174Y-116521142D01*
X90994000Y-116497250D01*
X90994000Y-116009750D01*
X90995174Y-115985858D01*
X90998684Y-115962197D01*
X91004496Y-115938993D01*
X91012554Y-115916471D01*
X91022782Y-115894847D01*
X91035079Y-115874330D01*
X91049329Y-115855117D01*
X91065393Y-115837393D01*
X91083117Y-115821329D01*
X91102330Y-115807079D01*
X91122847Y-115794782D01*
X91144471Y-115784554D01*
X91166993Y-115776496D01*
X91190197Y-115770684D01*
X91213858Y-115767174D01*
X91237750Y-115766000D01*
X92150250Y-115766000D01*
X92174142Y-115767174D01*
X92174142Y-115767174D01*
G37*
D11*
X91694000Y-116253500D03*
G04 #@! TD*
D10*
G04 #@! TO.C,C4*
G36*
X78018504Y-116817204D02*
X78042773Y-116820804D01*
X78066571Y-116826765D01*
X78089671Y-116835030D01*
X78111849Y-116845520D01*
X78132893Y-116858133D01*
X78152598Y-116872747D01*
X78170777Y-116889223D01*
X78187253Y-116907402D01*
X78201867Y-116927107D01*
X78214480Y-116948151D01*
X78224970Y-116970329D01*
X78233235Y-116993429D01*
X78239196Y-117017227D01*
X78242796Y-117041496D01*
X78244000Y-117066000D01*
X78244000Y-120066000D01*
X78242796Y-120090504D01*
X78239196Y-120114773D01*
X78233235Y-120138571D01*
X78224970Y-120161671D01*
X78214480Y-120183849D01*
X78201867Y-120204893D01*
X78187253Y-120224598D01*
X78170777Y-120242777D01*
X78152598Y-120259253D01*
X78132893Y-120273867D01*
X78111849Y-120286480D01*
X78089671Y-120296970D01*
X78066571Y-120305235D01*
X78042773Y-120311196D01*
X78018504Y-120314796D01*
X77994000Y-120316000D01*
X75994000Y-120316000D01*
X75969496Y-120314796D01*
X75945227Y-120311196D01*
X75921429Y-120305235D01*
X75898329Y-120296970D01*
X75876151Y-120286480D01*
X75855107Y-120273867D01*
X75835402Y-120259253D01*
X75817223Y-120242777D01*
X75800747Y-120224598D01*
X75786133Y-120204893D01*
X75773520Y-120183849D01*
X75763030Y-120161671D01*
X75754765Y-120138571D01*
X75748804Y-120114773D01*
X75745204Y-120090504D01*
X75744000Y-120066000D01*
X75744000Y-117066000D01*
X75745204Y-117041496D01*
X75748804Y-117017227D01*
X75754765Y-116993429D01*
X75763030Y-116970329D01*
X75773520Y-116948151D01*
X75786133Y-116927107D01*
X75800747Y-116907402D01*
X75817223Y-116889223D01*
X75835402Y-116872747D01*
X75855107Y-116858133D01*
X75876151Y-116845520D01*
X75898329Y-116835030D01*
X75921429Y-116826765D01*
X75945227Y-116820804D01*
X75969496Y-116817204D01*
X75994000Y-116816000D01*
X77994000Y-116816000D01*
X78018504Y-116817204D01*
X78018504Y-116817204D01*
G37*
D14*
X76994000Y-118566000D03*
D10*
G36*
X78018504Y-110317204D02*
X78042773Y-110320804D01*
X78066571Y-110326765D01*
X78089671Y-110335030D01*
X78111849Y-110345520D01*
X78132893Y-110358133D01*
X78152598Y-110372747D01*
X78170777Y-110389223D01*
X78187253Y-110407402D01*
X78201867Y-110427107D01*
X78214480Y-110448151D01*
X78224970Y-110470329D01*
X78233235Y-110493429D01*
X78239196Y-110517227D01*
X78242796Y-110541496D01*
X78244000Y-110566000D01*
X78244000Y-113566000D01*
X78242796Y-113590504D01*
X78239196Y-113614773D01*
X78233235Y-113638571D01*
X78224970Y-113661671D01*
X78214480Y-113683849D01*
X78201867Y-113704893D01*
X78187253Y-113724598D01*
X78170777Y-113742777D01*
X78152598Y-113759253D01*
X78132893Y-113773867D01*
X78111849Y-113786480D01*
X78089671Y-113796970D01*
X78066571Y-113805235D01*
X78042773Y-113811196D01*
X78018504Y-113814796D01*
X77994000Y-113816000D01*
X75994000Y-113816000D01*
X75969496Y-113814796D01*
X75945227Y-113811196D01*
X75921429Y-113805235D01*
X75898329Y-113796970D01*
X75876151Y-113786480D01*
X75855107Y-113773867D01*
X75835402Y-113759253D01*
X75817223Y-113742777D01*
X75800747Y-113724598D01*
X75786133Y-113704893D01*
X75773520Y-113683849D01*
X75763030Y-113661671D01*
X75754765Y-113638571D01*
X75748804Y-113614773D01*
X75745204Y-113590504D01*
X75744000Y-113566000D01*
X75744000Y-110566000D01*
X75745204Y-110541496D01*
X75748804Y-110517227D01*
X75754765Y-110493429D01*
X75763030Y-110470329D01*
X75773520Y-110448151D01*
X75786133Y-110427107D01*
X75800747Y-110407402D01*
X75817223Y-110389223D01*
X75835402Y-110372747D01*
X75855107Y-110358133D01*
X75876151Y-110345520D01*
X75898329Y-110335030D01*
X75921429Y-110326765D01*
X75945227Y-110320804D01*
X75969496Y-110317204D01*
X75994000Y-110316000D01*
X77994000Y-110316000D01*
X78018504Y-110317204D01*
X78018504Y-110317204D01*
G37*
D14*
X76994000Y-112066000D03*
G04 #@! TD*
D10*
G04 #@! TO.C,C3*
G36*
X94714142Y-113892174D02*
X94737803Y-113895684D01*
X94761007Y-113901496D01*
X94783529Y-113909554D01*
X94805153Y-113919782D01*
X94825670Y-113932079D01*
X94844883Y-113946329D01*
X94862607Y-113962393D01*
X94878671Y-113980117D01*
X94892921Y-113999330D01*
X94905218Y-114019847D01*
X94915446Y-114041471D01*
X94923504Y-114063993D01*
X94929316Y-114087197D01*
X94932826Y-114110858D01*
X94934000Y-114134750D01*
X94934000Y-114622250D01*
X94932826Y-114646142D01*
X94929316Y-114669803D01*
X94923504Y-114693007D01*
X94915446Y-114715529D01*
X94905218Y-114737153D01*
X94892921Y-114757670D01*
X94878671Y-114776883D01*
X94862607Y-114794607D01*
X94844883Y-114810671D01*
X94825670Y-114824921D01*
X94805153Y-114837218D01*
X94783529Y-114847446D01*
X94761007Y-114855504D01*
X94737803Y-114861316D01*
X94714142Y-114864826D01*
X94690250Y-114866000D01*
X93777750Y-114866000D01*
X93753858Y-114864826D01*
X93730197Y-114861316D01*
X93706993Y-114855504D01*
X93684471Y-114847446D01*
X93662847Y-114837218D01*
X93642330Y-114824921D01*
X93623117Y-114810671D01*
X93605393Y-114794607D01*
X93589329Y-114776883D01*
X93575079Y-114757670D01*
X93562782Y-114737153D01*
X93552554Y-114715529D01*
X93544496Y-114693007D01*
X93538684Y-114669803D01*
X93535174Y-114646142D01*
X93534000Y-114622250D01*
X93534000Y-114134750D01*
X93535174Y-114110858D01*
X93538684Y-114087197D01*
X93544496Y-114063993D01*
X93552554Y-114041471D01*
X93562782Y-114019847D01*
X93575079Y-113999330D01*
X93589329Y-113980117D01*
X93605393Y-113962393D01*
X93623117Y-113946329D01*
X93642330Y-113932079D01*
X93662847Y-113919782D01*
X93684471Y-113909554D01*
X93706993Y-113901496D01*
X93730197Y-113895684D01*
X93753858Y-113892174D01*
X93777750Y-113891000D01*
X94690250Y-113891000D01*
X94714142Y-113892174D01*
X94714142Y-113892174D01*
G37*
D11*
X94234000Y-114378500D03*
D10*
G36*
X94714142Y-115767174D02*
X94737803Y-115770684D01*
X94761007Y-115776496D01*
X94783529Y-115784554D01*
X94805153Y-115794782D01*
X94825670Y-115807079D01*
X94844883Y-115821329D01*
X94862607Y-115837393D01*
X94878671Y-115855117D01*
X94892921Y-115874330D01*
X94905218Y-115894847D01*
X94915446Y-115916471D01*
X94923504Y-115938993D01*
X94929316Y-115962197D01*
X94932826Y-115985858D01*
X94934000Y-116009750D01*
X94934000Y-116497250D01*
X94932826Y-116521142D01*
X94929316Y-116544803D01*
X94923504Y-116568007D01*
X94915446Y-116590529D01*
X94905218Y-116612153D01*
X94892921Y-116632670D01*
X94878671Y-116651883D01*
X94862607Y-116669607D01*
X94844883Y-116685671D01*
X94825670Y-116699921D01*
X94805153Y-116712218D01*
X94783529Y-116722446D01*
X94761007Y-116730504D01*
X94737803Y-116736316D01*
X94714142Y-116739826D01*
X94690250Y-116741000D01*
X93777750Y-116741000D01*
X93753858Y-116739826D01*
X93730197Y-116736316D01*
X93706993Y-116730504D01*
X93684471Y-116722446D01*
X93662847Y-116712218D01*
X93642330Y-116699921D01*
X93623117Y-116685671D01*
X93605393Y-116669607D01*
X93589329Y-116651883D01*
X93575079Y-116632670D01*
X93562782Y-116612153D01*
X93552554Y-116590529D01*
X93544496Y-116568007D01*
X93538684Y-116544803D01*
X93535174Y-116521142D01*
X93534000Y-116497250D01*
X93534000Y-116009750D01*
X93535174Y-115985858D01*
X93538684Y-115962197D01*
X93544496Y-115938993D01*
X93552554Y-115916471D01*
X93562782Y-115894847D01*
X93575079Y-115874330D01*
X93589329Y-115855117D01*
X93605393Y-115837393D01*
X93623117Y-115821329D01*
X93642330Y-115807079D01*
X93662847Y-115794782D01*
X93684471Y-115784554D01*
X93706993Y-115776496D01*
X93730197Y-115770684D01*
X93753858Y-115767174D01*
X93777750Y-115766000D01*
X94690250Y-115766000D01*
X94714142Y-115767174D01*
X94714142Y-115767174D01*
G37*
D11*
X94234000Y-116253500D03*
G04 #@! TD*
D10*
G04 #@! TO.C,C5*
G36*
X46568504Y-65647204D02*
X46592773Y-65650804D01*
X46616571Y-65656765D01*
X46639671Y-65665030D01*
X46661849Y-65675520D01*
X46682893Y-65688133D01*
X46702598Y-65702747D01*
X46720777Y-65719223D01*
X46737253Y-65737402D01*
X46751867Y-65757107D01*
X46764480Y-65778151D01*
X46774970Y-65800329D01*
X46783235Y-65823429D01*
X46789196Y-65847227D01*
X46792796Y-65871496D01*
X46794000Y-65896000D01*
X46794000Y-68896000D01*
X46792796Y-68920504D01*
X46789196Y-68944773D01*
X46783235Y-68968571D01*
X46774970Y-68991671D01*
X46764480Y-69013849D01*
X46751867Y-69034893D01*
X46737253Y-69054598D01*
X46720777Y-69072777D01*
X46702598Y-69089253D01*
X46682893Y-69103867D01*
X46661849Y-69116480D01*
X46639671Y-69126970D01*
X46616571Y-69135235D01*
X46592773Y-69141196D01*
X46568504Y-69144796D01*
X46544000Y-69146000D01*
X45444000Y-69146000D01*
X45419496Y-69144796D01*
X45395227Y-69141196D01*
X45371429Y-69135235D01*
X45348329Y-69126970D01*
X45326151Y-69116480D01*
X45305107Y-69103867D01*
X45285402Y-69089253D01*
X45267223Y-69072777D01*
X45250747Y-69054598D01*
X45236133Y-69034893D01*
X45223520Y-69013849D01*
X45213030Y-68991671D01*
X45204765Y-68968571D01*
X45198804Y-68944773D01*
X45195204Y-68920504D01*
X45194000Y-68896000D01*
X45194000Y-65896000D01*
X45195204Y-65871496D01*
X45198804Y-65847227D01*
X45204765Y-65823429D01*
X45213030Y-65800329D01*
X45223520Y-65778151D01*
X45236133Y-65757107D01*
X45250747Y-65737402D01*
X45267223Y-65719223D01*
X45285402Y-65702747D01*
X45305107Y-65688133D01*
X45326151Y-65675520D01*
X45348329Y-65665030D01*
X45371429Y-65656765D01*
X45395227Y-65650804D01*
X45419496Y-65647204D01*
X45444000Y-65646000D01*
X46544000Y-65646000D01*
X46568504Y-65647204D01*
X46568504Y-65647204D01*
G37*
D13*
X45994000Y-67396000D03*
D10*
G36*
X46568504Y-60047204D02*
X46592773Y-60050804D01*
X46616571Y-60056765D01*
X46639671Y-60065030D01*
X46661849Y-60075520D01*
X46682893Y-60088133D01*
X46702598Y-60102747D01*
X46720777Y-60119223D01*
X46737253Y-60137402D01*
X46751867Y-60157107D01*
X46764480Y-60178151D01*
X46774970Y-60200329D01*
X46783235Y-60223429D01*
X46789196Y-60247227D01*
X46792796Y-60271496D01*
X46794000Y-60296000D01*
X46794000Y-63296000D01*
X46792796Y-63320504D01*
X46789196Y-63344773D01*
X46783235Y-63368571D01*
X46774970Y-63391671D01*
X46764480Y-63413849D01*
X46751867Y-63434893D01*
X46737253Y-63454598D01*
X46720777Y-63472777D01*
X46702598Y-63489253D01*
X46682893Y-63503867D01*
X46661849Y-63516480D01*
X46639671Y-63526970D01*
X46616571Y-63535235D01*
X46592773Y-63541196D01*
X46568504Y-63544796D01*
X46544000Y-63546000D01*
X45444000Y-63546000D01*
X45419496Y-63544796D01*
X45395227Y-63541196D01*
X45371429Y-63535235D01*
X45348329Y-63526970D01*
X45326151Y-63516480D01*
X45305107Y-63503867D01*
X45285402Y-63489253D01*
X45267223Y-63472777D01*
X45250747Y-63454598D01*
X45236133Y-63434893D01*
X45223520Y-63413849D01*
X45213030Y-63391671D01*
X45204765Y-63368571D01*
X45198804Y-63344773D01*
X45195204Y-63320504D01*
X45194000Y-63296000D01*
X45194000Y-60296000D01*
X45195204Y-60271496D01*
X45198804Y-60247227D01*
X45204765Y-60223429D01*
X45213030Y-60200329D01*
X45223520Y-60178151D01*
X45236133Y-60157107D01*
X45250747Y-60137402D01*
X45267223Y-60119223D01*
X45285402Y-60102747D01*
X45305107Y-60088133D01*
X45326151Y-60075520D01*
X45348329Y-60065030D01*
X45371429Y-60056765D01*
X45395227Y-60050804D01*
X45419496Y-60047204D01*
X45444000Y-60046000D01*
X46544000Y-60046000D01*
X46568504Y-60047204D01*
X46568504Y-60047204D01*
G37*
D13*
X45994000Y-61796000D03*
G04 #@! TD*
D10*
G04 #@! TO.C,C6*
G36*
X96474142Y-66109674D02*
X96497803Y-66113184D01*
X96521007Y-66118996D01*
X96543529Y-66127054D01*
X96565153Y-66137282D01*
X96585670Y-66149579D01*
X96604883Y-66163829D01*
X96622607Y-66179893D01*
X96638671Y-66197617D01*
X96652921Y-66216830D01*
X96665218Y-66237347D01*
X96675446Y-66258971D01*
X96683504Y-66281493D01*
X96689316Y-66304697D01*
X96692826Y-66328358D01*
X96694000Y-66352250D01*
X96694000Y-66839750D01*
X96692826Y-66863642D01*
X96689316Y-66887303D01*
X96683504Y-66910507D01*
X96675446Y-66933029D01*
X96665218Y-66954653D01*
X96652921Y-66975170D01*
X96638671Y-66994383D01*
X96622607Y-67012107D01*
X96604883Y-67028171D01*
X96585670Y-67042421D01*
X96565153Y-67054718D01*
X96543529Y-67064946D01*
X96521007Y-67073004D01*
X96497803Y-67078816D01*
X96474142Y-67082326D01*
X96450250Y-67083500D01*
X95537750Y-67083500D01*
X95513858Y-67082326D01*
X95490197Y-67078816D01*
X95466993Y-67073004D01*
X95444471Y-67064946D01*
X95422847Y-67054718D01*
X95402330Y-67042421D01*
X95383117Y-67028171D01*
X95365393Y-67012107D01*
X95349329Y-66994383D01*
X95335079Y-66975170D01*
X95322782Y-66954653D01*
X95312554Y-66933029D01*
X95304496Y-66910507D01*
X95298684Y-66887303D01*
X95295174Y-66863642D01*
X95294000Y-66839750D01*
X95294000Y-66352250D01*
X95295174Y-66328358D01*
X95298684Y-66304697D01*
X95304496Y-66281493D01*
X95312554Y-66258971D01*
X95322782Y-66237347D01*
X95335079Y-66216830D01*
X95349329Y-66197617D01*
X95365393Y-66179893D01*
X95383117Y-66163829D01*
X95402330Y-66149579D01*
X95422847Y-66137282D01*
X95444471Y-66127054D01*
X95466993Y-66118996D01*
X95490197Y-66113184D01*
X95513858Y-66109674D01*
X95537750Y-66108500D01*
X96450250Y-66108500D01*
X96474142Y-66109674D01*
X96474142Y-66109674D01*
G37*
D11*
X95994000Y-66596000D03*
D10*
G36*
X96474142Y-64234674D02*
X96497803Y-64238184D01*
X96521007Y-64243996D01*
X96543529Y-64252054D01*
X96565153Y-64262282D01*
X96585670Y-64274579D01*
X96604883Y-64288829D01*
X96622607Y-64304893D01*
X96638671Y-64322617D01*
X96652921Y-64341830D01*
X96665218Y-64362347D01*
X96675446Y-64383971D01*
X96683504Y-64406493D01*
X96689316Y-64429697D01*
X96692826Y-64453358D01*
X96694000Y-64477250D01*
X96694000Y-64964750D01*
X96692826Y-64988642D01*
X96689316Y-65012303D01*
X96683504Y-65035507D01*
X96675446Y-65058029D01*
X96665218Y-65079653D01*
X96652921Y-65100170D01*
X96638671Y-65119383D01*
X96622607Y-65137107D01*
X96604883Y-65153171D01*
X96585670Y-65167421D01*
X96565153Y-65179718D01*
X96543529Y-65189946D01*
X96521007Y-65198004D01*
X96497803Y-65203816D01*
X96474142Y-65207326D01*
X96450250Y-65208500D01*
X95537750Y-65208500D01*
X95513858Y-65207326D01*
X95490197Y-65203816D01*
X95466993Y-65198004D01*
X95444471Y-65189946D01*
X95422847Y-65179718D01*
X95402330Y-65167421D01*
X95383117Y-65153171D01*
X95365393Y-65137107D01*
X95349329Y-65119383D01*
X95335079Y-65100170D01*
X95322782Y-65079653D01*
X95312554Y-65058029D01*
X95304496Y-65035507D01*
X95298684Y-65012303D01*
X95295174Y-64988642D01*
X95294000Y-64964750D01*
X95294000Y-64477250D01*
X95295174Y-64453358D01*
X95298684Y-64429697D01*
X95304496Y-64406493D01*
X95312554Y-64383971D01*
X95322782Y-64362347D01*
X95335079Y-64341830D01*
X95349329Y-64322617D01*
X95365393Y-64304893D01*
X95383117Y-64288829D01*
X95402330Y-64274579D01*
X95422847Y-64262282D01*
X95444471Y-64252054D01*
X95466993Y-64243996D01*
X95490197Y-64238184D01*
X95513858Y-64234674D01*
X95537750Y-64233500D01*
X96450250Y-64233500D01*
X96474142Y-64234674D01*
X96474142Y-64234674D01*
G37*
D11*
X95994000Y-64721000D03*
G04 #@! TD*
D10*
G04 #@! TO.C,C7*
G36*
X93474142Y-64234674D02*
X93497803Y-64238184D01*
X93521007Y-64243996D01*
X93543529Y-64252054D01*
X93565153Y-64262282D01*
X93585670Y-64274579D01*
X93604883Y-64288829D01*
X93622607Y-64304893D01*
X93638671Y-64322617D01*
X93652921Y-64341830D01*
X93665218Y-64362347D01*
X93675446Y-64383971D01*
X93683504Y-64406493D01*
X93689316Y-64429697D01*
X93692826Y-64453358D01*
X93694000Y-64477250D01*
X93694000Y-64964750D01*
X93692826Y-64988642D01*
X93689316Y-65012303D01*
X93683504Y-65035507D01*
X93675446Y-65058029D01*
X93665218Y-65079653D01*
X93652921Y-65100170D01*
X93638671Y-65119383D01*
X93622607Y-65137107D01*
X93604883Y-65153171D01*
X93585670Y-65167421D01*
X93565153Y-65179718D01*
X93543529Y-65189946D01*
X93521007Y-65198004D01*
X93497803Y-65203816D01*
X93474142Y-65207326D01*
X93450250Y-65208500D01*
X92537750Y-65208500D01*
X92513858Y-65207326D01*
X92490197Y-65203816D01*
X92466993Y-65198004D01*
X92444471Y-65189946D01*
X92422847Y-65179718D01*
X92402330Y-65167421D01*
X92383117Y-65153171D01*
X92365393Y-65137107D01*
X92349329Y-65119383D01*
X92335079Y-65100170D01*
X92322782Y-65079653D01*
X92312554Y-65058029D01*
X92304496Y-65035507D01*
X92298684Y-65012303D01*
X92295174Y-64988642D01*
X92294000Y-64964750D01*
X92294000Y-64477250D01*
X92295174Y-64453358D01*
X92298684Y-64429697D01*
X92304496Y-64406493D01*
X92312554Y-64383971D01*
X92322782Y-64362347D01*
X92335079Y-64341830D01*
X92349329Y-64322617D01*
X92365393Y-64304893D01*
X92383117Y-64288829D01*
X92402330Y-64274579D01*
X92422847Y-64262282D01*
X92444471Y-64252054D01*
X92466993Y-64243996D01*
X92490197Y-64238184D01*
X92513858Y-64234674D01*
X92537750Y-64233500D01*
X93450250Y-64233500D01*
X93474142Y-64234674D01*
X93474142Y-64234674D01*
G37*
D11*
X92994000Y-64721000D03*
D10*
G36*
X93474142Y-66109674D02*
X93497803Y-66113184D01*
X93521007Y-66118996D01*
X93543529Y-66127054D01*
X93565153Y-66137282D01*
X93585670Y-66149579D01*
X93604883Y-66163829D01*
X93622607Y-66179893D01*
X93638671Y-66197617D01*
X93652921Y-66216830D01*
X93665218Y-66237347D01*
X93675446Y-66258971D01*
X93683504Y-66281493D01*
X93689316Y-66304697D01*
X93692826Y-66328358D01*
X93694000Y-66352250D01*
X93694000Y-66839750D01*
X93692826Y-66863642D01*
X93689316Y-66887303D01*
X93683504Y-66910507D01*
X93675446Y-66933029D01*
X93665218Y-66954653D01*
X93652921Y-66975170D01*
X93638671Y-66994383D01*
X93622607Y-67012107D01*
X93604883Y-67028171D01*
X93585670Y-67042421D01*
X93565153Y-67054718D01*
X93543529Y-67064946D01*
X93521007Y-67073004D01*
X93497803Y-67078816D01*
X93474142Y-67082326D01*
X93450250Y-67083500D01*
X92537750Y-67083500D01*
X92513858Y-67082326D01*
X92490197Y-67078816D01*
X92466993Y-67073004D01*
X92444471Y-67064946D01*
X92422847Y-67054718D01*
X92402330Y-67042421D01*
X92383117Y-67028171D01*
X92365393Y-67012107D01*
X92349329Y-66994383D01*
X92335079Y-66975170D01*
X92322782Y-66954653D01*
X92312554Y-66933029D01*
X92304496Y-66910507D01*
X92298684Y-66887303D01*
X92295174Y-66863642D01*
X92294000Y-66839750D01*
X92294000Y-66352250D01*
X92295174Y-66328358D01*
X92298684Y-66304697D01*
X92304496Y-66281493D01*
X92312554Y-66258971D01*
X92322782Y-66237347D01*
X92335079Y-66216830D01*
X92349329Y-66197617D01*
X92365393Y-66179893D01*
X92383117Y-66163829D01*
X92402330Y-66149579D01*
X92422847Y-66137282D01*
X92444471Y-66127054D01*
X92466993Y-66118996D01*
X92490197Y-66113184D01*
X92513858Y-66109674D01*
X92537750Y-66108500D01*
X93450250Y-66108500D01*
X93474142Y-66109674D01*
X93474142Y-66109674D01*
G37*
D11*
X92994000Y-66596000D03*
G04 #@! TD*
D10*
G04 #@! TO.C,C8*
G36*
X80018504Y-71097204D02*
X80042773Y-71100804D01*
X80066571Y-71106765D01*
X80089671Y-71115030D01*
X80111849Y-71125520D01*
X80132893Y-71138133D01*
X80152598Y-71152747D01*
X80170777Y-71169223D01*
X80187253Y-71187402D01*
X80201867Y-71207107D01*
X80214480Y-71228151D01*
X80224970Y-71250329D01*
X80233235Y-71273429D01*
X80239196Y-71297227D01*
X80242796Y-71321496D01*
X80244000Y-71346000D01*
X80244000Y-74346000D01*
X80242796Y-74370504D01*
X80239196Y-74394773D01*
X80233235Y-74418571D01*
X80224970Y-74441671D01*
X80214480Y-74463849D01*
X80201867Y-74484893D01*
X80187253Y-74504598D01*
X80170777Y-74522777D01*
X80152598Y-74539253D01*
X80132893Y-74553867D01*
X80111849Y-74566480D01*
X80089671Y-74576970D01*
X80066571Y-74585235D01*
X80042773Y-74591196D01*
X80018504Y-74594796D01*
X79994000Y-74596000D01*
X77994000Y-74596000D01*
X77969496Y-74594796D01*
X77945227Y-74591196D01*
X77921429Y-74585235D01*
X77898329Y-74576970D01*
X77876151Y-74566480D01*
X77855107Y-74553867D01*
X77835402Y-74539253D01*
X77817223Y-74522777D01*
X77800747Y-74504598D01*
X77786133Y-74484893D01*
X77773520Y-74463849D01*
X77763030Y-74441671D01*
X77754765Y-74418571D01*
X77748804Y-74394773D01*
X77745204Y-74370504D01*
X77744000Y-74346000D01*
X77744000Y-71346000D01*
X77745204Y-71321496D01*
X77748804Y-71297227D01*
X77754765Y-71273429D01*
X77763030Y-71250329D01*
X77773520Y-71228151D01*
X77786133Y-71207107D01*
X77800747Y-71187402D01*
X77817223Y-71169223D01*
X77835402Y-71152747D01*
X77855107Y-71138133D01*
X77876151Y-71125520D01*
X77898329Y-71115030D01*
X77921429Y-71106765D01*
X77945227Y-71100804D01*
X77969496Y-71097204D01*
X77994000Y-71096000D01*
X79994000Y-71096000D01*
X80018504Y-71097204D01*
X80018504Y-71097204D01*
G37*
D14*
X78994000Y-72846000D03*
D10*
G36*
X80018504Y-64597204D02*
X80042773Y-64600804D01*
X80066571Y-64606765D01*
X80089671Y-64615030D01*
X80111849Y-64625520D01*
X80132893Y-64638133D01*
X80152598Y-64652747D01*
X80170777Y-64669223D01*
X80187253Y-64687402D01*
X80201867Y-64707107D01*
X80214480Y-64728151D01*
X80224970Y-64750329D01*
X80233235Y-64773429D01*
X80239196Y-64797227D01*
X80242796Y-64821496D01*
X80244000Y-64846000D01*
X80244000Y-67846000D01*
X80242796Y-67870504D01*
X80239196Y-67894773D01*
X80233235Y-67918571D01*
X80224970Y-67941671D01*
X80214480Y-67963849D01*
X80201867Y-67984893D01*
X80187253Y-68004598D01*
X80170777Y-68022777D01*
X80152598Y-68039253D01*
X80132893Y-68053867D01*
X80111849Y-68066480D01*
X80089671Y-68076970D01*
X80066571Y-68085235D01*
X80042773Y-68091196D01*
X80018504Y-68094796D01*
X79994000Y-68096000D01*
X77994000Y-68096000D01*
X77969496Y-68094796D01*
X77945227Y-68091196D01*
X77921429Y-68085235D01*
X77898329Y-68076970D01*
X77876151Y-68066480D01*
X77855107Y-68053867D01*
X77835402Y-68039253D01*
X77817223Y-68022777D01*
X77800747Y-68004598D01*
X77786133Y-67984893D01*
X77773520Y-67963849D01*
X77763030Y-67941671D01*
X77754765Y-67918571D01*
X77748804Y-67894773D01*
X77745204Y-67870504D01*
X77744000Y-67846000D01*
X77744000Y-64846000D01*
X77745204Y-64821496D01*
X77748804Y-64797227D01*
X77754765Y-64773429D01*
X77763030Y-64750329D01*
X77773520Y-64728151D01*
X77786133Y-64707107D01*
X77800747Y-64687402D01*
X77817223Y-64669223D01*
X77835402Y-64652747D01*
X77855107Y-64638133D01*
X77876151Y-64625520D01*
X77898329Y-64615030D01*
X77921429Y-64606765D01*
X77945227Y-64600804D01*
X77969496Y-64597204D01*
X77994000Y-64596000D01*
X79994000Y-64596000D01*
X80018504Y-64597204D01*
X80018504Y-64597204D01*
G37*
D14*
X78994000Y-66346000D03*
G04 #@! TD*
D10*
G04 #@! TO.C,C9*
G36*
X91474142Y-165847174D02*
X91497803Y-165850684D01*
X91521007Y-165856496D01*
X91543529Y-165864554D01*
X91565153Y-165874782D01*
X91585670Y-165887079D01*
X91604883Y-165901329D01*
X91622607Y-165917393D01*
X91638671Y-165935117D01*
X91652921Y-165954330D01*
X91665218Y-165974847D01*
X91675446Y-165996471D01*
X91683504Y-166018993D01*
X91689316Y-166042197D01*
X91692826Y-166065858D01*
X91694000Y-166089750D01*
X91694000Y-166577250D01*
X91692826Y-166601142D01*
X91689316Y-166624803D01*
X91683504Y-166648007D01*
X91675446Y-166670529D01*
X91665218Y-166692153D01*
X91652921Y-166712670D01*
X91638671Y-166731883D01*
X91622607Y-166749607D01*
X91604883Y-166765671D01*
X91585670Y-166779921D01*
X91565153Y-166792218D01*
X91543529Y-166802446D01*
X91521007Y-166810504D01*
X91497803Y-166816316D01*
X91474142Y-166819826D01*
X91450250Y-166821000D01*
X90537750Y-166821000D01*
X90513858Y-166819826D01*
X90490197Y-166816316D01*
X90466993Y-166810504D01*
X90444471Y-166802446D01*
X90422847Y-166792218D01*
X90402330Y-166779921D01*
X90383117Y-166765671D01*
X90365393Y-166749607D01*
X90349329Y-166731883D01*
X90335079Y-166712670D01*
X90322782Y-166692153D01*
X90312554Y-166670529D01*
X90304496Y-166648007D01*
X90298684Y-166624803D01*
X90295174Y-166601142D01*
X90294000Y-166577250D01*
X90294000Y-166089750D01*
X90295174Y-166065858D01*
X90298684Y-166042197D01*
X90304496Y-166018993D01*
X90312554Y-165996471D01*
X90322782Y-165974847D01*
X90335079Y-165954330D01*
X90349329Y-165935117D01*
X90365393Y-165917393D01*
X90383117Y-165901329D01*
X90402330Y-165887079D01*
X90422847Y-165874782D01*
X90444471Y-165864554D01*
X90466993Y-165856496D01*
X90490197Y-165850684D01*
X90513858Y-165847174D01*
X90537750Y-165846000D01*
X91450250Y-165846000D01*
X91474142Y-165847174D01*
X91474142Y-165847174D01*
G37*
D11*
X90994000Y-166333500D03*
D10*
G36*
X91474142Y-163972174D02*
X91497803Y-163975684D01*
X91521007Y-163981496D01*
X91543529Y-163989554D01*
X91565153Y-163999782D01*
X91585670Y-164012079D01*
X91604883Y-164026329D01*
X91622607Y-164042393D01*
X91638671Y-164060117D01*
X91652921Y-164079330D01*
X91665218Y-164099847D01*
X91675446Y-164121471D01*
X91683504Y-164143993D01*
X91689316Y-164167197D01*
X91692826Y-164190858D01*
X91694000Y-164214750D01*
X91694000Y-164702250D01*
X91692826Y-164726142D01*
X91689316Y-164749803D01*
X91683504Y-164773007D01*
X91675446Y-164795529D01*
X91665218Y-164817153D01*
X91652921Y-164837670D01*
X91638671Y-164856883D01*
X91622607Y-164874607D01*
X91604883Y-164890671D01*
X91585670Y-164904921D01*
X91565153Y-164917218D01*
X91543529Y-164927446D01*
X91521007Y-164935504D01*
X91497803Y-164941316D01*
X91474142Y-164944826D01*
X91450250Y-164946000D01*
X90537750Y-164946000D01*
X90513858Y-164944826D01*
X90490197Y-164941316D01*
X90466993Y-164935504D01*
X90444471Y-164927446D01*
X90422847Y-164917218D01*
X90402330Y-164904921D01*
X90383117Y-164890671D01*
X90365393Y-164874607D01*
X90349329Y-164856883D01*
X90335079Y-164837670D01*
X90322782Y-164817153D01*
X90312554Y-164795529D01*
X90304496Y-164773007D01*
X90298684Y-164749803D01*
X90295174Y-164726142D01*
X90294000Y-164702250D01*
X90294000Y-164214750D01*
X90295174Y-164190858D01*
X90298684Y-164167197D01*
X90304496Y-164143993D01*
X90312554Y-164121471D01*
X90322782Y-164099847D01*
X90335079Y-164079330D01*
X90349329Y-164060117D01*
X90365393Y-164042393D01*
X90383117Y-164026329D01*
X90402330Y-164012079D01*
X90422847Y-163999782D01*
X90444471Y-163989554D01*
X90466993Y-163981496D01*
X90490197Y-163975684D01*
X90513858Y-163972174D01*
X90537750Y-163971000D01*
X91450250Y-163971000D01*
X91474142Y-163972174D01*
X91474142Y-163972174D01*
G37*
D11*
X90994000Y-164458500D03*
G04 #@! TD*
D10*
G04 #@! TO.C,C10*
G36*
X80318504Y-159097204D02*
X80342773Y-159100804D01*
X80366571Y-159106765D01*
X80389671Y-159115030D01*
X80411849Y-159125520D01*
X80432893Y-159138133D01*
X80452598Y-159152747D01*
X80470777Y-159169223D01*
X80487253Y-159187402D01*
X80501867Y-159207107D01*
X80514480Y-159228151D01*
X80524970Y-159250329D01*
X80533235Y-159273429D01*
X80539196Y-159297227D01*
X80542796Y-159321496D01*
X80544000Y-159346000D01*
X80544000Y-160446000D01*
X80542796Y-160470504D01*
X80539196Y-160494773D01*
X80533235Y-160518571D01*
X80524970Y-160541671D01*
X80514480Y-160563849D01*
X80501867Y-160584893D01*
X80487253Y-160604598D01*
X80470777Y-160622777D01*
X80452598Y-160639253D01*
X80432893Y-160653867D01*
X80411849Y-160666480D01*
X80389671Y-160676970D01*
X80366571Y-160685235D01*
X80342773Y-160691196D01*
X80318504Y-160694796D01*
X80294000Y-160696000D01*
X77294000Y-160696000D01*
X77269496Y-160694796D01*
X77245227Y-160691196D01*
X77221429Y-160685235D01*
X77198329Y-160676970D01*
X77176151Y-160666480D01*
X77155107Y-160653867D01*
X77135402Y-160639253D01*
X77117223Y-160622777D01*
X77100747Y-160604598D01*
X77086133Y-160584893D01*
X77073520Y-160563849D01*
X77063030Y-160541671D01*
X77054765Y-160518571D01*
X77048804Y-160494773D01*
X77045204Y-160470504D01*
X77044000Y-160446000D01*
X77044000Y-159346000D01*
X77045204Y-159321496D01*
X77048804Y-159297227D01*
X77054765Y-159273429D01*
X77063030Y-159250329D01*
X77073520Y-159228151D01*
X77086133Y-159207107D01*
X77100747Y-159187402D01*
X77117223Y-159169223D01*
X77135402Y-159152747D01*
X77155107Y-159138133D01*
X77176151Y-159125520D01*
X77198329Y-159115030D01*
X77221429Y-159106765D01*
X77245227Y-159100804D01*
X77269496Y-159097204D01*
X77294000Y-159096000D01*
X80294000Y-159096000D01*
X80318504Y-159097204D01*
X80318504Y-159097204D01*
G37*
D13*
X78794000Y-159896000D03*
D10*
G36*
X85718504Y-159097204D02*
X85742773Y-159100804D01*
X85766571Y-159106765D01*
X85789671Y-159115030D01*
X85811849Y-159125520D01*
X85832893Y-159138133D01*
X85852598Y-159152747D01*
X85870777Y-159169223D01*
X85887253Y-159187402D01*
X85901867Y-159207107D01*
X85914480Y-159228151D01*
X85924970Y-159250329D01*
X85933235Y-159273429D01*
X85939196Y-159297227D01*
X85942796Y-159321496D01*
X85944000Y-159346000D01*
X85944000Y-160446000D01*
X85942796Y-160470504D01*
X85939196Y-160494773D01*
X85933235Y-160518571D01*
X85924970Y-160541671D01*
X85914480Y-160563849D01*
X85901867Y-160584893D01*
X85887253Y-160604598D01*
X85870777Y-160622777D01*
X85852598Y-160639253D01*
X85832893Y-160653867D01*
X85811849Y-160666480D01*
X85789671Y-160676970D01*
X85766571Y-160685235D01*
X85742773Y-160691196D01*
X85718504Y-160694796D01*
X85694000Y-160696000D01*
X82694000Y-160696000D01*
X82669496Y-160694796D01*
X82645227Y-160691196D01*
X82621429Y-160685235D01*
X82598329Y-160676970D01*
X82576151Y-160666480D01*
X82555107Y-160653867D01*
X82535402Y-160639253D01*
X82517223Y-160622777D01*
X82500747Y-160604598D01*
X82486133Y-160584893D01*
X82473520Y-160563849D01*
X82463030Y-160541671D01*
X82454765Y-160518571D01*
X82448804Y-160494773D01*
X82445204Y-160470504D01*
X82444000Y-160446000D01*
X82444000Y-159346000D01*
X82445204Y-159321496D01*
X82448804Y-159297227D01*
X82454765Y-159273429D01*
X82463030Y-159250329D01*
X82473520Y-159228151D01*
X82486133Y-159207107D01*
X82500747Y-159187402D01*
X82517223Y-159169223D01*
X82535402Y-159152747D01*
X82555107Y-159138133D01*
X82576151Y-159125520D01*
X82598329Y-159115030D01*
X82621429Y-159106765D01*
X82645227Y-159100804D01*
X82669496Y-159097204D01*
X82694000Y-159096000D01*
X85694000Y-159096000D01*
X85718504Y-159097204D01*
X85718504Y-159097204D01*
G37*
D13*
X84194000Y-159896000D03*
G04 #@! TD*
D10*
G04 #@! TO.C,C11*
G36*
X54568504Y-169847204D02*
X54592773Y-169850804D01*
X54616571Y-169856765D01*
X54639671Y-169865030D01*
X54661849Y-169875520D01*
X54682893Y-169888133D01*
X54702598Y-169902747D01*
X54720777Y-169919223D01*
X54737253Y-169937402D01*
X54751867Y-169957107D01*
X54764480Y-169978151D01*
X54774970Y-170000329D01*
X54783235Y-170023429D01*
X54789196Y-170047227D01*
X54792796Y-170071496D01*
X54794000Y-170096000D01*
X54794000Y-173096000D01*
X54792796Y-173120504D01*
X54789196Y-173144773D01*
X54783235Y-173168571D01*
X54774970Y-173191671D01*
X54764480Y-173213849D01*
X54751867Y-173234893D01*
X54737253Y-173254598D01*
X54720777Y-173272777D01*
X54702598Y-173289253D01*
X54682893Y-173303867D01*
X54661849Y-173316480D01*
X54639671Y-173326970D01*
X54616571Y-173335235D01*
X54592773Y-173341196D01*
X54568504Y-173344796D01*
X54544000Y-173346000D01*
X53444000Y-173346000D01*
X53419496Y-173344796D01*
X53395227Y-173341196D01*
X53371429Y-173335235D01*
X53348329Y-173326970D01*
X53326151Y-173316480D01*
X53305107Y-173303867D01*
X53285402Y-173289253D01*
X53267223Y-173272777D01*
X53250747Y-173254598D01*
X53236133Y-173234893D01*
X53223520Y-173213849D01*
X53213030Y-173191671D01*
X53204765Y-173168571D01*
X53198804Y-173144773D01*
X53195204Y-173120504D01*
X53194000Y-173096000D01*
X53194000Y-170096000D01*
X53195204Y-170071496D01*
X53198804Y-170047227D01*
X53204765Y-170023429D01*
X53213030Y-170000329D01*
X53223520Y-169978151D01*
X53236133Y-169957107D01*
X53250747Y-169937402D01*
X53267223Y-169919223D01*
X53285402Y-169902747D01*
X53305107Y-169888133D01*
X53326151Y-169875520D01*
X53348329Y-169865030D01*
X53371429Y-169856765D01*
X53395227Y-169850804D01*
X53419496Y-169847204D01*
X53444000Y-169846000D01*
X54544000Y-169846000D01*
X54568504Y-169847204D01*
X54568504Y-169847204D01*
G37*
D13*
X53994000Y-171596000D03*
D10*
G36*
X54568504Y-175447204D02*
X54592773Y-175450804D01*
X54616571Y-175456765D01*
X54639671Y-175465030D01*
X54661849Y-175475520D01*
X54682893Y-175488133D01*
X54702598Y-175502747D01*
X54720777Y-175519223D01*
X54737253Y-175537402D01*
X54751867Y-175557107D01*
X54764480Y-175578151D01*
X54774970Y-175600329D01*
X54783235Y-175623429D01*
X54789196Y-175647227D01*
X54792796Y-175671496D01*
X54794000Y-175696000D01*
X54794000Y-178696000D01*
X54792796Y-178720504D01*
X54789196Y-178744773D01*
X54783235Y-178768571D01*
X54774970Y-178791671D01*
X54764480Y-178813849D01*
X54751867Y-178834893D01*
X54737253Y-178854598D01*
X54720777Y-178872777D01*
X54702598Y-178889253D01*
X54682893Y-178903867D01*
X54661849Y-178916480D01*
X54639671Y-178926970D01*
X54616571Y-178935235D01*
X54592773Y-178941196D01*
X54568504Y-178944796D01*
X54544000Y-178946000D01*
X53444000Y-178946000D01*
X53419496Y-178944796D01*
X53395227Y-178941196D01*
X53371429Y-178935235D01*
X53348329Y-178926970D01*
X53326151Y-178916480D01*
X53305107Y-178903867D01*
X53285402Y-178889253D01*
X53267223Y-178872777D01*
X53250747Y-178854598D01*
X53236133Y-178834893D01*
X53223520Y-178813849D01*
X53213030Y-178791671D01*
X53204765Y-178768571D01*
X53198804Y-178744773D01*
X53195204Y-178720504D01*
X53194000Y-178696000D01*
X53194000Y-175696000D01*
X53195204Y-175671496D01*
X53198804Y-175647227D01*
X53204765Y-175623429D01*
X53213030Y-175600329D01*
X53223520Y-175578151D01*
X53236133Y-175557107D01*
X53250747Y-175537402D01*
X53267223Y-175519223D01*
X53285402Y-175502747D01*
X53305107Y-175488133D01*
X53326151Y-175475520D01*
X53348329Y-175465030D01*
X53371429Y-175456765D01*
X53395227Y-175450804D01*
X53419496Y-175447204D01*
X53444000Y-175446000D01*
X54544000Y-175446000D01*
X54568504Y-175447204D01*
X54568504Y-175447204D01*
G37*
D13*
X53994000Y-177196000D03*
G04 #@! TD*
D10*
G04 #@! TO.C,C12*
G36*
X91474142Y-181909674D02*
X91497803Y-181913184D01*
X91521007Y-181918996D01*
X91543529Y-181927054D01*
X91565153Y-181937282D01*
X91585670Y-181949579D01*
X91604883Y-181963829D01*
X91622607Y-181979893D01*
X91638671Y-181997617D01*
X91652921Y-182016830D01*
X91665218Y-182037347D01*
X91675446Y-182058971D01*
X91683504Y-182081493D01*
X91689316Y-182104697D01*
X91692826Y-182128358D01*
X91694000Y-182152250D01*
X91694000Y-182639750D01*
X91692826Y-182663642D01*
X91689316Y-182687303D01*
X91683504Y-182710507D01*
X91675446Y-182733029D01*
X91665218Y-182754653D01*
X91652921Y-182775170D01*
X91638671Y-182794383D01*
X91622607Y-182812107D01*
X91604883Y-182828171D01*
X91585670Y-182842421D01*
X91565153Y-182854718D01*
X91543529Y-182864946D01*
X91521007Y-182873004D01*
X91497803Y-182878816D01*
X91474142Y-182882326D01*
X91450250Y-182883500D01*
X90537750Y-182883500D01*
X90513858Y-182882326D01*
X90490197Y-182878816D01*
X90466993Y-182873004D01*
X90444471Y-182864946D01*
X90422847Y-182854718D01*
X90402330Y-182842421D01*
X90383117Y-182828171D01*
X90365393Y-182812107D01*
X90349329Y-182794383D01*
X90335079Y-182775170D01*
X90322782Y-182754653D01*
X90312554Y-182733029D01*
X90304496Y-182710507D01*
X90298684Y-182687303D01*
X90295174Y-182663642D01*
X90294000Y-182639750D01*
X90294000Y-182152250D01*
X90295174Y-182128358D01*
X90298684Y-182104697D01*
X90304496Y-182081493D01*
X90312554Y-182058971D01*
X90322782Y-182037347D01*
X90335079Y-182016830D01*
X90349329Y-181997617D01*
X90365393Y-181979893D01*
X90383117Y-181963829D01*
X90402330Y-181949579D01*
X90422847Y-181937282D01*
X90444471Y-181927054D01*
X90466993Y-181918996D01*
X90490197Y-181913184D01*
X90513858Y-181909674D01*
X90537750Y-181908500D01*
X91450250Y-181908500D01*
X91474142Y-181909674D01*
X91474142Y-181909674D01*
G37*
D11*
X90994000Y-182396000D03*
D10*
G36*
X91474142Y-183784674D02*
X91497803Y-183788184D01*
X91521007Y-183793996D01*
X91543529Y-183802054D01*
X91565153Y-183812282D01*
X91585670Y-183824579D01*
X91604883Y-183838829D01*
X91622607Y-183854893D01*
X91638671Y-183872617D01*
X91652921Y-183891830D01*
X91665218Y-183912347D01*
X91675446Y-183933971D01*
X91683504Y-183956493D01*
X91689316Y-183979697D01*
X91692826Y-184003358D01*
X91694000Y-184027250D01*
X91694000Y-184514750D01*
X91692826Y-184538642D01*
X91689316Y-184562303D01*
X91683504Y-184585507D01*
X91675446Y-184608029D01*
X91665218Y-184629653D01*
X91652921Y-184650170D01*
X91638671Y-184669383D01*
X91622607Y-184687107D01*
X91604883Y-184703171D01*
X91585670Y-184717421D01*
X91565153Y-184729718D01*
X91543529Y-184739946D01*
X91521007Y-184748004D01*
X91497803Y-184753816D01*
X91474142Y-184757326D01*
X91450250Y-184758500D01*
X90537750Y-184758500D01*
X90513858Y-184757326D01*
X90490197Y-184753816D01*
X90466993Y-184748004D01*
X90444471Y-184739946D01*
X90422847Y-184729718D01*
X90402330Y-184717421D01*
X90383117Y-184703171D01*
X90365393Y-184687107D01*
X90349329Y-184669383D01*
X90335079Y-184650170D01*
X90322782Y-184629653D01*
X90312554Y-184608029D01*
X90304496Y-184585507D01*
X90298684Y-184562303D01*
X90295174Y-184538642D01*
X90294000Y-184514750D01*
X90294000Y-184027250D01*
X90295174Y-184003358D01*
X90298684Y-183979697D01*
X90304496Y-183956493D01*
X90312554Y-183933971D01*
X90322782Y-183912347D01*
X90335079Y-183891830D01*
X90349329Y-183872617D01*
X90365393Y-183854893D01*
X90383117Y-183838829D01*
X90402330Y-183824579D01*
X90422847Y-183812282D01*
X90444471Y-183802054D01*
X90466993Y-183793996D01*
X90490197Y-183788184D01*
X90513858Y-183784674D01*
X90537750Y-183783500D01*
X91450250Y-183783500D01*
X91474142Y-183784674D01*
X91474142Y-183784674D01*
G37*
D11*
X90994000Y-184271000D03*
G04 #@! TD*
D10*
G04 #@! TO.C,C13*
G36*
X80318504Y-188097204D02*
X80342773Y-188100804D01*
X80366571Y-188106765D01*
X80389671Y-188115030D01*
X80411849Y-188125520D01*
X80432893Y-188138133D01*
X80452598Y-188152747D01*
X80470777Y-188169223D01*
X80487253Y-188187402D01*
X80501867Y-188207107D01*
X80514480Y-188228151D01*
X80524970Y-188250329D01*
X80533235Y-188273429D01*
X80539196Y-188297227D01*
X80542796Y-188321496D01*
X80544000Y-188346000D01*
X80544000Y-189446000D01*
X80542796Y-189470504D01*
X80539196Y-189494773D01*
X80533235Y-189518571D01*
X80524970Y-189541671D01*
X80514480Y-189563849D01*
X80501867Y-189584893D01*
X80487253Y-189604598D01*
X80470777Y-189622777D01*
X80452598Y-189639253D01*
X80432893Y-189653867D01*
X80411849Y-189666480D01*
X80389671Y-189676970D01*
X80366571Y-189685235D01*
X80342773Y-189691196D01*
X80318504Y-189694796D01*
X80294000Y-189696000D01*
X77294000Y-189696000D01*
X77269496Y-189694796D01*
X77245227Y-189691196D01*
X77221429Y-189685235D01*
X77198329Y-189676970D01*
X77176151Y-189666480D01*
X77155107Y-189653867D01*
X77135402Y-189639253D01*
X77117223Y-189622777D01*
X77100747Y-189604598D01*
X77086133Y-189584893D01*
X77073520Y-189563849D01*
X77063030Y-189541671D01*
X77054765Y-189518571D01*
X77048804Y-189494773D01*
X77045204Y-189470504D01*
X77044000Y-189446000D01*
X77044000Y-188346000D01*
X77045204Y-188321496D01*
X77048804Y-188297227D01*
X77054765Y-188273429D01*
X77063030Y-188250329D01*
X77073520Y-188228151D01*
X77086133Y-188207107D01*
X77100747Y-188187402D01*
X77117223Y-188169223D01*
X77135402Y-188152747D01*
X77155107Y-188138133D01*
X77176151Y-188125520D01*
X77198329Y-188115030D01*
X77221429Y-188106765D01*
X77245227Y-188100804D01*
X77269496Y-188097204D01*
X77294000Y-188096000D01*
X80294000Y-188096000D01*
X80318504Y-188097204D01*
X80318504Y-188097204D01*
G37*
D13*
X78794000Y-188896000D03*
D10*
G36*
X85718504Y-188097204D02*
X85742773Y-188100804D01*
X85766571Y-188106765D01*
X85789671Y-188115030D01*
X85811849Y-188125520D01*
X85832893Y-188138133D01*
X85852598Y-188152747D01*
X85870777Y-188169223D01*
X85887253Y-188187402D01*
X85901867Y-188207107D01*
X85914480Y-188228151D01*
X85924970Y-188250329D01*
X85933235Y-188273429D01*
X85939196Y-188297227D01*
X85942796Y-188321496D01*
X85944000Y-188346000D01*
X85944000Y-189446000D01*
X85942796Y-189470504D01*
X85939196Y-189494773D01*
X85933235Y-189518571D01*
X85924970Y-189541671D01*
X85914480Y-189563849D01*
X85901867Y-189584893D01*
X85887253Y-189604598D01*
X85870777Y-189622777D01*
X85852598Y-189639253D01*
X85832893Y-189653867D01*
X85811849Y-189666480D01*
X85789671Y-189676970D01*
X85766571Y-189685235D01*
X85742773Y-189691196D01*
X85718504Y-189694796D01*
X85694000Y-189696000D01*
X82694000Y-189696000D01*
X82669496Y-189694796D01*
X82645227Y-189691196D01*
X82621429Y-189685235D01*
X82598329Y-189676970D01*
X82576151Y-189666480D01*
X82555107Y-189653867D01*
X82535402Y-189639253D01*
X82517223Y-189622777D01*
X82500747Y-189604598D01*
X82486133Y-189584893D01*
X82473520Y-189563849D01*
X82463030Y-189541671D01*
X82454765Y-189518571D01*
X82448804Y-189494773D01*
X82445204Y-189470504D01*
X82444000Y-189446000D01*
X82444000Y-188346000D01*
X82445204Y-188321496D01*
X82448804Y-188297227D01*
X82454765Y-188273429D01*
X82463030Y-188250329D01*
X82473520Y-188228151D01*
X82486133Y-188207107D01*
X82500747Y-188187402D01*
X82517223Y-188169223D01*
X82535402Y-188152747D01*
X82555107Y-188138133D01*
X82576151Y-188125520D01*
X82598329Y-188115030D01*
X82621429Y-188106765D01*
X82645227Y-188100804D01*
X82669496Y-188097204D01*
X82694000Y-188096000D01*
X85694000Y-188096000D01*
X85718504Y-188097204D01*
X85718504Y-188097204D01*
G37*
D13*
X84194000Y-188896000D03*
G04 #@! TD*
D15*
G04 #@! TO.C,D3*
X63254000Y-26766000D03*
X66754000Y-26766000D03*
G04 #@! TD*
G04 #@! TO.C,D4*
X54054000Y-26766000D03*
X57554000Y-26766000D03*
G04 #@! TD*
D16*
G04 #@! TO.C,Q1*
X84434000Y-30835196D03*
X84434000Y-32035196D03*
X84434000Y-33235196D03*
X84434000Y-34435196D03*
X84434000Y-35635196D03*
X84434000Y-36835196D03*
X84434000Y-38035196D03*
X84434000Y-39235196D03*
X83134000Y-32035196D03*
X83134000Y-33235196D03*
X83134000Y-34435196D03*
X83134000Y-35635196D03*
X83134000Y-36835196D03*
X83134000Y-38035196D03*
X81934000Y-38035196D03*
X81934000Y-36835196D03*
X81934000Y-35635196D03*
X81934000Y-33235196D03*
X81934000Y-34435196D03*
X81934000Y-32035196D03*
X80734000Y-32035196D03*
X80734000Y-33235196D03*
X80734000Y-34435196D03*
X80734000Y-35635196D03*
X80734000Y-36835196D03*
X80734000Y-38035196D03*
X79534000Y-39235196D03*
X79534000Y-38035196D03*
X79534000Y-36835196D03*
X79534000Y-35635196D03*
X79534000Y-33235196D03*
X79534000Y-34435196D03*
X79534000Y-32035196D03*
X79534000Y-30835196D03*
X78334000Y-30835196D03*
X78334000Y-32035196D03*
X78334000Y-33235196D03*
X78334000Y-34435196D03*
X78334000Y-35635196D03*
X78334000Y-36835196D03*
X78334000Y-38035196D03*
X78334000Y-39235196D03*
D17*
X73164000Y-39235196D03*
X73164000Y-38035196D03*
X73164000Y-36835196D03*
X73164000Y-30835196D03*
X73164000Y-32035196D03*
X73164000Y-33235196D03*
X73164000Y-34435196D03*
X73164000Y-35635196D03*
G04 #@! TD*
D16*
G04 #@! TO.C,Q2*
X88904000Y-39235196D03*
X88904000Y-38035196D03*
X88904000Y-36835196D03*
X88904000Y-35635196D03*
X88904000Y-34435196D03*
X88904000Y-33235196D03*
X88904000Y-32035196D03*
X88904000Y-30835196D03*
X90204000Y-38035196D03*
X90204000Y-36835196D03*
X90204000Y-35635196D03*
X90204000Y-34435196D03*
X90204000Y-33235196D03*
X90204000Y-32035196D03*
X91404000Y-32035196D03*
X91404000Y-33235196D03*
X91404000Y-34435196D03*
X91404000Y-36835196D03*
X91404000Y-35635196D03*
X91404000Y-38035196D03*
X92604000Y-38035196D03*
X92604000Y-36835196D03*
X92604000Y-35635196D03*
X92604000Y-34435196D03*
X92604000Y-33235196D03*
X92604000Y-32035196D03*
X93804000Y-30835196D03*
X93804000Y-32035196D03*
X93804000Y-33235196D03*
X93804000Y-34435196D03*
X93804000Y-36835196D03*
X93804000Y-35635196D03*
X93804000Y-38035196D03*
X93804000Y-39235196D03*
X95004000Y-39235196D03*
X95004000Y-38035196D03*
X95004000Y-36835196D03*
X95004000Y-35635196D03*
X95004000Y-34435196D03*
X95004000Y-33235196D03*
X95004000Y-32035196D03*
X95004000Y-30835196D03*
D17*
X100174000Y-30835196D03*
X100174000Y-32035196D03*
X100174000Y-33235196D03*
X100174000Y-39235196D03*
X100174000Y-38035196D03*
X100174000Y-36835196D03*
X100174000Y-35635196D03*
X100174000Y-34435196D03*
G04 #@! TD*
D12*
G04 #@! TO.C,Q3*
X33994000Y-103346000D03*
X31994000Y-102396000D03*
X31994000Y-104296000D03*
G04 #@! TD*
D10*
G04 #@! TO.C,R1*
G36*
X60884142Y-25674674D02*
X60907803Y-25678184D01*
X60931007Y-25683996D01*
X60953529Y-25692054D01*
X60975153Y-25702282D01*
X60995670Y-25714579D01*
X61014883Y-25728829D01*
X61032607Y-25744893D01*
X61048671Y-25762617D01*
X61062921Y-25781830D01*
X61075218Y-25802347D01*
X61085446Y-25823971D01*
X61093504Y-25846493D01*
X61099316Y-25869697D01*
X61102826Y-25893358D01*
X61104000Y-25917250D01*
X61104000Y-26404750D01*
X61102826Y-26428642D01*
X61099316Y-26452303D01*
X61093504Y-26475507D01*
X61085446Y-26498029D01*
X61075218Y-26519653D01*
X61062921Y-26540170D01*
X61048671Y-26559383D01*
X61032607Y-26577107D01*
X61014883Y-26593171D01*
X60995670Y-26607421D01*
X60975153Y-26619718D01*
X60953529Y-26629946D01*
X60931007Y-26638004D01*
X60907803Y-26643816D01*
X60884142Y-26647326D01*
X60860250Y-26648500D01*
X59947750Y-26648500D01*
X59923858Y-26647326D01*
X59900197Y-26643816D01*
X59876993Y-26638004D01*
X59854471Y-26629946D01*
X59832847Y-26619718D01*
X59812330Y-26607421D01*
X59793117Y-26593171D01*
X59775393Y-26577107D01*
X59759329Y-26559383D01*
X59745079Y-26540170D01*
X59732782Y-26519653D01*
X59722554Y-26498029D01*
X59714496Y-26475507D01*
X59708684Y-26452303D01*
X59705174Y-26428642D01*
X59704000Y-26404750D01*
X59704000Y-25917250D01*
X59705174Y-25893358D01*
X59708684Y-25869697D01*
X59714496Y-25846493D01*
X59722554Y-25823971D01*
X59732782Y-25802347D01*
X59745079Y-25781830D01*
X59759329Y-25762617D01*
X59775393Y-25744893D01*
X59793117Y-25728829D01*
X59812330Y-25714579D01*
X59832847Y-25702282D01*
X59854471Y-25692054D01*
X59876993Y-25683996D01*
X59900197Y-25678184D01*
X59923858Y-25674674D01*
X59947750Y-25673500D01*
X60860250Y-25673500D01*
X60884142Y-25674674D01*
X60884142Y-25674674D01*
G37*
D11*
X60404000Y-26161000D03*
D10*
G36*
X60884142Y-27549674D02*
X60907803Y-27553184D01*
X60931007Y-27558996D01*
X60953529Y-27567054D01*
X60975153Y-27577282D01*
X60995670Y-27589579D01*
X61014883Y-27603829D01*
X61032607Y-27619893D01*
X61048671Y-27637617D01*
X61062921Y-27656830D01*
X61075218Y-27677347D01*
X61085446Y-27698971D01*
X61093504Y-27721493D01*
X61099316Y-27744697D01*
X61102826Y-27768358D01*
X61104000Y-27792250D01*
X61104000Y-28279750D01*
X61102826Y-28303642D01*
X61099316Y-28327303D01*
X61093504Y-28350507D01*
X61085446Y-28373029D01*
X61075218Y-28394653D01*
X61062921Y-28415170D01*
X61048671Y-28434383D01*
X61032607Y-28452107D01*
X61014883Y-28468171D01*
X60995670Y-28482421D01*
X60975153Y-28494718D01*
X60953529Y-28504946D01*
X60931007Y-28513004D01*
X60907803Y-28518816D01*
X60884142Y-28522326D01*
X60860250Y-28523500D01*
X59947750Y-28523500D01*
X59923858Y-28522326D01*
X59900197Y-28518816D01*
X59876993Y-28513004D01*
X59854471Y-28504946D01*
X59832847Y-28494718D01*
X59812330Y-28482421D01*
X59793117Y-28468171D01*
X59775393Y-28452107D01*
X59759329Y-28434383D01*
X59745079Y-28415170D01*
X59732782Y-28394653D01*
X59722554Y-28373029D01*
X59714496Y-28350507D01*
X59708684Y-28327303D01*
X59705174Y-28303642D01*
X59704000Y-28279750D01*
X59704000Y-27792250D01*
X59705174Y-27768358D01*
X59708684Y-27744697D01*
X59714496Y-27721493D01*
X59722554Y-27698971D01*
X59732782Y-27677347D01*
X59745079Y-27656830D01*
X59759329Y-27637617D01*
X59775393Y-27619893D01*
X59793117Y-27603829D01*
X59812330Y-27589579D01*
X59832847Y-27577282D01*
X59854471Y-27567054D01*
X59876993Y-27558996D01*
X59900197Y-27553184D01*
X59923858Y-27549674D01*
X59947750Y-27548500D01*
X60860250Y-27548500D01*
X60884142Y-27549674D01*
X60884142Y-27549674D01*
G37*
D11*
X60404000Y-28036000D03*
G04 #@! TD*
D10*
G04 #@! TO.C,R4*
G36*
X132324142Y-140697174D02*
X132347803Y-140700684D01*
X132371007Y-140706496D01*
X132393529Y-140714554D01*
X132415153Y-140724782D01*
X132435670Y-140737079D01*
X132454883Y-140751329D01*
X132472607Y-140767393D01*
X132488671Y-140785117D01*
X132502921Y-140804330D01*
X132515218Y-140824847D01*
X132525446Y-140846471D01*
X132533504Y-140868993D01*
X132539316Y-140892197D01*
X132542826Y-140915858D01*
X132544000Y-140939750D01*
X132544000Y-141852250D01*
X132542826Y-141876142D01*
X132539316Y-141899803D01*
X132533504Y-141923007D01*
X132525446Y-141945529D01*
X132515218Y-141967153D01*
X132502921Y-141987670D01*
X132488671Y-142006883D01*
X132472607Y-142024607D01*
X132454883Y-142040671D01*
X132435670Y-142054921D01*
X132415153Y-142067218D01*
X132393529Y-142077446D01*
X132371007Y-142085504D01*
X132347803Y-142091316D01*
X132324142Y-142094826D01*
X132300250Y-142096000D01*
X131812750Y-142096000D01*
X131788858Y-142094826D01*
X131765197Y-142091316D01*
X131741993Y-142085504D01*
X131719471Y-142077446D01*
X131697847Y-142067218D01*
X131677330Y-142054921D01*
X131658117Y-142040671D01*
X131640393Y-142024607D01*
X131624329Y-142006883D01*
X131610079Y-141987670D01*
X131597782Y-141967153D01*
X131587554Y-141945529D01*
X131579496Y-141923007D01*
X131573684Y-141899803D01*
X131570174Y-141876142D01*
X131569000Y-141852250D01*
X131569000Y-140939750D01*
X131570174Y-140915858D01*
X131573684Y-140892197D01*
X131579496Y-140868993D01*
X131587554Y-140846471D01*
X131597782Y-140824847D01*
X131610079Y-140804330D01*
X131624329Y-140785117D01*
X131640393Y-140767393D01*
X131658117Y-140751329D01*
X131677330Y-140737079D01*
X131697847Y-140724782D01*
X131719471Y-140714554D01*
X131741993Y-140706496D01*
X131765197Y-140700684D01*
X131788858Y-140697174D01*
X131812750Y-140696000D01*
X132300250Y-140696000D01*
X132324142Y-140697174D01*
X132324142Y-140697174D01*
G37*
D11*
X132056500Y-141396000D03*
D10*
G36*
X134199142Y-140697174D02*
X134222803Y-140700684D01*
X134246007Y-140706496D01*
X134268529Y-140714554D01*
X134290153Y-140724782D01*
X134310670Y-140737079D01*
X134329883Y-140751329D01*
X134347607Y-140767393D01*
X134363671Y-140785117D01*
X134377921Y-140804330D01*
X134390218Y-140824847D01*
X134400446Y-140846471D01*
X134408504Y-140868993D01*
X134414316Y-140892197D01*
X134417826Y-140915858D01*
X134419000Y-140939750D01*
X134419000Y-141852250D01*
X134417826Y-141876142D01*
X134414316Y-141899803D01*
X134408504Y-141923007D01*
X134400446Y-141945529D01*
X134390218Y-141967153D01*
X134377921Y-141987670D01*
X134363671Y-142006883D01*
X134347607Y-142024607D01*
X134329883Y-142040671D01*
X134310670Y-142054921D01*
X134290153Y-142067218D01*
X134268529Y-142077446D01*
X134246007Y-142085504D01*
X134222803Y-142091316D01*
X134199142Y-142094826D01*
X134175250Y-142096000D01*
X133687750Y-142096000D01*
X133663858Y-142094826D01*
X133640197Y-142091316D01*
X133616993Y-142085504D01*
X133594471Y-142077446D01*
X133572847Y-142067218D01*
X133552330Y-142054921D01*
X133533117Y-142040671D01*
X133515393Y-142024607D01*
X133499329Y-142006883D01*
X133485079Y-141987670D01*
X133472782Y-141967153D01*
X133462554Y-141945529D01*
X133454496Y-141923007D01*
X133448684Y-141899803D01*
X133445174Y-141876142D01*
X133444000Y-141852250D01*
X133444000Y-140939750D01*
X133445174Y-140915858D01*
X133448684Y-140892197D01*
X133454496Y-140868993D01*
X133462554Y-140846471D01*
X133472782Y-140824847D01*
X133485079Y-140804330D01*
X133499329Y-140785117D01*
X133515393Y-140767393D01*
X133533117Y-140751329D01*
X133552330Y-140737079D01*
X133572847Y-140724782D01*
X133594471Y-140714554D01*
X133616993Y-140706496D01*
X133640197Y-140700684D01*
X133663858Y-140697174D01*
X133687750Y-140696000D01*
X134175250Y-140696000D01*
X134199142Y-140697174D01*
X134199142Y-140697174D01*
G37*
D11*
X133931500Y-141396000D03*
G04 #@! TD*
D10*
G04 #@! TO.C,R12*
G36*
X29474142Y-101909674D02*
X29497803Y-101913184D01*
X29521007Y-101918996D01*
X29543529Y-101927054D01*
X29565153Y-101937282D01*
X29585670Y-101949579D01*
X29604883Y-101963829D01*
X29622607Y-101979893D01*
X29638671Y-101997617D01*
X29652921Y-102016830D01*
X29665218Y-102037347D01*
X29675446Y-102058971D01*
X29683504Y-102081493D01*
X29689316Y-102104697D01*
X29692826Y-102128358D01*
X29694000Y-102152250D01*
X29694000Y-102639750D01*
X29692826Y-102663642D01*
X29689316Y-102687303D01*
X29683504Y-102710507D01*
X29675446Y-102733029D01*
X29665218Y-102754653D01*
X29652921Y-102775170D01*
X29638671Y-102794383D01*
X29622607Y-102812107D01*
X29604883Y-102828171D01*
X29585670Y-102842421D01*
X29565153Y-102854718D01*
X29543529Y-102864946D01*
X29521007Y-102873004D01*
X29497803Y-102878816D01*
X29474142Y-102882326D01*
X29450250Y-102883500D01*
X28537750Y-102883500D01*
X28513858Y-102882326D01*
X28490197Y-102878816D01*
X28466993Y-102873004D01*
X28444471Y-102864946D01*
X28422847Y-102854718D01*
X28402330Y-102842421D01*
X28383117Y-102828171D01*
X28365393Y-102812107D01*
X28349329Y-102794383D01*
X28335079Y-102775170D01*
X28322782Y-102754653D01*
X28312554Y-102733029D01*
X28304496Y-102710507D01*
X28298684Y-102687303D01*
X28295174Y-102663642D01*
X28294000Y-102639750D01*
X28294000Y-102152250D01*
X28295174Y-102128358D01*
X28298684Y-102104697D01*
X28304496Y-102081493D01*
X28312554Y-102058971D01*
X28322782Y-102037347D01*
X28335079Y-102016830D01*
X28349329Y-101997617D01*
X28365393Y-101979893D01*
X28383117Y-101963829D01*
X28402330Y-101949579D01*
X28422847Y-101937282D01*
X28444471Y-101927054D01*
X28466993Y-101918996D01*
X28490197Y-101913184D01*
X28513858Y-101909674D01*
X28537750Y-101908500D01*
X29450250Y-101908500D01*
X29474142Y-101909674D01*
X29474142Y-101909674D01*
G37*
D11*
X28994000Y-102396000D03*
D10*
G36*
X29474142Y-103784674D02*
X29497803Y-103788184D01*
X29521007Y-103793996D01*
X29543529Y-103802054D01*
X29565153Y-103812282D01*
X29585670Y-103824579D01*
X29604883Y-103838829D01*
X29622607Y-103854893D01*
X29638671Y-103872617D01*
X29652921Y-103891830D01*
X29665218Y-103912347D01*
X29675446Y-103933971D01*
X29683504Y-103956493D01*
X29689316Y-103979697D01*
X29692826Y-104003358D01*
X29694000Y-104027250D01*
X29694000Y-104514750D01*
X29692826Y-104538642D01*
X29689316Y-104562303D01*
X29683504Y-104585507D01*
X29675446Y-104608029D01*
X29665218Y-104629653D01*
X29652921Y-104650170D01*
X29638671Y-104669383D01*
X29622607Y-104687107D01*
X29604883Y-104703171D01*
X29585670Y-104717421D01*
X29565153Y-104729718D01*
X29543529Y-104739946D01*
X29521007Y-104748004D01*
X29497803Y-104753816D01*
X29474142Y-104757326D01*
X29450250Y-104758500D01*
X28537750Y-104758500D01*
X28513858Y-104757326D01*
X28490197Y-104753816D01*
X28466993Y-104748004D01*
X28444471Y-104739946D01*
X28422847Y-104729718D01*
X28402330Y-104717421D01*
X28383117Y-104703171D01*
X28365393Y-104687107D01*
X28349329Y-104669383D01*
X28335079Y-104650170D01*
X28322782Y-104629653D01*
X28312554Y-104608029D01*
X28304496Y-104585507D01*
X28298684Y-104562303D01*
X28295174Y-104538642D01*
X28294000Y-104514750D01*
X28294000Y-104027250D01*
X28295174Y-104003358D01*
X28298684Y-103979697D01*
X28304496Y-103956493D01*
X28312554Y-103933971D01*
X28322782Y-103912347D01*
X28335079Y-103891830D01*
X28349329Y-103872617D01*
X28365393Y-103854893D01*
X28383117Y-103838829D01*
X28402330Y-103824579D01*
X28422847Y-103812282D01*
X28444471Y-103802054D01*
X28466993Y-103793996D01*
X28490197Y-103788184D01*
X28513858Y-103784674D01*
X28537750Y-103783500D01*
X29450250Y-103783500D01*
X29474142Y-103784674D01*
X29474142Y-103784674D01*
G37*
D11*
X28994000Y-104271000D03*
G04 #@! TD*
D18*
G04 #@! TO.C,D15*
X64344000Y-41896000D03*
X68644000Y-41896000D03*
G04 #@! TD*
G04 #@! TO.C,D16*
X104784000Y-28956000D03*
X109084000Y-28956000D03*
G04 #@! TD*
D10*
G04 #@! TO.C,R17*
G36*
X91356642Y-25717174D02*
X91380303Y-25720684D01*
X91403507Y-25726496D01*
X91426029Y-25734554D01*
X91447653Y-25744782D01*
X91468170Y-25757079D01*
X91487383Y-25771329D01*
X91505107Y-25787393D01*
X91521171Y-25805117D01*
X91535421Y-25824330D01*
X91547718Y-25844847D01*
X91557946Y-25866471D01*
X91566004Y-25888993D01*
X91571816Y-25912197D01*
X91575326Y-25935858D01*
X91576500Y-25959750D01*
X91576500Y-26872250D01*
X91575326Y-26896142D01*
X91571816Y-26919803D01*
X91566004Y-26943007D01*
X91557946Y-26965529D01*
X91547718Y-26987153D01*
X91535421Y-27007670D01*
X91521171Y-27026883D01*
X91505107Y-27044607D01*
X91487383Y-27060671D01*
X91468170Y-27074921D01*
X91447653Y-27087218D01*
X91426029Y-27097446D01*
X91403507Y-27105504D01*
X91380303Y-27111316D01*
X91356642Y-27114826D01*
X91332750Y-27116000D01*
X90845250Y-27116000D01*
X90821358Y-27114826D01*
X90797697Y-27111316D01*
X90774493Y-27105504D01*
X90751971Y-27097446D01*
X90730347Y-27087218D01*
X90709830Y-27074921D01*
X90690617Y-27060671D01*
X90672893Y-27044607D01*
X90656829Y-27026883D01*
X90642579Y-27007670D01*
X90630282Y-26987153D01*
X90620054Y-26965529D01*
X90611996Y-26943007D01*
X90606184Y-26919803D01*
X90602674Y-26896142D01*
X90601500Y-26872250D01*
X90601500Y-25959750D01*
X90602674Y-25935858D01*
X90606184Y-25912197D01*
X90611996Y-25888993D01*
X90620054Y-25866471D01*
X90630282Y-25844847D01*
X90642579Y-25824330D01*
X90656829Y-25805117D01*
X90672893Y-25787393D01*
X90690617Y-25771329D01*
X90709830Y-25757079D01*
X90730347Y-25744782D01*
X90751971Y-25734554D01*
X90774493Y-25726496D01*
X90797697Y-25720684D01*
X90821358Y-25717174D01*
X90845250Y-25716000D01*
X91332750Y-25716000D01*
X91356642Y-25717174D01*
X91356642Y-25717174D01*
G37*
D11*
X91089000Y-26416000D03*
D10*
G36*
X93231642Y-25717174D02*
X93255303Y-25720684D01*
X93278507Y-25726496D01*
X93301029Y-25734554D01*
X93322653Y-25744782D01*
X93343170Y-25757079D01*
X93362383Y-25771329D01*
X93380107Y-25787393D01*
X93396171Y-25805117D01*
X93410421Y-25824330D01*
X93422718Y-25844847D01*
X93432946Y-25866471D01*
X93441004Y-25888993D01*
X93446816Y-25912197D01*
X93450326Y-25935858D01*
X93451500Y-25959750D01*
X93451500Y-26872250D01*
X93450326Y-26896142D01*
X93446816Y-26919803D01*
X93441004Y-26943007D01*
X93432946Y-26965529D01*
X93422718Y-26987153D01*
X93410421Y-27007670D01*
X93396171Y-27026883D01*
X93380107Y-27044607D01*
X93362383Y-27060671D01*
X93343170Y-27074921D01*
X93322653Y-27087218D01*
X93301029Y-27097446D01*
X93278507Y-27105504D01*
X93255303Y-27111316D01*
X93231642Y-27114826D01*
X93207750Y-27116000D01*
X92720250Y-27116000D01*
X92696358Y-27114826D01*
X92672697Y-27111316D01*
X92649493Y-27105504D01*
X92626971Y-27097446D01*
X92605347Y-27087218D01*
X92584830Y-27074921D01*
X92565617Y-27060671D01*
X92547893Y-27044607D01*
X92531829Y-27026883D01*
X92517579Y-27007670D01*
X92505282Y-26987153D01*
X92495054Y-26965529D01*
X92486996Y-26943007D01*
X92481184Y-26919803D01*
X92477674Y-26896142D01*
X92476500Y-26872250D01*
X92476500Y-25959750D01*
X92477674Y-25935858D01*
X92481184Y-25912197D01*
X92486996Y-25888993D01*
X92495054Y-25866471D01*
X92505282Y-25844847D01*
X92517579Y-25824330D01*
X92531829Y-25805117D01*
X92547893Y-25787393D01*
X92565617Y-25771329D01*
X92584830Y-25757079D01*
X92605347Y-25744782D01*
X92626971Y-25734554D01*
X92649493Y-25726496D01*
X92672697Y-25720684D01*
X92696358Y-25717174D01*
X92720250Y-25716000D01*
X93207750Y-25716000D01*
X93231642Y-25717174D01*
X93231642Y-25717174D01*
G37*
D11*
X92964000Y-26416000D03*
G04 #@! TD*
D18*
G04 #@! TO.C,D19*
X83312000Y-44958000D03*
X79012000Y-44958000D03*
G04 #@! TD*
G04 #@! TO.C,D20*
X89916000Y-44958000D03*
X94216000Y-44958000D03*
G04 #@! TD*
M02*
