G04 #@! TF.GenerationSoftware,KiCad,Pcbnew,(5.0.2)-1*
G04 #@! TF.CreationDate,2019-05-10T13:14:30+02:00*
G04 #@! TF.ProjectId,logika_main,6c6f6769-6b61-45f6-9d61-696e2e6b6963,rev?*
G04 #@! TF.SameCoordinates,Original*
G04 #@! TF.FileFunction,Soldermask,Top*
G04 #@! TF.FilePolarity,Negative*
%FSLAX46Y46*%
G04 Gerber Fmt 4.6, Leading zero omitted, Abs format (unit mm)*
G04 Created by KiCad (PCBNEW (5.0.2)-1) date 10.05.2019 13:14:30*
%MOMM*%
%LPD*%
G01*
G04 APERTURE LIST*
%ADD10C,0.100000*%
G04 APERTURE END LIST*
D10*
G36*
X139427405Y-188818974D02*
X140009767Y-189060196D01*
X140533884Y-189410400D01*
X140979600Y-189856116D01*
X141329804Y-190380233D01*
X141571026Y-190962595D01*
X141694000Y-191580826D01*
X141694000Y-192211174D01*
X141571026Y-192829405D01*
X141329804Y-193411767D01*
X140979600Y-193935884D01*
X140533884Y-194381600D01*
X140009767Y-194731804D01*
X139427405Y-194973026D01*
X138809174Y-195096000D01*
X138178826Y-195096000D01*
X137560595Y-194973026D01*
X136978233Y-194731804D01*
X136454116Y-194381600D01*
X136008400Y-193935884D01*
X135658196Y-193411767D01*
X135416974Y-192829405D01*
X135294000Y-192211174D01*
X135294000Y-191580826D01*
X135416974Y-190962595D01*
X135658196Y-190380233D01*
X136008400Y-189856116D01*
X136454116Y-189410400D01*
X136978233Y-189060196D01*
X137560595Y-188818974D01*
X138178826Y-188696000D01*
X138809174Y-188696000D01*
X139427405Y-188818974D01*
X139427405Y-188818974D01*
G37*
G36*
X24427405Y-188818974D02*
X25009767Y-189060196D01*
X25533884Y-189410400D01*
X25979600Y-189856116D01*
X26329804Y-190380233D01*
X26571026Y-190962595D01*
X26694000Y-191580826D01*
X26694000Y-192211174D01*
X26571026Y-192829405D01*
X26329804Y-193411767D01*
X25979600Y-193935884D01*
X25533884Y-194381600D01*
X25009767Y-194731804D01*
X24427405Y-194973026D01*
X23809174Y-195096000D01*
X23178826Y-195096000D01*
X22560595Y-194973026D01*
X21978233Y-194731804D01*
X21454116Y-194381600D01*
X21008400Y-193935884D01*
X20658196Y-193411767D01*
X20416974Y-192829405D01*
X20294000Y-192211174D01*
X20294000Y-191580826D01*
X20416974Y-190962595D01*
X20658196Y-190380233D01*
X21008400Y-189856116D01*
X21454116Y-189410400D01*
X21978233Y-189060196D01*
X22560595Y-188818974D01*
X23178826Y-188696000D01*
X23809174Y-188696000D01*
X24427405Y-188818974D01*
X24427405Y-188818974D01*
G37*
G36*
X101844000Y-186246000D02*
X100144000Y-186246000D01*
X100144000Y-184546000D01*
X101844000Y-184546000D01*
X101844000Y-186246000D01*
X101844000Y-186246000D01*
G37*
G36*
X112397992Y-184700076D02*
X112431883Y-184710357D01*
X112463111Y-184727048D01*
X112490485Y-184749515D01*
X112512952Y-184776889D01*
X112529643Y-184808117D01*
X112539924Y-184842008D01*
X112544000Y-184883391D01*
X112544000Y-185908609D01*
X112539924Y-185949992D01*
X112529643Y-185983883D01*
X112512952Y-186015111D01*
X112490485Y-186042485D01*
X112463111Y-186064952D01*
X112431883Y-186081643D01*
X112397992Y-186091924D01*
X112356609Y-186096000D01*
X111756391Y-186096000D01*
X111715008Y-186091924D01*
X111681117Y-186081643D01*
X111649889Y-186064952D01*
X111622515Y-186042485D01*
X111600048Y-186015111D01*
X111583357Y-185983883D01*
X111573076Y-185949992D01*
X111569000Y-185908609D01*
X111569000Y-184883391D01*
X111573076Y-184842008D01*
X111583357Y-184808117D01*
X111600048Y-184776889D01*
X111622515Y-184749515D01*
X111649889Y-184727048D01*
X111681117Y-184710357D01*
X111715008Y-184700076D01*
X111756391Y-184696000D01*
X112356609Y-184696000D01*
X112397992Y-184700076D01*
X112397992Y-184700076D01*
G37*
G36*
X110210492Y-184700076D02*
X110244383Y-184710357D01*
X110275611Y-184727048D01*
X110302985Y-184749515D01*
X110325452Y-184776889D01*
X110342143Y-184808117D01*
X110352424Y-184842008D01*
X110356500Y-184883391D01*
X110356500Y-185908609D01*
X110352424Y-185949992D01*
X110342143Y-185983883D01*
X110325452Y-186015111D01*
X110302985Y-186042485D01*
X110275611Y-186064952D01*
X110244383Y-186081643D01*
X110210492Y-186091924D01*
X110169109Y-186096000D01*
X109568891Y-186096000D01*
X109527508Y-186091924D01*
X109493617Y-186081643D01*
X109462389Y-186064952D01*
X109435015Y-186042485D01*
X109412548Y-186015111D01*
X109395857Y-185983883D01*
X109385576Y-185949992D01*
X109381500Y-185908609D01*
X109381500Y-184883391D01*
X109385576Y-184842008D01*
X109395857Y-184808117D01*
X109412548Y-184776889D01*
X109435015Y-184749515D01*
X109462389Y-184727048D01*
X109493617Y-184710357D01*
X109527508Y-184700076D01*
X109568891Y-184696000D01*
X110169109Y-184696000D01*
X110210492Y-184700076D01*
X110210492Y-184700076D01*
G37*
G36*
X108335492Y-184700076D02*
X108369383Y-184710357D01*
X108400611Y-184727048D01*
X108427985Y-184749515D01*
X108450452Y-184776889D01*
X108467143Y-184808117D01*
X108477424Y-184842008D01*
X108481500Y-184883391D01*
X108481500Y-185908609D01*
X108477424Y-185949992D01*
X108467143Y-185983883D01*
X108450452Y-186015111D01*
X108427985Y-186042485D01*
X108400611Y-186064952D01*
X108369383Y-186081643D01*
X108335492Y-186091924D01*
X108294109Y-186096000D01*
X107693891Y-186096000D01*
X107652508Y-186091924D01*
X107618617Y-186081643D01*
X107587389Y-186064952D01*
X107560015Y-186042485D01*
X107537548Y-186015111D01*
X107520857Y-185983883D01*
X107510576Y-185949992D01*
X107506500Y-185908609D01*
X107506500Y-184883391D01*
X107510576Y-184842008D01*
X107520857Y-184808117D01*
X107537548Y-184776889D01*
X107560015Y-184749515D01*
X107587389Y-184727048D01*
X107618617Y-184710357D01*
X107652508Y-184700076D01*
X107693891Y-184696000D01*
X108294109Y-184696000D01*
X108335492Y-184700076D01*
X108335492Y-184700076D01*
G37*
G36*
X114272992Y-184700076D02*
X114306883Y-184710357D01*
X114338111Y-184727048D01*
X114365485Y-184749515D01*
X114387952Y-184776889D01*
X114404643Y-184808117D01*
X114414924Y-184842008D01*
X114419000Y-184883391D01*
X114419000Y-185908609D01*
X114414924Y-185949992D01*
X114404643Y-185983883D01*
X114387952Y-186015111D01*
X114365485Y-186042485D01*
X114338111Y-186064952D01*
X114306883Y-186081643D01*
X114272992Y-186091924D01*
X114231609Y-186096000D01*
X113631391Y-186096000D01*
X113590008Y-186091924D01*
X113556117Y-186081643D01*
X113524889Y-186064952D01*
X113497515Y-186042485D01*
X113475048Y-186015111D01*
X113458357Y-185983883D01*
X113448076Y-185949992D01*
X113444000Y-185908609D01*
X113444000Y-184883391D01*
X113448076Y-184842008D01*
X113458357Y-184808117D01*
X113475048Y-184776889D01*
X113497515Y-184749515D01*
X113524889Y-184727048D01*
X113556117Y-184710357D01*
X113590008Y-184700076D01*
X113631391Y-184696000D01*
X114231609Y-184696000D01*
X114272992Y-184700076D01*
X114272992Y-184700076D01*
G37*
G36*
X43547992Y-182850076D02*
X43581883Y-182860357D01*
X43613111Y-182877048D01*
X43640485Y-182899515D01*
X43662952Y-182926889D01*
X43679643Y-182958117D01*
X43689924Y-182992008D01*
X43694000Y-183033391D01*
X43694000Y-183633609D01*
X43689924Y-183674992D01*
X43679643Y-183708883D01*
X43662952Y-183740111D01*
X43640485Y-183767485D01*
X43613111Y-183789952D01*
X43581883Y-183806643D01*
X43547992Y-183816924D01*
X43506609Y-183821000D01*
X42481391Y-183821000D01*
X42440008Y-183816924D01*
X42406117Y-183806643D01*
X42374889Y-183789952D01*
X42347515Y-183767485D01*
X42325048Y-183740111D01*
X42308357Y-183708883D01*
X42298076Y-183674992D01*
X42294000Y-183633609D01*
X42294000Y-183033391D01*
X42298076Y-182992008D01*
X42308357Y-182958117D01*
X42325048Y-182926889D01*
X42347515Y-182899515D01*
X42374889Y-182877048D01*
X42406117Y-182860357D01*
X42440008Y-182850076D01*
X42481391Y-182846000D01*
X43506609Y-182846000D01*
X43547992Y-182850076D01*
X43547992Y-182850076D01*
G37*
G36*
X48444000Y-183696000D02*
X47544000Y-183696000D01*
X47544000Y-182896000D01*
X48444000Y-182896000D01*
X48444000Y-183696000D01*
X48444000Y-183696000D01*
G37*
G36*
X50444000Y-182746000D02*
X49544000Y-182746000D01*
X49544000Y-181946000D01*
X50444000Y-181946000D01*
X50444000Y-182746000D01*
X50444000Y-182746000D01*
G37*
G36*
X60838183Y-181342900D02*
X60965574Y-181395668D01*
X61080225Y-181472275D01*
X61177725Y-181569775D01*
X61254332Y-181684426D01*
X61307100Y-181811817D01*
X61334000Y-181947055D01*
X61334000Y-182084945D01*
X61307100Y-182220183D01*
X61254332Y-182347574D01*
X61177725Y-182462225D01*
X61080225Y-182559725D01*
X60965574Y-182636332D01*
X60838183Y-182689100D01*
X60702945Y-182716000D01*
X60565055Y-182716000D01*
X60429817Y-182689100D01*
X60302426Y-182636332D01*
X60187775Y-182559725D01*
X60090275Y-182462225D01*
X60013668Y-182347574D01*
X59960900Y-182220183D01*
X59934000Y-182084945D01*
X59934000Y-181947055D01*
X59960900Y-181811817D01*
X60013668Y-181684426D01*
X60090275Y-181569775D01*
X60187775Y-181472275D01*
X60302426Y-181395668D01*
X60429817Y-181342900D01*
X60565055Y-181316000D01*
X60702945Y-181316000D01*
X60838183Y-181342900D01*
X60838183Y-181342900D01*
G37*
G36*
X78638183Y-181342900D02*
X78765574Y-181395668D01*
X78880225Y-181472275D01*
X78977725Y-181569775D01*
X79054332Y-181684426D01*
X79107100Y-181811817D01*
X79134000Y-181947055D01*
X79134000Y-182084945D01*
X79107100Y-182220183D01*
X79054332Y-182347574D01*
X78977725Y-182462225D01*
X78880225Y-182559725D01*
X78765574Y-182636332D01*
X78638183Y-182689100D01*
X78502945Y-182716000D01*
X78365055Y-182716000D01*
X78229817Y-182689100D01*
X78102426Y-182636332D01*
X77987775Y-182559725D01*
X77890275Y-182462225D01*
X77813668Y-182347574D01*
X77760900Y-182220183D01*
X77734000Y-182084945D01*
X77734000Y-181947055D01*
X77760900Y-181811817D01*
X77813668Y-181684426D01*
X77890275Y-181569775D01*
X77987775Y-181472275D01*
X78102426Y-181395668D01*
X78229817Y-181342900D01*
X78365055Y-181316000D01*
X78502945Y-181316000D01*
X78638183Y-181342900D01*
X78638183Y-181342900D01*
G37*
G36*
X83718183Y-181342900D02*
X83845574Y-181395668D01*
X83960225Y-181472275D01*
X84057725Y-181569775D01*
X84134332Y-181684426D01*
X84187100Y-181811817D01*
X84214000Y-181947055D01*
X84214000Y-182084945D01*
X84187100Y-182220183D01*
X84134332Y-182347574D01*
X84057725Y-182462225D01*
X83960225Y-182559725D01*
X83845574Y-182636332D01*
X83718183Y-182689100D01*
X83582945Y-182716000D01*
X83445055Y-182716000D01*
X83309817Y-182689100D01*
X83182426Y-182636332D01*
X83067775Y-182559725D01*
X82970275Y-182462225D01*
X82893668Y-182347574D01*
X82840900Y-182220183D01*
X82814000Y-182084945D01*
X82814000Y-181947055D01*
X82840900Y-181811817D01*
X82893668Y-181684426D01*
X82970275Y-181569775D01*
X83067775Y-181472275D01*
X83182426Y-181395668D01*
X83309817Y-181342900D01*
X83445055Y-181316000D01*
X83582945Y-181316000D01*
X83718183Y-181342900D01*
X83718183Y-181342900D01*
G37*
G36*
X58298183Y-181342900D02*
X58425574Y-181395668D01*
X58540225Y-181472275D01*
X58637725Y-181569775D01*
X58714332Y-181684426D01*
X58767100Y-181811817D01*
X58794000Y-181947055D01*
X58794000Y-182084945D01*
X58767100Y-182220183D01*
X58714332Y-182347574D01*
X58637725Y-182462225D01*
X58540225Y-182559725D01*
X58425574Y-182636332D01*
X58298183Y-182689100D01*
X58162945Y-182716000D01*
X58025055Y-182716000D01*
X57889817Y-182689100D01*
X57762426Y-182636332D01*
X57647775Y-182559725D01*
X57550275Y-182462225D01*
X57473668Y-182347574D01*
X57420900Y-182220183D01*
X57394000Y-182084945D01*
X57394000Y-181947055D01*
X57420900Y-181811817D01*
X57473668Y-181684426D01*
X57550275Y-181569775D01*
X57647775Y-181472275D01*
X57762426Y-181395668D01*
X57889817Y-181342900D01*
X58025055Y-181316000D01*
X58162945Y-181316000D01*
X58298183Y-181342900D01*
X58298183Y-181342900D01*
G37*
G36*
X63378183Y-181342900D02*
X63505574Y-181395668D01*
X63620225Y-181472275D01*
X63717725Y-181569775D01*
X63794332Y-181684426D01*
X63847100Y-181811817D01*
X63874000Y-181947055D01*
X63874000Y-182084945D01*
X63847100Y-182220183D01*
X63794332Y-182347574D01*
X63717725Y-182462225D01*
X63620225Y-182559725D01*
X63505574Y-182636332D01*
X63378183Y-182689100D01*
X63242945Y-182716000D01*
X63105055Y-182716000D01*
X62969817Y-182689100D01*
X62842426Y-182636332D01*
X62727775Y-182559725D01*
X62630275Y-182462225D01*
X62553668Y-182347574D01*
X62500900Y-182220183D01*
X62474000Y-182084945D01*
X62474000Y-181947055D01*
X62500900Y-181811817D01*
X62553668Y-181684426D01*
X62630275Y-181569775D01*
X62727775Y-181472275D01*
X62842426Y-181395668D01*
X62969817Y-181342900D01*
X63105055Y-181316000D01*
X63242945Y-181316000D01*
X63378183Y-181342900D01*
X63378183Y-181342900D01*
G37*
G36*
X43547992Y-180975076D02*
X43581883Y-180985357D01*
X43613111Y-181002048D01*
X43640485Y-181024515D01*
X43662952Y-181051889D01*
X43679643Y-181083117D01*
X43689924Y-181117008D01*
X43694000Y-181158391D01*
X43694000Y-181758609D01*
X43689924Y-181799992D01*
X43679643Y-181833883D01*
X43662952Y-181865111D01*
X43640485Y-181892485D01*
X43613111Y-181914952D01*
X43581883Y-181931643D01*
X43547992Y-181941924D01*
X43506609Y-181946000D01*
X42481391Y-181946000D01*
X42440008Y-181941924D01*
X42406117Y-181931643D01*
X42374889Y-181914952D01*
X42347515Y-181892485D01*
X42325048Y-181865111D01*
X42308357Y-181833883D01*
X42298076Y-181799992D01*
X42294000Y-181758609D01*
X42294000Y-181158391D01*
X42298076Y-181117008D01*
X42308357Y-181083117D01*
X42325048Y-181051889D01*
X42347515Y-181024515D01*
X42374889Y-181002048D01*
X42406117Y-180985357D01*
X42440008Y-180975076D01*
X42481391Y-180971000D01*
X43506609Y-180971000D01*
X43547992Y-180975076D01*
X43547992Y-180975076D01*
G37*
G36*
X48444000Y-181796000D02*
X47544000Y-181796000D01*
X47544000Y-180996000D01*
X48444000Y-180996000D01*
X48444000Y-181796000D01*
X48444000Y-181796000D01*
G37*
G36*
X112058646Y-175165533D02*
X112313122Y-175242728D01*
X112547649Y-175368085D01*
X112753213Y-175536787D01*
X112921915Y-175742351D01*
X113047272Y-175976878D01*
X113124467Y-176231354D01*
X113150532Y-176496000D01*
X113124467Y-176760646D01*
X113047272Y-177015122D01*
X112921915Y-177249649D01*
X112753213Y-177455213D01*
X112547649Y-177623915D01*
X112313122Y-177749272D01*
X112058646Y-177826467D01*
X111860321Y-177846000D01*
X111127679Y-177846000D01*
X110929354Y-177826467D01*
X110674878Y-177749272D01*
X110440351Y-177623915D01*
X110234787Y-177455213D01*
X110066085Y-177249649D01*
X109940728Y-177015122D01*
X109863533Y-176760646D01*
X109837468Y-176496000D01*
X109863533Y-176231354D01*
X109940728Y-175976878D01*
X110066085Y-175742351D01*
X110234787Y-175536787D01*
X110440351Y-175368085D01*
X110674878Y-175242728D01*
X110929354Y-175165533D01*
X111127679Y-175146000D01*
X111860321Y-175146000D01*
X112058646Y-175165533D01*
X112058646Y-175165533D01*
G37*
G36*
X107524637Y-175149439D02*
X107552313Y-175157835D01*
X107577821Y-175171470D01*
X107600181Y-175189819D01*
X107618530Y-175212179D01*
X107632165Y-175237687D01*
X107640561Y-175265363D01*
X107644000Y-175300287D01*
X107644000Y-177691713D01*
X107640561Y-177726637D01*
X107632165Y-177754313D01*
X107618530Y-177779821D01*
X107600181Y-177802181D01*
X107577821Y-177820530D01*
X107552313Y-177834165D01*
X107524637Y-177842561D01*
X107489713Y-177846000D01*
X104498287Y-177846000D01*
X104463363Y-177842561D01*
X104435687Y-177834165D01*
X104410179Y-177820530D01*
X104387819Y-177802181D01*
X104369470Y-177779821D01*
X104355835Y-177754313D01*
X104347439Y-177726637D01*
X104344000Y-177691713D01*
X104344000Y-175300287D01*
X104347439Y-175265363D01*
X104355835Y-175237687D01*
X104369470Y-175212179D01*
X104387819Y-175189819D01*
X104410179Y-175171470D01*
X104435687Y-175157835D01*
X104463363Y-175149439D01*
X104498287Y-175146000D01*
X107489713Y-175146000D01*
X107524637Y-175149439D01*
X107524637Y-175149439D01*
G37*
G36*
X24235630Y-176058299D02*
X24395855Y-176106903D01*
X24543520Y-176185831D01*
X24672949Y-176292051D01*
X24779169Y-176421480D01*
X24858097Y-176569145D01*
X24906701Y-176729370D01*
X24923112Y-176896000D01*
X24906701Y-177062630D01*
X24858097Y-177222855D01*
X24779169Y-177370520D01*
X24672949Y-177499949D01*
X24543520Y-177606169D01*
X24395855Y-177685097D01*
X24235630Y-177733701D01*
X24110752Y-177746000D01*
X23877248Y-177746000D01*
X23752370Y-177733701D01*
X23592145Y-177685097D01*
X23444480Y-177606169D01*
X23315051Y-177499949D01*
X23208831Y-177370520D01*
X23129903Y-177222855D01*
X23081299Y-177062630D01*
X23064888Y-176896000D01*
X23081299Y-176729370D01*
X23129903Y-176569145D01*
X23208831Y-176421480D01*
X23315051Y-176292051D01*
X23444480Y-176185831D01*
X23592145Y-176106903D01*
X23752370Y-176058299D01*
X23877248Y-176046000D01*
X24110752Y-176046000D01*
X24235630Y-176058299D01*
X24235630Y-176058299D01*
G37*
G36*
X24788675Y-173549701D02*
X24818907Y-173558872D01*
X24846769Y-173573765D01*
X24871192Y-173593808D01*
X24891235Y-173618231D01*
X24906128Y-173646093D01*
X24915299Y-173676325D01*
X24919000Y-173713905D01*
X24919000Y-175078095D01*
X24915299Y-175115675D01*
X24906128Y-175145907D01*
X24891235Y-175173769D01*
X24871192Y-175198192D01*
X24846769Y-175218235D01*
X24818907Y-175233128D01*
X24788675Y-175242299D01*
X24751095Y-175246000D01*
X23236905Y-175246000D01*
X23199325Y-175242299D01*
X23169093Y-175233128D01*
X23141231Y-175218235D01*
X23116808Y-175198192D01*
X23096765Y-175173769D01*
X23081872Y-175145907D01*
X23072701Y-175115675D01*
X23069000Y-175078095D01*
X23069000Y-173713905D01*
X23072701Y-173676325D01*
X23081872Y-173646093D01*
X23096765Y-173618231D01*
X23116808Y-173593808D01*
X23141231Y-173573765D01*
X23169093Y-173558872D01*
X23199325Y-173549701D01*
X23236905Y-173546000D01*
X24751095Y-173546000D01*
X24788675Y-173549701D01*
X24788675Y-173549701D01*
G37*
G36*
X112058646Y-170965533D02*
X112313122Y-171042728D01*
X112547649Y-171168085D01*
X112753213Y-171336787D01*
X112921915Y-171542351D01*
X113047272Y-171776878D01*
X113124467Y-172031354D01*
X113150532Y-172296000D01*
X113124467Y-172560646D01*
X113047272Y-172815122D01*
X112921915Y-173049649D01*
X112753213Y-173255213D01*
X112547649Y-173423915D01*
X112313122Y-173549272D01*
X112058646Y-173626467D01*
X111860321Y-173646000D01*
X111127679Y-173646000D01*
X110929354Y-173626467D01*
X110674878Y-173549272D01*
X110440351Y-173423915D01*
X110234787Y-173255213D01*
X110066085Y-173049649D01*
X109940728Y-172815122D01*
X109863533Y-172560646D01*
X109837468Y-172296000D01*
X109863533Y-172031354D01*
X109940728Y-171776878D01*
X110066085Y-171542351D01*
X110234787Y-171336787D01*
X110440351Y-171168085D01*
X110674878Y-171042728D01*
X110929354Y-170965533D01*
X111127679Y-170946000D01*
X111860321Y-170946000D01*
X112058646Y-170965533D01*
X112058646Y-170965533D01*
G37*
G36*
X106558646Y-170965533D02*
X106813122Y-171042728D01*
X107047649Y-171168085D01*
X107253213Y-171336787D01*
X107421915Y-171542351D01*
X107547272Y-171776878D01*
X107624467Y-172031354D01*
X107650532Y-172296000D01*
X107624467Y-172560646D01*
X107547272Y-172815122D01*
X107421915Y-173049649D01*
X107253213Y-173255213D01*
X107047649Y-173423915D01*
X106813122Y-173549272D01*
X106558646Y-173626467D01*
X106360321Y-173646000D01*
X105627679Y-173646000D01*
X105429354Y-173626467D01*
X105174878Y-173549272D01*
X104940351Y-173423915D01*
X104734787Y-173255213D01*
X104566085Y-173049649D01*
X104440728Y-172815122D01*
X104363533Y-172560646D01*
X104337468Y-172296000D01*
X104363533Y-172031354D01*
X104440728Y-171776878D01*
X104566085Y-171542351D01*
X104734787Y-171336787D01*
X104940351Y-171168085D01*
X105174878Y-171042728D01*
X105429354Y-170965533D01*
X105627679Y-170946000D01*
X106360321Y-170946000D01*
X106558646Y-170965533D01*
X106558646Y-170965533D01*
G37*
G36*
X83718183Y-166102900D02*
X83845574Y-166155668D01*
X83960225Y-166232275D01*
X84057725Y-166329775D01*
X84134332Y-166444426D01*
X84187100Y-166571817D01*
X84214000Y-166707055D01*
X84214000Y-166844945D01*
X84187100Y-166980183D01*
X84134332Y-167107574D01*
X84057725Y-167222225D01*
X83960225Y-167319725D01*
X83845574Y-167396332D01*
X83718183Y-167449100D01*
X83582945Y-167476000D01*
X83445055Y-167476000D01*
X83309817Y-167449100D01*
X83182426Y-167396332D01*
X83067775Y-167319725D01*
X82970275Y-167222225D01*
X82893668Y-167107574D01*
X82840900Y-166980183D01*
X82814000Y-166844945D01*
X82814000Y-166707055D01*
X82840900Y-166571817D01*
X82893668Y-166444426D01*
X82970275Y-166329775D01*
X83067775Y-166232275D01*
X83182426Y-166155668D01*
X83309817Y-166102900D01*
X83445055Y-166076000D01*
X83582945Y-166076000D01*
X83718183Y-166102900D01*
X83718183Y-166102900D01*
G37*
G36*
X78638183Y-166102900D02*
X78765574Y-166155668D01*
X78880225Y-166232275D01*
X78977725Y-166329775D01*
X79054332Y-166444426D01*
X79107100Y-166571817D01*
X79134000Y-166707055D01*
X79134000Y-166844945D01*
X79107100Y-166980183D01*
X79054332Y-167107574D01*
X78977725Y-167222225D01*
X78880225Y-167319725D01*
X78765574Y-167396332D01*
X78638183Y-167449100D01*
X78502945Y-167476000D01*
X78365055Y-167476000D01*
X78229817Y-167449100D01*
X78102426Y-167396332D01*
X77987775Y-167319725D01*
X77890275Y-167222225D01*
X77813668Y-167107574D01*
X77760900Y-166980183D01*
X77734000Y-166844945D01*
X77734000Y-166707055D01*
X77760900Y-166571817D01*
X77813668Y-166444426D01*
X77890275Y-166329775D01*
X77987775Y-166232275D01*
X78102426Y-166155668D01*
X78229817Y-166102900D01*
X78365055Y-166076000D01*
X78502945Y-166076000D01*
X78638183Y-166102900D01*
X78638183Y-166102900D01*
G37*
G36*
X63378183Y-166102900D02*
X63505574Y-166155668D01*
X63620225Y-166232275D01*
X63717725Y-166329775D01*
X63794332Y-166444426D01*
X63847100Y-166571817D01*
X63874000Y-166707055D01*
X63874000Y-166844945D01*
X63847100Y-166980183D01*
X63794332Y-167107574D01*
X63717725Y-167222225D01*
X63620225Y-167319725D01*
X63505574Y-167396332D01*
X63378183Y-167449100D01*
X63242945Y-167476000D01*
X63105055Y-167476000D01*
X62969817Y-167449100D01*
X62842426Y-167396332D01*
X62727775Y-167319725D01*
X62630275Y-167222225D01*
X62553668Y-167107574D01*
X62500900Y-166980183D01*
X62474000Y-166844945D01*
X62474000Y-166707055D01*
X62500900Y-166571817D01*
X62553668Y-166444426D01*
X62630275Y-166329775D01*
X62727775Y-166232275D01*
X62842426Y-166155668D01*
X62969817Y-166102900D01*
X63105055Y-166076000D01*
X63242945Y-166076000D01*
X63378183Y-166102900D01*
X63378183Y-166102900D01*
G37*
G36*
X60838183Y-166102900D02*
X60965574Y-166155668D01*
X61080225Y-166232275D01*
X61177725Y-166329775D01*
X61254332Y-166444426D01*
X61307100Y-166571817D01*
X61334000Y-166707055D01*
X61334000Y-166844945D01*
X61307100Y-166980183D01*
X61254332Y-167107574D01*
X61177725Y-167222225D01*
X61080225Y-167319725D01*
X60965574Y-167396332D01*
X60838183Y-167449100D01*
X60702945Y-167476000D01*
X60565055Y-167476000D01*
X60429817Y-167449100D01*
X60302426Y-167396332D01*
X60187775Y-167319725D01*
X60090275Y-167222225D01*
X60013668Y-167107574D01*
X59960900Y-166980183D01*
X59934000Y-166844945D01*
X59934000Y-166707055D01*
X59960900Y-166571817D01*
X60013668Y-166444426D01*
X60090275Y-166329775D01*
X60187775Y-166232275D01*
X60302426Y-166155668D01*
X60429817Y-166102900D01*
X60565055Y-166076000D01*
X60702945Y-166076000D01*
X60838183Y-166102900D01*
X60838183Y-166102900D01*
G37*
G36*
X101844000Y-164246000D02*
X100144000Y-164246000D01*
X100144000Y-162546000D01*
X101844000Y-162546000D01*
X101844000Y-164246000D01*
X101844000Y-164246000D01*
G37*
G36*
X114272992Y-162700076D02*
X114306883Y-162710357D01*
X114338111Y-162727048D01*
X114365485Y-162749515D01*
X114387952Y-162776889D01*
X114404643Y-162808117D01*
X114414924Y-162842008D01*
X114419000Y-162883391D01*
X114419000Y-163908609D01*
X114414924Y-163949992D01*
X114404643Y-163983883D01*
X114387952Y-164015111D01*
X114365485Y-164042485D01*
X114338111Y-164064952D01*
X114306883Y-164081643D01*
X114272992Y-164091924D01*
X114231609Y-164096000D01*
X113631391Y-164096000D01*
X113590008Y-164091924D01*
X113556117Y-164081643D01*
X113524889Y-164064952D01*
X113497515Y-164042485D01*
X113475048Y-164015111D01*
X113458357Y-163983883D01*
X113448076Y-163949992D01*
X113444000Y-163908609D01*
X113444000Y-162883391D01*
X113448076Y-162842008D01*
X113458357Y-162808117D01*
X113475048Y-162776889D01*
X113497515Y-162749515D01*
X113524889Y-162727048D01*
X113556117Y-162710357D01*
X113590008Y-162700076D01*
X113631391Y-162696000D01*
X114231609Y-162696000D01*
X114272992Y-162700076D01*
X114272992Y-162700076D01*
G37*
G36*
X112397992Y-162700076D02*
X112431883Y-162710357D01*
X112463111Y-162727048D01*
X112490485Y-162749515D01*
X112512952Y-162776889D01*
X112529643Y-162808117D01*
X112539924Y-162842008D01*
X112544000Y-162883391D01*
X112544000Y-163908609D01*
X112539924Y-163949992D01*
X112529643Y-163983883D01*
X112512952Y-164015111D01*
X112490485Y-164042485D01*
X112463111Y-164064952D01*
X112431883Y-164081643D01*
X112397992Y-164091924D01*
X112356609Y-164096000D01*
X111756391Y-164096000D01*
X111715008Y-164091924D01*
X111681117Y-164081643D01*
X111649889Y-164064952D01*
X111622515Y-164042485D01*
X111600048Y-164015111D01*
X111583357Y-163983883D01*
X111573076Y-163949992D01*
X111569000Y-163908609D01*
X111569000Y-162883391D01*
X111573076Y-162842008D01*
X111583357Y-162808117D01*
X111600048Y-162776889D01*
X111622515Y-162749515D01*
X111649889Y-162727048D01*
X111681117Y-162710357D01*
X111715008Y-162700076D01*
X111756391Y-162696000D01*
X112356609Y-162696000D01*
X112397992Y-162700076D01*
X112397992Y-162700076D01*
G37*
G36*
X108397992Y-162700076D02*
X108431883Y-162710357D01*
X108463111Y-162727048D01*
X108490485Y-162749515D01*
X108512952Y-162776889D01*
X108529643Y-162808117D01*
X108539924Y-162842008D01*
X108544000Y-162883391D01*
X108544000Y-163908609D01*
X108539924Y-163949992D01*
X108529643Y-163983883D01*
X108512952Y-164015111D01*
X108490485Y-164042485D01*
X108463111Y-164064952D01*
X108431883Y-164081643D01*
X108397992Y-164091924D01*
X108356609Y-164096000D01*
X107756391Y-164096000D01*
X107715008Y-164091924D01*
X107681117Y-164081643D01*
X107649889Y-164064952D01*
X107622515Y-164042485D01*
X107600048Y-164015111D01*
X107583357Y-163983883D01*
X107573076Y-163949992D01*
X107569000Y-163908609D01*
X107569000Y-162883391D01*
X107573076Y-162842008D01*
X107583357Y-162808117D01*
X107600048Y-162776889D01*
X107622515Y-162749515D01*
X107649889Y-162727048D01*
X107681117Y-162710357D01*
X107715008Y-162700076D01*
X107756391Y-162696000D01*
X108356609Y-162696000D01*
X108397992Y-162700076D01*
X108397992Y-162700076D01*
G37*
G36*
X110272992Y-162700076D02*
X110306883Y-162710357D01*
X110338111Y-162727048D01*
X110365485Y-162749515D01*
X110387952Y-162776889D01*
X110404643Y-162808117D01*
X110414924Y-162842008D01*
X110419000Y-162883391D01*
X110419000Y-163908609D01*
X110414924Y-163949992D01*
X110404643Y-163983883D01*
X110387952Y-164015111D01*
X110365485Y-164042485D01*
X110338111Y-164064952D01*
X110306883Y-164081643D01*
X110272992Y-164091924D01*
X110231609Y-164096000D01*
X109631391Y-164096000D01*
X109590008Y-164091924D01*
X109556117Y-164081643D01*
X109524889Y-164064952D01*
X109497515Y-164042485D01*
X109475048Y-164015111D01*
X109458357Y-163983883D01*
X109448076Y-163949992D01*
X109444000Y-163908609D01*
X109444000Y-162883391D01*
X109448076Y-162842008D01*
X109458357Y-162808117D01*
X109475048Y-162776889D01*
X109497515Y-162749515D01*
X109524889Y-162727048D01*
X109556117Y-162710357D01*
X109590008Y-162700076D01*
X109631391Y-162696000D01*
X110231609Y-162696000D01*
X110272992Y-162700076D01*
X110272992Y-162700076D01*
G37*
G36*
X139427405Y-152818974D02*
X140009767Y-153060196D01*
X140533884Y-153410400D01*
X140979600Y-153856116D01*
X141329804Y-154380233D01*
X141571026Y-154962595D01*
X141694000Y-155580826D01*
X141694000Y-156211174D01*
X141571026Y-156829405D01*
X141329804Y-157411767D01*
X140979600Y-157935884D01*
X140533884Y-158381600D01*
X140009767Y-158731804D01*
X139427405Y-158973026D01*
X138809174Y-159096000D01*
X138178826Y-159096000D01*
X137560595Y-158973026D01*
X136978233Y-158731804D01*
X136454116Y-158381600D01*
X136008400Y-157935884D01*
X135658196Y-157411767D01*
X135416974Y-156829405D01*
X135294000Y-156211174D01*
X135294000Y-155580826D01*
X135416974Y-154962595D01*
X135658196Y-154380233D01*
X136008400Y-153856116D01*
X136454116Y-153410400D01*
X136978233Y-153060196D01*
X137560595Y-152818974D01*
X138178826Y-152696000D01*
X138809174Y-152696000D01*
X139427405Y-152818974D01*
X139427405Y-152818974D01*
G37*
G36*
X107524637Y-142049439D02*
X107552313Y-142057835D01*
X107577821Y-142071470D01*
X107600181Y-142089819D01*
X107618530Y-142112179D01*
X107632165Y-142137687D01*
X107640561Y-142165363D01*
X107644000Y-142200287D01*
X107644000Y-144591713D01*
X107640561Y-144626637D01*
X107632165Y-144654313D01*
X107618530Y-144679821D01*
X107600181Y-144702181D01*
X107577821Y-144720530D01*
X107552313Y-144734165D01*
X107524637Y-144742561D01*
X107489713Y-144746000D01*
X104498287Y-144746000D01*
X104463363Y-144742561D01*
X104435687Y-144734165D01*
X104410179Y-144720530D01*
X104387819Y-144702181D01*
X104369470Y-144679821D01*
X104355835Y-144654313D01*
X104347439Y-144626637D01*
X104344000Y-144591713D01*
X104344000Y-142200287D01*
X104347439Y-142165363D01*
X104355835Y-142137687D01*
X104369470Y-142112179D01*
X104387819Y-142089819D01*
X104410179Y-142071470D01*
X104435687Y-142057835D01*
X104463363Y-142049439D01*
X104498287Y-142046000D01*
X107489713Y-142046000D01*
X107524637Y-142049439D01*
X107524637Y-142049439D01*
G37*
G36*
X112058646Y-142065533D02*
X112313122Y-142142728D01*
X112547649Y-142268085D01*
X112753213Y-142436787D01*
X112921915Y-142642351D01*
X113047272Y-142876878D01*
X113124467Y-143131354D01*
X113150532Y-143396000D01*
X113124467Y-143660646D01*
X113047272Y-143915122D01*
X112921915Y-144149649D01*
X112753213Y-144355213D01*
X112547649Y-144523915D01*
X112313122Y-144649272D01*
X112058646Y-144726467D01*
X111860321Y-144746000D01*
X111127679Y-144746000D01*
X110929354Y-144726467D01*
X110674878Y-144649272D01*
X110440351Y-144523915D01*
X110234787Y-144355213D01*
X110066085Y-144149649D01*
X109940728Y-143915122D01*
X109863533Y-143660646D01*
X109837468Y-143396000D01*
X109863533Y-143131354D01*
X109940728Y-142876878D01*
X110066085Y-142642351D01*
X110234787Y-142436787D01*
X110440351Y-142268085D01*
X110674878Y-142142728D01*
X110929354Y-142065533D01*
X111127679Y-142046000D01*
X111860321Y-142046000D01*
X112058646Y-142065533D01*
X112058646Y-142065533D01*
G37*
G36*
X129344000Y-139246000D02*
X127644000Y-139246000D01*
X127644000Y-137546000D01*
X129344000Y-137546000D01*
X129344000Y-139246000D01*
X129344000Y-139246000D01*
G37*
G36*
X133397992Y-137700076D02*
X133431883Y-137710357D01*
X133463111Y-137727048D01*
X133490485Y-137749515D01*
X133512952Y-137776889D01*
X133529643Y-137808117D01*
X133539924Y-137842008D01*
X133544000Y-137883391D01*
X133544000Y-138908609D01*
X133539924Y-138949992D01*
X133529643Y-138983883D01*
X133512952Y-139015111D01*
X133490485Y-139042485D01*
X133463111Y-139064952D01*
X133431883Y-139081643D01*
X133397992Y-139091924D01*
X133356609Y-139096000D01*
X132756391Y-139096000D01*
X132715008Y-139091924D01*
X132681117Y-139081643D01*
X132649889Y-139064952D01*
X132622515Y-139042485D01*
X132600048Y-139015111D01*
X132583357Y-138983883D01*
X132573076Y-138949992D01*
X132569000Y-138908609D01*
X132569000Y-137883391D01*
X132573076Y-137842008D01*
X132583357Y-137808117D01*
X132600048Y-137776889D01*
X132622515Y-137749515D01*
X132649889Y-137727048D01*
X132681117Y-137710357D01*
X132715008Y-137700076D01*
X132756391Y-137696000D01*
X133356609Y-137696000D01*
X133397992Y-137700076D01*
X133397992Y-137700076D01*
G37*
G36*
X135272992Y-137700076D02*
X135306883Y-137710357D01*
X135338111Y-137727048D01*
X135365485Y-137749515D01*
X135387952Y-137776889D01*
X135404643Y-137808117D01*
X135414924Y-137842008D01*
X135419000Y-137883391D01*
X135419000Y-138908609D01*
X135414924Y-138949992D01*
X135404643Y-138983883D01*
X135387952Y-139015111D01*
X135365485Y-139042485D01*
X135338111Y-139064952D01*
X135306883Y-139081643D01*
X135272992Y-139091924D01*
X135231609Y-139096000D01*
X134631391Y-139096000D01*
X134590008Y-139091924D01*
X134556117Y-139081643D01*
X134524889Y-139064952D01*
X134497515Y-139042485D01*
X134475048Y-139015111D01*
X134458357Y-138983883D01*
X134448076Y-138949992D01*
X134444000Y-138908609D01*
X134444000Y-137883391D01*
X134448076Y-137842008D01*
X134458357Y-137808117D01*
X134475048Y-137776889D01*
X134497515Y-137749515D01*
X134524889Y-137727048D01*
X134556117Y-137710357D01*
X134590008Y-137700076D01*
X134631391Y-137696000D01*
X135231609Y-137696000D01*
X135272992Y-137700076D01*
X135272992Y-137700076D01*
G37*
G36*
X107524637Y-132049439D02*
X107552313Y-132057835D01*
X107577821Y-132071470D01*
X107600181Y-132089819D01*
X107618530Y-132112179D01*
X107632165Y-132137687D01*
X107640561Y-132165363D01*
X107644000Y-132200287D01*
X107644000Y-134591713D01*
X107640561Y-134626637D01*
X107632165Y-134654313D01*
X107618530Y-134679821D01*
X107600181Y-134702181D01*
X107577821Y-134720530D01*
X107552313Y-134734165D01*
X107524637Y-134742561D01*
X107489713Y-134746000D01*
X104498287Y-134746000D01*
X104463363Y-134742561D01*
X104435687Y-134734165D01*
X104410179Y-134720530D01*
X104387819Y-134702181D01*
X104369470Y-134679821D01*
X104355835Y-134654313D01*
X104347439Y-134626637D01*
X104344000Y-134591713D01*
X104344000Y-132200287D01*
X104347439Y-132165363D01*
X104355835Y-132137687D01*
X104369470Y-132112179D01*
X104387819Y-132089819D01*
X104410179Y-132071470D01*
X104435687Y-132057835D01*
X104463363Y-132049439D01*
X104498287Y-132046000D01*
X107489713Y-132046000D01*
X107524637Y-132049439D01*
X107524637Y-132049439D01*
G37*
G36*
X112058646Y-132065533D02*
X112313122Y-132142728D01*
X112547649Y-132268085D01*
X112753213Y-132436787D01*
X112921915Y-132642351D01*
X113047272Y-132876878D01*
X113124467Y-133131354D01*
X113150532Y-133396000D01*
X113124467Y-133660646D01*
X113047272Y-133915122D01*
X112921915Y-134149649D01*
X112753213Y-134355213D01*
X112547649Y-134523915D01*
X112313122Y-134649272D01*
X112058646Y-134726467D01*
X111860321Y-134746000D01*
X111127679Y-134746000D01*
X110929354Y-134726467D01*
X110674878Y-134649272D01*
X110440351Y-134523915D01*
X110234787Y-134355213D01*
X110066085Y-134149649D01*
X109940728Y-133915122D01*
X109863533Y-133660646D01*
X109837468Y-133396000D01*
X109863533Y-133131354D01*
X109940728Y-132876878D01*
X110066085Y-132642351D01*
X110234787Y-132436787D01*
X110440351Y-132268085D01*
X110674878Y-132142728D01*
X110929354Y-132065533D01*
X111127679Y-132046000D01*
X111860321Y-132046000D01*
X112058646Y-132065533D01*
X112058646Y-132065533D01*
G37*
G36*
X130024637Y-127049439D02*
X130052313Y-127057835D01*
X130077821Y-127071470D01*
X130100181Y-127089819D01*
X130118530Y-127112179D01*
X130132165Y-127137687D01*
X130140561Y-127165363D01*
X130144000Y-127200287D01*
X130144000Y-129591713D01*
X130140561Y-129626637D01*
X130132165Y-129654313D01*
X130118530Y-129679821D01*
X130100181Y-129702181D01*
X130077821Y-129720530D01*
X130052313Y-129734165D01*
X130024637Y-129742561D01*
X129989713Y-129746000D01*
X126998287Y-129746000D01*
X126963363Y-129742561D01*
X126935687Y-129734165D01*
X126910179Y-129720530D01*
X126887819Y-129702181D01*
X126869470Y-129679821D01*
X126855835Y-129654313D01*
X126847439Y-129626637D01*
X126844000Y-129591713D01*
X126844000Y-127200287D01*
X126847439Y-127165363D01*
X126855835Y-127137687D01*
X126869470Y-127112179D01*
X126887819Y-127089819D01*
X126910179Y-127071470D01*
X126935687Y-127057835D01*
X126963363Y-127049439D01*
X126998287Y-127046000D01*
X129989713Y-127046000D01*
X130024637Y-127049439D01*
X130024637Y-127049439D01*
G37*
G36*
X134558646Y-127065533D02*
X134813122Y-127142728D01*
X135047649Y-127268085D01*
X135253213Y-127436787D01*
X135421915Y-127642351D01*
X135547272Y-127876878D01*
X135624467Y-128131354D01*
X135650532Y-128396000D01*
X135624467Y-128660646D01*
X135547272Y-128915122D01*
X135421915Y-129149649D01*
X135253213Y-129355213D01*
X135047649Y-129523915D01*
X134813122Y-129649272D01*
X134558646Y-129726467D01*
X134360321Y-129746000D01*
X133627679Y-129746000D01*
X133429354Y-129726467D01*
X133174878Y-129649272D01*
X132940351Y-129523915D01*
X132734787Y-129355213D01*
X132566085Y-129149649D01*
X132440728Y-128915122D01*
X132363533Y-128660646D01*
X132337468Y-128396000D01*
X132363533Y-128131354D01*
X132440728Y-127876878D01*
X132566085Y-127642351D01*
X132734787Y-127436787D01*
X132940351Y-127268085D01*
X133174878Y-127142728D01*
X133429354Y-127065533D01*
X133627679Y-127046000D01*
X134360321Y-127046000D01*
X134558646Y-127065533D01*
X134558646Y-127065533D01*
G37*
G36*
X107524637Y-122049439D02*
X107552313Y-122057835D01*
X107577821Y-122071470D01*
X107600181Y-122089819D01*
X107618530Y-122112179D01*
X107632165Y-122137687D01*
X107640561Y-122165363D01*
X107644000Y-122200287D01*
X107644000Y-124591713D01*
X107640561Y-124626637D01*
X107632165Y-124654313D01*
X107618530Y-124679821D01*
X107600181Y-124702181D01*
X107577821Y-124720530D01*
X107552313Y-124734165D01*
X107524637Y-124742561D01*
X107489713Y-124746000D01*
X104498287Y-124746000D01*
X104463363Y-124742561D01*
X104435687Y-124734165D01*
X104410179Y-124720530D01*
X104387819Y-124702181D01*
X104369470Y-124679821D01*
X104355835Y-124654313D01*
X104347439Y-124626637D01*
X104344000Y-124591713D01*
X104344000Y-122200287D01*
X104347439Y-122165363D01*
X104355835Y-122137687D01*
X104369470Y-122112179D01*
X104387819Y-122089819D01*
X104410179Y-122071470D01*
X104435687Y-122057835D01*
X104463363Y-122049439D01*
X104498287Y-122046000D01*
X107489713Y-122046000D01*
X107524637Y-122049439D01*
X107524637Y-122049439D01*
G37*
G36*
X112058646Y-122065533D02*
X112313122Y-122142728D01*
X112547649Y-122268085D01*
X112753213Y-122436787D01*
X112921915Y-122642351D01*
X113047272Y-122876878D01*
X113124467Y-123131354D01*
X113150532Y-123396000D01*
X113124467Y-123660646D01*
X113047272Y-123915122D01*
X112921915Y-124149649D01*
X112753213Y-124355213D01*
X112547649Y-124523915D01*
X112313122Y-124649272D01*
X112058646Y-124726467D01*
X111860321Y-124746000D01*
X111127679Y-124746000D01*
X110929354Y-124726467D01*
X110674878Y-124649272D01*
X110440351Y-124523915D01*
X110234787Y-124355213D01*
X110066085Y-124149649D01*
X109940728Y-123915122D01*
X109863533Y-123660646D01*
X109837468Y-123396000D01*
X109863533Y-123131354D01*
X109940728Y-122876878D01*
X110066085Y-122642351D01*
X110234787Y-122436787D01*
X110440351Y-122268085D01*
X110674878Y-122142728D01*
X110929354Y-122065533D01*
X111127679Y-122046000D01*
X111860321Y-122046000D01*
X112058646Y-122065533D01*
X112058646Y-122065533D01*
G37*
G36*
X24427405Y-116818974D02*
X25009767Y-117060196D01*
X25533884Y-117410400D01*
X25979600Y-117856116D01*
X26329804Y-118380233D01*
X26571026Y-118962595D01*
X26694000Y-119580826D01*
X26694000Y-120211174D01*
X26571026Y-120829405D01*
X26329804Y-121411767D01*
X25979600Y-121935884D01*
X25533884Y-122381600D01*
X25009767Y-122731804D01*
X24427405Y-122973026D01*
X23809174Y-123096000D01*
X23178826Y-123096000D01*
X22560595Y-122973026D01*
X21978233Y-122731804D01*
X21454116Y-122381600D01*
X21008400Y-121935884D01*
X20658196Y-121411767D01*
X20416974Y-120829405D01*
X20294000Y-120211174D01*
X20294000Y-119580826D01*
X20416974Y-118962595D01*
X20658196Y-118380233D01*
X21008400Y-117856116D01*
X21454116Y-117410400D01*
X21978233Y-117060196D01*
X22560595Y-116818974D01*
X23178826Y-116696000D01*
X23809174Y-116696000D01*
X24427405Y-116818974D01*
X24427405Y-116818974D01*
G37*
G36*
X86779140Y-119281808D02*
X86942150Y-119314233D01*
X87146887Y-119399038D01*
X87328657Y-119520493D01*
X87331148Y-119522158D01*
X87487842Y-119678852D01*
X87487844Y-119678855D01*
X87610962Y-119863113D01*
X87695767Y-120067850D01*
X87739000Y-120285197D01*
X87739000Y-120506803D01*
X87695767Y-120724150D01*
X87610962Y-120928887D01*
X87610961Y-120928888D01*
X87487842Y-121113148D01*
X87331148Y-121269842D01*
X87331145Y-121269844D01*
X87146887Y-121392962D01*
X86942150Y-121477767D01*
X86779140Y-121510192D01*
X86724804Y-121521000D01*
X86503196Y-121521000D01*
X86448860Y-121510192D01*
X86285850Y-121477767D01*
X86081113Y-121392962D01*
X85896855Y-121269844D01*
X85896852Y-121269842D01*
X85740158Y-121113148D01*
X85617039Y-120928888D01*
X85617038Y-120928887D01*
X85532233Y-120724150D01*
X85489000Y-120506803D01*
X85489000Y-120285197D01*
X85532233Y-120067850D01*
X85617038Y-119863113D01*
X85740156Y-119678855D01*
X85740158Y-119678852D01*
X85896852Y-119522158D01*
X85899343Y-119520493D01*
X86081113Y-119399038D01*
X86285850Y-119314233D01*
X86448860Y-119281808D01*
X86503196Y-119271000D01*
X86724804Y-119271000D01*
X86779140Y-119281808D01*
X86779140Y-119281808D01*
G37*
G36*
X134558646Y-117065533D02*
X134813122Y-117142728D01*
X135047649Y-117268085D01*
X135253213Y-117436787D01*
X135421915Y-117642351D01*
X135547272Y-117876878D01*
X135624467Y-118131354D01*
X135650532Y-118396000D01*
X135624467Y-118660646D01*
X135547272Y-118915122D01*
X135421915Y-119149649D01*
X135253213Y-119355213D01*
X135047649Y-119523915D01*
X134813122Y-119649272D01*
X134558646Y-119726467D01*
X134360321Y-119746000D01*
X133627679Y-119746000D01*
X133429354Y-119726467D01*
X133174878Y-119649272D01*
X132940351Y-119523915D01*
X132734787Y-119355213D01*
X132566085Y-119149649D01*
X132440728Y-118915122D01*
X132363533Y-118660646D01*
X132337468Y-118396000D01*
X132363533Y-118131354D01*
X132440728Y-117876878D01*
X132566085Y-117642351D01*
X132734787Y-117436787D01*
X132940351Y-117268085D01*
X133174878Y-117142728D01*
X133429354Y-117065533D01*
X133627679Y-117046000D01*
X134360321Y-117046000D01*
X134558646Y-117065533D01*
X134558646Y-117065533D01*
G37*
G36*
X130024637Y-117049439D02*
X130052313Y-117057835D01*
X130077821Y-117071470D01*
X130100181Y-117089819D01*
X130118530Y-117112179D01*
X130132165Y-117137687D01*
X130140561Y-117165363D01*
X130144000Y-117200287D01*
X130144000Y-119591713D01*
X130140561Y-119626637D01*
X130132165Y-119654313D01*
X130118530Y-119679821D01*
X130100181Y-119702181D01*
X130077821Y-119720530D01*
X130052313Y-119734165D01*
X130024637Y-119742561D01*
X129989713Y-119746000D01*
X126998287Y-119746000D01*
X126963363Y-119742561D01*
X126935687Y-119734165D01*
X126910179Y-119720530D01*
X126887819Y-119702181D01*
X126869470Y-119679821D01*
X126855835Y-119654313D01*
X126847439Y-119626637D01*
X126844000Y-119591713D01*
X126844000Y-117200287D01*
X126847439Y-117165363D01*
X126855835Y-117137687D01*
X126869470Y-117112179D01*
X126887819Y-117089819D01*
X126910179Y-117071470D01*
X126935687Y-117057835D01*
X126963363Y-117049439D01*
X126998287Y-117046000D01*
X129989713Y-117046000D01*
X130024637Y-117049439D01*
X130024637Y-117049439D01*
G37*
G36*
X41059140Y-116741808D02*
X41222150Y-116774233D01*
X41426887Y-116859038D01*
X41426888Y-116859039D01*
X41611148Y-116982158D01*
X41767842Y-117138852D01*
X41767844Y-117138855D01*
X41890962Y-117323113D01*
X41975767Y-117527850D01*
X42019000Y-117745197D01*
X42019000Y-117966803D01*
X41975767Y-118184150D01*
X41890962Y-118388887D01*
X41890961Y-118388888D01*
X41767842Y-118573148D01*
X41611148Y-118729842D01*
X41611145Y-118729844D01*
X41426887Y-118852962D01*
X41222150Y-118937767D01*
X41059140Y-118970192D01*
X41004804Y-118981000D01*
X40783196Y-118981000D01*
X40728860Y-118970192D01*
X40565850Y-118937767D01*
X40361113Y-118852962D01*
X40176855Y-118729844D01*
X40176852Y-118729842D01*
X40020158Y-118573148D01*
X39897039Y-118388888D01*
X39897038Y-118388887D01*
X39812233Y-118184150D01*
X39769000Y-117966803D01*
X39769000Y-117745197D01*
X39812233Y-117527850D01*
X39897038Y-117323113D01*
X40020156Y-117138855D01*
X40020158Y-117138852D01*
X40176852Y-116982158D01*
X40361112Y-116859039D01*
X40361113Y-116859038D01*
X40565850Y-116774233D01*
X40728860Y-116741808D01*
X40783196Y-116731000D01*
X41004804Y-116731000D01*
X41059140Y-116741808D01*
X41059140Y-116741808D01*
G37*
G36*
X112058646Y-112065533D02*
X112313122Y-112142728D01*
X112547649Y-112268085D01*
X112753213Y-112436787D01*
X112921915Y-112642351D01*
X113047272Y-112876878D01*
X113124467Y-113131354D01*
X113150532Y-113396000D01*
X113124467Y-113660646D01*
X113047272Y-113915122D01*
X112921915Y-114149649D01*
X112753213Y-114355213D01*
X112547649Y-114523915D01*
X112313122Y-114649272D01*
X112058646Y-114726467D01*
X111860321Y-114746000D01*
X111127679Y-114746000D01*
X110929354Y-114726467D01*
X110674878Y-114649272D01*
X110440351Y-114523915D01*
X110234787Y-114355213D01*
X110066085Y-114149649D01*
X109940728Y-113915122D01*
X109863533Y-113660646D01*
X109837468Y-113396000D01*
X109863533Y-113131354D01*
X109940728Y-112876878D01*
X110066085Y-112642351D01*
X110234787Y-112436787D01*
X110440351Y-112268085D01*
X110674878Y-112142728D01*
X110929354Y-112065533D01*
X111127679Y-112046000D01*
X111860321Y-112046000D01*
X112058646Y-112065533D01*
X112058646Y-112065533D01*
G37*
G36*
X107524637Y-112049439D02*
X107552313Y-112057835D01*
X107577821Y-112071470D01*
X107600181Y-112089819D01*
X107618530Y-112112179D01*
X107632165Y-112137687D01*
X107640561Y-112165363D01*
X107644000Y-112200287D01*
X107644000Y-114591713D01*
X107640561Y-114626637D01*
X107632165Y-114654313D01*
X107618530Y-114679821D01*
X107600181Y-114702181D01*
X107577821Y-114720530D01*
X107552313Y-114734165D01*
X107524637Y-114742561D01*
X107489713Y-114746000D01*
X104498287Y-114746000D01*
X104463363Y-114742561D01*
X104435687Y-114734165D01*
X104410179Y-114720530D01*
X104387819Y-114702181D01*
X104369470Y-114679821D01*
X104355835Y-114654313D01*
X104347439Y-114626637D01*
X104344000Y-114591713D01*
X104344000Y-112200287D01*
X104347439Y-112165363D01*
X104355835Y-112137687D01*
X104369470Y-112112179D01*
X104387819Y-112089819D01*
X104410179Y-112071470D01*
X104435687Y-112057835D01*
X104463363Y-112049439D01*
X104498287Y-112046000D01*
X107489713Y-112046000D01*
X107524637Y-112049439D01*
X107524637Y-112049439D01*
G37*
G36*
X41059140Y-111661808D02*
X41222150Y-111694233D01*
X41426887Y-111779038D01*
X41426888Y-111779039D01*
X41611148Y-111902158D01*
X41767842Y-112058852D01*
X41767844Y-112058855D01*
X41890962Y-112243113D01*
X41975767Y-112447850D01*
X42008192Y-112610860D01*
X42014456Y-112642350D01*
X42019000Y-112665197D01*
X42019000Y-112886803D01*
X41975767Y-113104150D01*
X41890962Y-113308887D01*
X41769507Y-113490657D01*
X41767842Y-113493148D01*
X41611148Y-113649842D01*
X41611145Y-113649844D01*
X41426887Y-113772962D01*
X41222150Y-113857767D01*
X41059140Y-113890192D01*
X41004804Y-113901000D01*
X40783196Y-113901000D01*
X40728860Y-113890192D01*
X40565850Y-113857767D01*
X40361113Y-113772962D01*
X40176855Y-113649844D01*
X40176852Y-113649842D01*
X40020158Y-113493148D01*
X40018493Y-113490657D01*
X39897038Y-113308887D01*
X39812233Y-113104150D01*
X39769000Y-112886803D01*
X39769000Y-112665197D01*
X39773545Y-112642350D01*
X39779808Y-112610860D01*
X39812233Y-112447850D01*
X39897038Y-112243113D01*
X40020156Y-112058855D01*
X40020158Y-112058852D01*
X40176852Y-111902158D01*
X40361112Y-111779039D01*
X40361113Y-111779038D01*
X40565850Y-111694233D01*
X40728860Y-111661808D01*
X40783196Y-111651000D01*
X41004804Y-111651000D01*
X41059140Y-111661808D01*
X41059140Y-111661808D01*
G37*
G36*
X86779140Y-109121808D02*
X86942150Y-109154233D01*
X87146887Y-109239038D01*
X87146888Y-109239039D01*
X87331148Y-109362158D01*
X87487842Y-109518852D01*
X87487844Y-109518855D01*
X87610962Y-109703113D01*
X87695767Y-109907850D01*
X87739000Y-110125197D01*
X87739000Y-110346803D01*
X87695767Y-110564150D01*
X87610962Y-110768887D01*
X87610961Y-110768888D01*
X87487842Y-110953148D01*
X87331148Y-111109842D01*
X87331145Y-111109844D01*
X87146887Y-111232962D01*
X86942150Y-111317767D01*
X86779140Y-111350192D01*
X86724804Y-111361000D01*
X86503196Y-111361000D01*
X86448860Y-111350192D01*
X86285850Y-111317767D01*
X86081113Y-111232962D01*
X85896855Y-111109844D01*
X85896852Y-111109842D01*
X85740158Y-110953148D01*
X85617039Y-110768888D01*
X85617038Y-110768887D01*
X85532233Y-110564150D01*
X85489000Y-110346803D01*
X85489000Y-110125197D01*
X85532233Y-109907850D01*
X85617038Y-109703113D01*
X85740156Y-109518855D01*
X85740158Y-109518852D01*
X85896852Y-109362158D01*
X86081112Y-109239039D01*
X86081113Y-109239038D01*
X86285850Y-109154233D01*
X86448860Y-109121808D01*
X86503196Y-109111000D01*
X86724804Y-109111000D01*
X86779140Y-109121808D01*
X86779140Y-109121808D01*
G37*
G36*
X134558646Y-107065533D02*
X134813122Y-107142728D01*
X135047649Y-107268085D01*
X135253213Y-107436787D01*
X135421915Y-107642351D01*
X135547272Y-107876878D01*
X135624467Y-108131354D01*
X135650532Y-108396000D01*
X135624467Y-108660646D01*
X135547272Y-108915122D01*
X135421915Y-109149649D01*
X135253213Y-109355213D01*
X135047649Y-109523915D01*
X134813122Y-109649272D01*
X134558646Y-109726467D01*
X134360321Y-109746000D01*
X133627679Y-109746000D01*
X133429354Y-109726467D01*
X133174878Y-109649272D01*
X132940351Y-109523915D01*
X132734787Y-109355213D01*
X132566085Y-109149649D01*
X132440728Y-108915122D01*
X132363533Y-108660646D01*
X132337468Y-108396000D01*
X132363533Y-108131354D01*
X132440728Y-107876878D01*
X132566085Y-107642351D01*
X132734787Y-107436787D01*
X132940351Y-107268085D01*
X133174878Y-107142728D01*
X133429354Y-107065533D01*
X133627679Y-107046000D01*
X134360321Y-107046000D01*
X134558646Y-107065533D01*
X134558646Y-107065533D01*
G37*
G36*
X130024637Y-107049439D02*
X130052313Y-107057835D01*
X130077821Y-107071470D01*
X130100181Y-107089819D01*
X130118530Y-107112179D01*
X130132165Y-107137687D01*
X130140561Y-107165363D01*
X130144000Y-107200287D01*
X130144000Y-109591713D01*
X130140561Y-109626637D01*
X130132165Y-109654313D01*
X130118530Y-109679821D01*
X130100181Y-109702181D01*
X130077821Y-109720530D01*
X130052313Y-109734165D01*
X130024637Y-109742561D01*
X129989713Y-109746000D01*
X126998287Y-109746000D01*
X126963363Y-109742561D01*
X126935687Y-109734165D01*
X126910179Y-109720530D01*
X126887819Y-109702181D01*
X126869470Y-109679821D01*
X126855835Y-109654313D01*
X126847439Y-109626637D01*
X126844000Y-109591713D01*
X126844000Y-107200287D01*
X126847439Y-107165363D01*
X126855835Y-107137687D01*
X126869470Y-107112179D01*
X126887819Y-107089819D01*
X126910179Y-107071470D01*
X126935687Y-107057835D01*
X126963363Y-107049439D01*
X126998287Y-107046000D01*
X129989713Y-107046000D01*
X130024637Y-107049439D01*
X130024637Y-107049439D01*
G37*
G36*
X24235630Y-104058299D02*
X24395855Y-104106903D01*
X24543520Y-104185831D01*
X24672949Y-104292051D01*
X24779169Y-104421480D01*
X24858097Y-104569145D01*
X24906701Y-104729370D01*
X24923112Y-104896000D01*
X24906701Y-105062630D01*
X24858097Y-105222855D01*
X24779169Y-105370520D01*
X24672949Y-105499949D01*
X24543520Y-105606169D01*
X24395855Y-105685097D01*
X24235630Y-105733701D01*
X24110752Y-105746000D01*
X23877248Y-105746000D01*
X23752370Y-105733701D01*
X23592145Y-105685097D01*
X23444480Y-105606169D01*
X23315051Y-105499949D01*
X23208831Y-105370520D01*
X23129903Y-105222855D01*
X23081299Y-105062630D01*
X23064888Y-104896000D01*
X23081299Y-104729370D01*
X23129903Y-104569145D01*
X23208831Y-104421480D01*
X23315051Y-104292051D01*
X23444480Y-104185831D01*
X23592145Y-104106903D01*
X23752370Y-104058299D01*
X23877248Y-104046000D01*
X24110752Y-104046000D01*
X24235630Y-104058299D01*
X24235630Y-104058299D01*
G37*
G36*
X107524637Y-102049439D02*
X107552313Y-102057835D01*
X107577821Y-102071470D01*
X107600181Y-102089819D01*
X107618530Y-102112179D01*
X107632165Y-102137687D01*
X107640561Y-102165363D01*
X107644000Y-102200287D01*
X107644000Y-104591713D01*
X107640561Y-104626637D01*
X107632165Y-104654313D01*
X107618530Y-104679821D01*
X107600181Y-104702181D01*
X107577821Y-104720530D01*
X107552313Y-104734165D01*
X107524637Y-104742561D01*
X107489713Y-104746000D01*
X104498287Y-104746000D01*
X104463363Y-104742561D01*
X104435687Y-104734165D01*
X104410179Y-104720530D01*
X104387819Y-104702181D01*
X104369470Y-104679821D01*
X104355835Y-104654313D01*
X104347439Y-104626637D01*
X104344000Y-104591713D01*
X104344000Y-102200287D01*
X104347439Y-102165363D01*
X104355835Y-102137687D01*
X104369470Y-102112179D01*
X104387819Y-102089819D01*
X104410179Y-102071470D01*
X104435687Y-102057835D01*
X104463363Y-102049439D01*
X104498287Y-102046000D01*
X107489713Y-102046000D01*
X107524637Y-102049439D01*
X107524637Y-102049439D01*
G37*
G36*
X112058646Y-102065533D02*
X112313122Y-102142728D01*
X112547649Y-102268085D01*
X112753213Y-102436787D01*
X112921915Y-102642351D01*
X113047272Y-102876878D01*
X113124467Y-103131354D01*
X113150532Y-103396000D01*
X113124467Y-103660646D01*
X113047272Y-103915122D01*
X112921915Y-104149649D01*
X112753213Y-104355213D01*
X112547649Y-104523915D01*
X112313122Y-104649272D01*
X112058646Y-104726467D01*
X111860321Y-104746000D01*
X111127679Y-104746000D01*
X110929354Y-104726467D01*
X110674878Y-104649272D01*
X110440351Y-104523915D01*
X110234787Y-104355213D01*
X110066085Y-104149649D01*
X109940728Y-103915122D01*
X109863533Y-103660646D01*
X109837468Y-103396000D01*
X109863533Y-103131354D01*
X109940728Y-102876878D01*
X110066085Y-102642351D01*
X110234787Y-102436787D01*
X110440351Y-102268085D01*
X110674878Y-102142728D01*
X110929354Y-102065533D01*
X111127679Y-102046000D01*
X111860321Y-102046000D01*
X112058646Y-102065533D01*
X112058646Y-102065533D01*
G37*
G36*
X41059140Y-101501808D02*
X41222150Y-101534233D01*
X41426887Y-101619038D01*
X41548547Y-101700329D01*
X41611148Y-101742158D01*
X41767842Y-101898852D01*
X41767844Y-101898855D01*
X41890962Y-102083113D01*
X41975767Y-102287850D01*
X42019000Y-102505197D01*
X42019000Y-102726803D01*
X41975767Y-102944150D01*
X41890962Y-103148887D01*
X41829283Y-103241196D01*
X41767842Y-103333148D01*
X41611148Y-103489842D01*
X41611145Y-103489844D01*
X41426887Y-103612962D01*
X41222150Y-103697767D01*
X41059140Y-103730192D01*
X41004804Y-103741000D01*
X40783196Y-103741000D01*
X40728860Y-103730192D01*
X40565850Y-103697767D01*
X40361113Y-103612962D01*
X40176855Y-103489844D01*
X40176852Y-103489842D01*
X40020158Y-103333148D01*
X39958717Y-103241196D01*
X39897038Y-103148887D01*
X39812233Y-102944150D01*
X39769000Y-102726803D01*
X39769000Y-102505197D01*
X39812233Y-102287850D01*
X39897038Y-102083113D01*
X40020156Y-101898855D01*
X40020158Y-101898852D01*
X40176852Y-101742158D01*
X40239453Y-101700329D01*
X40361113Y-101619038D01*
X40565850Y-101534233D01*
X40728860Y-101501808D01*
X40783196Y-101491000D01*
X41004804Y-101491000D01*
X41059140Y-101501808D01*
X41059140Y-101501808D01*
G37*
G36*
X24788675Y-101549701D02*
X24818907Y-101558872D01*
X24846769Y-101573765D01*
X24871192Y-101593808D01*
X24891235Y-101618231D01*
X24906128Y-101646093D01*
X24915299Y-101676325D01*
X24919000Y-101713905D01*
X24919000Y-103078095D01*
X24915299Y-103115675D01*
X24906128Y-103145907D01*
X24891235Y-103173769D01*
X24871192Y-103198192D01*
X24846769Y-103218235D01*
X24818907Y-103233128D01*
X24788675Y-103242299D01*
X24751095Y-103246000D01*
X23236905Y-103246000D01*
X23199325Y-103242299D01*
X23169093Y-103233128D01*
X23141231Y-103218235D01*
X23116808Y-103198192D01*
X23096765Y-103173769D01*
X23081872Y-103145907D01*
X23072701Y-103115675D01*
X23069000Y-103078095D01*
X23069000Y-101713905D01*
X23072701Y-101676325D01*
X23081872Y-101646093D01*
X23096765Y-101618231D01*
X23116808Y-101593808D01*
X23141231Y-101573765D01*
X23169093Y-101558872D01*
X23199325Y-101549701D01*
X23236905Y-101546000D01*
X24751095Y-101546000D01*
X24788675Y-101549701D01*
X24788675Y-101549701D01*
G37*
G36*
X86779140Y-98961808D02*
X86942150Y-98994233D01*
X87146887Y-99079038D01*
X87328657Y-99200493D01*
X87331148Y-99202158D01*
X87487842Y-99358852D01*
X87487844Y-99358855D01*
X87610962Y-99543113D01*
X87695767Y-99747850D01*
X87739000Y-99965197D01*
X87739000Y-100186803D01*
X87695767Y-100404150D01*
X87610962Y-100608887D01*
X87610961Y-100608888D01*
X87487842Y-100793148D01*
X87331148Y-100949842D01*
X87331145Y-100949844D01*
X87146887Y-101072962D01*
X86942150Y-101157767D01*
X86779140Y-101190192D01*
X86724804Y-101201000D01*
X86503196Y-101201000D01*
X86448860Y-101190192D01*
X86285850Y-101157767D01*
X86081113Y-101072962D01*
X85896855Y-100949844D01*
X85896852Y-100949842D01*
X85740158Y-100793148D01*
X85617039Y-100608888D01*
X85617038Y-100608887D01*
X85532233Y-100404150D01*
X85489000Y-100186803D01*
X85489000Y-99965197D01*
X85532233Y-99747850D01*
X85617038Y-99543113D01*
X85740156Y-99358855D01*
X85740158Y-99358852D01*
X85896852Y-99202158D01*
X85899343Y-99200493D01*
X86081113Y-99079038D01*
X86285850Y-98994233D01*
X86448860Y-98961808D01*
X86503196Y-98951000D01*
X86724804Y-98951000D01*
X86779140Y-98961808D01*
X86779140Y-98961808D01*
G37*
G36*
X134558646Y-97065533D02*
X134813122Y-97142728D01*
X135047649Y-97268085D01*
X135253213Y-97436787D01*
X135421915Y-97642351D01*
X135547272Y-97876878D01*
X135624467Y-98131354D01*
X135650532Y-98396000D01*
X135624467Y-98660646D01*
X135547272Y-98915122D01*
X135421915Y-99149649D01*
X135253213Y-99355213D01*
X135047649Y-99523915D01*
X134813122Y-99649272D01*
X134558646Y-99726467D01*
X134360321Y-99746000D01*
X133627679Y-99746000D01*
X133429354Y-99726467D01*
X133174878Y-99649272D01*
X132940351Y-99523915D01*
X132734787Y-99355213D01*
X132566085Y-99149649D01*
X132440728Y-98915122D01*
X132363533Y-98660646D01*
X132337468Y-98396000D01*
X132363533Y-98131354D01*
X132440728Y-97876878D01*
X132566085Y-97642351D01*
X132734787Y-97436787D01*
X132940351Y-97268085D01*
X133174878Y-97142728D01*
X133429354Y-97065533D01*
X133627679Y-97046000D01*
X134360321Y-97046000D01*
X134558646Y-97065533D01*
X134558646Y-97065533D01*
G37*
G36*
X130024637Y-97049439D02*
X130052313Y-97057835D01*
X130077821Y-97071470D01*
X130100181Y-97089819D01*
X130118530Y-97112179D01*
X130132165Y-97137687D01*
X130140561Y-97165363D01*
X130144000Y-97200287D01*
X130144000Y-99591713D01*
X130140561Y-99626637D01*
X130132165Y-99654313D01*
X130118530Y-99679821D01*
X130100181Y-99702181D01*
X130077821Y-99720530D01*
X130052313Y-99734165D01*
X130024637Y-99742561D01*
X129989713Y-99746000D01*
X126998287Y-99746000D01*
X126963363Y-99742561D01*
X126935687Y-99734165D01*
X126910179Y-99720530D01*
X126887819Y-99702181D01*
X126869470Y-99679821D01*
X126855835Y-99654313D01*
X126847439Y-99626637D01*
X126844000Y-99591713D01*
X126844000Y-97200287D01*
X126847439Y-97165363D01*
X126855835Y-97137687D01*
X126869470Y-97112179D01*
X126887819Y-97089819D01*
X126910179Y-97071470D01*
X126935687Y-97057835D01*
X126963363Y-97049439D01*
X126998287Y-97046000D01*
X129989713Y-97046000D01*
X130024637Y-97049439D01*
X130024637Y-97049439D01*
G37*
G36*
X112058646Y-92065533D02*
X112313122Y-92142728D01*
X112547649Y-92268085D01*
X112753213Y-92436787D01*
X112921915Y-92642351D01*
X113047272Y-92876878D01*
X113124467Y-93131354D01*
X113150532Y-93396000D01*
X113124467Y-93660646D01*
X113047272Y-93915122D01*
X112921915Y-94149649D01*
X112753213Y-94355213D01*
X112547649Y-94523915D01*
X112313122Y-94649272D01*
X112058646Y-94726467D01*
X111860321Y-94746000D01*
X111127679Y-94746000D01*
X110929354Y-94726467D01*
X110674878Y-94649272D01*
X110440351Y-94523915D01*
X110234787Y-94355213D01*
X110066085Y-94149649D01*
X109940728Y-93915122D01*
X109863533Y-93660646D01*
X109837468Y-93396000D01*
X109863533Y-93131354D01*
X109940728Y-92876878D01*
X110066085Y-92642351D01*
X110234787Y-92436787D01*
X110440351Y-92268085D01*
X110674878Y-92142728D01*
X110929354Y-92065533D01*
X111127679Y-92046000D01*
X111860321Y-92046000D01*
X112058646Y-92065533D01*
X112058646Y-92065533D01*
G37*
G36*
X107524637Y-92049439D02*
X107552313Y-92057835D01*
X107577821Y-92071470D01*
X107600181Y-92089819D01*
X107618530Y-92112179D01*
X107632165Y-92137687D01*
X107640561Y-92165363D01*
X107644000Y-92200287D01*
X107644000Y-94591713D01*
X107640561Y-94626637D01*
X107632165Y-94654313D01*
X107618530Y-94679821D01*
X107600181Y-94702181D01*
X107577821Y-94720530D01*
X107552313Y-94734165D01*
X107524637Y-94742561D01*
X107489713Y-94746000D01*
X104498287Y-94746000D01*
X104463363Y-94742561D01*
X104435687Y-94734165D01*
X104410179Y-94720530D01*
X104387819Y-94702181D01*
X104369470Y-94679821D01*
X104355835Y-94654313D01*
X104347439Y-94626637D01*
X104344000Y-94591713D01*
X104344000Y-92200287D01*
X104347439Y-92165363D01*
X104355835Y-92137687D01*
X104369470Y-92112179D01*
X104387819Y-92089819D01*
X104410179Y-92071470D01*
X104435687Y-92057835D01*
X104463363Y-92049439D01*
X104498287Y-92046000D01*
X107489713Y-92046000D01*
X107524637Y-92049439D01*
X107524637Y-92049439D01*
G37*
G36*
X139427405Y-77818974D02*
X140009767Y-78060196D01*
X140533884Y-78410400D01*
X140979600Y-78856116D01*
X141329804Y-79380233D01*
X141571026Y-79962595D01*
X141694000Y-80580826D01*
X141694000Y-81211174D01*
X141571026Y-81829405D01*
X141329804Y-82411767D01*
X140979600Y-82935884D01*
X140533884Y-83381600D01*
X140009767Y-83731804D01*
X139427405Y-83973026D01*
X138809174Y-84096000D01*
X138178826Y-84096000D01*
X137560595Y-83973026D01*
X136978233Y-83731804D01*
X136454116Y-83381600D01*
X136008400Y-82935884D01*
X135658196Y-82411767D01*
X135416974Y-81829405D01*
X135294000Y-81211174D01*
X135294000Y-80580826D01*
X135416974Y-79962595D01*
X135658196Y-79380233D01*
X136008400Y-78856116D01*
X136454116Y-78410400D01*
X136978233Y-78060196D01*
X137560595Y-77818974D01*
X138178826Y-77696000D01*
X138809174Y-77696000D01*
X139427405Y-77818974D01*
X139427405Y-77818974D01*
G37*
G36*
X112058646Y-79565533D02*
X112313122Y-79642728D01*
X112547649Y-79768085D01*
X112753213Y-79936787D01*
X112921915Y-80142351D01*
X113047272Y-80376878D01*
X113124467Y-80631354D01*
X113150532Y-80896000D01*
X113124467Y-81160646D01*
X113047272Y-81415122D01*
X112921915Y-81649649D01*
X112753213Y-81855213D01*
X112547649Y-82023915D01*
X112313122Y-82149272D01*
X112058646Y-82226467D01*
X111860321Y-82246000D01*
X111127679Y-82246000D01*
X110929354Y-82226467D01*
X110674878Y-82149272D01*
X110440351Y-82023915D01*
X110234787Y-81855213D01*
X110066085Y-81649649D01*
X109940728Y-81415122D01*
X109863533Y-81160646D01*
X109837468Y-80896000D01*
X109863533Y-80631354D01*
X109940728Y-80376878D01*
X110066085Y-80142351D01*
X110234787Y-79936787D01*
X110440351Y-79768085D01*
X110674878Y-79642728D01*
X110929354Y-79565533D01*
X111127679Y-79546000D01*
X111860321Y-79546000D01*
X112058646Y-79565533D01*
X112058646Y-79565533D01*
G37*
G36*
X107524637Y-79549439D02*
X107552313Y-79557835D01*
X107577821Y-79571470D01*
X107600181Y-79589819D01*
X107618530Y-79612179D01*
X107632165Y-79637687D01*
X107640561Y-79665363D01*
X107644000Y-79700287D01*
X107644000Y-82091713D01*
X107640561Y-82126637D01*
X107632165Y-82154313D01*
X107618530Y-82179821D01*
X107600181Y-82202181D01*
X107577821Y-82220530D01*
X107552313Y-82234165D01*
X107524637Y-82242561D01*
X107489713Y-82246000D01*
X104498287Y-82246000D01*
X104463363Y-82242561D01*
X104435687Y-82234165D01*
X104410179Y-82220530D01*
X104387819Y-82202181D01*
X104369470Y-82179821D01*
X104355835Y-82154313D01*
X104347439Y-82126637D01*
X104344000Y-82091713D01*
X104344000Y-79700287D01*
X104347439Y-79665363D01*
X104355835Y-79637687D01*
X104369470Y-79612179D01*
X104387819Y-79589819D01*
X104410179Y-79571470D01*
X104435687Y-79557835D01*
X104463363Y-79549439D01*
X104498287Y-79546000D01*
X107489713Y-79546000D01*
X107524637Y-79549439D01*
X107524637Y-79549439D01*
G37*
G36*
X89360703Y-74677486D02*
X89651883Y-74798097D01*
X89913944Y-74973201D01*
X90136799Y-75196056D01*
X90311903Y-75458117D01*
X90432514Y-75749297D01*
X90494000Y-76058412D01*
X90494000Y-76373588D01*
X90432514Y-76682703D01*
X90311903Y-76973883D01*
X90136799Y-77235944D01*
X89913944Y-77458799D01*
X89651883Y-77633903D01*
X89360703Y-77754514D01*
X89051588Y-77816000D01*
X88736412Y-77816000D01*
X88427297Y-77754514D01*
X88136117Y-77633903D01*
X87874056Y-77458799D01*
X87651201Y-77235944D01*
X87476097Y-76973883D01*
X87355486Y-76682703D01*
X87294000Y-76373588D01*
X87294000Y-76058412D01*
X87355486Y-75749297D01*
X87476097Y-75458117D01*
X87651201Y-75196056D01*
X87874056Y-74973201D01*
X88136117Y-74798097D01*
X88427297Y-74677486D01*
X88736412Y-74616000D01*
X89051588Y-74616000D01*
X89360703Y-74677486D01*
X89360703Y-74677486D01*
G37*
G36*
X38341765Y-74970403D02*
X38464445Y-74994805D01*
X38695571Y-75090541D01*
X38903581Y-75229529D01*
X39080471Y-75406419D01*
X39080473Y-75406422D01*
X39219459Y-75614429D01*
X39315195Y-75845555D01*
X39364000Y-76090916D01*
X39364000Y-76341084D01*
X39315195Y-76586445D01*
X39275323Y-76682703D01*
X39219459Y-76817571D01*
X39080471Y-77025581D01*
X38903581Y-77202471D01*
X38903578Y-77202473D01*
X38695571Y-77341459D01*
X38464445Y-77437195D01*
X38341765Y-77461597D01*
X38219086Y-77486000D01*
X37968914Y-77486000D01*
X37846235Y-77461597D01*
X37723555Y-77437195D01*
X37492429Y-77341459D01*
X37284422Y-77202473D01*
X37284419Y-77202471D01*
X37107529Y-77025581D01*
X36968541Y-76817571D01*
X36912677Y-76682703D01*
X36872805Y-76586445D01*
X36824000Y-76341084D01*
X36824000Y-76090916D01*
X36872805Y-75845555D01*
X36968541Y-75614429D01*
X37107527Y-75406422D01*
X37107529Y-75406419D01*
X37284419Y-75229529D01*
X37492429Y-75090541D01*
X37723555Y-74994805D01*
X37846235Y-74970403D01*
X37968914Y-74946000D01*
X38219086Y-74946000D01*
X38341765Y-74970403D01*
X38341765Y-74970403D01*
G37*
G36*
X89141765Y-71160403D02*
X89264445Y-71184805D01*
X89495571Y-71280541D01*
X89703581Y-71419529D01*
X89880471Y-71596419D01*
X89880473Y-71596422D01*
X90019459Y-71804429D01*
X90115195Y-72035555D01*
X90115195Y-72035557D01*
X90156100Y-72241196D01*
X90164000Y-72280916D01*
X90164000Y-72531084D01*
X90115195Y-72776445D01*
X90019459Y-73007571D01*
X89880471Y-73215581D01*
X89703581Y-73392471D01*
X89703578Y-73392473D01*
X89495571Y-73531459D01*
X89264445Y-73627195D01*
X89141764Y-73651598D01*
X89019086Y-73676000D01*
X88768914Y-73676000D01*
X88646236Y-73651598D01*
X88523555Y-73627195D01*
X88292429Y-73531459D01*
X88084422Y-73392473D01*
X88084419Y-73392471D01*
X87907529Y-73215581D01*
X87768541Y-73007571D01*
X87672805Y-72776445D01*
X87624000Y-72531084D01*
X87624000Y-72280916D01*
X87631901Y-72241196D01*
X87672805Y-72035557D01*
X87672805Y-72035555D01*
X87768541Y-71804429D01*
X87907527Y-71596422D01*
X87907529Y-71596419D01*
X88084419Y-71419529D01*
X88292429Y-71280541D01*
X88523555Y-71184805D01*
X88646235Y-71160403D01*
X88768914Y-71136000D01*
X89019086Y-71136000D01*
X89141765Y-71160403D01*
X89141765Y-71160403D01*
G37*
G36*
X112058646Y-69565533D02*
X112313122Y-69642728D01*
X112547649Y-69768085D01*
X112753213Y-69936787D01*
X112921915Y-70142351D01*
X113047272Y-70376878D01*
X113124467Y-70631354D01*
X113150532Y-70896000D01*
X113124467Y-71160646D01*
X113047272Y-71415122D01*
X112921915Y-71649649D01*
X112753213Y-71855213D01*
X112547649Y-72023915D01*
X112313122Y-72149272D01*
X112058646Y-72226467D01*
X111860321Y-72246000D01*
X111127679Y-72246000D01*
X110929354Y-72226467D01*
X110674878Y-72149272D01*
X110440351Y-72023915D01*
X110234787Y-71855213D01*
X110066085Y-71649649D01*
X109940728Y-71415122D01*
X109863533Y-71160646D01*
X109837468Y-70896000D01*
X109863533Y-70631354D01*
X109940728Y-70376878D01*
X110066085Y-70142351D01*
X110234787Y-69936787D01*
X110440351Y-69768085D01*
X110674878Y-69642728D01*
X110929354Y-69565533D01*
X111127679Y-69546000D01*
X111860321Y-69546000D01*
X112058646Y-69565533D01*
X112058646Y-69565533D01*
G37*
G36*
X107524637Y-69549439D02*
X107552313Y-69557835D01*
X107577821Y-69571470D01*
X107600181Y-69589819D01*
X107618530Y-69612179D01*
X107632165Y-69637687D01*
X107640561Y-69665363D01*
X107644000Y-69700287D01*
X107644000Y-72091713D01*
X107640561Y-72126637D01*
X107632165Y-72154313D01*
X107618530Y-72179821D01*
X107600181Y-72202181D01*
X107577821Y-72220530D01*
X107552313Y-72234165D01*
X107524637Y-72242561D01*
X107489713Y-72246000D01*
X104498287Y-72246000D01*
X104463363Y-72242561D01*
X104435687Y-72234165D01*
X104410179Y-72220530D01*
X104387819Y-72202181D01*
X104369470Y-72179821D01*
X104355835Y-72154313D01*
X104347439Y-72126637D01*
X104344000Y-72091713D01*
X104344000Y-69700287D01*
X104347439Y-69665363D01*
X104355835Y-69637687D01*
X104369470Y-69612179D01*
X104387819Y-69589819D01*
X104410179Y-69571470D01*
X104435687Y-69557835D01*
X104463363Y-69549439D01*
X104498287Y-69546000D01*
X107489713Y-69546000D01*
X107524637Y-69549439D01*
X107524637Y-69549439D01*
G37*
G36*
X24235630Y-70558299D02*
X24395855Y-70606903D01*
X24543520Y-70685831D01*
X24672949Y-70792051D01*
X24779169Y-70921480D01*
X24858097Y-71069145D01*
X24906701Y-71229370D01*
X24923112Y-71396000D01*
X24906701Y-71562630D01*
X24858097Y-71722855D01*
X24779169Y-71870520D01*
X24672949Y-71999949D01*
X24543520Y-72106169D01*
X24395855Y-72185097D01*
X24235630Y-72233701D01*
X24110752Y-72246000D01*
X23877248Y-72246000D01*
X23752370Y-72233701D01*
X23592145Y-72185097D01*
X23444480Y-72106169D01*
X23315051Y-71999949D01*
X23208831Y-71870520D01*
X23129903Y-71722855D01*
X23081299Y-71562630D01*
X23064888Y-71396000D01*
X23081299Y-71229370D01*
X23129903Y-71069145D01*
X23208831Y-70921480D01*
X23315051Y-70792051D01*
X23444480Y-70685831D01*
X23592145Y-70606903D01*
X23752370Y-70558299D01*
X23877248Y-70546000D01*
X24110752Y-70546000D01*
X24235630Y-70558299D01*
X24235630Y-70558299D01*
G37*
G36*
X38341764Y-67350402D02*
X38464445Y-67374805D01*
X38695571Y-67470541D01*
X38903581Y-67609529D01*
X39080471Y-67786419D01*
X39080473Y-67786422D01*
X39219459Y-67994429D01*
X39315195Y-68225555D01*
X39364000Y-68470916D01*
X39364000Y-68721084D01*
X39315195Y-68966445D01*
X39219459Y-69197571D01*
X39080471Y-69405581D01*
X38903581Y-69582471D01*
X38903578Y-69582473D01*
X38695571Y-69721459D01*
X38464445Y-69817195D01*
X38341765Y-69841597D01*
X38219086Y-69866000D01*
X37968914Y-69866000D01*
X37846235Y-69841597D01*
X37723555Y-69817195D01*
X37492429Y-69721459D01*
X37284422Y-69582473D01*
X37284419Y-69582471D01*
X37107529Y-69405581D01*
X36968541Y-69197571D01*
X36872805Y-68966445D01*
X36824000Y-68721084D01*
X36824000Y-68470916D01*
X36872805Y-68225555D01*
X36968541Y-67994429D01*
X37107527Y-67786422D01*
X37107529Y-67786419D01*
X37284419Y-67609529D01*
X37492429Y-67470541D01*
X37723555Y-67374805D01*
X37846236Y-67350402D01*
X37968914Y-67326000D01*
X38219086Y-67326000D01*
X38341764Y-67350402D01*
X38341764Y-67350402D01*
G37*
G36*
X89141764Y-67350402D02*
X89264445Y-67374805D01*
X89495571Y-67470541D01*
X89703581Y-67609529D01*
X89880471Y-67786419D01*
X89880473Y-67786422D01*
X90019459Y-67994429D01*
X90115195Y-68225555D01*
X90164000Y-68470916D01*
X90164000Y-68721084D01*
X90115195Y-68966445D01*
X90019459Y-69197571D01*
X89880471Y-69405581D01*
X89703581Y-69582471D01*
X89703578Y-69582473D01*
X89495571Y-69721459D01*
X89264445Y-69817195D01*
X89141765Y-69841597D01*
X89019086Y-69866000D01*
X88768914Y-69866000D01*
X88646235Y-69841597D01*
X88523555Y-69817195D01*
X88292429Y-69721459D01*
X88084422Y-69582473D01*
X88084419Y-69582471D01*
X87907529Y-69405581D01*
X87768541Y-69197571D01*
X87672805Y-68966445D01*
X87624000Y-68721084D01*
X87624000Y-68470916D01*
X87672805Y-68225555D01*
X87768541Y-67994429D01*
X87907527Y-67786422D01*
X87907529Y-67786419D01*
X88084419Y-67609529D01*
X88292429Y-67470541D01*
X88523555Y-67374805D01*
X88646236Y-67350402D01*
X88768914Y-67326000D01*
X89019086Y-67326000D01*
X89141764Y-67350402D01*
X89141764Y-67350402D01*
G37*
G36*
X24788675Y-68049701D02*
X24818907Y-68058872D01*
X24846769Y-68073765D01*
X24871192Y-68093808D01*
X24891235Y-68118231D01*
X24906128Y-68146093D01*
X24915299Y-68176325D01*
X24919000Y-68213905D01*
X24919000Y-69578095D01*
X24915299Y-69615675D01*
X24906128Y-69645907D01*
X24891235Y-69673769D01*
X24871192Y-69698192D01*
X24846769Y-69718235D01*
X24818907Y-69733128D01*
X24788675Y-69742299D01*
X24751095Y-69746000D01*
X23236905Y-69746000D01*
X23199325Y-69742299D01*
X23169093Y-69733128D01*
X23141231Y-69718235D01*
X23116808Y-69698192D01*
X23096765Y-69673769D01*
X23081872Y-69645907D01*
X23072701Y-69615675D01*
X23069000Y-69578095D01*
X23069000Y-68213905D01*
X23072701Y-68176325D01*
X23081872Y-68146093D01*
X23096765Y-68118231D01*
X23116808Y-68093808D01*
X23141231Y-68073765D01*
X23169093Y-68058872D01*
X23199325Y-68049701D01*
X23236905Y-68046000D01*
X24751095Y-68046000D01*
X24788675Y-68049701D01*
X24788675Y-68049701D01*
G37*
G36*
X129344000Y-66746000D02*
X127644000Y-66746000D01*
X127644000Y-65046000D01*
X129344000Y-65046000D01*
X129344000Y-66746000D01*
X129344000Y-66746000D01*
G37*
G36*
X132937992Y-65200076D02*
X132971883Y-65210357D01*
X133003111Y-65227048D01*
X133030485Y-65249515D01*
X133052952Y-65276889D01*
X133069643Y-65308117D01*
X133079924Y-65342008D01*
X133084000Y-65383391D01*
X133084000Y-66408609D01*
X133079924Y-66449992D01*
X133069643Y-66483883D01*
X133052952Y-66515111D01*
X133030485Y-66542485D01*
X133003111Y-66564952D01*
X132971883Y-66581643D01*
X132937992Y-66591924D01*
X132896609Y-66596000D01*
X132296391Y-66596000D01*
X132255008Y-66591924D01*
X132221117Y-66581643D01*
X132189889Y-66564952D01*
X132162515Y-66542485D01*
X132140048Y-66515111D01*
X132123357Y-66483883D01*
X132113076Y-66449992D01*
X132109000Y-66408609D01*
X132109000Y-65383391D01*
X132113076Y-65342008D01*
X132123357Y-65308117D01*
X132140048Y-65276889D01*
X132162515Y-65249515D01*
X132189889Y-65227048D01*
X132221117Y-65210357D01*
X132255008Y-65200076D01*
X132296391Y-65196000D01*
X132896609Y-65196000D01*
X132937992Y-65200076D01*
X132937992Y-65200076D01*
G37*
G36*
X134812992Y-65200076D02*
X134846883Y-65210357D01*
X134878111Y-65227048D01*
X134905485Y-65249515D01*
X134927952Y-65276889D01*
X134944643Y-65308117D01*
X134954924Y-65342008D01*
X134959000Y-65383391D01*
X134959000Y-66408609D01*
X134954924Y-66449992D01*
X134944643Y-66483883D01*
X134927952Y-66515111D01*
X134905485Y-66542485D01*
X134878111Y-66564952D01*
X134846883Y-66581643D01*
X134812992Y-66591924D01*
X134771609Y-66596000D01*
X134171391Y-66596000D01*
X134130008Y-66591924D01*
X134096117Y-66581643D01*
X134064889Y-66564952D01*
X134037515Y-66542485D01*
X134015048Y-66515111D01*
X133998357Y-66483883D01*
X133988076Y-66449992D01*
X133984000Y-66408609D01*
X133984000Y-65383391D01*
X133988076Y-65342008D01*
X133998357Y-65308117D01*
X134015048Y-65276889D01*
X134037515Y-65249515D01*
X134064889Y-65227048D01*
X134096117Y-65210357D01*
X134130008Y-65200076D01*
X134171391Y-65196000D01*
X134771609Y-65196000D01*
X134812992Y-65200076D01*
X134812992Y-65200076D01*
G37*
G36*
X89141764Y-63540402D02*
X89264445Y-63564805D01*
X89495571Y-63660541D01*
X89703581Y-63799529D01*
X89880471Y-63976419D01*
X89880473Y-63976422D01*
X90019459Y-64184429D01*
X90115195Y-64415555D01*
X90164000Y-64660916D01*
X90164000Y-64911084D01*
X90115195Y-65156445D01*
X90052370Y-65308117D01*
X90019459Y-65387571D01*
X89880471Y-65595581D01*
X89703581Y-65772471D01*
X89703578Y-65772473D01*
X89495571Y-65911459D01*
X89264445Y-66007195D01*
X89141765Y-66031597D01*
X89019086Y-66056000D01*
X88768914Y-66056000D01*
X88646235Y-66031597D01*
X88523555Y-66007195D01*
X88292429Y-65911459D01*
X88084422Y-65772473D01*
X88084419Y-65772471D01*
X87907529Y-65595581D01*
X87768541Y-65387571D01*
X87735630Y-65308117D01*
X87672805Y-65156445D01*
X87624000Y-64911084D01*
X87624000Y-64660916D01*
X87672805Y-64415555D01*
X87768541Y-64184429D01*
X87907527Y-63976422D01*
X87907529Y-63976419D01*
X88084419Y-63799529D01*
X88292429Y-63660541D01*
X88523555Y-63564805D01*
X88646236Y-63540402D01*
X88768914Y-63516000D01*
X89019086Y-63516000D01*
X89141764Y-63540402D01*
X89141764Y-63540402D01*
G37*
G36*
X89360703Y-59437486D02*
X89651883Y-59558097D01*
X89913944Y-59733201D01*
X90136799Y-59956056D01*
X90311903Y-60218117D01*
X90432514Y-60509297D01*
X90494000Y-60818412D01*
X90494000Y-61133588D01*
X90432514Y-61442703D01*
X90311903Y-61733883D01*
X90136799Y-61995944D01*
X89913944Y-62218799D01*
X89651883Y-62393903D01*
X89360703Y-62514514D01*
X89051588Y-62576000D01*
X88736412Y-62576000D01*
X88427297Y-62514514D01*
X88136117Y-62393903D01*
X87874056Y-62218799D01*
X87651201Y-61995944D01*
X87476097Y-61733883D01*
X87355486Y-61442703D01*
X87294000Y-61133588D01*
X87294000Y-60818412D01*
X87355486Y-60509297D01*
X87476097Y-60218117D01*
X87651201Y-59956056D01*
X87874056Y-59733201D01*
X88136117Y-59558097D01*
X88427297Y-59437486D01*
X88736412Y-59376000D01*
X89051588Y-59376000D01*
X89360703Y-59437486D01*
X89360703Y-59437486D01*
G37*
G36*
X38341764Y-59730402D02*
X38464445Y-59754805D01*
X38695571Y-59850541D01*
X38903581Y-59989529D01*
X39080471Y-60166419D01*
X39080473Y-60166422D01*
X39219459Y-60374429D01*
X39315195Y-60605555D01*
X39339598Y-60728236D01*
X39364000Y-60850914D01*
X39364000Y-61101086D01*
X39339598Y-61223764D01*
X39315195Y-61346445D01*
X39286747Y-61415124D01*
X39219459Y-61577571D01*
X39080471Y-61785581D01*
X38903581Y-61962471D01*
X38903578Y-61962473D01*
X38695571Y-62101459D01*
X38464445Y-62197195D01*
X38347131Y-62220530D01*
X38219086Y-62246000D01*
X37968914Y-62246000D01*
X37840869Y-62220530D01*
X37723555Y-62197195D01*
X37492429Y-62101459D01*
X37284422Y-61962473D01*
X37284419Y-61962471D01*
X37107529Y-61785581D01*
X36968541Y-61577571D01*
X36901253Y-61415124D01*
X36872805Y-61346445D01*
X36848402Y-61223764D01*
X36824000Y-61101086D01*
X36824000Y-60850914D01*
X36848402Y-60728236D01*
X36872805Y-60605555D01*
X36968541Y-60374429D01*
X37107527Y-60166422D01*
X37107529Y-60166419D01*
X37284419Y-59989529D01*
X37492429Y-59850541D01*
X37723555Y-59754805D01*
X37846236Y-59730402D01*
X37968914Y-59706000D01*
X38219086Y-59706000D01*
X38341764Y-59730402D01*
X38341764Y-59730402D01*
G37*
G36*
X112058646Y-59565533D02*
X112313122Y-59642728D01*
X112547649Y-59768085D01*
X112753213Y-59936787D01*
X112921915Y-60142351D01*
X113047272Y-60376878D01*
X113124467Y-60631354D01*
X113150532Y-60896000D01*
X113124467Y-61160646D01*
X113047272Y-61415122D01*
X112921915Y-61649649D01*
X112753213Y-61855213D01*
X112547649Y-62023915D01*
X112313122Y-62149272D01*
X112058646Y-62226467D01*
X111860321Y-62246000D01*
X111127679Y-62246000D01*
X110929354Y-62226467D01*
X110674878Y-62149272D01*
X110440351Y-62023915D01*
X110234787Y-61855213D01*
X110066085Y-61649649D01*
X109940728Y-61415122D01*
X109863533Y-61160646D01*
X109837468Y-60896000D01*
X109863533Y-60631354D01*
X109940728Y-60376878D01*
X110066085Y-60142351D01*
X110234787Y-59936787D01*
X110440351Y-59768085D01*
X110674878Y-59642728D01*
X110929354Y-59565533D01*
X111127679Y-59546000D01*
X111860321Y-59546000D01*
X112058646Y-59565533D01*
X112058646Y-59565533D01*
G37*
G36*
X107524637Y-59549439D02*
X107552313Y-59557835D01*
X107577821Y-59571470D01*
X107600181Y-59589819D01*
X107618530Y-59612179D01*
X107632165Y-59637687D01*
X107640561Y-59665363D01*
X107644000Y-59700287D01*
X107644000Y-62091713D01*
X107640561Y-62126637D01*
X107632165Y-62154313D01*
X107618530Y-62179821D01*
X107600181Y-62202181D01*
X107577821Y-62220530D01*
X107552313Y-62234165D01*
X107524637Y-62242561D01*
X107489713Y-62246000D01*
X104498287Y-62246000D01*
X104463363Y-62242561D01*
X104435687Y-62234165D01*
X104410179Y-62220530D01*
X104387819Y-62202181D01*
X104369470Y-62179821D01*
X104355835Y-62154313D01*
X104347439Y-62126637D01*
X104344000Y-62091713D01*
X104344000Y-59700287D01*
X104347439Y-59665363D01*
X104355835Y-59637687D01*
X104369470Y-59612179D01*
X104387819Y-59589819D01*
X104410179Y-59571470D01*
X104435687Y-59557835D01*
X104463363Y-59549439D01*
X104498287Y-59546000D01*
X107489713Y-59546000D01*
X107524637Y-59549439D01*
X107524637Y-59549439D01*
G37*
G36*
X130024637Y-54549439D02*
X130052313Y-54557835D01*
X130077821Y-54571470D01*
X130100181Y-54589819D01*
X130118530Y-54612179D01*
X130132165Y-54637687D01*
X130140561Y-54665363D01*
X130144000Y-54700287D01*
X130144000Y-57091713D01*
X130140561Y-57126637D01*
X130132165Y-57154313D01*
X130118530Y-57179821D01*
X130100181Y-57202181D01*
X130077821Y-57220530D01*
X130052313Y-57234165D01*
X130024637Y-57242561D01*
X129989713Y-57246000D01*
X126998287Y-57246000D01*
X126963363Y-57242561D01*
X126935687Y-57234165D01*
X126910179Y-57220530D01*
X126887819Y-57202181D01*
X126869470Y-57179821D01*
X126855835Y-57154313D01*
X126847439Y-57126637D01*
X126844000Y-57091713D01*
X126844000Y-54700287D01*
X126847439Y-54665363D01*
X126855835Y-54637687D01*
X126869470Y-54612179D01*
X126887819Y-54589819D01*
X126910179Y-54571470D01*
X126935687Y-54557835D01*
X126963363Y-54549439D01*
X126998287Y-54546000D01*
X129989713Y-54546000D01*
X130024637Y-54549439D01*
X130024637Y-54549439D01*
G37*
G36*
X134558646Y-54565533D02*
X134813122Y-54642728D01*
X135047649Y-54768085D01*
X135253213Y-54936787D01*
X135421915Y-55142351D01*
X135547272Y-55376878D01*
X135624467Y-55631354D01*
X135650532Y-55896000D01*
X135624467Y-56160646D01*
X135547272Y-56415122D01*
X135421915Y-56649649D01*
X135253213Y-56855213D01*
X135047649Y-57023915D01*
X134813122Y-57149272D01*
X134558646Y-57226467D01*
X134360321Y-57246000D01*
X133627679Y-57246000D01*
X133429354Y-57226467D01*
X133174878Y-57149272D01*
X132940351Y-57023915D01*
X132734787Y-56855213D01*
X132566085Y-56649649D01*
X132440728Y-56415122D01*
X132363533Y-56160646D01*
X132337468Y-55896000D01*
X132363533Y-55631354D01*
X132440728Y-55376878D01*
X132566085Y-55142351D01*
X132734787Y-54936787D01*
X132940351Y-54768085D01*
X133174878Y-54642728D01*
X133429354Y-54565533D01*
X133627679Y-54546000D01*
X134360321Y-54546000D01*
X134558646Y-54565533D01*
X134558646Y-54565533D01*
G37*
G36*
X107524637Y-49549439D02*
X107552313Y-49557835D01*
X107577821Y-49571470D01*
X107600181Y-49589819D01*
X107618530Y-49612179D01*
X107632165Y-49637687D01*
X107640561Y-49665363D01*
X107644000Y-49700287D01*
X107644000Y-52091713D01*
X107640561Y-52126637D01*
X107632165Y-52154313D01*
X107618530Y-52179821D01*
X107600181Y-52202181D01*
X107577821Y-52220530D01*
X107552313Y-52234165D01*
X107524637Y-52242561D01*
X107489713Y-52246000D01*
X104498287Y-52246000D01*
X104463363Y-52242561D01*
X104435687Y-52234165D01*
X104410179Y-52220530D01*
X104387819Y-52202181D01*
X104369470Y-52179821D01*
X104355835Y-52154313D01*
X104347439Y-52126637D01*
X104344000Y-52091713D01*
X104344000Y-49700287D01*
X104347439Y-49665363D01*
X104355835Y-49637687D01*
X104369470Y-49612179D01*
X104387819Y-49589819D01*
X104410179Y-49571470D01*
X104435687Y-49557835D01*
X104463363Y-49549439D01*
X104498287Y-49546000D01*
X107489713Y-49546000D01*
X107524637Y-49549439D01*
X107524637Y-49549439D01*
G37*
G36*
X112058646Y-49565533D02*
X112313122Y-49642728D01*
X112547649Y-49768085D01*
X112753213Y-49936787D01*
X112921915Y-50142351D01*
X113047272Y-50376878D01*
X113124467Y-50631354D01*
X113150532Y-50896000D01*
X113124467Y-51160646D01*
X113047272Y-51415122D01*
X112921915Y-51649649D01*
X112753213Y-51855213D01*
X112547649Y-52023915D01*
X112313122Y-52149272D01*
X112058646Y-52226467D01*
X111860321Y-52246000D01*
X111127679Y-52246000D01*
X110929354Y-52226467D01*
X110674878Y-52149272D01*
X110440351Y-52023915D01*
X110234787Y-51855213D01*
X110066085Y-51649649D01*
X109940728Y-51415122D01*
X109863533Y-51160646D01*
X109837468Y-50896000D01*
X109863533Y-50631354D01*
X109940728Y-50376878D01*
X110066085Y-50142351D01*
X110234787Y-49936787D01*
X110440351Y-49768085D01*
X110674878Y-49642728D01*
X110929354Y-49565533D01*
X111127679Y-49546000D01*
X111860321Y-49546000D01*
X112058646Y-49565533D01*
X112058646Y-49565533D01*
G37*
G36*
X130024637Y-44549439D02*
X130052313Y-44557835D01*
X130077821Y-44571470D01*
X130100181Y-44589819D01*
X130118530Y-44612179D01*
X130132165Y-44637687D01*
X130140561Y-44665363D01*
X130144000Y-44700287D01*
X130144000Y-47091713D01*
X130140561Y-47126637D01*
X130132165Y-47154313D01*
X130118530Y-47179821D01*
X130100181Y-47202181D01*
X130077821Y-47220530D01*
X130052313Y-47234165D01*
X130024637Y-47242561D01*
X129989713Y-47246000D01*
X126998287Y-47246000D01*
X126963363Y-47242561D01*
X126935687Y-47234165D01*
X126910179Y-47220530D01*
X126887819Y-47202181D01*
X126869470Y-47179821D01*
X126855835Y-47154313D01*
X126847439Y-47126637D01*
X126844000Y-47091713D01*
X126844000Y-44700287D01*
X126847439Y-44665363D01*
X126855835Y-44637687D01*
X126869470Y-44612179D01*
X126887819Y-44589819D01*
X126910179Y-44571470D01*
X126935687Y-44557835D01*
X126963363Y-44549439D01*
X126998287Y-44546000D01*
X129989713Y-44546000D01*
X130024637Y-44549439D01*
X130024637Y-44549439D01*
G37*
G36*
X134558646Y-44565533D02*
X134813122Y-44642728D01*
X135047649Y-44768085D01*
X135253213Y-44936787D01*
X135421915Y-45142351D01*
X135547272Y-45376878D01*
X135624467Y-45631354D01*
X135650532Y-45896000D01*
X135624467Y-46160646D01*
X135547272Y-46415122D01*
X135421915Y-46649649D01*
X135253213Y-46855213D01*
X135047649Y-47023915D01*
X134813122Y-47149272D01*
X134558646Y-47226467D01*
X134360321Y-47246000D01*
X133627679Y-47246000D01*
X133429354Y-47226467D01*
X133174878Y-47149272D01*
X132940351Y-47023915D01*
X132734787Y-46855213D01*
X132566085Y-46649649D01*
X132440728Y-46415122D01*
X132363533Y-46160646D01*
X132337468Y-45896000D01*
X132363533Y-45631354D01*
X132440728Y-45376878D01*
X132566085Y-45142351D01*
X132734787Y-44936787D01*
X132940351Y-44768085D01*
X133174878Y-44642728D01*
X133429354Y-44565533D01*
X133627679Y-44546000D01*
X134360321Y-44546000D01*
X134558646Y-44565533D01*
X134558646Y-44565533D01*
G37*
G36*
X36558646Y-36265533D02*
X36813122Y-36342728D01*
X37047649Y-36468085D01*
X37253213Y-36636787D01*
X37421915Y-36842351D01*
X37547272Y-37076878D01*
X37624467Y-37331354D01*
X37650532Y-37596000D01*
X37624467Y-37860646D01*
X37547272Y-38115122D01*
X37421915Y-38349649D01*
X37253213Y-38555213D01*
X37047649Y-38723915D01*
X36813122Y-38849272D01*
X36558646Y-38926467D01*
X36360321Y-38946000D01*
X35627679Y-38946000D01*
X35429354Y-38926467D01*
X35174878Y-38849272D01*
X34940351Y-38723915D01*
X34734787Y-38555213D01*
X34566085Y-38349649D01*
X34440728Y-38115122D01*
X34363533Y-37860646D01*
X34337468Y-37596000D01*
X34363533Y-37331354D01*
X34440728Y-37076878D01*
X34566085Y-36842351D01*
X34734787Y-36636787D01*
X34940351Y-36468085D01*
X35174878Y-36342728D01*
X35429354Y-36265533D01*
X35627679Y-36246000D01*
X36360321Y-36246000D01*
X36558646Y-36265533D01*
X36558646Y-36265533D01*
G37*
G36*
X31058646Y-36265533D02*
X31313122Y-36342728D01*
X31547649Y-36468085D01*
X31753213Y-36636787D01*
X31921915Y-36842351D01*
X32047272Y-37076878D01*
X32124467Y-37331354D01*
X32150532Y-37596000D01*
X32124467Y-37860646D01*
X32047272Y-38115122D01*
X31921915Y-38349649D01*
X31753213Y-38555213D01*
X31547649Y-38723915D01*
X31313122Y-38849272D01*
X31058646Y-38926467D01*
X30860321Y-38946000D01*
X30127679Y-38946000D01*
X29929354Y-38926467D01*
X29674878Y-38849272D01*
X29440351Y-38723915D01*
X29234787Y-38555213D01*
X29066085Y-38349649D01*
X28940728Y-38115122D01*
X28863533Y-37860646D01*
X28837468Y-37596000D01*
X28863533Y-37331354D01*
X28940728Y-37076878D01*
X29066085Y-36842351D01*
X29234787Y-36636787D01*
X29440351Y-36468085D01*
X29674878Y-36342728D01*
X29929354Y-36265533D01*
X30127679Y-36246000D01*
X30860321Y-36246000D01*
X31058646Y-36265533D01*
X31058646Y-36265533D01*
G37*
G36*
X134558646Y-34565533D02*
X134813122Y-34642728D01*
X135047649Y-34768085D01*
X135253213Y-34936787D01*
X135421915Y-35142351D01*
X135547272Y-35376878D01*
X135624467Y-35631354D01*
X135650532Y-35896000D01*
X135624467Y-36160646D01*
X135547272Y-36415122D01*
X135421915Y-36649649D01*
X135253213Y-36855213D01*
X135047649Y-37023915D01*
X134813122Y-37149272D01*
X134558646Y-37226467D01*
X134360321Y-37246000D01*
X133627679Y-37246000D01*
X133429354Y-37226467D01*
X133174878Y-37149272D01*
X132940351Y-37023915D01*
X132734787Y-36855213D01*
X132566085Y-36649649D01*
X132440728Y-36415122D01*
X132363533Y-36160646D01*
X132337468Y-35896000D01*
X132363533Y-35631354D01*
X132440728Y-35376878D01*
X132566085Y-35142351D01*
X132734787Y-34936787D01*
X132940351Y-34768085D01*
X133174878Y-34642728D01*
X133429354Y-34565533D01*
X133627679Y-34546000D01*
X134360321Y-34546000D01*
X134558646Y-34565533D01*
X134558646Y-34565533D01*
G37*
G36*
X130024637Y-34549439D02*
X130052313Y-34557835D01*
X130077821Y-34571470D01*
X130100181Y-34589819D01*
X130118530Y-34612179D01*
X130132165Y-34637687D01*
X130140561Y-34665363D01*
X130144000Y-34700287D01*
X130144000Y-37091713D01*
X130140561Y-37126637D01*
X130132165Y-37154313D01*
X130118530Y-37179821D01*
X130100181Y-37202181D01*
X130077821Y-37220530D01*
X130052313Y-37234165D01*
X130024637Y-37242561D01*
X129989713Y-37246000D01*
X126998287Y-37246000D01*
X126963363Y-37242561D01*
X126935687Y-37234165D01*
X126910179Y-37220530D01*
X126887819Y-37202181D01*
X126869470Y-37179821D01*
X126855835Y-37154313D01*
X126847439Y-37126637D01*
X126844000Y-37091713D01*
X126844000Y-34700287D01*
X126847439Y-34665363D01*
X126855835Y-34637687D01*
X126869470Y-34612179D01*
X126887819Y-34589819D01*
X126910179Y-34571470D01*
X126935687Y-34557835D01*
X126963363Y-34549439D01*
X126998287Y-34546000D01*
X129989713Y-34546000D01*
X130024637Y-34549439D01*
X130024637Y-34549439D01*
G37*
G36*
X58096145Y-31751681D02*
X58596612Y-31958981D01*
X59047026Y-32259938D01*
X59430062Y-32642974D01*
X59731019Y-33093388D01*
X59938319Y-33593855D01*
X60044000Y-34125147D01*
X60044000Y-34666853D01*
X59938319Y-35198145D01*
X59731019Y-35698612D01*
X59430062Y-36149026D01*
X59047026Y-36532062D01*
X58596612Y-36833019D01*
X58096145Y-37040319D01*
X57564853Y-37146000D01*
X57023147Y-37146000D01*
X56491855Y-37040319D01*
X55991388Y-36833019D01*
X55540974Y-36532062D01*
X55157938Y-36149026D01*
X54856981Y-35698612D01*
X54649681Y-35198145D01*
X54544000Y-34666853D01*
X54544000Y-34125147D01*
X54649681Y-33593855D01*
X54856981Y-33093388D01*
X55157938Y-32642974D01*
X55540974Y-32259938D01*
X55991388Y-31958981D01*
X56491855Y-31751681D01*
X57023147Y-31646000D01*
X57564853Y-31646000D01*
X58096145Y-31751681D01*
X58096145Y-31751681D01*
G37*
G36*
X65296145Y-31751681D02*
X65796612Y-31958981D01*
X66247026Y-32259938D01*
X66630062Y-32642974D01*
X66931019Y-33093388D01*
X67138319Y-33593855D01*
X67244000Y-34125147D01*
X67244000Y-34666853D01*
X67138319Y-35198145D01*
X66931019Y-35698612D01*
X66630062Y-36149026D01*
X66247026Y-36532062D01*
X65796612Y-36833019D01*
X65296145Y-37040319D01*
X64764853Y-37146000D01*
X64223147Y-37146000D01*
X63691855Y-37040319D01*
X63191388Y-36833019D01*
X62740974Y-36532062D01*
X62357938Y-36149026D01*
X62056981Y-35698612D01*
X61849681Y-35198145D01*
X61744000Y-34666853D01*
X61744000Y-34125147D01*
X61849681Y-33593855D01*
X62056981Y-33093388D01*
X62357938Y-32642974D01*
X62740974Y-32259938D01*
X63191388Y-31958981D01*
X63691855Y-31751681D01*
X64223147Y-31646000D01*
X64764853Y-31646000D01*
X65296145Y-31751681D01*
X65296145Y-31751681D01*
G37*
G36*
X37524637Y-32049439D02*
X37552313Y-32057835D01*
X37577821Y-32071470D01*
X37600181Y-32089819D01*
X37618530Y-32112179D01*
X37632165Y-32137687D01*
X37640561Y-32165363D01*
X37644000Y-32200287D01*
X37644000Y-34591713D01*
X37640561Y-34626637D01*
X37632165Y-34654313D01*
X37618530Y-34679821D01*
X37600181Y-34702181D01*
X37577821Y-34720530D01*
X37552313Y-34734165D01*
X37524637Y-34742561D01*
X37489713Y-34746000D01*
X34498287Y-34746000D01*
X34463363Y-34742561D01*
X34435687Y-34734165D01*
X34410179Y-34720530D01*
X34387819Y-34702181D01*
X34369470Y-34679821D01*
X34355835Y-34654313D01*
X34347439Y-34626637D01*
X34344000Y-34591713D01*
X34344000Y-32200287D01*
X34347439Y-32165363D01*
X34355835Y-32137687D01*
X34369470Y-32112179D01*
X34387819Y-32089819D01*
X34410179Y-32071470D01*
X34435687Y-32057835D01*
X34463363Y-32049439D01*
X34498287Y-32046000D01*
X37489713Y-32046000D01*
X37524637Y-32049439D01*
X37524637Y-32049439D01*
G37*
G36*
X31058646Y-32065533D02*
X31313122Y-32142728D01*
X31547649Y-32268085D01*
X31753213Y-32436787D01*
X31921915Y-32642351D01*
X32047272Y-32876878D01*
X32124467Y-33131354D01*
X32150532Y-33396000D01*
X32124467Y-33660646D01*
X32047272Y-33915122D01*
X31921915Y-34149649D01*
X31753213Y-34355213D01*
X31547649Y-34523915D01*
X31313122Y-34649272D01*
X31058646Y-34726467D01*
X30860321Y-34746000D01*
X30127679Y-34746000D01*
X29929354Y-34726467D01*
X29674878Y-34649272D01*
X29440351Y-34523915D01*
X29234787Y-34355213D01*
X29066085Y-34149649D01*
X28940728Y-33915122D01*
X28863533Y-33660646D01*
X28837468Y-33396000D01*
X28863533Y-33131354D01*
X28940728Y-32876878D01*
X29066085Y-32642351D01*
X29234787Y-32436787D01*
X29440351Y-32268085D01*
X29674878Y-32142728D01*
X29929354Y-32065533D01*
X30127679Y-32046000D01*
X30860321Y-32046000D01*
X31058646Y-32065533D01*
X31058646Y-32065533D01*
G37*
G36*
X65825492Y-24800076D02*
X65859383Y-24810357D01*
X65890611Y-24827048D01*
X65917985Y-24849515D01*
X65940452Y-24876889D01*
X65957143Y-24908117D01*
X65967424Y-24942008D01*
X65971500Y-24983391D01*
X65971500Y-26008609D01*
X65967424Y-26049992D01*
X65957143Y-26083883D01*
X65940452Y-26115111D01*
X65917985Y-26142485D01*
X65890611Y-26164952D01*
X65859383Y-26181643D01*
X65825492Y-26191924D01*
X65784109Y-26196000D01*
X65183891Y-26196000D01*
X65142508Y-26191924D01*
X65108617Y-26181643D01*
X65077389Y-26164952D01*
X65050015Y-26142485D01*
X65027548Y-26115111D01*
X65010857Y-26083883D01*
X65000576Y-26049992D01*
X64996500Y-26008609D01*
X64996500Y-24983391D01*
X65000576Y-24942008D01*
X65010857Y-24908117D01*
X65027548Y-24876889D01*
X65050015Y-24849515D01*
X65077389Y-24827048D01*
X65108617Y-24810357D01*
X65142508Y-24800076D01*
X65183891Y-24796000D01*
X65784109Y-24796000D01*
X65825492Y-24800076D01*
X65825492Y-24800076D01*
G37*
G36*
X63950492Y-24800076D02*
X63984383Y-24810357D01*
X64015611Y-24827048D01*
X64042985Y-24849515D01*
X64065452Y-24876889D01*
X64082143Y-24908117D01*
X64092424Y-24942008D01*
X64096500Y-24983391D01*
X64096500Y-26008609D01*
X64092424Y-26049992D01*
X64082143Y-26083883D01*
X64065452Y-26115111D01*
X64042985Y-26142485D01*
X64015611Y-26164952D01*
X63984383Y-26181643D01*
X63950492Y-26191924D01*
X63909109Y-26196000D01*
X63308891Y-26196000D01*
X63267508Y-26191924D01*
X63233617Y-26181643D01*
X63202389Y-26164952D01*
X63175015Y-26142485D01*
X63152548Y-26115111D01*
X63135857Y-26083883D01*
X63125576Y-26049992D01*
X63121500Y-26008609D01*
X63121500Y-24983391D01*
X63125576Y-24942008D01*
X63135857Y-24908117D01*
X63152548Y-24876889D01*
X63175015Y-24849515D01*
X63202389Y-24827048D01*
X63233617Y-24810357D01*
X63267508Y-24800076D01*
X63308891Y-24796000D01*
X63909109Y-24796000D01*
X63950492Y-24800076D01*
X63950492Y-24800076D01*
G37*
G36*
X57540492Y-24800076D02*
X57574383Y-24810357D01*
X57605611Y-24827048D01*
X57632985Y-24849515D01*
X57655452Y-24876889D01*
X57672143Y-24908117D01*
X57682424Y-24942008D01*
X57686500Y-24983391D01*
X57686500Y-26008609D01*
X57682424Y-26049992D01*
X57672143Y-26083883D01*
X57655452Y-26115111D01*
X57632985Y-26142485D01*
X57605611Y-26164952D01*
X57574383Y-26181643D01*
X57540492Y-26191924D01*
X57499109Y-26196000D01*
X56898891Y-26196000D01*
X56857508Y-26191924D01*
X56823617Y-26181643D01*
X56792389Y-26164952D01*
X56765015Y-26142485D01*
X56742548Y-26115111D01*
X56725857Y-26083883D01*
X56715576Y-26049992D01*
X56711500Y-26008609D01*
X56711500Y-24983391D01*
X56715576Y-24942008D01*
X56725857Y-24908117D01*
X56742548Y-24876889D01*
X56765015Y-24849515D01*
X56792389Y-24827048D01*
X56823617Y-24810357D01*
X56857508Y-24800076D01*
X56898891Y-24796000D01*
X57499109Y-24796000D01*
X57540492Y-24800076D01*
X57540492Y-24800076D01*
G37*
G36*
X55665492Y-24800076D02*
X55699383Y-24810357D01*
X55730611Y-24827048D01*
X55757985Y-24849515D01*
X55780452Y-24876889D01*
X55797143Y-24908117D01*
X55807424Y-24942008D01*
X55811500Y-24983391D01*
X55811500Y-26008609D01*
X55807424Y-26049992D01*
X55797143Y-26083883D01*
X55780452Y-26115111D01*
X55757985Y-26142485D01*
X55730611Y-26164952D01*
X55699383Y-26181643D01*
X55665492Y-26191924D01*
X55624109Y-26196000D01*
X55023891Y-26196000D01*
X54982508Y-26191924D01*
X54948617Y-26181643D01*
X54917389Y-26164952D01*
X54890015Y-26142485D01*
X54867548Y-26115111D01*
X54850857Y-26083883D01*
X54840576Y-26049992D01*
X54836500Y-26008609D01*
X54836500Y-24983391D01*
X54840576Y-24942008D01*
X54850857Y-24908117D01*
X54867548Y-24876889D01*
X54890015Y-24849515D01*
X54917389Y-24827048D01*
X54948617Y-24810357D01*
X54982508Y-24800076D01*
X55023891Y-24796000D01*
X55624109Y-24796000D01*
X55665492Y-24800076D01*
X55665492Y-24800076D01*
G37*
G36*
X24427405Y-15318974D02*
X25009767Y-15560196D01*
X25533884Y-15910400D01*
X25979600Y-16356116D01*
X26329804Y-16880233D01*
X26571026Y-17462595D01*
X26694000Y-18080826D01*
X26694000Y-18711174D01*
X26571026Y-19329405D01*
X26329804Y-19911767D01*
X25979600Y-20435884D01*
X25533884Y-20881600D01*
X25009767Y-21231804D01*
X24427405Y-21473026D01*
X23809174Y-21596000D01*
X23178826Y-21596000D01*
X22560595Y-21473026D01*
X21978233Y-21231804D01*
X21454116Y-20881600D01*
X21008400Y-20435884D01*
X20658196Y-19911767D01*
X20416974Y-19329405D01*
X20294000Y-18711174D01*
X20294000Y-18080826D01*
X20416974Y-17462595D01*
X20658196Y-16880233D01*
X21008400Y-16356116D01*
X21454116Y-15910400D01*
X21978233Y-15560196D01*
X22560595Y-15318974D01*
X23178826Y-15196000D01*
X23809174Y-15196000D01*
X24427405Y-15318974D01*
X24427405Y-15318974D01*
G37*
G36*
X139427405Y-15318974D02*
X140009767Y-15560196D01*
X140533884Y-15910400D01*
X140979600Y-16356116D01*
X141329804Y-16880233D01*
X141571026Y-17462595D01*
X141694000Y-18080826D01*
X141694000Y-18711174D01*
X141571026Y-19329405D01*
X141329804Y-19911767D01*
X140979600Y-20435884D01*
X140533884Y-20881600D01*
X140009767Y-21231804D01*
X139427405Y-21473026D01*
X138809174Y-21596000D01*
X138178826Y-21596000D01*
X137560595Y-21473026D01*
X136978233Y-21231804D01*
X136454116Y-20881600D01*
X136008400Y-20435884D01*
X135658196Y-19911767D01*
X135416974Y-19329405D01*
X135294000Y-18711174D01*
X135294000Y-18080826D01*
X135416974Y-17462595D01*
X135658196Y-16880233D01*
X136008400Y-16356116D01*
X136454116Y-15910400D01*
X136978233Y-15560196D01*
X137560595Y-15318974D01*
X138178826Y-15196000D01*
X138809174Y-15196000D01*
X139427405Y-15318974D01*
X139427405Y-15318974D01*
G37*
G36*
X43132630Y-17883299D02*
X43292855Y-17931903D01*
X43440520Y-18010831D01*
X43569949Y-18117051D01*
X43676169Y-18246480D01*
X43741215Y-18368174D01*
X43755097Y-18394146D01*
X43803700Y-18554372D01*
X43803701Y-18554376D01*
X43816000Y-18679249D01*
X43816000Y-18912752D01*
X43803701Y-19037630D01*
X43755097Y-19197855D01*
X43676169Y-19345520D01*
X43569949Y-19474949D01*
X43440524Y-19581166D01*
X43386778Y-19609893D01*
X43292854Y-19660097D01*
X43249685Y-19673192D01*
X43132629Y-19708701D01*
X42966000Y-19725112D01*
X42799370Y-19708701D01*
X42639145Y-19660097D01*
X42491480Y-19581169D01*
X42362051Y-19474949D01*
X42255834Y-19345524D01*
X42222747Y-19283622D01*
X42176903Y-19197854D01*
X42163104Y-19152363D01*
X42128299Y-19037629D01*
X42116000Y-18912751D01*
X42116000Y-18679248D01*
X42128299Y-18554370D01*
X42176903Y-18394145D01*
X42255831Y-18246480D01*
X42362048Y-18117054D01*
X42491484Y-18010830D01*
X42639146Y-17931903D01*
X42799371Y-17883299D01*
X42966000Y-17866888D01*
X43132630Y-17883299D01*
X43132630Y-17883299D01*
G37*
G36*
X74120630Y-17883299D02*
X74280855Y-17931903D01*
X74428520Y-18010831D01*
X74557949Y-18117051D01*
X74664169Y-18246480D01*
X74729215Y-18368174D01*
X74743097Y-18394146D01*
X74791700Y-18554372D01*
X74791701Y-18554376D01*
X74804000Y-18679249D01*
X74804000Y-18912752D01*
X74791701Y-19037630D01*
X74743097Y-19197855D01*
X74664169Y-19345520D01*
X74557949Y-19474949D01*
X74428524Y-19581166D01*
X74374778Y-19609893D01*
X74280854Y-19660097D01*
X74237685Y-19673192D01*
X74120629Y-19708701D01*
X73954000Y-19725112D01*
X73787370Y-19708701D01*
X73627145Y-19660097D01*
X73479480Y-19581169D01*
X73350051Y-19474949D01*
X73243834Y-19345524D01*
X73210747Y-19283622D01*
X73164903Y-19197854D01*
X73151104Y-19152363D01*
X73116299Y-19037629D01*
X73104000Y-18912751D01*
X73104000Y-18679248D01*
X73116299Y-18554370D01*
X73164903Y-18394145D01*
X73243831Y-18246480D01*
X73350048Y-18117054D01*
X73479484Y-18010830D01*
X73627146Y-17931903D01*
X73787371Y-17883299D01*
X73954000Y-17866888D01*
X74120630Y-17883299D01*
X74120630Y-17883299D01*
G37*
G36*
X77173675Y-17874701D02*
X77203907Y-17883872D01*
X77231769Y-17898765D01*
X77256192Y-17918808D01*
X77276235Y-17943231D01*
X77291128Y-17971093D01*
X77300299Y-18001325D01*
X77304000Y-18038905D01*
X77304000Y-19553095D01*
X77300299Y-19590675D01*
X77291128Y-19620907D01*
X77276235Y-19648769D01*
X77256192Y-19673192D01*
X77231769Y-19693235D01*
X77203907Y-19708128D01*
X77173675Y-19717299D01*
X77136095Y-19721000D01*
X75771905Y-19721000D01*
X75734325Y-19717299D01*
X75704093Y-19708128D01*
X75676231Y-19693235D01*
X75651808Y-19673192D01*
X75631765Y-19648769D01*
X75616872Y-19620907D01*
X75607701Y-19590675D01*
X75604000Y-19553095D01*
X75604000Y-18038905D01*
X75607701Y-18001325D01*
X75616872Y-17971093D01*
X75631765Y-17943231D01*
X75651808Y-17918808D01*
X75676231Y-17898765D01*
X75704093Y-17883872D01*
X75734325Y-17874701D01*
X75771905Y-17871000D01*
X77136095Y-17871000D01*
X77173675Y-17874701D01*
X77173675Y-17874701D01*
G37*
G36*
X46185675Y-17874701D02*
X46215907Y-17883872D01*
X46243769Y-17898765D01*
X46268192Y-17918808D01*
X46288235Y-17943231D01*
X46303128Y-17971093D01*
X46312299Y-18001325D01*
X46316000Y-18038905D01*
X46316000Y-19553095D01*
X46312299Y-19590675D01*
X46303128Y-19620907D01*
X46288235Y-19648769D01*
X46268192Y-19673192D01*
X46243769Y-19693235D01*
X46215907Y-19708128D01*
X46185675Y-19717299D01*
X46148095Y-19721000D01*
X44783905Y-19721000D01*
X44746325Y-19717299D01*
X44716093Y-19708128D01*
X44688231Y-19693235D01*
X44663808Y-19673192D01*
X44643765Y-19648769D01*
X44628872Y-19620907D01*
X44619701Y-19590675D01*
X44616000Y-19553095D01*
X44616000Y-18038905D01*
X44619701Y-18001325D01*
X44628872Y-17971093D01*
X44643765Y-17943231D01*
X44663808Y-17918808D01*
X44688231Y-17898765D01*
X44716093Y-17883872D01*
X44746325Y-17874701D01*
X44783905Y-17871000D01*
X46148095Y-17871000D01*
X46185675Y-17874701D01*
X46185675Y-17874701D01*
G37*
M02*
