G04 #@! TF.GenerationSoftware,KiCad,Pcbnew,(5.0.2)-1*
G04 #@! TF.CreationDate,2019-05-10T13:14:30+02:00*
G04 #@! TF.ProjectId,logika_main,6c6f6769-6b61-45f6-9d61-696e2e6b6963,rev?*
G04 #@! TF.SameCoordinates,Original*
G04 #@! TF.FileFunction,Legend,Bot*
G04 #@! TF.FilePolarity,Positive*
%FSLAX46Y46*%
G04 Gerber Fmt 4.6, Leading zero omitted, Abs format (unit mm)*
G04 Created by KiCad (PCBNEW (5.0.2)-1) date 10.05.2019 13:14:30*
%MOMM*%
%LPD*%
G01*
G04 APERTURE LIST*
%ADD10C,0.120000*%
%ADD11C,0.150000*%
G04 APERTURE END LIST*
D10*
G04 #@! TO.C,R2*
X78284000Y-26699922D02*
X78284000Y-27217078D01*
X79704000Y-26699922D02*
X79704000Y-27217078D01*
G04 #@! TO.C,R3*
X75315078Y-27186000D02*
X74797922Y-27186000D01*
X75315078Y-28606000D02*
X74797922Y-28606000D01*
G04 #@! TO.C,R13*
X28284000Y-73092078D02*
X28284000Y-72574922D01*
X29704000Y-73092078D02*
X29704000Y-72574922D01*
G04 #@! TO.C,Q4*
X33754000Y-71266000D02*
X32294000Y-71266000D01*
X33754000Y-74426000D02*
X31594000Y-74426000D01*
X33754000Y-74426000D02*
X33754000Y-73496000D01*
X33754000Y-71266000D02*
X33754000Y-72196000D01*
G04 #@! TO.C,R5*
X129690078Y-68186000D02*
X129172922Y-68186000D01*
X129690078Y-69606000D02*
X129172922Y-69606000D01*
G04 #@! TO.C,C1*
X53235250Y-119359750D02*
X52447750Y-119359750D01*
X52841500Y-119753500D02*
X52841500Y-118966000D01*
X48648437Y-118726000D02*
X47584000Y-117661563D01*
X53339563Y-118726000D02*
X54404000Y-117661563D01*
X53339563Y-118726000D02*
X52054000Y-118726000D01*
X48648437Y-118726000D02*
X49934000Y-118726000D01*
X47584000Y-117661563D02*
X47584000Y-111906000D01*
X54404000Y-117661563D02*
X54404000Y-111906000D01*
X54404000Y-111906000D02*
X52054000Y-111906000D01*
X47584000Y-111906000D02*
X49934000Y-111906000D01*
G04 #@! TO.C,C2*
X90984000Y-115574578D02*
X90984000Y-115057422D01*
X92404000Y-115574578D02*
X92404000Y-115057422D01*
G04 #@! TO.C,C4*
X72734000Y-111056000D02*
X75484000Y-111056000D01*
X81254000Y-111056000D02*
X78504000Y-111056000D01*
X81254000Y-118511563D02*
X81254000Y-111056000D01*
X72734000Y-118511563D02*
X72734000Y-111056000D01*
X73798437Y-119576000D02*
X75484000Y-119576000D01*
X80189563Y-119576000D02*
X78504000Y-119576000D01*
X80189563Y-119576000D02*
X81254000Y-118511563D01*
X73798437Y-119576000D02*
X72734000Y-118511563D01*
X79504000Y-120816000D02*
X79504000Y-119816000D01*
X80004000Y-120316000D02*
X79004000Y-120316000D01*
G04 #@! TO.C,C3*
X93524000Y-115574578D02*
X93524000Y-115057422D01*
X94944000Y-115574578D02*
X94944000Y-115057422D01*
G04 #@! TO.C,C5*
X43752750Y-60552250D02*
X44540250Y-60552250D01*
X44146500Y-60158500D02*
X44146500Y-60946000D01*
X48339563Y-61186000D02*
X49404000Y-62250437D01*
X43648437Y-61186000D02*
X42584000Y-62250437D01*
X43648437Y-61186000D02*
X44934000Y-61186000D01*
X48339563Y-61186000D02*
X47054000Y-61186000D01*
X49404000Y-62250437D02*
X49404000Y-68006000D01*
X42584000Y-62250437D02*
X42584000Y-68006000D01*
X42584000Y-68006000D02*
X44934000Y-68006000D01*
X49404000Y-68006000D02*
X47054000Y-68006000D01*
G04 #@! TO.C,C6*
X96704000Y-65399922D02*
X96704000Y-65917078D01*
X95284000Y-65399922D02*
X95284000Y-65917078D01*
G04 #@! TO.C,C7*
X92284000Y-65399922D02*
X92284000Y-65917078D01*
X93704000Y-65399922D02*
X93704000Y-65917078D01*
G04 #@! TO.C,C8*
X75984000Y-64596000D02*
X76984000Y-64596000D01*
X76484000Y-64096000D02*
X76484000Y-65096000D01*
X82189563Y-65336000D02*
X83254000Y-66400437D01*
X75798437Y-65336000D02*
X74734000Y-66400437D01*
X75798437Y-65336000D02*
X77484000Y-65336000D01*
X82189563Y-65336000D02*
X80504000Y-65336000D01*
X83254000Y-66400437D02*
X83254000Y-73856000D01*
X74734000Y-66400437D02*
X74734000Y-73856000D01*
X74734000Y-73856000D02*
X77484000Y-73856000D01*
X83254000Y-73856000D02*
X80504000Y-73856000D01*
G04 #@! TO.C,C9*
X91704000Y-165654578D02*
X91704000Y-165137422D01*
X90284000Y-165654578D02*
X90284000Y-165137422D01*
G04 #@! TO.C,C10*
X85537750Y-157654750D02*
X85537750Y-158442250D01*
X85931500Y-158048500D02*
X85144000Y-158048500D01*
X84904000Y-162241563D02*
X83839563Y-163306000D01*
X84904000Y-157550437D02*
X83839563Y-156486000D01*
X84904000Y-157550437D02*
X84904000Y-158836000D01*
X84904000Y-162241563D02*
X84904000Y-160956000D01*
X83839563Y-163306000D02*
X78084000Y-163306000D01*
X83839563Y-156486000D02*
X78084000Y-156486000D01*
X78084000Y-156486000D02*
X78084000Y-158836000D01*
X78084000Y-163306000D02*
X78084000Y-160956000D01*
G04 #@! TO.C,C11*
X57404000Y-177806000D02*
X55054000Y-177806000D01*
X50584000Y-177806000D02*
X52934000Y-177806000D01*
X50584000Y-172050437D02*
X50584000Y-177806000D01*
X57404000Y-172050437D02*
X57404000Y-177806000D01*
X56339563Y-170986000D02*
X55054000Y-170986000D01*
X51648437Y-170986000D02*
X52934000Y-170986000D01*
X51648437Y-170986000D02*
X50584000Y-172050437D01*
X56339563Y-170986000D02*
X57404000Y-172050437D01*
X52146500Y-169958500D02*
X52146500Y-170746000D01*
X51752750Y-170352250D02*
X52540250Y-170352250D01*
G04 #@! TO.C,C12*
X90284000Y-183592078D02*
X90284000Y-183074922D01*
X91704000Y-183592078D02*
X91704000Y-183074922D01*
G04 #@! TO.C,C13*
X84904000Y-185486000D02*
X84904000Y-187836000D01*
X84904000Y-192306000D02*
X84904000Y-189956000D01*
X79148437Y-192306000D02*
X84904000Y-192306000D01*
X79148437Y-185486000D02*
X84904000Y-185486000D01*
X78084000Y-186550437D02*
X78084000Y-187836000D01*
X78084000Y-191241563D02*
X78084000Y-189956000D01*
X78084000Y-191241563D02*
X79148437Y-192306000D01*
X78084000Y-186550437D02*
X79148437Y-185486000D01*
X77056500Y-190743500D02*
X77844000Y-190743500D01*
X77450250Y-191137250D02*
X77450250Y-190349750D01*
G04 #@! TO.C,D3*
X67554000Y-27766000D02*
X63254000Y-27766000D01*
X67554000Y-25766000D02*
X67554000Y-27766000D01*
X63254000Y-25766000D02*
X67554000Y-25766000D01*
G04 #@! TO.C,D4*
X58354000Y-27766000D02*
X54054000Y-27766000D01*
X58354000Y-25766000D02*
X58354000Y-27766000D01*
X54054000Y-25766000D02*
X58354000Y-25766000D01*
D11*
G04 #@! TO.C,Q1*
X74464000Y-29635196D02*
X82464000Y-29635196D01*
X85464000Y-40435196D02*
X71364000Y-40435196D01*
X71364000Y-40435196D02*
X71364000Y-38735196D01*
G04 #@! TO.C,Q2*
X98874000Y-40435196D02*
X90874000Y-40435196D01*
X87874000Y-29635196D02*
X101974000Y-29635196D01*
X101974000Y-29635196D02*
X101974000Y-31335196D01*
D10*
G04 #@! TO.C,Q3*
X33754000Y-101766000D02*
X32294000Y-101766000D01*
X33754000Y-104926000D02*
X31594000Y-104926000D01*
X33754000Y-104926000D02*
X33754000Y-103996000D01*
X33754000Y-101766000D02*
X33754000Y-102696000D01*
G04 #@! TO.C,R1*
X59694000Y-27357078D02*
X59694000Y-26839922D01*
X61114000Y-27357078D02*
X61114000Y-26839922D01*
G04 #@! TO.C,R4*
X133252578Y-142106000D02*
X132735422Y-142106000D01*
X133252578Y-140686000D02*
X132735422Y-140686000D01*
G04 #@! TO.C,R12*
X28284000Y-103592078D02*
X28284000Y-103074922D01*
X29704000Y-103592078D02*
X29704000Y-103074922D01*
G04 #@! TO.C,D15*
X70044000Y-39746000D02*
X64344000Y-39746000D01*
X70044000Y-44046000D02*
X64344000Y-44046000D01*
X70044000Y-39746000D02*
X70044000Y-44046000D01*
G04 #@! TO.C,D16*
X103384000Y-31106000D02*
X103384000Y-26806000D01*
X103384000Y-26806000D02*
X109084000Y-26806000D01*
X103384000Y-31106000D02*
X109084000Y-31106000D01*
G04 #@! TO.C,R17*
X91767922Y-27126000D02*
X92285078Y-27126000D01*
X91767922Y-25706000D02*
X92285078Y-25706000D01*
G04 #@! TO.C,D19*
X84712000Y-42808000D02*
X84712000Y-47108000D01*
X84712000Y-47108000D02*
X79012000Y-47108000D01*
X84712000Y-42808000D02*
X79012000Y-42808000D01*
G04 #@! TO.C,D20*
X95616000Y-42808000D02*
X89916000Y-42808000D01*
X95616000Y-47108000D02*
X89916000Y-47108000D01*
X95616000Y-42808000D02*
X95616000Y-47108000D01*
G04 #@! TO.C,R2*
D11*
X79446380Y-23616833D02*
X78970190Y-23283500D01*
X79446380Y-23045404D02*
X78446380Y-23045404D01*
X78446380Y-23426357D01*
X78494000Y-23521595D01*
X78541619Y-23569214D01*
X78636857Y-23616833D01*
X78779714Y-23616833D01*
X78874952Y-23569214D01*
X78922571Y-23521595D01*
X78970190Y-23426357D01*
X78970190Y-23045404D01*
X78541619Y-23997785D02*
X78494000Y-24045404D01*
X78446380Y-24140642D01*
X78446380Y-24378738D01*
X78494000Y-24473976D01*
X78541619Y-24521595D01*
X78636857Y-24569214D01*
X78732095Y-24569214D01*
X78874952Y-24521595D01*
X79446380Y-23950166D01*
X79446380Y-24569214D01*
G04 #@! TO.C,R3*
X72048166Y-28348380D02*
X72381500Y-27872190D01*
X72619595Y-28348380D02*
X72619595Y-27348380D01*
X72238642Y-27348380D01*
X72143404Y-27396000D01*
X72095785Y-27443619D01*
X72048166Y-27538857D01*
X72048166Y-27681714D01*
X72095785Y-27776952D01*
X72143404Y-27824571D01*
X72238642Y-27872190D01*
X72619595Y-27872190D01*
X71714833Y-27348380D02*
X71095785Y-27348380D01*
X71429119Y-27729333D01*
X71286261Y-27729333D01*
X71191023Y-27776952D01*
X71143404Y-27824571D01*
X71095785Y-27919809D01*
X71095785Y-28157904D01*
X71143404Y-28253142D01*
X71191023Y-28300761D01*
X71286261Y-28348380D01*
X71571976Y-28348380D01*
X71667214Y-28300761D01*
X71714833Y-28253142D01*
G04 #@! TO.C,R13*
X29446380Y-76000642D02*
X28970190Y-75667309D01*
X29446380Y-75429214D02*
X28446380Y-75429214D01*
X28446380Y-75810166D01*
X28494000Y-75905404D01*
X28541619Y-75953023D01*
X28636857Y-76000642D01*
X28779714Y-76000642D01*
X28874952Y-75953023D01*
X28922571Y-75905404D01*
X28970190Y-75810166D01*
X28970190Y-75429214D01*
X29446380Y-76953023D02*
X29446380Y-76381595D01*
X29446380Y-76667309D02*
X28446380Y-76667309D01*
X28589238Y-76572071D01*
X28684476Y-76476833D01*
X28732095Y-76381595D01*
X28446380Y-77286357D02*
X28446380Y-77905404D01*
X28827333Y-77572071D01*
X28827333Y-77714928D01*
X28874952Y-77810166D01*
X28922571Y-77857785D01*
X29017809Y-77905404D01*
X29255904Y-77905404D01*
X29351142Y-77857785D01*
X29398761Y-77810166D01*
X29446380Y-77714928D01*
X29446380Y-77429214D01*
X29398761Y-77333976D01*
X29351142Y-77286357D01*
G04 #@! TO.C,Q4*
X30549238Y-73393619D02*
X30644476Y-73346000D01*
X30739714Y-73250761D01*
X30882571Y-73107904D01*
X30977809Y-73060285D01*
X31073047Y-73060285D01*
X31025428Y-73298380D02*
X31120666Y-73250761D01*
X31215904Y-73155523D01*
X31263523Y-72965047D01*
X31263523Y-72631714D01*
X31215904Y-72441238D01*
X31120666Y-72346000D01*
X31025428Y-72298380D01*
X30834952Y-72298380D01*
X30739714Y-72346000D01*
X30644476Y-72441238D01*
X30596857Y-72631714D01*
X30596857Y-72965047D01*
X30644476Y-73155523D01*
X30739714Y-73250761D01*
X30834952Y-73298380D01*
X31025428Y-73298380D01*
X29739714Y-72631714D02*
X29739714Y-73298380D01*
X29977809Y-72250761D02*
X30215904Y-72965047D01*
X29596857Y-72965047D01*
G04 #@! TO.C,R5*
X133408166Y-69348380D02*
X133741500Y-68872190D01*
X133979595Y-69348380D02*
X133979595Y-68348380D01*
X133598642Y-68348380D01*
X133503404Y-68396000D01*
X133455785Y-68443619D01*
X133408166Y-68538857D01*
X133408166Y-68681714D01*
X133455785Y-68776952D01*
X133503404Y-68824571D01*
X133598642Y-68872190D01*
X133979595Y-68872190D01*
X132503404Y-68348380D02*
X132979595Y-68348380D01*
X133027214Y-68824571D01*
X132979595Y-68776952D01*
X132884357Y-68729333D01*
X132646261Y-68729333D01*
X132551023Y-68776952D01*
X132503404Y-68824571D01*
X132455785Y-68919809D01*
X132455785Y-69157904D01*
X132503404Y-69253142D01*
X132551023Y-69300761D01*
X132646261Y-69348380D01*
X132884357Y-69348380D01*
X132979595Y-69300761D01*
X133027214Y-69253142D01*
G04 #@! TO.C,C1*
X55701142Y-115149333D02*
X55748761Y-115101714D01*
X55796380Y-114958857D01*
X55796380Y-114863619D01*
X55748761Y-114720761D01*
X55653523Y-114625523D01*
X55558285Y-114577904D01*
X55367809Y-114530285D01*
X55224952Y-114530285D01*
X55034476Y-114577904D01*
X54939238Y-114625523D01*
X54844000Y-114720761D01*
X54796380Y-114863619D01*
X54796380Y-114958857D01*
X54844000Y-115101714D01*
X54891619Y-115149333D01*
X55796380Y-116101714D02*
X55796380Y-115530285D01*
X55796380Y-115816000D02*
X54796380Y-115816000D01*
X54939238Y-115720761D01*
X55034476Y-115625523D01*
X55082095Y-115530285D01*
G04 #@! TO.C,C2*
X93701142Y-115149333D02*
X93748761Y-115101714D01*
X93796380Y-114958857D01*
X93796380Y-114863619D01*
X93748761Y-114720761D01*
X93653523Y-114625523D01*
X93558285Y-114577904D01*
X93367809Y-114530285D01*
X93224952Y-114530285D01*
X93034476Y-114577904D01*
X92939238Y-114625523D01*
X92844000Y-114720761D01*
X92796380Y-114863619D01*
X92796380Y-114958857D01*
X92844000Y-115101714D01*
X92891619Y-115149333D01*
X92891619Y-115530285D02*
X92844000Y-115577904D01*
X92796380Y-115673142D01*
X92796380Y-115911238D01*
X92844000Y-116006476D01*
X92891619Y-116054095D01*
X92986857Y-116101714D01*
X93082095Y-116101714D01*
X93224952Y-116054095D01*
X93796380Y-115482666D01*
X93796380Y-116101714D01*
G04 #@! TO.C,C4*
X82551142Y-115149333D02*
X82598761Y-115101714D01*
X82646380Y-114958857D01*
X82646380Y-114863619D01*
X82598761Y-114720761D01*
X82503523Y-114625523D01*
X82408285Y-114577904D01*
X82217809Y-114530285D01*
X82074952Y-114530285D01*
X81884476Y-114577904D01*
X81789238Y-114625523D01*
X81694000Y-114720761D01*
X81646380Y-114863619D01*
X81646380Y-114958857D01*
X81694000Y-115101714D01*
X81741619Y-115149333D01*
X81979714Y-116006476D02*
X82646380Y-116006476D01*
X81598761Y-115768380D02*
X82313047Y-115530285D01*
X82313047Y-116149333D01*
G04 #@! TO.C,C3*
X96241142Y-115149333D02*
X96288761Y-115101714D01*
X96336380Y-114958857D01*
X96336380Y-114863619D01*
X96288761Y-114720761D01*
X96193523Y-114625523D01*
X96098285Y-114577904D01*
X95907809Y-114530285D01*
X95764952Y-114530285D01*
X95574476Y-114577904D01*
X95479238Y-114625523D01*
X95384000Y-114720761D01*
X95336380Y-114863619D01*
X95336380Y-114958857D01*
X95384000Y-115101714D01*
X95431619Y-115149333D01*
X95336380Y-115482666D02*
X95336380Y-116101714D01*
X95717333Y-115768380D01*
X95717333Y-115911238D01*
X95764952Y-116006476D01*
X95812571Y-116054095D01*
X95907809Y-116101714D01*
X96145904Y-116101714D01*
X96241142Y-116054095D01*
X96288761Y-116006476D01*
X96336380Y-115911238D01*
X96336380Y-115625523D01*
X96288761Y-115530285D01*
X96241142Y-115482666D01*
G04 #@! TO.C,C5*
X41906142Y-66969333D02*
X41953761Y-66921714D01*
X42001380Y-66778857D01*
X42001380Y-66683619D01*
X41953761Y-66540761D01*
X41858523Y-66445523D01*
X41763285Y-66397904D01*
X41572809Y-66350285D01*
X41429952Y-66350285D01*
X41239476Y-66397904D01*
X41144238Y-66445523D01*
X41049000Y-66540761D01*
X41001380Y-66683619D01*
X41001380Y-66778857D01*
X41049000Y-66921714D01*
X41096619Y-66969333D01*
X41001380Y-67874095D02*
X41001380Y-67397904D01*
X41477571Y-67350285D01*
X41429952Y-67397904D01*
X41382333Y-67493142D01*
X41382333Y-67731238D01*
X41429952Y-67826476D01*
X41477571Y-67874095D01*
X41572809Y-67921714D01*
X41810904Y-67921714D01*
X41906142Y-67874095D01*
X41953761Y-67826476D01*
X42001380Y-67731238D01*
X42001380Y-67493142D01*
X41953761Y-67397904D01*
X41906142Y-67350285D01*
G04 #@! TO.C,C6*
X96351142Y-62316833D02*
X96398761Y-62269214D01*
X96446380Y-62126357D01*
X96446380Y-62031119D01*
X96398761Y-61888261D01*
X96303523Y-61793023D01*
X96208285Y-61745404D01*
X96017809Y-61697785D01*
X95874952Y-61697785D01*
X95684476Y-61745404D01*
X95589238Y-61793023D01*
X95494000Y-61888261D01*
X95446380Y-62031119D01*
X95446380Y-62126357D01*
X95494000Y-62269214D01*
X95541619Y-62316833D01*
X95446380Y-63173976D02*
X95446380Y-62983500D01*
X95494000Y-62888261D01*
X95541619Y-62840642D01*
X95684476Y-62745404D01*
X95874952Y-62697785D01*
X96255904Y-62697785D01*
X96351142Y-62745404D01*
X96398761Y-62793023D01*
X96446380Y-62888261D01*
X96446380Y-63078738D01*
X96398761Y-63173976D01*
X96351142Y-63221595D01*
X96255904Y-63269214D01*
X96017809Y-63269214D01*
X95922571Y-63221595D01*
X95874952Y-63173976D01*
X95827333Y-63078738D01*
X95827333Y-62888261D01*
X95874952Y-62793023D01*
X95922571Y-62745404D01*
X96017809Y-62697785D01*
G04 #@! TO.C,C7*
X93351142Y-62316833D02*
X93398761Y-62269214D01*
X93446380Y-62126357D01*
X93446380Y-62031119D01*
X93398761Y-61888261D01*
X93303523Y-61793023D01*
X93208285Y-61745404D01*
X93017809Y-61697785D01*
X92874952Y-61697785D01*
X92684476Y-61745404D01*
X92589238Y-61793023D01*
X92494000Y-61888261D01*
X92446380Y-62031119D01*
X92446380Y-62126357D01*
X92494000Y-62269214D01*
X92541619Y-62316833D01*
X92446380Y-62650166D02*
X92446380Y-63316833D01*
X93446380Y-62888261D01*
G04 #@! TO.C,C8*
X75541142Y-63714333D02*
X75588761Y-63666714D01*
X75636380Y-63523857D01*
X75636380Y-63428619D01*
X75588761Y-63285761D01*
X75493523Y-63190523D01*
X75398285Y-63142904D01*
X75207809Y-63095285D01*
X75064952Y-63095285D01*
X74874476Y-63142904D01*
X74779238Y-63190523D01*
X74684000Y-63285761D01*
X74636380Y-63428619D01*
X74636380Y-63523857D01*
X74684000Y-63666714D01*
X74731619Y-63714333D01*
X75064952Y-64285761D02*
X75017333Y-64190523D01*
X74969714Y-64142904D01*
X74874476Y-64095285D01*
X74826857Y-64095285D01*
X74731619Y-64142904D01*
X74684000Y-64190523D01*
X74636380Y-64285761D01*
X74636380Y-64476238D01*
X74684000Y-64571476D01*
X74731619Y-64619095D01*
X74826857Y-64666714D01*
X74874476Y-64666714D01*
X74969714Y-64619095D01*
X75017333Y-64571476D01*
X75064952Y-64476238D01*
X75064952Y-64285761D01*
X75112571Y-64190523D01*
X75160190Y-64142904D01*
X75255428Y-64095285D01*
X75445904Y-64095285D01*
X75541142Y-64142904D01*
X75588761Y-64190523D01*
X75636380Y-64285761D01*
X75636380Y-64476238D01*
X75588761Y-64571476D01*
X75541142Y-64619095D01*
X75445904Y-64666714D01*
X75255428Y-64666714D01*
X75160190Y-64619095D01*
X75112571Y-64571476D01*
X75064952Y-64476238D01*
G04 #@! TO.C,C9*
X93001142Y-165229333D02*
X93048761Y-165181714D01*
X93096380Y-165038857D01*
X93096380Y-164943619D01*
X93048761Y-164800761D01*
X92953523Y-164705523D01*
X92858285Y-164657904D01*
X92667809Y-164610285D01*
X92524952Y-164610285D01*
X92334476Y-164657904D01*
X92239238Y-164705523D01*
X92144000Y-164800761D01*
X92096380Y-164943619D01*
X92096380Y-165038857D01*
X92144000Y-165181714D01*
X92191619Y-165229333D01*
X93096380Y-165705523D02*
X93096380Y-165896000D01*
X93048761Y-165991238D01*
X93001142Y-166038857D01*
X92858285Y-166134095D01*
X92667809Y-166181714D01*
X92286857Y-166181714D01*
X92191619Y-166134095D01*
X92144000Y-166086476D01*
X92096380Y-165991238D01*
X92096380Y-165800761D01*
X92144000Y-165705523D01*
X92191619Y-165657904D01*
X92286857Y-165610285D01*
X92524952Y-165610285D01*
X92620190Y-165657904D01*
X92667809Y-165705523D01*
X92715428Y-165800761D01*
X92715428Y-165991238D01*
X92667809Y-166086476D01*
X92620190Y-166134095D01*
X92524952Y-166181714D01*
G04 #@! TO.C,C10*
X88486857Y-157713142D02*
X88534476Y-157760761D01*
X88677333Y-157808380D01*
X88772571Y-157808380D01*
X88915428Y-157760761D01*
X89010666Y-157665523D01*
X89058285Y-157570285D01*
X89105904Y-157379809D01*
X89105904Y-157236952D01*
X89058285Y-157046476D01*
X89010666Y-156951238D01*
X88915428Y-156856000D01*
X88772571Y-156808380D01*
X88677333Y-156808380D01*
X88534476Y-156856000D01*
X88486857Y-156903619D01*
X87534476Y-157808380D02*
X88105904Y-157808380D01*
X87820190Y-157808380D02*
X87820190Y-156808380D01*
X87915428Y-156951238D01*
X88010666Y-157046476D01*
X88105904Y-157094095D01*
X86915428Y-156808380D02*
X86820190Y-156808380D01*
X86724952Y-156856000D01*
X86677333Y-156903619D01*
X86629714Y-156998857D01*
X86582095Y-157189333D01*
X86582095Y-157427428D01*
X86629714Y-157617904D01*
X86677333Y-157713142D01*
X86724952Y-157760761D01*
X86820190Y-157808380D01*
X86915428Y-157808380D01*
X87010666Y-157760761D01*
X87058285Y-157713142D01*
X87105904Y-157617904D01*
X87153523Y-157427428D01*
X87153523Y-157189333D01*
X87105904Y-156998857D01*
X87058285Y-156903619D01*
X87010666Y-156856000D01*
X86915428Y-156808380D01*
G04 #@! TO.C,C11*
X50001142Y-173753142D02*
X50048761Y-173705523D01*
X50096380Y-173562666D01*
X50096380Y-173467428D01*
X50048761Y-173324571D01*
X49953523Y-173229333D01*
X49858285Y-173181714D01*
X49667809Y-173134095D01*
X49524952Y-173134095D01*
X49334476Y-173181714D01*
X49239238Y-173229333D01*
X49144000Y-173324571D01*
X49096380Y-173467428D01*
X49096380Y-173562666D01*
X49144000Y-173705523D01*
X49191619Y-173753142D01*
X50096380Y-174705523D02*
X50096380Y-174134095D01*
X50096380Y-174419809D02*
X49096380Y-174419809D01*
X49239238Y-174324571D01*
X49334476Y-174229333D01*
X49382095Y-174134095D01*
X50096380Y-175657904D02*
X50096380Y-175086476D01*
X50096380Y-175372190D02*
X49096380Y-175372190D01*
X49239238Y-175276952D01*
X49334476Y-175181714D01*
X49382095Y-175086476D01*
G04 #@! TO.C,C12*
X91351142Y-178880642D02*
X91398761Y-178833023D01*
X91446380Y-178690166D01*
X91446380Y-178594928D01*
X91398761Y-178452071D01*
X91303523Y-178356833D01*
X91208285Y-178309214D01*
X91017809Y-178261595D01*
X90874952Y-178261595D01*
X90684476Y-178309214D01*
X90589238Y-178356833D01*
X90494000Y-178452071D01*
X90446380Y-178594928D01*
X90446380Y-178690166D01*
X90494000Y-178833023D01*
X90541619Y-178880642D01*
X91446380Y-179833023D02*
X91446380Y-179261595D01*
X91446380Y-179547309D02*
X90446380Y-179547309D01*
X90589238Y-179452071D01*
X90684476Y-179356833D01*
X90732095Y-179261595D01*
X90541619Y-180213976D02*
X90494000Y-180261595D01*
X90446380Y-180356833D01*
X90446380Y-180594928D01*
X90494000Y-180690166D01*
X90541619Y-180737785D01*
X90636857Y-180785404D01*
X90732095Y-180785404D01*
X90874952Y-180737785D01*
X91446380Y-180166357D01*
X91446380Y-180785404D01*
G04 #@! TO.C,C13*
X75786857Y-191793142D02*
X75834476Y-191840761D01*
X75977333Y-191888380D01*
X76072571Y-191888380D01*
X76215428Y-191840761D01*
X76310666Y-191745523D01*
X76358285Y-191650285D01*
X76405904Y-191459809D01*
X76405904Y-191316952D01*
X76358285Y-191126476D01*
X76310666Y-191031238D01*
X76215428Y-190936000D01*
X76072571Y-190888380D01*
X75977333Y-190888380D01*
X75834476Y-190936000D01*
X75786857Y-190983619D01*
X74834476Y-191888380D02*
X75405904Y-191888380D01*
X75120190Y-191888380D02*
X75120190Y-190888380D01*
X75215428Y-191031238D01*
X75310666Y-191126476D01*
X75405904Y-191174095D01*
X74501142Y-190888380D02*
X73882095Y-190888380D01*
X74215428Y-191269333D01*
X74072571Y-191269333D01*
X73977333Y-191316952D01*
X73929714Y-191364571D01*
X73882095Y-191459809D01*
X73882095Y-191697904D01*
X73929714Y-191793142D01*
X73977333Y-191840761D01*
X74072571Y-191888380D01*
X74358285Y-191888380D01*
X74453523Y-191840761D01*
X74501142Y-191793142D01*
G04 #@! TO.C,D3*
X65742095Y-25218380D02*
X65742095Y-24218380D01*
X65504000Y-24218380D01*
X65361142Y-24266000D01*
X65265904Y-24361238D01*
X65218285Y-24456476D01*
X65170666Y-24646952D01*
X65170666Y-24789809D01*
X65218285Y-24980285D01*
X65265904Y-25075523D01*
X65361142Y-25170761D01*
X65504000Y-25218380D01*
X65742095Y-25218380D01*
X64837333Y-24218380D02*
X64218285Y-24218380D01*
X64551619Y-24599333D01*
X64408761Y-24599333D01*
X64313523Y-24646952D01*
X64265904Y-24694571D01*
X64218285Y-24789809D01*
X64218285Y-25027904D01*
X64265904Y-25123142D01*
X64313523Y-25170761D01*
X64408761Y-25218380D01*
X64694476Y-25218380D01*
X64789714Y-25170761D01*
X64837333Y-25123142D01*
G04 #@! TO.C,D4*
X56542095Y-25218380D02*
X56542095Y-24218380D01*
X56304000Y-24218380D01*
X56161142Y-24266000D01*
X56065904Y-24361238D01*
X56018285Y-24456476D01*
X55970666Y-24646952D01*
X55970666Y-24789809D01*
X56018285Y-24980285D01*
X56065904Y-25075523D01*
X56161142Y-25170761D01*
X56304000Y-25218380D01*
X56542095Y-25218380D01*
X55113523Y-24551714D02*
X55113523Y-25218380D01*
X55351619Y-24170761D02*
X55589714Y-24885047D01*
X54970666Y-24885047D01*
G04 #@! TO.C,Q1*
X78509238Y-41832815D02*
X78604476Y-41785196D01*
X78699714Y-41689957D01*
X78842571Y-41547100D01*
X78937809Y-41499481D01*
X79033047Y-41499481D01*
X78985428Y-41737576D02*
X79080666Y-41689957D01*
X79175904Y-41594719D01*
X79223523Y-41404243D01*
X79223523Y-41070910D01*
X79175904Y-40880434D01*
X79080666Y-40785196D01*
X78985428Y-40737576D01*
X78794952Y-40737576D01*
X78699714Y-40785196D01*
X78604476Y-40880434D01*
X78556857Y-41070910D01*
X78556857Y-41404243D01*
X78604476Y-41594719D01*
X78699714Y-41689957D01*
X78794952Y-41737576D01*
X78985428Y-41737576D01*
X77604476Y-41737576D02*
X78175904Y-41737576D01*
X77890190Y-41737576D02*
X77890190Y-40737576D01*
X77985428Y-40880434D01*
X78080666Y-40975672D01*
X78175904Y-41023291D01*
G04 #@! TO.C,Q2*
X95019238Y-29332815D02*
X95114476Y-29285196D01*
X95209714Y-29189957D01*
X95352571Y-29047100D01*
X95447809Y-28999481D01*
X95543047Y-28999481D01*
X95495428Y-29237576D02*
X95590666Y-29189957D01*
X95685904Y-29094719D01*
X95733523Y-28904243D01*
X95733523Y-28570910D01*
X95685904Y-28380434D01*
X95590666Y-28285196D01*
X95495428Y-28237576D01*
X95304952Y-28237576D01*
X95209714Y-28285196D01*
X95114476Y-28380434D01*
X95066857Y-28570910D01*
X95066857Y-28904243D01*
X95114476Y-29094719D01*
X95209714Y-29189957D01*
X95304952Y-29237576D01*
X95495428Y-29237576D01*
X94685904Y-28332815D02*
X94638285Y-28285196D01*
X94543047Y-28237576D01*
X94304952Y-28237576D01*
X94209714Y-28285196D01*
X94162095Y-28332815D01*
X94114476Y-28428053D01*
X94114476Y-28523291D01*
X94162095Y-28666148D01*
X94733523Y-29237576D01*
X94114476Y-29237576D01*
G04 #@! TO.C,Q3*
X33089238Y-106393619D02*
X33184476Y-106346000D01*
X33279714Y-106250761D01*
X33422571Y-106107904D01*
X33517809Y-106060285D01*
X33613047Y-106060285D01*
X33565428Y-106298380D02*
X33660666Y-106250761D01*
X33755904Y-106155523D01*
X33803523Y-105965047D01*
X33803523Y-105631714D01*
X33755904Y-105441238D01*
X33660666Y-105346000D01*
X33565428Y-105298380D01*
X33374952Y-105298380D01*
X33279714Y-105346000D01*
X33184476Y-105441238D01*
X33136857Y-105631714D01*
X33136857Y-105965047D01*
X33184476Y-106155523D01*
X33279714Y-106250761D01*
X33374952Y-106298380D01*
X33565428Y-106298380D01*
X32803523Y-105298380D02*
X32184476Y-105298380D01*
X32517809Y-105679333D01*
X32374952Y-105679333D01*
X32279714Y-105726952D01*
X32232095Y-105774571D01*
X32184476Y-105869809D01*
X32184476Y-106107904D01*
X32232095Y-106203142D01*
X32279714Y-106250761D01*
X32374952Y-106298380D01*
X32660666Y-106298380D01*
X32755904Y-106250761D01*
X32803523Y-106203142D01*
G04 #@! TO.C,R1*
X62506380Y-26931833D02*
X62030190Y-26598500D01*
X62506380Y-26360404D02*
X61506380Y-26360404D01*
X61506380Y-26741357D01*
X61554000Y-26836595D01*
X61601619Y-26884214D01*
X61696857Y-26931833D01*
X61839714Y-26931833D01*
X61934952Y-26884214D01*
X61982571Y-26836595D01*
X62030190Y-26741357D01*
X62030190Y-26360404D01*
X62506380Y-27884214D02*
X62506380Y-27312785D01*
X62506380Y-27598500D02*
X61506380Y-27598500D01*
X61649238Y-27503261D01*
X61744476Y-27408023D01*
X61792095Y-27312785D01*
G04 #@! TO.C,R4*
X133160666Y-140198380D02*
X133494000Y-139722190D01*
X133732095Y-140198380D02*
X133732095Y-139198380D01*
X133351142Y-139198380D01*
X133255904Y-139246000D01*
X133208285Y-139293619D01*
X133160666Y-139388857D01*
X133160666Y-139531714D01*
X133208285Y-139626952D01*
X133255904Y-139674571D01*
X133351142Y-139722190D01*
X133732095Y-139722190D01*
X132303523Y-139531714D02*
X132303523Y-140198380D01*
X132541619Y-139150761D02*
X132779714Y-139865047D01*
X132160666Y-139865047D01*
G04 #@! TO.C,R12*
X29446380Y-106500642D02*
X28970190Y-106167309D01*
X29446380Y-105929214D02*
X28446380Y-105929214D01*
X28446380Y-106310166D01*
X28494000Y-106405404D01*
X28541619Y-106453023D01*
X28636857Y-106500642D01*
X28779714Y-106500642D01*
X28874952Y-106453023D01*
X28922571Y-106405404D01*
X28970190Y-106310166D01*
X28970190Y-105929214D01*
X29446380Y-107453023D02*
X29446380Y-106881595D01*
X29446380Y-107167309D02*
X28446380Y-107167309D01*
X28589238Y-107072071D01*
X28684476Y-106976833D01*
X28732095Y-106881595D01*
X28541619Y-107833976D02*
X28494000Y-107881595D01*
X28446380Y-107976833D01*
X28446380Y-108214928D01*
X28494000Y-108310166D01*
X28541619Y-108357785D01*
X28636857Y-108405404D01*
X28732095Y-108405404D01*
X28874952Y-108357785D01*
X29446380Y-107786357D01*
X29446380Y-108405404D01*
G04 #@! TO.C,D15*
X67708285Y-39348380D02*
X67708285Y-38348380D01*
X67470190Y-38348380D01*
X67327333Y-38396000D01*
X67232095Y-38491238D01*
X67184476Y-38586476D01*
X67136857Y-38776952D01*
X67136857Y-38919809D01*
X67184476Y-39110285D01*
X67232095Y-39205523D01*
X67327333Y-39300761D01*
X67470190Y-39348380D01*
X67708285Y-39348380D01*
X66184476Y-39348380D02*
X66755904Y-39348380D01*
X66470190Y-39348380D02*
X66470190Y-38348380D01*
X66565428Y-38491238D01*
X66660666Y-38586476D01*
X66755904Y-38634095D01*
X65279714Y-38348380D02*
X65755904Y-38348380D01*
X65803523Y-38824571D01*
X65755904Y-38776952D01*
X65660666Y-38729333D01*
X65422571Y-38729333D01*
X65327333Y-38776952D01*
X65279714Y-38824571D01*
X65232095Y-38919809D01*
X65232095Y-39157904D01*
X65279714Y-39253142D01*
X65327333Y-39300761D01*
X65422571Y-39348380D01*
X65660666Y-39348380D01*
X65755904Y-39300761D01*
X65803523Y-39253142D01*
G04 #@! TO.C,D16*
X108148285Y-32408380D02*
X108148285Y-31408380D01*
X107910190Y-31408380D01*
X107767333Y-31456000D01*
X107672095Y-31551238D01*
X107624476Y-31646476D01*
X107576857Y-31836952D01*
X107576857Y-31979809D01*
X107624476Y-32170285D01*
X107672095Y-32265523D01*
X107767333Y-32360761D01*
X107910190Y-32408380D01*
X108148285Y-32408380D01*
X106624476Y-32408380D02*
X107195904Y-32408380D01*
X106910190Y-32408380D02*
X106910190Y-31408380D01*
X107005428Y-31551238D01*
X107100666Y-31646476D01*
X107195904Y-31694095D01*
X105767333Y-31408380D02*
X105957809Y-31408380D01*
X106053047Y-31456000D01*
X106100666Y-31503619D01*
X106195904Y-31646476D01*
X106243523Y-31836952D01*
X106243523Y-32217904D01*
X106195904Y-32313142D01*
X106148285Y-32360761D01*
X106053047Y-32408380D01*
X105862571Y-32408380D01*
X105767333Y-32360761D01*
X105719714Y-32313142D01*
X105672095Y-32217904D01*
X105672095Y-31979809D01*
X105719714Y-31884571D01*
X105767333Y-31836952D01*
X105862571Y-31789333D01*
X106053047Y-31789333D01*
X106148285Y-31836952D01*
X106195904Y-31884571D01*
X106243523Y-31979809D01*
G04 #@! TO.C,R17*
X92669357Y-28518380D02*
X93002690Y-28042190D01*
X93240785Y-28518380D02*
X93240785Y-27518380D01*
X92859833Y-27518380D01*
X92764595Y-27566000D01*
X92716976Y-27613619D01*
X92669357Y-27708857D01*
X92669357Y-27851714D01*
X92716976Y-27946952D01*
X92764595Y-27994571D01*
X92859833Y-28042190D01*
X93240785Y-28042190D01*
X91716976Y-28518380D02*
X92288404Y-28518380D01*
X92002690Y-28518380D02*
X92002690Y-27518380D01*
X92097928Y-27661238D01*
X92193166Y-27756476D01*
X92288404Y-27804095D01*
X91383642Y-27518380D02*
X90716976Y-27518380D01*
X91145547Y-28518380D01*
G04 #@! TO.C,D19*
X82376285Y-42410380D02*
X82376285Y-41410380D01*
X82138190Y-41410380D01*
X81995333Y-41458000D01*
X81900095Y-41553238D01*
X81852476Y-41648476D01*
X81804857Y-41838952D01*
X81804857Y-41981809D01*
X81852476Y-42172285D01*
X81900095Y-42267523D01*
X81995333Y-42362761D01*
X82138190Y-42410380D01*
X82376285Y-42410380D01*
X80852476Y-42410380D02*
X81423904Y-42410380D01*
X81138190Y-42410380D02*
X81138190Y-41410380D01*
X81233428Y-41553238D01*
X81328666Y-41648476D01*
X81423904Y-41696095D01*
X80376285Y-42410380D02*
X80185809Y-42410380D01*
X80090571Y-42362761D01*
X80042952Y-42315142D01*
X79947714Y-42172285D01*
X79900095Y-41981809D01*
X79900095Y-41600857D01*
X79947714Y-41505619D01*
X79995333Y-41458000D01*
X80090571Y-41410380D01*
X80281047Y-41410380D01*
X80376285Y-41458000D01*
X80423904Y-41505619D01*
X80471523Y-41600857D01*
X80471523Y-41838952D01*
X80423904Y-41934190D01*
X80376285Y-41981809D01*
X80281047Y-42029428D01*
X80090571Y-42029428D01*
X79995333Y-41981809D01*
X79947714Y-41934190D01*
X79900095Y-41838952D01*
G04 #@! TO.C,D20*
X93280285Y-42410380D02*
X93280285Y-41410380D01*
X93042190Y-41410380D01*
X92899333Y-41458000D01*
X92804095Y-41553238D01*
X92756476Y-41648476D01*
X92708857Y-41838952D01*
X92708857Y-41981809D01*
X92756476Y-42172285D01*
X92804095Y-42267523D01*
X92899333Y-42362761D01*
X93042190Y-42410380D01*
X93280285Y-42410380D01*
X92327904Y-41505619D02*
X92280285Y-41458000D01*
X92185047Y-41410380D01*
X91946952Y-41410380D01*
X91851714Y-41458000D01*
X91804095Y-41505619D01*
X91756476Y-41600857D01*
X91756476Y-41696095D01*
X91804095Y-41838952D01*
X92375523Y-42410380D01*
X91756476Y-42410380D01*
X91137428Y-41410380D02*
X91042190Y-41410380D01*
X90946952Y-41458000D01*
X90899333Y-41505619D01*
X90851714Y-41600857D01*
X90804095Y-41791333D01*
X90804095Y-42029428D01*
X90851714Y-42219904D01*
X90899333Y-42315142D01*
X90946952Y-42362761D01*
X91042190Y-42410380D01*
X91137428Y-42410380D01*
X91232666Y-42362761D01*
X91280285Y-42315142D01*
X91327904Y-42219904D01*
X91375523Y-42029428D01*
X91375523Y-41791333D01*
X91327904Y-41600857D01*
X91280285Y-41505619D01*
X91232666Y-41458000D01*
X91137428Y-41410380D01*
G04 #@! TD*
M02*
