G04 #@! TF.GenerationSoftware,KiCad,Pcbnew,(5.0.2)-1*
G04 #@! TF.CreationDate,2019-05-10T13:14:30+02:00*
G04 #@! TF.ProjectId,logika_main,6c6f6769-6b61-45f6-9d61-696e2e6b6963,rev?*
G04 #@! TF.SameCoordinates,Original*
G04 #@! TF.FileFunction,Legend,Top*
G04 #@! TF.FilePolarity,Positive*
%FSLAX46Y46*%
G04 Gerber Fmt 4.6, Leading zero omitted, Abs format (unit mm)*
G04 Created by KiCad (PCBNEW (5.0.2)-1) date 10.05.2019 13:14:30*
%MOMM*%
%LPD*%
G01*
G04 APERTURE LIST*
%ADD10C,0.200000*%
%ADD11C,0.300000*%
%ADD12C,0.120000*%
%ADD13C,0.100000*%
%ADD14C,0.150000*%
%ADD15C,0.254000*%
G04 APERTURE END LIST*
D10*
X56279714Y-19148380D02*
X56279714Y-18148380D01*
X56660666Y-18148380D01*
X56755904Y-18196000D01*
X56803523Y-18243619D01*
X56851142Y-18338857D01*
X56851142Y-18481714D01*
X56803523Y-18576952D01*
X56755904Y-18624571D01*
X56660666Y-18672190D01*
X56279714Y-18672190D01*
X57422571Y-19148380D02*
X57327333Y-19100761D01*
X57279714Y-19053142D01*
X57232095Y-18957904D01*
X57232095Y-18672190D01*
X57279714Y-18576952D01*
X57327333Y-18529333D01*
X57422571Y-18481714D01*
X57565428Y-18481714D01*
X57660666Y-18529333D01*
X57708285Y-18576952D01*
X57755904Y-18672190D01*
X57755904Y-18957904D01*
X57708285Y-19053142D01*
X57660666Y-19100761D01*
X57565428Y-19148380D01*
X57422571Y-19148380D01*
X58327333Y-19148380D02*
X58232095Y-19100761D01*
X58184476Y-19005523D01*
X58184476Y-18148380D01*
X59136857Y-19148380D02*
X59136857Y-18624571D01*
X59089238Y-18529333D01*
X58994000Y-18481714D01*
X58803523Y-18481714D01*
X58708285Y-18529333D01*
X59136857Y-19100761D02*
X59041619Y-19148380D01*
X58803523Y-19148380D01*
X58708285Y-19100761D01*
X58660666Y-19005523D01*
X58660666Y-18910285D01*
X58708285Y-18815047D01*
X58803523Y-18767428D01*
X59041619Y-18767428D01*
X59136857Y-18719809D01*
X59613047Y-19148380D02*
X59613047Y-18481714D01*
X59613047Y-18672190D02*
X59660666Y-18576952D01*
X59708285Y-18529333D01*
X59803523Y-18481714D01*
X59898761Y-18481714D01*
X60136857Y-18481714D02*
X60374952Y-19148380D01*
X60613047Y-18481714D02*
X60374952Y-19148380D01*
X60279714Y-19386476D01*
X60232095Y-19434095D01*
X60136857Y-19481714D01*
X60898761Y-18481714D02*
X61422571Y-18481714D01*
X60898761Y-19148380D01*
X61422571Y-19148380D01*
X62232095Y-19148380D02*
X62232095Y-18624571D01*
X62184476Y-18529333D01*
X62089238Y-18481714D01*
X61898761Y-18481714D01*
X61803523Y-18529333D01*
X62232095Y-19100761D02*
X62136857Y-19148380D01*
X61898761Y-19148380D01*
X61803523Y-19100761D01*
X61755904Y-19005523D01*
X61755904Y-18910285D01*
X61803523Y-18815047D01*
X61898761Y-18767428D01*
X62136857Y-18767428D01*
X62232095Y-18719809D01*
X63136857Y-19100761D02*
X63041619Y-19148380D01*
X62851142Y-19148380D01*
X62755904Y-19100761D01*
X62708285Y-19053142D01*
X62660666Y-18957904D01*
X62660666Y-18672190D01*
X62708285Y-18576952D01*
X62755904Y-18529333D01*
X62851142Y-18481714D01*
X63041619Y-18481714D01*
X63136857Y-18529333D01*
X63565428Y-18481714D02*
X63565428Y-19338857D01*
X63517809Y-19434095D01*
X63422571Y-19481714D01*
X63374952Y-19481714D01*
X63565428Y-18148380D02*
X63517809Y-18196000D01*
X63565428Y-18243619D01*
X63613047Y-18196000D01*
X63565428Y-18148380D01*
X63565428Y-18243619D01*
X64470190Y-19148380D02*
X64470190Y-18624571D01*
X64422571Y-18529333D01*
X64327333Y-18481714D01*
X64136857Y-18481714D01*
X64041619Y-18529333D01*
X64470190Y-19100761D02*
X64374952Y-19148380D01*
X64136857Y-19148380D01*
X64041619Y-19100761D01*
X63994000Y-19005523D01*
X63994000Y-18910285D01*
X64041619Y-18815047D01*
X64136857Y-18767428D01*
X64374952Y-18767428D01*
X64470190Y-18719809D01*
X64946380Y-19053142D02*
X64994000Y-19100761D01*
X64946380Y-19148380D01*
X64898761Y-19100761D01*
X64946380Y-19053142D01*
X64946380Y-19148380D01*
X64946380Y-18529333D02*
X64994000Y-18576952D01*
X64946380Y-18624571D01*
X64898761Y-18576952D01*
X64946380Y-18529333D01*
X64946380Y-18624571D01*
X56232095Y-20181714D02*
X56755904Y-20181714D01*
X56232095Y-20848380D01*
X56755904Y-20848380D01*
X57136857Y-20848380D02*
X57136857Y-20181714D01*
X57136857Y-19848380D02*
X57089238Y-19896000D01*
X57136857Y-19943619D01*
X57184476Y-19896000D01*
X57136857Y-19848380D01*
X57136857Y-19943619D01*
X57994000Y-20800761D02*
X57898761Y-20848380D01*
X57708285Y-20848380D01*
X57613047Y-20800761D01*
X57565428Y-20705523D01*
X57565428Y-20324571D01*
X57613047Y-20229333D01*
X57708285Y-20181714D01*
X57898761Y-20181714D01*
X57994000Y-20229333D01*
X58041619Y-20324571D01*
X58041619Y-20419809D01*
X57565428Y-20515047D01*
X58613047Y-20848380D02*
X58517809Y-20800761D01*
X58470190Y-20705523D01*
X58470190Y-19848380D01*
X59136857Y-20848380D02*
X59041619Y-20800761D01*
X58994000Y-20753142D01*
X58946380Y-20657904D01*
X58946380Y-20372190D01*
X58994000Y-20276952D01*
X59041619Y-20229333D01*
X59136857Y-20181714D01*
X59279714Y-20181714D01*
X59374952Y-20229333D01*
X59422571Y-20276952D01*
X59470190Y-20372190D01*
X59470190Y-20657904D01*
X59422571Y-20753142D01*
X59374952Y-20800761D01*
X59279714Y-20848380D01*
X59136857Y-20848380D01*
X59898761Y-20181714D02*
X59898761Y-20848380D01*
X59898761Y-20276952D02*
X59946380Y-20229333D01*
X60041619Y-20181714D01*
X60184476Y-20181714D01*
X60279714Y-20229333D01*
X60327333Y-20324571D01*
X60327333Y-20848380D01*
X61184476Y-20800761D02*
X61089238Y-20848380D01*
X60898761Y-20848380D01*
X60803523Y-20800761D01*
X60755904Y-20705523D01*
X60755904Y-20324571D01*
X60803523Y-20229333D01*
X60898761Y-20181714D01*
X61089238Y-20181714D01*
X61184476Y-20229333D01*
X61232095Y-20324571D01*
X61232095Y-20419809D01*
X60755904Y-20515047D01*
X62422571Y-20467428D02*
X63184476Y-20467428D01*
X64565428Y-20848380D02*
X64470190Y-20800761D01*
X64422571Y-20753142D01*
X64374952Y-20657904D01*
X64374952Y-20372190D01*
X64422571Y-20276952D01*
X64470190Y-20229333D01*
X64565428Y-20181714D01*
X64708285Y-20181714D01*
X64803523Y-20229333D01*
X64851142Y-20276952D01*
X64898761Y-20372190D01*
X64898761Y-20657904D01*
X64851142Y-20753142D01*
X64803523Y-20800761D01*
X64708285Y-20848380D01*
X64565428Y-20848380D01*
X65327333Y-20848380D02*
X65327333Y-19848380D01*
X65422571Y-20467428D02*
X65708285Y-20848380D01*
X65708285Y-20181714D02*
X65327333Y-20562666D01*
X53255904Y-22500761D02*
X53160666Y-22548380D01*
X52970190Y-22548380D01*
X52874952Y-22500761D01*
X52827333Y-22453142D01*
X52779714Y-22357904D01*
X52779714Y-22072190D01*
X52827333Y-21976952D01*
X52874952Y-21929333D01*
X52970190Y-21881714D01*
X53160666Y-21881714D01*
X53255904Y-21929333D01*
X53589238Y-21881714D02*
X54113047Y-21881714D01*
X53589238Y-22548380D01*
X54113047Y-22548380D01*
X54874952Y-22500761D02*
X54779714Y-22548380D01*
X54589238Y-22548380D01*
X54494000Y-22500761D01*
X54446380Y-22405523D01*
X54446380Y-22024571D01*
X54494000Y-21929333D01*
X54589238Y-21881714D01*
X54779714Y-21881714D01*
X54874952Y-21929333D01*
X54922571Y-22024571D01*
X54922571Y-22119809D01*
X54446380Y-22215047D01*
X55351142Y-22548380D02*
X55351142Y-21881714D01*
X55351142Y-22072190D02*
X55398761Y-21976952D01*
X55446380Y-21929333D01*
X55541619Y-21881714D01*
X55636857Y-21881714D01*
X55874952Y-21881714D02*
X56065428Y-22548380D01*
X56255904Y-22072190D01*
X56446380Y-22548380D01*
X56636857Y-21881714D01*
X57160666Y-22548380D02*
X57065428Y-22500761D01*
X57017809Y-22453142D01*
X56970190Y-22357904D01*
X56970190Y-22072190D01*
X57017809Y-21976952D01*
X57065428Y-21929333D01*
X57160666Y-21881714D01*
X57303523Y-21881714D01*
X57398761Y-21929333D01*
X57446380Y-21976952D01*
X57494000Y-22072190D01*
X57494000Y-22357904D01*
X57446380Y-22453142D01*
X57398761Y-22500761D01*
X57303523Y-22548380D01*
X57160666Y-22548380D01*
X57922571Y-21881714D02*
X57922571Y-22548380D01*
X57922571Y-21976952D02*
X57970190Y-21929333D01*
X58065428Y-21881714D01*
X58208285Y-21881714D01*
X58303523Y-21929333D01*
X58351142Y-22024571D01*
X58351142Y-22548380D01*
X59208285Y-22500761D02*
X59113047Y-22548380D01*
X58922571Y-22548380D01*
X58827333Y-22500761D01*
X58779714Y-22405523D01*
X58779714Y-22024571D01*
X58827333Y-21929333D01*
X58922571Y-21881714D01*
X59113047Y-21881714D01*
X59208285Y-21929333D01*
X59255904Y-22024571D01*
X59255904Y-22119809D01*
X58779714Y-22215047D01*
X60446380Y-22167428D02*
X61208285Y-22167428D01*
X62589238Y-22548380D02*
X62494000Y-22500761D01*
X62446380Y-22453142D01*
X62398761Y-22357904D01*
X62398761Y-22072190D01*
X62446380Y-21976952D01*
X62494000Y-21929333D01*
X62589238Y-21881714D01*
X62732095Y-21881714D01*
X62827333Y-21929333D01*
X62874952Y-21976952D01*
X62922571Y-22072190D01*
X62922571Y-22357904D01*
X62874952Y-22453142D01*
X62827333Y-22500761D01*
X62732095Y-22548380D01*
X62589238Y-22548380D01*
X63779714Y-22548380D02*
X63779714Y-21548380D01*
X63779714Y-22500761D02*
X63684476Y-22548380D01*
X63494000Y-22548380D01*
X63398761Y-22500761D01*
X63351142Y-22453142D01*
X63303523Y-22357904D01*
X63303523Y-22072190D01*
X63351142Y-21976952D01*
X63398761Y-21929333D01*
X63494000Y-21881714D01*
X63684476Y-21881714D01*
X63779714Y-21929333D01*
X64160666Y-21881714D02*
X64351142Y-22548380D01*
X64541619Y-22072190D01*
X64732095Y-22548380D01*
X64922571Y-21881714D01*
X65303523Y-22548380D02*
X65303523Y-21881714D01*
X65303523Y-22072190D02*
X65351142Y-21976952D01*
X65398761Y-21929333D01*
X65494000Y-21881714D01*
X65589238Y-21881714D01*
X66065428Y-22548380D02*
X65970190Y-22500761D01*
X65922571Y-22453142D01*
X65874952Y-22357904D01*
X65874952Y-22072190D01*
X65922571Y-21976952D01*
X65970190Y-21929333D01*
X66065428Y-21881714D01*
X66208285Y-21881714D01*
X66303523Y-21929333D01*
X66351142Y-21976952D01*
X66398761Y-22072190D01*
X66398761Y-22357904D01*
X66351142Y-22453142D01*
X66303523Y-22500761D01*
X66208285Y-22548380D01*
X66065428Y-22548380D01*
X66684476Y-21881714D02*
X67065428Y-21881714D01*
X66827333Y-21548380D02*
X66827333Y-22405523D01*
X66874952Y-22500761D01*
X66970190Y-22548380D01*
X67065428Y-22548380D01*
X67398761Y-21881714D02*
X67398761Y-22548380D01*
X67398761Y-21976952D02*
X67446380Y-21929333D01*
X67541619Y-21881714D01*
X67684476Y-21881714D01*
X67779714Y-21929333D01*
X67827333Y-22024571D01*
X67827333Y-22548380D01*
X68303523Y-22548380D02*
X68303523Y-21881714D01*
X68303523Y-21548380D02*
X68255904Y-21596000D01*
X68303523Y-21643619D01*
X68351142Y-21596000D01*
X68303523Y-21548380D01*
X68303523Y-21643619D01*
X69160666Y-22500761D02*
X69065428Y-22548380D01*
X68874952Y-22548380D01*
X68779714Y-22500761D01*
X68732095Y-22405523D01*
X68732095Y-22024571D01*
X68779714Y-21929333D01*
X68874952Y-21881714D01*
X69065428Y-21881714D01*
X69160666Y-21929333D01*
X69208285Y-22024571D01*
X69208285Y-22119809D01*
X68732095Y-22215047D01*
D11*
X128601142Y-143574571D02*
X127886857Y-143574571D01*
X127815428Y-144288857D01*
X127886857Y-144217428D01*
X128029714Y-144146000D01*
X128386857Y-144146000D01*
X128529714Y-144217428D01*
X128601142Y-144288857D01*
X128672571Y-144431714D01*
X128672571Y-144788857D01*
X128601142Y-144931714D01*
X128529714Y-145003142D01*
X128386857Y-145074571D01*
X128029714Y-145074571D01*
X127886857Y-145003142D01*
X127815428Y-144931714D01*
X129101142Y-143574571D02*
X129601142Y-145074571D01*
X130101142Y-143574571D01*
X132029714Y-143574571D02*
X132315428Y-143574571D01*
X132458285Y-143646000D01*
X132601142Y-143788857D01*
X132672571Y-144074571D01*
X132672571Y-144574571D01*
X132601142Y-144860285D01*
X132458285Y-145003142D01*
X132315428Y-145074571D01*
X132029714Y-145074571D01*
X131886857Y-145003142D01*
X131744000Y-144860285D01*
X131672571Y-144574571D01*
X131672571Y-144074571D01*
X131744000Y-143788857D01*
X131886857Y-143646000D01*
X132029714Y-143574571D01*
X133315428Y-145074571D02*
X133315428Y-143574571D01*
X134172571Y-145074571D02*
X133529714Y-144217428D01*
X134172571Y-143574571D02*
X133315428Y-144431714D01*
X127958285Y-72574571D02*
X127101142Y-72574571D01*
X127529714Y-72574571D02*
X127529714Y-71074571D01*
X127386857Y-71288857D01*
X127244000Y-71431714D01*
X127101142Y-71503142D01*
X128529714Y-71217428D02*
X128601142Y-71146000D01*
X128744000Y-71074571D01*
X129101142Y-71074571D01*
X129244000Y-71146000D01*
X129315428Y-71217428D01*
X129386857Y-71360285D01*
X129386857Y-71503142D01*
X129315428Y-71717428D01*
X128458285Y-72574571D01*
X129386857Y-72574571D01*
X129815428Y-71074571D02*
X130315428Y-72574571D01*
X130815428Y-71074571D01*
X132744000Y-71074571D02*
X133029714Y-71074571D01*
X133172571Y-71146000D01*
X133315428Y-71288857D01*
X133386857Y-71574571D01*
X133386857Y-72074571D01*
X133315428Y-72360285D01*
X133172571Y-72503142D01*
X133029714Y-72574571D01*
X132744000Y-72574571D01*
X132601142Y-72503142D01*
X132458285Y-72360285D01*
X132386857Y-72074571D01*
X132386857Y-71574571D01*
X132458285Y-71288857D01*
X132601142Y-71146000D01*
X132744000Y-71074571D01*
X134029714Y-72574571D02*
X134029714Y-71074571D01*
X134886857Y-72574571D02*
X134244000Y-71717428D01*
X134886857Y-71074571D02*
X134029714Y-71931714D01*
X25815428Y-45299571D02*
X25815428Y-43799571D01*
X26172571Y-43799571D01*
X26386857Y-43871000D01*
X26529714Y-44013857D01*
X26601142Y-44156714D01*
X26672571Y-44442428D01*
X26672571Y-44656714D01*
X26601142Y-44942428D01*
X26529714Y-45085285D01*
X26386857Y-45228142D01*
X26172571Y-45299571D01*
X25815428Y-45299571D01*
X27315428Y-45299571D02*
X27315428Y-44299571D01*
X27315428Y-43799571D02*
X27244000Y-43871000D01*
X27315428Y-43942428D01*
X27386857Y-43871000D01*
X27315428Y-43799571D01*
X27315428Y-43942428D01*
X28672571Y-44299571D02*
X28672571Y-45513857D01*
X28601142Y-45656714D01*
X28529714Y-45728142D01*
X28386857Y-45799571D01*
X28172571Y-45799571D01*
X28029714Y-45728142D01*
X28672571Y-45228142D02*
X28529714Y-45299571D01*
X28244000Y-45299571D01*
X28101142Y-45228142D01*
X28029714Y-45156714D01*
X27958285Y-45013857D01*
X27958285Y-44585285D01*
X28029714Y-44442428D01*
X28101142Y-44371000D01*
X28244000Y-44299571D01*
X28529714Y-44299571D01*
X28672571Y-44371000D01*
X29386857Y-45299571D02*
X29386857Y-44299571D01*
X29386857Y-43799571D02*
X29315428Y-43871000D01*
X29386857Y-43942428D01*
X29458285Y-43871000D01*
X29386857Y-43799571D01*
X29386857Y-43942428D01*
X29886857Y-44299571D02*
X30458285Y-44299571D01*
X30101142Y-43799571D02*
X30101142Y-45085285D01*
X30172571Y-45228142D01*
X30315428Y-45299571D01*
X30458285Y-45299571D01*
X31601142Y-45299571D02*
X31601142Y-44513857D01*
X31529714Y-44371000D01*
X31386857Y-44299571D01*
X31101142Y-44299571D01*
X30958285Y-44371000D01*
X31601142Y-45228142D02*
X31458285Y-45299571D01*
X31101142Y-45299571D01*
X30958285Y-45228142D01*
X30886857Y-45085285D01*
X30886857Y-44942428D01*
X30958285Y-44799571D01*
X31101142Y-44728142D01*
X31458285Y-44728142D01*
X31601142Y-44656714D01*
X32529714Y-45299571D02*
X32386857Y-45228142D01*
X32315428Y-45085285D01*
X32315428Y-43799571D01*
X34244000Y-44299571D02*
X34244000Y-45799571D01*
X34244000Y-44371000D02*
X34386857Y-44299571D01*
X34672571Y-44299571D01*
X34815428Y-44371000D01*
X34886857Y-44442428D01*
X34958285Y-44585285D01*
X34958285Y-45013857D01*
X34886857Y-45156714D01*
X34815428Y-45228142D01*
X34672571Y-45299571D01*
X34386857Y-45299571D01*
X34244000Y-45228142D01*
X35815428Y-45299571D02*
X35672571Y-45228142D01*
X35601142Y-45156714D01*
X35529714Y-45013857D01*
X35529714Y-44585285D01*
X35601142Y-44442428D01*
X35672571Y-44371000D01*
X35815428Y-44299571D01*
X36029714Y-44299571D01*
X36172571Y-44371000D01*
X36244000Y-44442428D01*
X36315428Y-44585285D01*
X36315428Y-45013857D01*
X36244000Y-45156714D01*
X36172571Y-45228142D01*
X36029714Y-45299571D01*
X35815428Y-45299571D01*
X36815428Y-44299571D02*
X37101142Y-45299571D01*
X37386857Y-44585285D01*
X37672571Y-45299571D01*
X37958285Y-44299571D01*
X39101142Y-45228142D02*
X38958285Y-45299571D01*
X38672571Y-45299571D01*
X38529714Y-45228142D01*
X38458285Y-45085285D01*
X38458285Y-44513857D01*
X38529714Y-44371000D01*
X38672571Y-44299571D01*
X38958285Y-44299571D01*
X39101142Y-44371000D01*
X39172571Y-44513857D01*
X39172571Y-44656714D01*
X38458285Y-44799571D01*
X39815428Y-45299571D02*
X39815428Y-44299571D01*
X39815428Y-44585285D02*
X39886857Y-44442428D01*
X39958285Y-44371000D01*
X40101142Y-44299571D01*
X40244000Y-44299571D01*
X30494000Y-47849571D02*
X30351142Y-47778142D01*
X30279714Y-47706714D01*
X30208285Y-47563857D01*
X30208285Y-47135285D01*
X30279714Y-46992428D01*
X30351142Y-46921000D01*
X30494000Y-46849571D01*
X30708285Y-46849571D01*
X30851142Y-46921000D01*
X30922571Y-46992428D01*
X30994000Y-47135285D01*
X30994000Y-47563857D01*
X30922571Y-47706714D01*
X30851142Y-47778142D01*
X30708285Y-47849571D01*
X30494000Y-47849571D01*
X32279714Y-46849571D02*
X32279714Y-47849571D01*
X31636857Y-46849571D02*
X31636857Y-47635285D01*
X31708285Y-47778142D01*
X31851142Y-47849571D01*
X32065428Y-47849571D01*
X32208285Y-47778142D01*
X32279714Y-47706714D01*
X32779714Y-46849571D02*
X33351142Y-46849571D01*
X32994000Y-46349571D02*
X32994000Y-47635285D01*
X33065428Y-47778142D01*
X33208285Y-47849571D01*
X33351142Y-47849571D01*
X33851142Y-46849571D02*
X33851142Y-48349571D01*
X33851142Y-46921000D02*
X33994000Y-46849571D01*
X34279714Y-46849571D01*
X34422571Y-46921000D01*
X34494000Y-46992428D01*
X34565428Y-47135285D01*
X34565428Y-47563857D01*
X34494000Y-47706714D01*
X34422571Y-47778142D01*
X34279714Y-47849571D01*
X33994000Y-47849571D01*
X33851142Y-47778142D01*
X35851142Y-46849571D02*
X35851142Y-47849571D01*
X35208285Y-46849571D02*
X35208285Y-47635285D01*
X35279714Y-47778142D01*
X35422571Y-47849571D01*
X35636857Y-47849571D01*
X35779714Y-47778142D01*
X35851142Y-47706714D01*
X36351142Y-46849571D02*
X36922571Y-46849571D01*
X36565428Y-46349571D02*
X36565428Y-47635285D01*
X36636857Y-47778142D01*
X36779714Y-47849571D01*
X36922571Y-47849571D01*
X21708285Y-64574571D02*
X21208285Y-63860285D01*
X20851142Y-64574571D02*
X20851142Y-63074571D01*
X21422571Y-63074571D01*
X21565428Y-63146000D01*
X21636857Y-63217428D01*
X21708285Y-63360285D01*
X21708285Y-63574571D01*
X21636857Y-63717428D01*
X21565428Y-63788857D01*
X21422571Y-63860285D01*
X20851142Y-63860285D01*
X23208285Y-64431714D02*
X23136857Y-64503142D01*
X22922571Y-64574571D01*
X22779714Y-64574571D01*
X22565428Y-64503142D01*
X22422571Y-64360285D01*
X22351142Y-64217428D01*
X22279714Y-63931714D01*
X22279714Y-63717428D01*
X22351142Y-63431714D01*
X22422571Y-63288857D01*
X22565428Y-63146000D01*
X22779714Y-63074571D01*
X22922571Y-63074571D01*
X23136857Y-63146000D01*
X23208285Y-63217428D01*
X23851142Y-64431714D02*
X23922571Y-64503142D01*
X23851142Y-64574571D01*
X23779714Y-64503142D01*
X23851142Y-64431714D01*
X23851142Y-64574571D01*
X23851142Y-63646000D02*
X23922571Y-63717428D01*
X23851142Y-63788857D01*
X23779714Y-63717428D01*
X23851142Y-63646000D01*
X23851142Y-63788857D01*
X26494000Y-64574571D02*
X25636857Y-64574571D01*
X26065428Y-64574571D02*
X26065428Y-63074571D01*
X25922571Y-63288857D01*
X25779714Y-63431714D01*
X25636857Y-63503142D01*
X27065428Y-63217428D02*
X27136857Y-63146000D01*
X27279714Y-63074571D01*
X27636857Y-63074571D01*
X27779714Y-63146000D01*
X27851142Y-63217428D01*
X27922571Y-63360285D01*
X27922571Y-63503142D01*
X27851142Y-63717428D01*
X26994000Y-64574571D01*
X27922571Y-64574571D01*
X28351142Y-63074571D02*
X28851142Y-64574571D01*
X29351142Y-63074571D01*
X22422571Y-98074571D02*
X21922571Y-97360285D01*
X21565428Y-98074571D02*
X21565428Y-96574571D01*
X22136857Y-96574571D01*
X22279714Y-96646000D01*
X22351142Y-96717428D01*
X22422571Y-96860285D01*
X22422571Y-97074571D01*
X22351142Y-97217428D01*
X22279714Y-97288857D01*
X22136857Y-97360285D01*
X21565428Y-97360285D01*
X23922571Y-97931714D02*
X23851142Y-98003142D01*
X23636857Y-98074571D01*
X23494000Y-98074571D01*
X23279714Y-98003142D01*
X23136857Y-97860285D01*
X23065428Y-97717428D01*
X22994000Y-97431714D01*
X22994000Y-97217428D01*
X23065428Y-96931714D01*
X23136857Y-96788857D01*
X23279714Y-96646000D01*
X23494000Y-96574571D01*
X23636857Y-96574571D01*
X23851142Y-96646000D01*
X23922571Y-96717428D01*
X24565428Y-97931714D02*
X24636857Y-98003142D01*
X24565428Y-98074571D01*
X24494000Y-98003142D01*
X24565428Y-97931714D01*
X24565428Y-98074571D01*
X24565428Y-97146000D02*
X24636857Y-97217428D01*
X24565428Y-97288857D01*
X24494000Y-97217428D01*
X24565428Y-97146000D01*
X24565428Y-97288857D01*
X27136857Y-96574571D02*
X26422571Y-96574571D01*
X26351142Y-97288857D01*
X26422571Y-97217428D01*
X26565428Y-97146000D01*
X26922571Y-97146000D01*
X27065428Y-97217428D01*
X27136857Y-97288857D01*
X27208285Y-97431714D01*
X27208285Y-97788857D01*
X27136857Y-97931714D01*
X27065428Y-98003142D01*
X26922571Y-98074571D01*
X26565428Y-98074571D01*
X26422571Y-98003142D01*
X26351142Y-97931714D01*
X27636857Y-96574571D02*
X28136857Y-98074571D01*
X28636857Y-96574571D01*
X23065428Y-170074571D02*
X22565428Y-169360285D01*
X22208285Y-170074571D02*
X22208285Y-168574571D01*
X22779714Y-168574571D01*
X22922571Y-168646000D01*
X22994000Y-168717428D01*
X23065428Y-168860285D01*
X23065428Y-169074571D01*
X22994000Y-169217428D01*
X22922571Y-169288857D01*
X22779714Y-169360285D01*
X22208285Y-169360285D01*
X24565428Y-169931714D02*
X24494000Y-170003142D01*
X24279714Y-170074571D01*
X24136857Y-170074571D01*
X23922571Y-170003142D01*
X23779714Y-169860285D01*
X23708285Y-169717428D01*
X23636857Y-169431714D01*
X23636857Y-169217428D01*
X23708285Y-168931714D01*
X23779714Y-168788857D01*
X23922571Y-168646000D01*
X24136857Y-168574571D01*
X24279714Y-168574571D01*
X24494000Y-168646000D01*
X24565428Y-168717428D01*
X25208285Y-169931714D02*
X25279714Y-170003142D01*
X25208285Y-170074571D01*
X25136857Y-170003142D01*
X25208285Y-169931714D01*
X25208285Y-170074571D01*
X25208285Y-169146000D02*
X25279714Y-169217428D01*
X25208285Y-169288857D01*
X25136857Y-169217428D01*
X25208285Y-169146000D01*
X25208285Y-169288857D01*
X27065428Y-169503142D02*
X28208285Y-169503142D01*
X27636857Y-170074571D02*
X27636857Y-168931714D01*
X29994000Y-168503142D02*
X28708285Y-170431714D01*
X30494000Y-169503142D02*
X31636857Y-169503142D01*
X33136857Y-170074571D02*
X32279714Y-170074571D01*
X32708285Y-170074571D02*
X32708285Y-168574571D01*
X32565428Y-168788857D01*
X32422571Y-168931714D01*
X32279714Y-169003142D01*
X34494000Y-168574571D02*
X33779714Y-168574571D01*
X33708285Y-169288857D01*
X33779714Y-169217428D01*
X33922571Y-169146000D01*
X34279714Y-169146000D01*
X34422571Y-169217428D01*
X34494000Y-169288857D01*
X34565428Y-169431714D01*
X34565428Y-169788857D01*
X34494000Y-169931714D01*
X34422571Y-170003142D01*
X34279714Y-170074571D01*
X33922571Y-170074571D01*
X33779714Y-170003142D01*
X33708285Y-169931714D01*
X34994000Y-168574571D02*
X35494000Y-170074571D01*
X35994000Y-168574571D01*
D10*
X98815428Y-177931714D02*
X98744000Y-178003142D01*
X98529714Y-178074571D01*
X98386857Y-178074571D01*
X98172571Y-178003142D01*
X98029714Y-177860285D01*
X97958285Y-177717428D01*
X97886857Y-177431714D01*
X97886857Y-177217428D01*
X97958285Y-176931714D01*
X98029714Y-176788857D01*
X98172571Y-176646000D01*
X98386857Y-176574571D01*
X98529714Y-176574571D01*
X98744000Y-176646000D01*
X98815428Y-176717428D01*
X99744000Y-176574571D02*
X100029714Y-176574571D01*
X100172571Y-176646000D01*
X100315428Y-176788857D01*
X100386857Y-177074571D01*
X100386857Y-177574571D01*
X100315428Y-177860285D01*
X100172571Y-178003142D01*
X100029714Y-178074571D01*
X99744000Y-178074571D01*
X99601142Y-178003142D01*
X99458285Y-177860285D01*
X99386857Y-177574571D01*
X99386857Y-177074571D01*
X99458285Y-176788857D01*
X99601142Y-176646000D01*
X99744000Y-176574571D01*
X101029714Y-178074571D02*
X101029714Y-176574571D01*
X101529714Y-177646000D01*
X102029714Y-176574571D01*
X102029714Y-178074571D01*
X98815428Y-171931714D02*
X98744000Y-172003142D01*
X98529714Y-172074571D01*
X98386857Y-172074571D01*
X98172571Y-172003142D01*
X98029714Y-171860285D01*
X97958285Y-171717428D01*
X97886857Y-171431714D01*
X97886857Y-171217428D01*
X97958285Y-170931714D01*
X98029714Y-170788857D01*
X98172571Y-170646000D01*
X98386857Y-170574571D01*
X98529714Y-170574571D01*
X98744000Y-170646000D01*
X98815428Y-170717428D01*
X99744000Y-170574571D02*
X100029714Y-170574571D01*
X100172571Y-170646000D01*
X100315428Y-170788857D01*
X100386857Y-171074571D01*
X100386857Y-171574571D01*
X100315428Y-171860285D01*
X100172571Y-172003142D01*
X100029714Y-172074571D01*
X99744000Y-172074571D01*
X99601142Y-172003142D01*
X99458285Y-171860285D01*
X99386857Y-171574571D01*
X99386857Y-171074571D01*
X99458285Y-170788857D01*
X99601142Y-170646000D01*
X99744000Y-170574571D01*
X101029714Y-172074571D02*
X101029714Y-170574571D01*
X101529714Y-171646000D01*
X102029714Y-170574571D01*
X102029714Y-172074571D01*
X115351142Y-177503142D02*
X116494000Y-177503142D01*
X117994000Y-178074571D02*
X117136857Y-178074571D01*
X117565428Y-178074571D02*
X117565428Y-176574571D01*
X117422571Y-176788857D01*
X117279714Y-176931714D01*
X117136857Y-177003142D01*
X119351142Y-176574571D02*
X118636857Y-176574571D01*
X118565428Y-177288857D01*
X118636857Y-177217428D01*
X118779714Y-177146000D01*
X119136857Y-177146000D01*
X119279714Y-177217428D01*
X119351142Y-177288857D01*
X119422571Y-177431714D01*
X119422571Y-177788857D01*
X119351142Y-177931714D01*
X119279714Y-178003142D01*
X119136857Y-178074571D01*
X118779714Y-178074571D01*
X118636857Y-178003142D01*
X118565428Y-177931714D01*
X119851142Y-176574571D02*
X120351142Y-178074571D01*
X120851142Y-176574571D01*
X115351142Y-171503142D02*
X116494000Y-171503142D01*
X115922571Y-172074571D02*
X115922571Y-170931714D01*
X117994000Y-172074571D02*
X117136857Y-172074571D01*
X117565428Y-172074571D02*
X117565428Y-170574571D01*
X117422571Y-170788857D01*
X117279714Y-170931714D01*
X117136857Y-171003142D01*
X119351142Y-170574571D02*
X118636857Y-170574571D01*
X118565428Y-171288857D01*
X118636857Y-171217428D01*
X118779714Y-171146000D01*
X119136857Y-171146000D01*
X119279714Y-171217428D01*
X119351142Y-171288857D01*
X119422571Y-171431714D01*
X119422571Y-171788857D01*
X119351142Y-171931714D01*
X119279714Y-172003142D01*
X119136857Y-172074571D01*
X118779714Y-172074571D01*
X118636857Y-172003142D01*
X118565428Y-171931714D01*
X119851142Y-170574571D02*
X120351142Y-172074571D01*
X120851142Y-170574571D01*
X105244000Y-189503142D02*
X106386857Y-189503142D01*
X107886857Y-190074571D02*
X107029714Y-190074571D01*
X107458285Y-190074571D02*
X107458285Y-188574571D01*
X107315428Y-188788857D01*
X107172571Y-188931714D01*
X107029714Y-189003142D01*
X109244000Y-188574571D02*
X108529714Y-188574571D01*
X108458285Y-189288857D01*
X108529714Y-189217428D01*
X108672571Y-189146000D01*
X109029714Y-189146000D01*
X109172571Y-189217428D01*
X109244000Y-189288857D01*
X109315428Y-189431714D01*
X109315428Y-189788857D01*
X109244000Y-189931714D01*
X109172571Y-190003142D01*
X109029714Y-190074571D01*
X108672571Y-190074571D01*
X108529714Y-190003142D01*
X108458285Y-189931714D01*
X109744000Y-188574571D02*
X110244000Y-190074571D01*
X110744000Y-188574571D01*
X112672571Y-188574571D02*
X112958285Y-188574571D01*
X113101142Y-188646000D01*
X113244000Y-188788857D01*
X113315428Y-189074571D01*
X113315428Y-189574571D01*
X113244000Y-189860285D01*
X113101142Y-190003142D01*
X112958285Y-190074571D01*
X112672571Y-190074571D01*
X112529714Y-190003142D01*
X112386857Y-189860285D01*
X112315428Y-189574571D01*
X112315428Y-189074571D01*
X112386857Y-188788857D01*
X112529714Y-188646000D01*
X112672571Y-188574571D01*
X113958285Y-190074571D02*
X113958285Y-188574571D01*
X114815428Y-190074571D02*
X114172571Y-189217428D01*
X114815428Y-188574571D02*
X113958285Y-189431714D01*
X105244000Y-159503142D02*
X106386857Y-159503142D01*
X105815428Y-160074571D02*
X105815428Y-158931714D01*
X107886857Y-160074571D02*
X107029714Y-160074571D01*
X107458285Y-160074571D02*
X107458285Y-158574571D01*
X107315428Y-158788857D01*
X107172571Y-158931714D01*
X107029714Y-159003142D01*
X109244000Y-158574571D02*
X108529714Y-158574571D01*
X108458285Y-159288857D01*
X108529714Y-159217428D01*
X108672571Y-159146000D01*
X109029714Y-159146000D01*
X109172571Y-159217428D01*
X109244000Y-159288857D01*
X109315428Y-159431714D01*
X109315428Y-159788857D01*
X109244000Y-159931714D01*
X109172571Y-160003142D01*
X109029714Y-160074571D01*
X108672571Y-160074571D01*
X108529714Y-160003142D01*
X108458285Y-159931714D01*
X109744000Y-158574571D02*
X110244000Y-160074571D01*
X110744000Y-158574571D01*
X112672571Y-158574571D02*
X112958285Y-158574571D01*
X113101142Y-158646000D01*
X113244000Y-158788857D01*
X113315428Y-159074571D01*
X113315428Y-159574571D01*
X113244000Y-159860285D01*
X113101142Y-160003142D01*
X112958285Y-160074571D01*
X112672571Y-160074571D01*
X112529714Y-160003142D01*
X112386857Y-159860285D01*
X112315428Y-159574571D01*
X112315428Y-159074571D01*
X112386857Y-158788857D01*
X112529714Y-158646000D01*
X112672571Y-158574571D01*
X113958285Y-160074571D02*
X113958285Y-158574571D01*
X114815428Y-160074571D02*
X114172571Y-159217428D01*
X114815428Y-158574571D02*
X113958285Y-159431714D01*
D12*
G04 #@! TO.C,TP2*
X129824000Y-64566000D02*
X129824000Y-65896000D01*
X128494000Y-64566000D02*
X129824000Y-64566000D01*
X127224000Y-64566000D02*
X127224000Y-67226000D01*
X127224000Y-67226000D02*
X127164000Y-67226000D01*
X127224000Y-64566000D02*
X127164000Y-64566000D01*
X127164000Y-64566000D02*
X127164000Y-67226000D01*
D13*
G04 #@! TO.C,PS2*
X56094000Y-184546000D02*
X56094000Y-164246000D01*
X56094000Y-164246000D02*
X87894000Y-164246000D01*
X87894000Y-164246000D02*
X87894000Y-184546000D01*
X87894000Y-184546000D02*
X56094000Y-184546000D01*
D10*
X60494000Y-185096000D02*
X60494000Y-185096000D01*
X60694000Y-185096000D02*
X60694000Y-185096000D01*
X60694000Y-185096000D02*
G75*
G03X60494000Y-185096000I-100000J0D01*
G01*
X60494000Y-185096000D02*
G75*
G03X60694000Y-185096000I100000J0D01*
G01*
D13*
G04 #@! TO.C,IC1*
X34294000Y-57166000D02*
X92694000Y-57166000D01*
X92694000Y-57166000D02*
X92694000Y-80026000D01*
X92694000Y-80026000D02*
X34294000Y-80026000D01*
X34294000Y-80026000D02*
X34294000Y-57166000D01*
D10*
X33594000Y-60896000D02*
X33594000Y-60896000D01*
X33594000Y-61096000D02*
X33594000Y-61096000D01*
X33594000Y-61096000D02*
G75*
G03X33594000Y-60896000I0J100000D01*
G01*
X33594000Y-60896000D02*
G75*
G03X33594000Y-61096000I0J-100000D01*
G01*
D12*
G04 #@! TO.C,D6*
X134534000Y-64936000D02*
X131849000Y-64936000D01*
X131849000Y-64936000D02*
X131849000Y-66856000D01*
X131849000Y-66856000D02*
X134534000Y-66856000D01*
G04 #@! TO.C,J15*
X103634000Y-50896000D02*
X103634000Y-53706000D01*
X103634000Y-53706000D02*
X113454000Y-53706000D01*
X113454000Y-53706000D02*
X113454000Y-52706000D01*
X113454000Y-52706000D02*
X114854000Y-52706000D01*
X114854000Y-52706000D02*
X114854000Y-50896000D01*
X103634000Y-50896000D02*
X103634000Y-48086000D01*
X103634000Y-48086000D02*
X113454000Y-48086000D01*
X113454000Y-48086000D02*
X113454000Y-49086000D01*
X113454000Y-49086000D02*
X114854000Y-49086000D01*
X114854000Y-49086000D02*
X114854000Y-50896000D01*
X103394000Y-51096000D02*
X103394000Y-53946000D01*
X103394000Y-53946000D02*
X106244000Y-53946000D01*
G04 #@! TO.C,J20*
X126134000Y-35896000D02*
X126134000Y-38706000D01*
X126134000Y-38706000D02*
X135954000Y-38706000D01*
X135954000Y-38706000D02*
X135954000Y-37706000D01*
X135954000Y-37706000D02*
X137354000Y-37706000D01*
X137354000Y-37706000D02*
X137354000Y-35896000D01*
X126134000Y-35896000D02*
X126134000Y-33086000D01*
X126134000Y-33086000D02*
X135954000Y-33086000D01*
X135954000Y-33086000D02*
X135954000Y-34086000D01*
X135954000Y-34086000D02*
X137354000Y-34086000D01*
X137354000Y-34086000D02*
X137354000Y-35896000D01*
X125894000Y-36096000D02*
X125894000Y-38946000D01*
X125894000Y-38946000D02*
X128744000Y-38946000D01*
G04 #@! TO.C,J18*
X103634000Y-60896000D02*
X103634000Y-63706000D01*
X103634000Y-63706000D02*
X113454000Y-63706000D01*
X113454000Y-63706000D02*
X113454000Y-62706000D01*
X113454000Y-62706000D02*
X114854000Y-62706000D01*
X114854000Y-62706000D02*
X114854000Y-60896000D01*
X103634000Y-60896000D02*
X103634000Y-58086000D01*
X103634000Y-58086000D02*
X113454000Y-58086000D01*
X113454000Y-58086000D02*
X113454000Y-59086000D01*
X113454000Y-59086000D02*
X114854000Y-59086000D01*
X114854000Y-59086000D02*
X114854000Y-60896000D01*
X103394000Y-61096000D02*
X103394000Y-63946000D01*
X103394000Y-63946000D02*
X106244000Y-63946000D01*
G04 #@! TO.C,J17*
X103394000Y-83946000D02*
X106244000Y-83946000D01*
X103394000Y-81096000D02*
X103394000Y-83946000D01*
X114854000Y-79086000D02*
X114854000Y-80896000D01*
X113454000Y-79086000D02*
X114854000Y-79086000D01*
X113454000Y-78086000D02*
X113454000Y-79086000D01*
X103634000Y-78086000D02*
X113454000Y-78086000D01*
X103634000Y-80896000D02*
X103634000Y-78086000D01*
X114854000Y-82706000D02*
X114854000Y-80896000D01*
X113454000Y-82706000D02*
X114854000Y-82706000D01*
X113454000Y-83706000D02*
X113454000Y-82706000D01*
X103634000Y-83706000D02*
X113454000Y-83706000D01*
X103634000Y-80896000D02*
X103634000Y-83706000D01*
G04 #@! TO.C,J21*
X125894000Y-48946000D02*
X128744000Y-48946000D01*
X125894000Y-46096000D02*
X125894000Y-48946000D01*
X137354000Y-44086000D02*
X137354000Y-45896000D01*
X135954000Y-44086000D02*
X137354000Y-44086000D01*
X135954000Y-43086000D02*
X135954000Y-44086000D01*
X126134000Y-43086000D02*
X135954000Y-43086000D01*
X126134000Y-45896000D02*
X126134000Y-43086000D01*
X137354000Y-47706000D02*
X137354000Y-45896000D01*
X135954000Y-47706000D02*
X137354000Y-47706000D01*
X135954000Y-48706000D02*
X135954000Y-47706000D01*
X126134000Y-48706000D02*
X135954000Y-48706000D01*
X126134000Y-45896000D02*
X126134000Y-48706000D01*
G04 #@! TO.C,J14*
X125894000Y-58946000D02*
X128744000Y-58946000D01*
X125894000Y-56096000D02*
X125894000Y-58946000D01*
X137354000Y-54086000D02*
X137354000Y-55896000D01*
X135954000Y-54086000D02*
X137354000Y-54086000D01*
X135954000Y-53086000D02*
X135954000Y-54086000D01*
X126134000Y-53086000D02*
X135954000Y-53086000D01*
X126134000Y-55896000D02*
X126134000Y-53086000D01*
X137354000Y-57706000D02*
X137354000Y-55896000D01*
X135954000Y-57706000D02*
X137354000Y-57706000D01*
X135954000Y-58706000D02*
X135954000Y-57706000D01*
X126134000Y-58706000D02*
X135954000Y-58706000D01*
X126134000Y-55896000D02*
X126134000Y-58706000D01*
G04 #@! TO.C,J19*
X103394000Y-73946000D02*
X106244000Y-73946000D01*
X103394000Y-71096000D02*
X103394000Y-73946000D01*
X114854000Y-69086000D02*
X114854000Y-70896000D01*
X113454000Y-69086000D02*
X114854000Y-69086000D01*
X113454000Y-68086000D02*
X113454000Y-69086000D01*
X103634000Y-68086000D02*
X113454000Y-68086000D01*
X103634000Y-70896000D02*
X103634000Y-68086000D01*
X114854000Y-72706000D02*
X114854000Y-70896000D01*
X113454000Y-72706000D02*
X114854000Y-72706000D01*
X113454000Y-73706000D02*
X113454000Y-72706000D01*
X103634000Y-73706000D02*
X113454000Y-73706000D01*
X103634000Y-70896000D02*
X103634000Y-73706000D01*
G04 #@! TO.C,J16*
X21784000Y-66036000D02*
X21784000Y-68446000D01*
X24194000Y-66036000D02*
X21784000Y-66036000D01*
X27204000Y-73956000D02*
X27204000Y-66336000D01*
X23084000Y-73956000D02*
X27204000Y-73956000D01*
X22084000Y-72956000D02*
X23084000Y-73956000D01*
X22084000Y-66336000D02*
X22084000Y-72956000D01*
X27204000Y-66336000D02*
X22084000Y-66336000D01*
D10*
G04 #@! TO.C,PS1*
X37854000Y-117736000D02*
G75*
G03X37854000Y-117936000I0J-100000D01*
G01*
X37854000Y-117936000D02*
G75*
G03X37854000Y-117736000I0J100000D01*
G01*
X37854000Y-117936000D02*
X37854000Y-117936000D01*
X37854000Y-117736000D02*
X37854000Y-117736000D01*
D13*
X38354000Y-122936000D02*
X38354000Y-97536000D01*
X89154000Y-122936000D02*
X38354000Y-122936000D01*
X89154000Y-97536000D02*
X89154000Y-122936000D01*
X38354000Y-97536000D02*
X89154000Y-97536000D01*
D12*
G04 #@! TO.C,D1*
X65546500Y-24536000D02*
X62861500Y-24536000D01*
X62861500Y-24536000D02*
X62861500Y-26456000D01*
X62861500Y-26456000D02*
X65546500Y-26456000D01*
G04 #@! TO.C,D2*
X54576500Y-26456000D02*
X57261500Y-26456000D01*
X54576500Y-24536000D02*
X54576500Y-26456000D01*
X57261500Y-24536000D02*
X54576500Y-24536000D01*
G04 #@! TO.C,D5*
X132994000Y-139356000D02*
X135679000Y-139356000D01*
X135679000Y-139356000D02*
X135679000Y-137436000D01*
X135679000Y-137436000D02*
X132994000Y-137436000D01*
G04 #@! TO.C,D7*
X109994000Y-162436000D02*
X107309000Y-162436000D01*
X107309000Y-162436000D02*
X107309000Y-164356000D01*
X107309000Y-164356000D02*
X109994000Y-164356000D01*
G04 #@! TO.C,D8*
X107931500Y-186356000D02*
X110616500Y-186356000D01*
X110616500Y-186356000D02*
X110616500Y-184436000D01*
X110616500Y-184436000D02*
X107931500Y-184436000D01*
D14*
G04 #@! TO.C,J1*
X53244000Y-30446000D02*
X53244000Y-38346000D01*
X68544000Y-35396000D02*
X68544000Y-33396000D01*
X53244000Y-30446000D02*
X65974000Y-30446000D01*
X53244000Y-38346000D02*
X65974000Y-38346000D01*
X65974000Y-30446000D02*
X68544000Y-33396000D01*
X65974000Y-38346000D02*
X68544000Y-35396000D01*
D12*
G04 #@! TO.C,J2*
X79314000Y-16586000D02*
X76904000Y-16586000D01*
X79314000Y-18996000D02*
X79314000Y-16586000D01*
X71394000Y-22006000D02*
X79014000Y-22006000D01*
X71394000Y-17886000D02*
X71394000Y-22006000D01*
X72394000Y-16886000D02*
X71394000Y-17886000D01*
X79014000Y-16886000D02*
X72394000Y-16886000D01*
X79014000Y-22006000D02*
X79014000Y-16886000D01*
G04 #@! TO.C,J22*
X103634000Y-174396000D02*
X103634000Y-179306000D01*
X103634000Y-179306000D02*
X113454000Y-179306000D01*
X113454000Y-179306000D02*
X113454000Y-176206000D01*
X113454000Y-176206000D02*
X114854000Y-176206000D01*
X114854000Y-176206000D02*
X114854000Y-174396000D01*
X103634000Y-174396000D02*
X103634000Y-169486000D01*
X103634000Y-169486000D02*
X113454000Y-169486000D01*
X113454000Y-169486000D02*
X113454000Y-172586000D01*
X113454000Y-172586000D02*
X114854000Y-172586000D01*
X114854000Y-172586000D02*
X114854000Y-174396000D01*
X103394000Y-176696000D02*
X103394000Y-179546000D01*
X103394000Y-179546000D02*
X106244000Y-179546000D01*
G04 #@! TO.C,J55*
X38594000Y-30346000D02*
X35744000Y-30346000D01*
X38594000Y-33196000D02*
X38594000Y-30346000D01*
X27134000Y-37306000D02*
X27134000Y-35496000D01*
X28534000Y-37306000D02*
X27134000Y-37306000D01*
X28534000Y-40406000D02*
X28534000Y-37306000D01*
X38354000Y-40406000D02*
X28534000Y-40406000D01*
X38354000Y-35496000D02*
X38354000Y-40406000D01*
X27134000Y-33686000D02*
X27134000Y-35496000D01*
X28534000Y-33686000D02*
X27134000Y-33686000D01*
X28534000Y-30586000D02*
X28534000Y-33686000D01*
X38354000Y-30586000D02*
X28534000Y-30586000D01*
X38354000Y-35496000D02*
X38354000Y-30586000D01*
G04 #@! TO.C,Q5*
X49754000Y-183926000D02*
X48294000Y-183926000D01*
X49754000Y-180766000D02*
X47594000Y-180766000D01*
X49754000Y-180766000D02*
X49754000Y-181696000D01*
X49754000Y-183926000D02*
X49754000Y-182996000D01*
G04 #@! TO.C,R6*
X112735422Y-164106000D02*
X113252578Y-164106000D01*
X112735422Y-162686000D02*
X113252578Y-162686000D01*
G04 #@! TO.C,R7*
X113252578Y-186106000D02*
X112735422Y-186106000D01*
X113252578Y-184686000D02*
X112735422Y-184686000D01*
G04 #@! TO.C,TP1*
X127164000Y-137066000D02*
X127164000Y-139726000D01*
X127224000Y-137066000D02*
X127164000Y-137066000D01*
X127224000Y-139726000D02*
X127164000Y-139726000D01*
X127224000Y-137066000D02*
X127224000Y-139726000D01*
X128494000Y-137066000D02*
X129824000Y-137066000D01*
X129824000Y-137066000D02*
X129824000Y-138396000D01*
G04 #@! TO.C,TP3*
X99664000Y-164726000D02*
X102324000Y-164726000D01*
X99664000Y-164666000D02*
X99664000Y-164726000D01*
X102324000Y-164666000D02*
X102324000Y-164726000D01*
X99664000Y-164666000D02*
X102324000Y-164666000D01*
X99664000Y-163396000D02*
X99664000Y-162066000D01*
X99664000Y-162066000D02*
X100994000Y-162066000D01*
G04 #@! TO.C,TP4*
X99664000Y-184066000D02*
X100994000Y-184066000D01*
X99664000Y-185396000D02*
X99664000Y-184066000D01*
X99664000Y-186666000D02*
X102324000Y-186666000D01*
X102324000Y-186666000D02*
X102324000Y-186726000D01*
X99664000Y-186666000D02*
X99664000Y-186726000D01*
X99664000Y-186726000D02*
X102324000Y-186726000D01*
G04 #@! TO.C,J3*
X21784000Y-99536000D02*
X21784000Y-101946000D01*
X24194000Y-99536000D02*
X21784000Y-99536000D01*
X27204000Y-107456000D02*
X27204000Y-99836000D01*
X23084000Y-107456000D02*
X27204000Y-107456000D01*
X22084000Y-106456000D02*
X23084000Y-107456000D01*
X22084000Y-99836000D02*
X22084000Y-106456000D01*
X27204000Y-99836000D02*
X22084000Y-99836000D01*
G04 #@! TO.C,J23*
X21784000Y-171536000D02*
X21784000Y-173946000D01*
X24194000Y-171536000D02*
X21784000Y-171536000D01*
X27204000Y-179456000D02*
X27204000Y-171836000D01*
X23084000Y-179456000D02*
X27204000Y-179456000D01*
X22084000Y-178456000D02*
X23084000Y-179456000D01*
X22084000Y-171836000D02*
X22084000Y-178456000D01*
X27204000Y-171836000D02*
X22084000Y-171836000D01*
G04 #@! TO.C,R14*
X42284000Y-182654578D02*
X42284000Y-182137422D01*
X43704000Y-182654578D02*
X43704000Y-182137422D01*
G04 #@! TO.C,J4*
X103634000Y-103396000D02*
X103634000Y-106206000D01*
X103634000Y-106206000D02*
X113454000Y-106206000D01*
X113454000Y-106206000D02*
X113454000Y-105206000D01*
X113454000Y-105206000D02*
X114854000Y-105206000D01*
X114854000Y-105206000D02*
X114854000Y-103396000D01*
X103634000Y-103396000D02*
X103634000Y-100586000D01*
X103634000Y-100586000D02*
X113454000Y-100586000D01*
X113454000Y-100586000D02*
X113454000Y-101586000D01*
X113454000Y-101586000D02*
X114854000Y-101586000D01*
X114854000Y-101586000D02*
X114854000Y-103396000D01*
X103394000Y-103596000D02*
X103394000Y-106446000D01*
X103394000Y-106446000D02*
X106244000Y-106446000D01*
G04 #@! TO.C,J5*
X103394000Y-116446000D02*
X106244000Y-116446000D01*
X103394000Y-113596000D02*
X103394000Y-116446000D01*
X114854000Y-111586000D02*
X114854000Y-113396000D01*
X113454000Y-111586000D02*
X114854000Y-111586000D01*
X113454000Y-110586000D02*
X113454000Y-111586000D01*
X103634000Y-110586000D02*
X113454000Y-110586000D01*
X103634000Y-113396000D02*
X103634000Y-110586000D01*
X114854000Y-115206000D02*
X114854000Y-113396000D01*
X113454000Y-115206000D02*
X114854000Y-115206000D01*
X113454000Y-116206000D02*
X113454000Y-115206000D01*
X103634000Y-116206000D02*
X113454000Y-116206000D01*
X103634000Y-113396000D02*
X103634000Y-116206000D01*
G04 #@! TO.C,J6*
X126134000Y-98396000D02*
X126134000Y-101206000D01*
X126134000Y-101206000D02*
X135954000Y-101206000D01*
X135954000Y-101206000D02*
X135954000Y-100206000D01*
X135954000Y-100206000D02*
X137354000Y-100206000D01*
X137354000Y-100206000D02*
X137354000Y-98396000D01*
X126134000Y-98396000D02*
X126134000Y-95586000D01*
X126134000Y-95586000D02*
X135954000Y-95586000D01*
X135954000Y-95586000D02*
X135954000Y-96586000D01*
X135954000Y-96586000D02*
X137354000Y-96586000D01*
X137354000Y-96586000D02*
X137354000Y-98396000D01*
X125894000Y-98596000D02*
X125894000Y-101446000D01*
X125894000Y-101446000D02*
X128744000Y-101446000D01*
G04 #@! TO.C,J7*
X126134000Y-108396000D02*
X126134000Y-111206000D01*
X126134000Y-111206000D02*
X135954000Y-111206000D01*
X135954000Y-111206000D02*
X135954000Y-110206000D01*
X135954000Y-110206000D02*
X137354000Y-110206000D01*
X137354000Y-110206000D02*
X137354000Y-108396000D01*
X126134000Y-108396000D02*
X126134000Y-105586000D01*
X126134000Y-105586000D02*
X135954000Y-105586000D01*
X135954000Y-105586000D02*
X135954000Y-106586000D01*
X135954000Y-106586000D02*
X137354000Y-106586000D01*
X137354000Y-106586000D02*
X137354000Y-108396000D01*
X125894000Y-108596000D02*
X125894000Y-111446000D01*
X125894000Y-111446000D02*
X128744000Y-111446000D01*
G04 #@! TO.C,J8*
X103394000Y-146446000D02*
X106244000Y-146446000D01*
X103394000Y-143596000D02*
X103394000Y-146446000D01*
X114854000Y-141586000D02*
X114854000Y-143396000D01*
X113454000Y-141586000D02*
X114854000Y-141586000D01*
X113454000Y-140586000D02*
X113454000Y-141586000D01*
X103634000Y-140586000D02*
X113454000Y-140586000D01*
X103634000Y-143396000D02*
X103634000Y-140586000D01*
X114854000Y-145206000D02*
X114854000Y-143396000D01*
X113454000Y-145206000D02*
X114854000Y-145206000D01*
X113454000Y-146206000D02*
X113454000Y-145206000D01*
X103634000Y-146206000D02*
X113454000Y-146206000D01*
X103634000Y-143396000D02*
X103634000Y-146206000D01*
G04 #@! TO.C,J9*
X103394000Y-96446000D02*
X106244000Y-96446000D01*
X103394000Y-93596000D02*
X103394000Y-96446000D01*
X114854000Y-91586000D02*
X114854000Y-93396000D01*
X113454000Y-91586000D02*
X114854000Y-91586000D01*
X113454000Y-90586000D02*
X113454000Y-91586000D01*
X103634000Y-90586000D02*
X113454000Y-90586000D01*
X103634000Y-93396000D02*
X103634000Y-90586000D01*
X114854000Y-95206000D02*
X114854000Y-93396000D01*
X113454000Y-95206000D02*
X114854000Y-95206000D01*
X113454000Y-96206000D02*
X113454000Y-95206000D01*
X103634000Y-96206000D02*
X113454000Y-96206000D01*
X103634000Y-93396000D02*
X103634000Y-96206000D01*
G04 #@! TO.C,J10*
X103634000Y-123396000D02*
X103634000Y-126206000D01*
X103634000Y-126206000D02*
X113454000Y-126206000D01*
X113454000Y-126206000D02*
X113454000Y-125206000D01*
X113454000Y-125206000D02*
X114854000Y-125206000D01*
X114854000Y-125206000D02*
X114854000Y-123396000D01*
X103634000Y-123396000D02*
X103634000Y-120586000D01*
X103634000Y-120586000D02*
X113454000Y-120586000D01*
X113454000Y-120586000D02*
X113454000Y-121586000D01*
X113454000Y-121586000D02*
X114854000Y-121586000D01*
X114854000Y-121586000D02*
X114854000Y-123396000D01*
X103394000Y-123596000D02*
X103394000Y-126446000D01*
X103394000Y-126446000D02*
X106244000Y-126446000D01*
G04 #@! TO.C,J11*
X103394000Y-136446000D02*
X106244000Y-136446000D01*
X103394000Y-133596000D02*
X103394000Y-136446000D01*
X114854000Y-131586000D02*
X114854000Y-133396000D01*
X113454000Y-131586000D02*
X114854000Y-131586000D01*
X113454000Y-130586000D02*
X113454000Y-131586000D01*
X103634000Y-130586000D02*
X113454000Y-130586000D01*
X103634000Y-133396000D02*
X103634000Y-130586000D01*
X114854000Y-135206000D02*
X114854000Y-133396000D01*
X113454000Y-135206000D02*
X114854000Y-135206000D01*
X113454000Y-136206000D02*
X113454000Y-135206000D01*
X103634000Y-136206000D02*
X113454000Y-136206000D01*
X103634000Y-133396000D02*
X103634000Y-136206000D01*
G04 #@! TO.C,J12*
X126134000Y-128396000D02*
X126134000Y-131206000D01*
X126134000Y-131206000D02*
X135954000Y-131206000D01*
X135954000Y-131206000D02*
X135954000Y-130206000D01*
X135954000Y-130206000D02*
X137354000Y-130206000D01*
X137354000Y-130206000D02*
X137354000Y-128396000D01*
X126134000Y-128396000D02*
X126134000Y-125586000D01*
X126134000Y-125586000D02*
X135954000Y-125586000D01*
X135954000Y-125586000D02*
X135954000Y-126586000D01*
X135954000Y-126586000D02*
X137354000Y-126586000D01*
X137354000Y-126586000D02*
X137354000Y-128396000D01*
X125894000Y-128596000D02*
X125894000Y-131446000D01*
X125894000Y-131446000D02*
X128744000Y-131446000D01*
G04 #@! TO.C,J13*
X126134000Y-118396000D02*
X126134000Y-121206000D01*
X126134000Y-121206000D02*
X135954000Y-121206000D01*
X135954000Y-121206000D02*
X135954000Y-120206000D01*
X135954000Y-120206000D02*
X137354000Y-120206000D01*
X137354000Y-120206000D02*
X137354000Y-118396000D01*
X126134000Y-118396000D02*
X126134000Y-115586000D01*
X126134000Y-115586000D02*
X135954000Y-115586000D01*
X135954000Y-115586000D02*
X135954000Y-116586000D01*
X135954000Y-116586000D02*
X137354000Y-116586000D01*
X137354000Y-116586000D02*
X137354000Y-118396000D01*
X125894000Y-118596000D02*
X125894000Y-121446000D01*
X125894000Y-121446000D02*
X128744000Y-121446000D01*
G04 #@! TO.C,J79*
X48326000Y-16586000D02*
X45916000Y-16586000D01*
X48326000Y-18996000D02*
X48326000Y-16586000D01*
X40406000Y-22006000D02*
X48026000Y-22006000D01*
X40406000Y-17886000D02*
X40406000Y-22006000D01*
X41406000Y-16886000D02*
X40406000Y-17886000D01*
X48026000Y-16886000D02*
X41406000Y-16886000D01*
X48026000Y-22006000D02*
X48026000Y-16886000D01*
G04 #@! TO.C,REF\002A\002A*
D14*
X137160666Y-152148380D02*
X136827333Y-151672190D01*
X136589238Y-152148380D02*
X136589238Y-151148380D01*
X136970190Y-151148380D01*
X137065428Y-151196000D01*
X137113047Y-151243619D01*
X137160666Y-151338857D01*
X137160666Y-151481714D01*
X137113047Y-151576952D01*
X137065428Y-151624571D01*
X136970190Y-151672190D01*
X136589238Y-151672190D01*
X137589238Y-151624571D02*
X137922571Y-151624571D01*
X138065428Y-152148380D02*
X137589238Y-152148380D01*
X137589238Y-151148380D01*
X138065428Y-151148380D01*
X138827333Y-151624571D02*
X138494000Y-151624571D01*
X138494000Y-152148380D02*
X138494000Y-151148380D01*
X138970190Y-151148380D01*
X139494000Y-151148380D02*
X139494000Y-151386476D01*
X139255904Y-151291238D02*
X139494000Y-151386476D01*
X139732095Y-151291238D01*
X139351142Y-151576952D02*
X139494000Y-151386476D01*
X139636857Y-151576952D01*
X140255904Y-151148380D02*
X140255904Y-151386476D01*
X140017809Y-151291238D02*
X140255904Y-151386476D01*
X140494000Y-151291238D01*
X140113047Y-151576952D02*
X140255904Y-151386476D01*
X140398761Y-151576952D01*
G04 #@! TO.C,TP2*
X127232095Y-62848380D02*
X127803523Y-62848380D01*
X127517809Y-63848380D02*
X127517809Y-62848380D01*
X128136857Y-63848380D02*
X128136857Y-62848380D01*
X128517809Y-62848380D01*
X128613047Y-62896000D01*
X128660666Y-62943619D01*
X128708285Y-63038857D01*
X128708285Y-63181714D01*
X128660666Y-63276952D01*
X128613047Y-63324571D01*
X128517809Y-63372190D01*
X128136857Y-63372190D01*
X129089238Y-62943619D02*
X129136857Y-62896000D01*
X129232095Y-62848380D01*
X129470190Y-62848380D01*
X129565428Y-62896000D01*
X129613047Y-62943619D01*
X129660666Y-63038857D01*
X129660666Y-63134095D01*
X129613047Y-63276952D01*
X129041619Y-63848380D01*
X129660666Y-63848380D01*
G04 #@! TO.C,PS2*
D15*
X54568523Y-185438142D02*
X53298523Y-185438142D01*
X53298523Y-184954333D01*
X53359000Y-184833380D01*
X53419476Y-184772904D01*
X53540428Y-184712428D01*
X53721857Y-184712428D01*
X53842809Y-184772904D01*
X53903285Y-184833380D01*
X53963761Y-184954333D01*
X53963761Y-185438142D01*
X54508047Y-184228619D02*
X54568523Y-184047190D01*
X54568523Y-183744809D01*
X54508047Y-183623857D01*
X54447571Y-183563380D01*
X54326619Y-183502904D01*
X54205666Y-183502904D01*
X54084714Y-183563380D01*
X54024238Y-183623857D01*
X53963761Y-183744809D01*
X53903285Y-183986714D01*
X53842809Y-184107666D01*
X53782333Y-184168142D01*
X53661380Y-184228619D01*
X53540428Y-184228619D01*
X53419476Y-184168142D01*
X53359000Y-184107666D01*
X53298523Y-183986714D01*
X53298523Y-183684333D01*
X53359000Y-183502904D01*
X53419476Y-183019095D02*
X53359000Y-182958619D01*
X53298523Y-182837666D01*
X53298523Y-182535285D01*
X53359000Y-182414333D01*
X53419476Y-182353857D01*
X53540428Y-182293380D01*
X53661380Y-182293380D01*
X53842809Y-182353857D01*
X54568523Y-183079571D01*
X54568523Y-182293380D01*
X73838523Y-179838857D02*
X72568523Y-179838857D01*
X72568523Y-179536476D01*
X72629000Y-179355047D01*
X72749952Y-179234095D01*
X72870904Y-179173619D01*
X73112809Y-179113142D01*
X73294238Y-179113142D01*
X73536142Y-179173619D01*
X73657095Y-179234095D01*
X73778047Y-179355047D01*
X73838523Y-179536476D01*
X73838523Y-179838857D01*
X73717571Y-177843142D02*
X73778047Y-177903619D01*
X73838523Y-178085047D01*
X73838523Y-178206000D01*
X73778047Y-178387428D01*
X73657095Y-178508380D01*
X73536142Y-178568857D01*
X73294238Y-178629333D01*
X73112809Y-178629333D01*
X72870904Y-178568857D01*
X72749952Y-178508380D01*
X72629000Y-178387428D01*
X72568523Y-178206000D01*
X72568523Y-178085047D01*
X72629000Y-177903619D01*
X72689476Y-177843142D01*
X72568523Y-177419809D02*
X73838523Y-177117428D01*
X72931380Y-176875523D01*
X73838523Y-176633619D01*
X72568523Y-176331238D01*
X73838523Y-175182190D02*
X73838523Y-175907904D01*
X73838523Y-175545047D02*
X72568523Y-175545047D01*
X72749952Y-175666000D01*
X72870904Y-175786952D01*
X72931380Y-175907904D01*
X72689476Y-174698380D02*
X72629000Y-174637904D01*
X72568523Y-174516952D01*
X72568523Y-174214571D01*
X72629000Y-174093619D01*
X72689476Y-174033142D01*
X72810428Y-173972666D01*
X72931380Y-173972666D01*
X73112809Y-174033142D01*
X73838523Y-174758857D01*
X73838523Y-173972666D01*
X73475666Y-173488857D02*
X73475666Y-172884095D01*
X73838523Y-173609809D02*
X72568523Y-173186476D01*
X73838523Y-172763142D01*
X73354714Y-172339809D02*
X73354714Y-171372190D01*
X73838523Y-170102190D02*
X73838523Y-170827904D01*
X73838523Y-170465047D02*
X72568523Y-170465047D01*
X72749952Y-170586000D01*
X72870904Y-170706952D01*
X72931380Y-170827904D01*
X72568523Y-168953142D02*
X72568523Y-169557904D01*
X73173285Y-169618380D01*
X73112809Y-169557904D01*
X73052333Y-169436952D01*
X73052333Y-169134571D01*
X73112809Y-169013619D01*
X73173285Y-168953142D01*
X73294238Y-168892666D01*
X73596619Y-168892666D01*
X73717571Y-168953142D01*
X73778047Y-169013619D01*
X73838523Y-169134571D01*
X73838523Y-169436952D01*
X73778047Y-169557904D01*
X73717571Y-169618380D01*
D14*
X58446380Y-179586476D02*
X57970190Y-179919809D01*
X58446380Y-180157904D02*
X57446380Y-180157904D01*
X57446380Y-179776952D01*
X57494000Y-179681714D01*
X57541619Y-179634095D01*
X57636857Y-179586476D01*
X57779714Y-179586476D01*
X57874952Y-179634095D01*
X57922571Y-179681714D01*
X57970190Y-179776952D01*
X57970190Y-180157904D01*
X58351142Y-178586476D02*
X58398761Y-178634095D01*
X58446380Y-178776952D01*
X58446380Y-178872190D01*
X58398761Y-179015047D01*
X58303523Y-179110285D01*
X58208285Y-179157904D01*
X58017809Y-179205523D01*
X57874952Y-179205523D01*
X57684476Y-179157904D01*
X57589238Y-179110285D01*
X57494000Y-179015047D01*
X57446380Y-178872190D01*
X57446380Y-178776952D01*
X57494000Y-178634095D01*
X57541619Y-178586476D01*
X60565428Y-180396000D02*
X60565428Y-179634095D01*
X59946380Y-179300761D02*
X60946380Y-178967428D01*
X59946380Y-178634095D01*
X60946380Y-178300761D02*
X60279714Y-178300761D01*
X59946380Y-178300761D02*
X59994000Y-178348380D01*
X60041619Y-178300761D01*
X59994000Y-178253142D01*
X59946380Y-178300761D01*
X60041619Y-178300761D01*
X60279714Y-177824571D02*
X60946380Y-177824571D01*
X60374952Y-177824571D02*
X60327333Y-177776952D01*
X60279714Y-177681714D01*
X60279714Y-177538857D01*
X60327333Y-177443619D01*
X60422571Y-177396000D01*
X60946380Y-177396000D01*
X63565428Y-180396000D02*
X63565428Y-179634095D01*
X62946380Y-179300761D02*
X63946380Y-178967428D01*
X62946380Y-178634095D01*
X63946380Y-178300761D02*
X63279714Y-178300761D01*
X62946380Y-178300761D02*
X62994000Y-178348380D01*
X63041619Y-178300761D01*
X62994000Y-178253142D01*
X62946380Y-178300761D01*
X63041619Y-178300761D01*
X63279714Y-177824571D02*
X63946380Y-177824571D01*
X63374952Y-177824571D02*
X63327333Y-177776952D01*
X63279714Y-177681714D01*
X63279714Y-177538857D01*
X63327333Y-177443619D01*
X63422571Y-177396000D01*
X63946380Y-177396000D01*
X60565428Y-171896000D02*
X60565428Y-171134095D01*
X60946380Y-171515047D02*
X60184476Y-171515047D01*
X59946380Y-170800761D02*
X60946380Y-170467428D01*
X59946380Y-170134095D01*
X60946380Y-169800761D02*
X60279714Y-169800761D01*
X59946380Y-169800761D02*
X59994000Y-169848380D01*
X60041619Y-169800761D01*
X59994000Y-169753142D01*
X59946380Y-169800761D01*
X60041619Y-169800761D01*
X60279714Y-169324571D02*
X60946380Y-169324571D01*
X60374952Y-169324571D02*
X60327333Y-169276952D01*
X60279714Y-169181714D01*
X60279714Y-169038857D01*
X60327333Y-168943619D01*
X60422571Y-168896000D01*
X60946380Y-168896000D01*
X63065428Y-171896000D02*
X63065428Y-171134095D01*
X63446380Y-171515047D02*
X62684476Y-171515047D01*
X62446380Y-170800761D02*
X63446380Y-170467428D01*
X62446380Y-170134095D01*
X63446380Y-169800761D02*
X62779714Y-169800761D01*
X62446380Y-169800761D02*
X62494000Y-169848380D01*
X62541619Y-169800761D01*
X62494000Y-169753142D01*
X62446380Y-169800761D01*
X62541619Y-169800761D01*
X62779714Y-169324571D02*
X63446380Y-169324571D01*
X62874952Y-169324571D02*
X62827333Y-169276952D01*
X62779714Y-169181714D01*
X62779714Y-169038857D01*
X62827333Y-168943619D01*
X62922571Y-168896000D01*
X63446380Y-168896000D01*
X78851142Y-179681714D02*
X78898761Y-179729333D01*
X78946380Y-179872190D01*
X78946380Y-179967428D01*
X78898761Y-180110285D01*
X78803523Y-180205523D01*
X78708285Y-180253142D01*
X78517809Y-180300761D01*
X78374952Y-180300761D01*
X78184476Y-180253142D01*
X78089238Y-180205523D01*
X77994000Y-180110285D01*
X77946380Y-179967428D01*
X77946380Y-179872190D01*
X77994000Y-179729333D01*
X78041619Y-179681714D01*
X77946380Y-179062666D02*
X77946380Y-178872190D01*
X77994000Y-178776952D01*
X78089238Y-178681714D01*
X78279714Y-178634095D01*
X78613047Y-178634095D01*
X78803523Y-178681714D01*
X78898761Y-178776952D01*
X78946380Y-178872190D01*
X78946380Y-179062666D01*
X78898761Y-179157904D01*
X78803523Y-179253142D01*
X78613047Y-179300761D01*
X78279714Y-179300761D01*
X78089238Y-179253142D01*
X77994000Y-179157904D01*
X77946380Y-179062666D01*
X78946380Y-178205523D02*
X77946380Y-178205523D01*
X78660666Y-177872190D01*
X77946380Y-177538857D01*
X78946380Y-177538857D01*
X78851142Y-170681714D02*
X78898761Y-170729333D01*
X78946380Y-170872190D01*
X78946380Y-170967428D01*
X78898761Y-171110285D01*
X78803523Y-171205523D01*
X78708285Y-171253142D01*
X78517809Y-171300761D01*
X78374952Y-171300761D01*
X78184476Y-171253142D01*
X78089238Y-171205523D01*
X77994000Y-171110285D01*
X77946380Y-170967428D01*
X77946380Y-170872190D01*
X77994000Y-170729333D01*
X78041619Y-170681714D01*
X77946380Y-170062666D02*
X77946380Y-169872190D01*
X77994000Y-169776952D01*
X78089238Y-169681714D01*
X78279714Y-169634095D01*
X78613047Y-169634095D01*
X78803523Y-169681714D01*
X78898761Y-169776952D01*
X78946380Y-169872190D01*
X78946380Y-170062666D01*
X78898761Y-170157904D01*
X78803523Y-170253142D01*
X78613047Y-170300761D01*
X78279714Y-170300761D01*
X78089238Y-170253142D01*
X77994000Y-170157904D01*
X77946380Y-170062666D01*
X78946380Y-169205523D02*
X77946380Y-169205523D01*
X78660666Y-168872190D01*
X77946380Y-168538857D01*
X78946380Y-168538857D01*
X83565428Y-180396000D02*
X83565428Y-179634095D01*
X82946380Y-179300761D02*
X83946380Y-178967428D01*
X82946380Y-178634095D01*
X83946380Y-178157904D02*
X83898761Y-178253142D01*
X83851142Y-178300761D01*
X83755904Y-178348380D01*
X83470190Y-178348380D01*
X83374952Y-178300761D01*
X83327333Y-178253142D01*
X83279714Y-178157904D01*
X83279714Y-178015047D01*
X83327333Y-177919809D01*
X83374952Y-177872190D01*
X83470190Y-177824571D01*
X83755904Y-177824571D01*
X83851142Y-177872190D01*
X83898761Y-177919809D01*
X83946380Y-178015047D01*
X83946380Y-178157904D01*
X83279714Y-176967428D02*
X83946380Y-176967428D01*
X83279714Y-177396000D02*
X83803523Y-177396000D01*
X83898761Y-177348380D01*
X83946380Y-177253142D01*
X83946380Y-177110285D01*
X83898761Y-177015047D01*
X83851142Y-176967428D01*
X83279714Y-176634095D02*
X83279714Y-176253142D01*
X82946380Y-176491238D02*
X83803523Y-176491238D01*
X83898761Y-176443619D01*
X83946380Y-176348380D01*
X83946380Y-176253142D01*
X83565428Y-172396000D02*
X83565428Y-171634095D01*
X83946380Y-172015047D02*
X83184476Y-172015047D01*
X82946380Y-171300761D02*
X83946380Y-170967428D01*
X82946380Y-170634095D01*
X83946380Y-170157904D02*
X83898761Y-170253142D01*
X83851142Y-170300761D01*
X83755904Y-170348380D01*
X83470190Y-170348380D01*
X83374952Y-170300761D01*
X83327333Y-170253142D01*
X83279714Y-170157904D01*
X83279714Y-170015047D01*
X83327333Y-169919809D01*
X83374952Y-169872190D01*
X83470190Y-169824571D01*
X83755904Y-169824571D01*
X83851142Y-169872190D01*
X83898761Y-169919809D01*
X83946380Y-170015047D01*
X83946380Y-170157904D01*
X83279714Y-168967428D02*
X83946380Y-168967428D01*
X83279714Y-169396000D02*
X83803523Y-169396000D01*
X83898761Y-169348380D01*
X83946380Y-169253142D01*
X83946380Y-169110285D01*
X83898761Y-169015047D01*
X83851142Y-168967428D01*
X83279714Y-168634095D02*
X83279714Y-168253142D01*
X82946380Y-168491238D02*
X83803523Y-168491238D01*
X83898761Y-168443619D01*
X83946380Y-168348380D01*
X83946380Y-168253142D01*
G04 #@! TO.C,IC1*
D15*
X35754238Y-55170523D02*
X35754238Y-53900523D01*
X37084714Y-55049571D02*
X37024238Y-55110047D01*
X36842809Y-55170523D01*
X36721857Y-55170523D01*
X36540428Y-55110047D01*
X36419476Y-54989095D01*
X36359000Y-54868142D01*
X36298523Y-54626238D01*
X36298523Y-54444809D01*
X36359000Y-54202904D01*
X36419476Y-54081952D01*
X36540428Y-53961000D01*
X36721857Y-53900523D01*
X36842809Y-53900523D01*
X37024238Y-53961000D01*
X37084714Y-54021476D01*
X38294238Y-55170523D02*
X37568523Y-55170523D01*
X37931380Y-55170523D02*
X37931380Y-53900523D01*
X37810428Y-54081952D01*
X37689476Y-54202904D01*
X37568523Y-54263380D01*
X55329714Y-57740523D02*
X55329714Y-58768619D01*
X55390190Y-58889571D01*
X55450666Y-58950047D01*
X55571619Y-59010523D01*
X55813523Y-59010523D01*
X55934476Y-58950047D01*
X55994952Y-58889571D01*
X56055428Y-58768619D01*
X56055428Y-57740523D01*
X56539238Y-57740523D02*
X56841619Y-59010523D01*
X57083523Y-58103380D01*
X57325428Y-59010523D01*
X57627809Y-57740523D01*
X58111619Y-58345285D02*
X58534952Y-58345285D01*
X58716380Y-59010523D02*
X58111619Y-59010523D01*
X58111619Y-57740523D01*
X58716380Y-57740523D01*
X59260666Y-58526714D02*
X60228285Y-58526714D01*
X61498285Y-59010523D02*
X60772571Y-59010523D01*
X61135428Y-59010523D02*
X61135428Y-57740523D01*
X61014476Y-57921952D01*
X60893523Y-58042904D01*
X60772571Y-58103380D01*
X61982095Y-57861476D02*
X62042571Y-57801000D01*
X62163523Y-57740523D01*
X62465904Y-57740523D01*
X62586857Y-57801000D01*
X62647333Y-57861476D01*
X62707809Y-57982428D01*
X62707809Y-58103380D01*
X62647333Y-58284809D01*
X61921619Y-59010523D01*
X62707809Y-59010523D01*
X62949714Y-59131476D02*
X63917333Y-59131476D01*
X64884952Y-59010523D02*
X64159238Y-59010523D01*
X64522095Y-59010523D02*
X64522095Y-57740523D01*
X64401142Y-57921952D01*
X64280190Y-58042904D01*
X64159238Y-58103380D01*
X65671142Y-57740523D02*
X65792095Y-57740523D01*
X65913047Y-57801000D01*
X65973523Y-57861476D01*
X66034000Y-57982428D01*
X66094476Y-58224333D01*
X66094476Y-58526714D01*
X66034000Y-58768619D01*
X65973523Y-58889571D01*
X65913047Y-58950047D01*
X65792095Y-59010523D01*
X65671142Y-59010523D01*
X65550190Y-58950047D01*
X65489714Y-58889571D01*
X65429238Y-58768619D01*
X65368761Y-58526714D01*
X65368761Y-58224333D01*
X65429238Y-57982428D01*
X65489714Y-57861476D01*
X65550190Y-57801000D01*
X65671142Y-57740523D01*
X66638761Y-58526714D02*
X67606380Y-58526714D01*
X69057809Y-59131476D02*
X68936857Y-59071000D01*
X68815904Y-58950047D01*
X68634476Y-58768619D01*
X68513523Y-58708142D01*
X68392571Y-58708142D01*
X68453047Y-59010523D02*
X68332095Y-58950047D01*
X68211142Y-58829095D01*
X68150666Y-58587190D01*
X68150666Y-58163857D01*
X68211142Y-57921952D01*
X68332095Y-57801000D01*
X68453047Y-57740523D01*
X68694952Y-57740523D01*
X68815904Y-57801000D01*
X68936857Y-57921952D01*
X68997333Y-58163857D01*
X68997333Y-58587190D01*
X68936857Y-58829095D01*
X68815904Y-58950047D01*
X68694952Y-59010523D01*
X68453047Y-59010523D01*
X70206857Y-59010523D02*
X69481142Y-59010523D01*
X69844000Y-59010523D02*
X69844000Y-57740523D01*
X69723047Y-57921952D01*
X69602095Y-58042904D01*
X69481142Y-58103380D01*
X70690666Y-57861476D02*
X70751142Y-57801000D01*
X70872095Y-57740523D01*
X71174476Y-57740523D01*
X71295428Y-57801000D01*
X71355904Y-57861476D01*
X71416380Y-57982428D01*
X71416380Y-58103380D01*
X71355904Y-58284809D01*
X70630190Y-59010523D01*
X71416380Y-59010523D01*
X71960666Y-59010523D02*
X71960666Y-57740523D01*
X72444476Y-57740523D01*
X72565428Y-57801000D01*
X72625904Y-57861476D01*
X72686380Y-57982428D01*
X72686380Y-58163857D01*
X72625904Y-58284809D01*
X72565428Y-58345285D01*
X72444476Y-58405761D01*
X71960666Y-58405761D01*
X73654000Y-58345285D02*
X73835428Y-58405761D01*
X73895904Y-58466238D01*
X73956380Y-58587190D01*
X73956380Y-58768619D01*
X73895904Y-58889571D01*
X73835428Y-58950047D01*
X73714476Y-59010523D01*
X73230666Y-59010523D01*
X73230666Y-57740523D01*
X73654000Y-57740523D01*
X73774952Y-57801000D01*
X73835428Y-57861476D01*
X73895904Y-57982428D01*
X73895904Y-58103380D01*
X73835428Y-58224333D01*
X73774952Y-58284809D01*
X73654000Y-58345285D01*
X73230666Y-58345285D01*
X74500666Y-58526714D02*
X75468285Y-58526714D01*
X76798761Y-58889571D02*
X76738285Y-58950047D01*
X76556857Y-59010523D01*
X76435904Y-59010523D01*
X76254476Y-58950047D01*
X76133523Y-58829095D01*
X76073047Y-58708142D01*
X76012571Y-58466238D01*
X76012571Y-58284809D01*
X76073047Y-58042904D01*
X76133523Y-57921952D01*
X76254476Y-57801000D01*
X76435904Y-57740523D01*
X76556857Y-57740523D01*
X76738285Y-57801000D01*
X76798761Y-57861476D01*
D14*
X40494000Y-61167428D02*
X41255904Y-61167428D01*
X40874952Y-61548380D02*
X40874952Y-60786476D01*
X41589238Y-60548380D02*
X41922571Y-61548380D01*
X42255904Y-60548380D01*
X42589238Y-61548380D02*
X42589238Y-60881714D01*
X42589238Y-60548380D02*
X42541619Y-60596000D01*
X42589238Y-60643619D01*
X42636857Y-60596000D01*
X42589238Y-60548380D01*
X42589238Y-60643619D01*
X43065428Y-60881714D02*
X43065428Y-61548380D01*
X43065428Y-60976952D02*
X43113047Y-60929333D01*
X43208285Y-60881714D01*
X43351142Y-60881714D01*
X43446380Y-60929333D01*
X43494000Y-61024571D01*
X43494000Y-61548380D01*
X40494000Y-76667428D02*
X41255904Y-76667428D01*
X41589238Y-76048380D02*
X41922571Y-77048380D01*
X42255904Y-76048380D01*
X42589238Y-77048380D02*
X42589238Y-76381714D01*
X42589238Y-76048380D02*
X42541619Y-76096000D01*
X42589238Y-76143619D01*
X42636857Y-76096000D01*
X42589238Y-76048380D01*
X42589238Y-76143619D01*
X43065428Y-76381714D02*
X43065428Y-77048380D01*
X43065428Y-76476952D02*
X43113047Y-76429333D01*
X43208285Y-76381714D01*
X43351142Y-76381714D01*
X43446380Y-76429333D01*
X43494000Y-76524571D01*
X43494000Y-77048380D01*
X41303523Y-69048380D02*
X40970190Y-68572190D01*
X40732095Y-69048380D02*
X40732095Y-68048380D01*
X41113047Y-68048380D01*
X41208285Y-68096000D01*
X41255904Y-68143619D01*
X41303523Y-68238857D01*
X41303523Y-68381714D01*
X41255904Y-68476952D01*
X41208285Y-68524571D01*
X41113047Y-68572190D01*
X40732095Y-68572190D01*
X42303523Y-68953142D02*
X42255904Y-69000761D01*
X42113047Y-69048380D01*
X42017809Y-69048380D01*
X41874952Y-69000761D01*
X41779714Y-68905523D01*
X41732095Y-68810285D01*
X41684476Y-68619809D01*
X41684476Y-68476952D01*
X41732095Y-68286476D01*
X41779714Y-68191238D01*
X41874952Y-68096000D01*
X42017809Y-68048380D01*
X42113047Y-68048380D01*
X42255904Y-68096000D01*
X42303523Y-68143619D01*
X81994000Y-76167428D02*
X82755904Y-76167428D01*
X83089238Y-75548380D02*
X83422571Y-76548380D01*
X83755904Y-75548380D01*
X84232095Y-76548380D02*
X84136857Y-76500761D01*
X84089238Y-76453142D01*
X84041619Y-76357904D01*
X84041619Y-76072190D01*
X84089238Y-75976952D01*
X84136857Y-75929333D01*
X84232095Y-75881714D01*
X84374952Y-75881714D01*
X84470190Y-75929333D01*
X84517809Y-75976952D01*
X84565428Y-76072190D01*
X84565428Y-76357904D01*
X84517809Y-76453142D01*
X84470190Y-76500761D01*
X84374952Y-76548380D01*
X84232095Y-76548380D01*
X85422571Y-75881714D02*
X85422571Y-76548380D01*
X84994000Y-75881714D02*
X84994000Y-76405523D01*
X85041619Y-76500761D01*
X85136857Y-76548380D01*
X85279714Y-76548380D01*
X85374952Y-76500761D01*
X85422571Y-76453142D01*
X85755904Y-75881714D02*
X86136857Y-75881714D01*
X85898761Y-75548380D02*
X85898761Y-76405523D01*
X85946380Y-76500761D01*
X86041619Y-76548380D01*
X86136857Y-76548380D01*
X81994000Y-61167428D02*
X82755904Y-61167428D01*
X82374952Y-61548380D02*
X82374952Y-60786476D01*
X83089238Y-60548380D02*
X83422571Y-61548380D01*
X83755904Y-60548380D01*
X84232095Y-61548380D02*
X84136857Y-61500761D01*
X84089238Y-61453142D01*
X84041619Y-61357904D01*
X84041619Y-61072190D01*
X84089238Y-60976952D01*
X84136857Y-60929333D01*
X84232095Y-60881714D01*
X84374952Y-60881714D01*
X84470190Y-60929333D01*
X84517809Y-60976952D01*
X84565428Y-61072190D01*
X84565428Y-61357904D01*
X84517809Y-61453142D01*
X84470190Y-61500761D01*
X84374952Y-61548380D01*
X84232095Y-61548380D01*
X85422571Y-60881714D02*
X85422571Y-61548380D01*
X84994000Y-60881714D02*
X84994000Y-61405523D01*
X85041619Y-61500761D01*
X85136857Y-61548380D01*
X85279714Y-61548380D01*
X85374952Y-61500761D01*
X85422571Y-61453142D01*
X85755904Y-60881714D02*
X86136857Y-60881714D01*
X85898761Y-60548380D02*
X85898761Y-61405523D01*
X85946380Y-61500761D01*
X86041619Y-61548380D01*
X86136857Y-61548380D01*
X81851142Y-65167428D02*
X82613047Y-65167428D01*
X82232095Y-65548380D02*
X82232095Y-64786476D01*
X83041619Y-65500761D02*
X83184476Y-65548380D01*
X83422571Y-65548380D01*
X83517809Y-65500761D01*
X83565428Y-65453142D01*
X83613047Y-65357904D01*
X83613047Y-65262666D01*
X83565428Y-65167428D01*
X83517809Y-65119809D01*
X83422571Y-65072190D01*
X83232095Y-65024571D01*
X83136857Y-64976952D01*
X83089238Y-64929333D01*
X83041619Y-64834095D01*
X83041619Y-64738857D01*
X83089238Y-64643619D01*
X83136857Y-64596000D01*
X83232095Y-64548380D01*
X83470190Y-64548380D01*
X83613047Y-64596000D01*
X84422571Y-65500761D02*
X84327333Y-65548380D01*
X84136857Y-65548380D01*
X84041619Y-65500761D01*
X83994000Y-65405523D01*
X83994000Y-65024571D01*
X84041619Y-64929333D01*
X84136857Y-64881714D01*
X84327333Y-64881714D01*
X84422571Y-64929333D01*
X84470190Y-65024571D01*
X84470190Y-65119809D01*
X83994000Y-65215047D01*
X84898761Y-64881714D02*
X84898761Y-65548380D01*
X84898761Y-64976952D02*
X84946380Y-64929333D01*
X85041619Y-64881714D01*
X85184476Y-64881714D01*
X85279714Y-64929333D01*
X85327333Y-65024571D01*
X85327333Y-65548380D01*
X85755904Y-65500761D02*
X85851142Y-65548380D01*
X86041619Y-65548380D01*
X86136857Y-65500761D01*
X86184476Y-65405523D01*
X86184476Y-65357904D01*
X86136857Y-65262666D01*
X86041619Y-65215047D01*
X85898761Y-65215047D01*
X85803523Y-65167428D01*
X85755904Y-65072190D01*
X85755904Y-65024571D01*
X85803523Y-64929333D01*
X85898761Y-64881714D01*
X86041619Y-64881714D01*
X86136857Y-64929333D01*
X81851142Y-73167428D02*
X82613047Y-73167428D01*
X83041619Y-73500761D02*
X83184476Y-73548380D01*
X83422571Y-73548380D01*
X83517809Y-73500761D01*
X83565428Y-73453142D01*
X83613047Y-73357904D01*
X83613047Y-73262666D01*
X83565428Y-73167428D01*
X83517809Y-73119809D01*
X83422571Y-73072190D01*
X83232095Y-73024571D01*
X83136857Y-72976952D01*
X83089238Y-72929333D01*
X83041619Y-72834095D01*
X83041619Y-72738857D01*
X83089238Y-72643619D01*
X83136857Y-72596000D01*
X83232095Y-72548380D01*
X83470190Y-72548380D01*
X83613047Y-72596000D01*
X84422571Y-73500761D02*
X84327333Y-73548380D01*
X84136857Y-73548380D01*
X84041619Y-73500761D01*
X83994000Y-73405523D01*
X83994000Y-73024571D01*
X84041619Y-72929333D01*
X84136857Y-72881714D01*
X84327333Y-72881714D01*
X84422571Y-72929333D01*
X84470190Y-73024571D01*
X84470190Y-73119809D01*
X83994000Y-73215047D01*
X84898761Y-72881714D02*
X84898761Y-73548380D01*
X84898761Y-72976952D02*
X84946380Y-72929333D01*
X85041619Y-72881714D01*
X85184476Y-72881714D01*
X85279714Y-72929333D01*
X85327333Y-73024571D01*
X85327333Y-73548380D01*
X85755904Y-73500761D02*
X85851142Y-73548380D01*
X86041619Y-73548380D01*
X86136857Y-73500761D01*
X86184476Y-73405523D01*
X86184476Y-73357904D01*
X86136857Y-73262666D01*
X86041619Y-73215047D01*
X85898761Y-73215047D01*
X85803523Y-73167428D01*
X85755904Y-73072190D01*
X85755904Y-73024571D01*
X85803523Y-72929333D01*
X85898761Y-72881714D01*
X86041619Y-72881714D01*
X86136857Y-72929333D01*
X82994000Y-68548380D02*
X83565428Y-68548380D01*
X83279714Y-69548380D02*
X83279714Y-68548380D01*
X83898761Y-69548380D02*
X83898761Y-68881714D01*
X83898761Y-69072190D02*
X83946380Y-68976952D01*
X83994000Y-68929333D01*
X84089238Y-68881714D01*
X84184476Y-68881714D01*
X84517809Y-69548380D02*
X84517809Y-68881714D01*
X84517809Y-68548380D02*
X84470190Y-68596000D01*
X84517809Y-68643619D01*
X84565428Y-68596000D01*
X84517809Y-68548380D01*
X84517809Y-68643619D01*
X84994000Y-69548380D02*
X84994000Y-68881714D01*
X84994000Y-68976952D02*
X85041619Y-68929333D01*
X85136857Y-68881714D01*
X85279714Y-68881714D01*
X85374952Y-68929333D01*
X85422571Y-69024571D01*
X85422571Y-69548380D01*
X85422571Y-69024571D02*
X85470190Y-68929333D01*
X85565428Y-68881714D01*
X85708285Y-68881714D01*
X85803523Y-68929333D01*
X85851142Y-69024571D01*
X85851142Y-69548380D01*
G04 #@! TO.C,D6*
X132255904Y-64348380D02*
X132255904Y-63348380D01*
X132494000Y-63348380D01*
X132636857Y-63396000D01*
X132732095Y-63491238D01*
X132779714Y-63586476D01*
X132827333Y-63776952D01*
X132827333Y-63919809D01*
X132779714Y-64110285D01*
X132732095Y-64205523D01*
X132636857Y-64300761D01*
X132494000Y-64348380D01*
X132255904Y-64348380D01*
X133684476Y-63348380D02*
X133494000Y-63348380D01*
X133398761Y-63396000D01*
X133351142Y-63443619D01*
X133255904Y-63586476D01*
X133208285Y-63776952D01*
X133208285Y-64157904D01*
X133255904Y-64253142D01*
X133303523Y-64300761D01*
X133398761Y-64348380D01*
X133589238Y-64348380D01*
X133684476Y-64300761D01*
X133732095Y-64253142D01*
X133779714Y-64157904D01*
X133779714Y-63919809D01*
X133732095Y-63824571D01*
X133684476Y-63776952D01*
X133589238Y-63729333D01*
X133398761Y-63729333D01*
X133303523Y-63776952D01*
X133255904Y-63824571D01*
X133208285Y-63919809D01*
G04 #@! TO.C,J15*
X116946380Y-52205523D02*
X117660666Y-52205523D01*
X117803523Y-52253142D01*
X117898761Y-52348380D01*
X117946380Y-52491238D01*
X117946380Y-52586476D01*
X117946380Y-51205523D02*
X117946380Y-51776952D01*
X117946380Y-51491238D02*
X116946380Y-51491238D01*
X117089238Y-51586476D01*
X117184476Y-51681714D01*
X117232095Y-51776952D01*
X116946380Y-50300761D02*
X116946380Y-50776952D01*
X117422571Y-50824571D01*
X117374952Y-50776952D01*
X117327333Y-50681714D01*
X117327333Y-50443619D01*
X117374952Y-50348380D01*
X117422571Y-50300761D01*
X117517809Y-50253142D01*
X117755904Y-50253142D01*
X117851142Y-50300761D01*
X117898761Y-50348380D01*
X117946380Y-50443619D01*
X117946380Y-50681714D01*
X117898761Y-50776952D01*
X117851142Y-50824571D01*
X115872571Y-57253142D02*
X115872571Y-56919809D01*
X116396380Y-56776952D02*
X116396380Y-57253142D01*
X115396380Y-57253142D01*
X115396380Y-56776952D01*
X115729714Y-56348380D02*
X116396380Y-56348380D01*
X115824952Y-56348380D02*
X115777333Y-56300761D01*
X115729714Y-56205523D01*
X115729714Y-56062666D01*
X115777333Y-55967428D01*
X115872571Y-55919809D01*
X116396380Y-55919809D01*
X116396380Y-55443619D02*
X115396380Y-55443619D01*
X116015428Y-55348380D02*
X116396380Y-55062666D01*
X115729714Y-55062666D02*
X116110666Y-55443619D01*
X116396380Y-54491238D02*
X116348761Y-54586476D01*
X116301142Y-54634095D01*
X116205904Y-54681714D01*
X115920190Y-54681714D01*
X115824952Y-54634095D01*
X115777333Y-54586476D01*
X115729714Y-54491238D01*
X115729714Y-54348380D01*
X115777333Y-54253142D01*
X115824952Y-54205523D01*
X115920190Y-54157904D01*
X116205904Y-54157904D01*
X116301142Y-54205523D01*
X116348761Y-54253142D01*
X116396380Y-54348380D01*
X116396380Y-54491238D01*
X116491619Y-53967428D02*
X116491619Y-53205523D01*
X116396380Y-52538857D02*
X115872571Y-52538857D01*
X115777333Y-52586476D01*
X115729714Y-52681714D01*
X115729714Y-52872190D01*
X115777333Y-52967428D01*
X116348761Y-52538857D02*
X116396380Y-52634095D01*
X116396380Y-52872190D01*
X116348761Y-52967428D01*
X116253523Y-53015047D01*
X116158285Y-53015047D01*
X116063047Y-52967428D01*
X116015428Y-52872190D01*
X116015428Y-52634095D01*
X115967809Y-52538857D01*
X116396380Y-52062666D02*
X115396380Y-52062666D01*
X115777333Y-52062666D02*
X115729714Y-51967428D01*
X115729714Y-51776952D01*
X115777333Y-51681714D01*
X115824952Y-51634095D01*
X115920190Y-51586476D01*
X116205904Y-51586476D01*
X116301142Y-51634095D01*
X116348761Y-51681714D01*
X116396380Y-51776952D01*
X116396380Y-51967428D01*
X116348761Y-52062666D01*
X116348761Y-51205523D02*
X116396380Y-51110285D01*
X116396380Y-50919809D01*
X116348761Y-50824571D01*
X116253523Y-50776952D01*
X116205904Y-50776952D01*
X116110666Y-50824571D01*
X116063047Y-50919809D01*
X116063047Y-51062666D01*
X116015428Y-51157904D01*
X115920190Y-51205523D01*
X115872571Y-51205523D01*
X115777333Y-51157904D01*
X115729714Y-51062666D01*
X115729714Y-50919809D01*
X115777333Y-50824571D01*
X116396380Y-50205523D02*
X116348761Y-50300761D01*
X116301142Y-50348380D01*
X116205904Y-50396000D01*
X115920190Y-50396000D01*
X115824952Y-50348380D01*
X115777333Y-50300761D01*
X115729714Y-50205523D01*
X115729714Y-50062666D01*
X115777333Y-49967428D01*
X115824952Y-49919809D01*
X115920190Y-49872190D01*
X116205904Y-49872190D01*
X116301142Y-49919809D01*
X116348761Y-49967428D01*
X116396380Y-50062666D01*
X116396380Y-50205523D01*
X116396380Y-49300761D02*
X116348761Y-49396000D01*
X116253523Y-49443619D01*
X115396380Y-49443619D01*
X115729714Y-48491238D02*
X116396380Y-48491238D01*
X115729714Y-48919809D02*
X116253523Y-48919809D01*
X116348761Y-48872190D01*
X116396380Y-48776952D01*
X116396380Y-48634095D01*
X116348761Y-48538857D01*
X116301142Y-48491238D01*
X115729714Y-48157904D02*
X115729714Y-47776952D01*
X115396380Y-48015047D02*
X116253523Y-48015047D01*
X116348761Y-47967428D01*
X116396380Y-47872190D01*
X116396380Y-47776952D01*
X115729714Y-47443619D02*
X116396380Y-47443619D01*
X115824952Y-47443619D02*
X115777333Y-47396000D01*
X115729714Y-47300761D01*
X115729714Y-47157904D01*
X115777333Y-47062666D01*
X115872571Y-47015047D01*
X116396380Y-47015047D01*
X115729714Y-46634095D02*
X116396380Y-46396000D01*
X115729714Y-46157904D02*
X116396380Y-46396000D01*
X116634476Y-46491238D01*
X116682095Y-46538857D01*
X116729714Y-46634095D01*
X116491619Y-46015047D02*
X116491619Y-45253142D01*
X115491619Y-45062666D02*
X115444000Y-45015047D01*
X115396380Y-44919809D01*
X115396380Y-44681714D01*
X115444000Y-44586476D01*
X115491619Y-44538857D01*
X115586857Y-44491238D01*
X115682095Y-44491238D01*
X115824952Y-44538857D01*
X116396380Y-45110285D01*
X116396380Y-44491238D01*
G04 #@! TO.C,J20*
X138466380Y-36705523D02*
X139180666Y-36705523D01*
X139323523Y-36753142D01*
X139418761Y-36848380D01*
X139466380Y-36991238D01*
X139466380Y-37086476D01*
X138561619Y-36276952D02*
X138514000Y-36229333D01*
X138466380Y-36134095D01*
X138466380Y-35896000D01*
X138514000Y-35800761D01*
X138561619Y-35753142D01*
X138656857Y-35705523D01*
X138752095Y-35705523D01*
X138894952Y-35753142D01*
X139466380Y-36324571D01*
X139466380Y-35705523D01*
X138466380Y-35086476D02*
X138466380Y-34991238D01*
X138514000Y-34896000D01*
X138561619Y-34848380D01*
X138656857Y-34800761D01*
X138847333Y-34753142D01*
X139085428Y-34753142D01*
X139275904Y-34800761D01*
X139371142Y-34848380D01*
X139418761Y-34896000D01*
X139466380Y-34991238D01*
X139466380Y-35086476D01*
X139418761Y-35181714D01*
X139371142Y-35229333D01*
X139275904Y-35276952D01*
X139085428Y-35324571D01*
X138847333Y-35324571D01*
X138656857Y-35276952D01*
X138561619Y-35229333D01*
X138514000Y-35181714D01*
X138466380Y-35086476D01*
X140422571Y-37382666D02*
X140422571Y-37049333D01*
X140946380Y-36906476D02*
X140946380Y-37382666D01*
X139946380Y-37382666D01*
X139946380Y-36906476D01*
X140946380Y-36573142D02*
X140279714Y-36049333D01*
X140279714Y-36573142D02*
X140946380Y-36049333D01*
X140279714Y-35811238D02*
X140279714Y-35430285D01*
X139946380Y-35668380D02*
X140803523Y-35668380D01*
X140898761Y-35620761D01*
X140946380Y-35525523D01*
X140946380Y-35430285D01*
X140946380Y-35096952D02*
X140279714Y-35096952D01*
X140470190Y-35096952D02*
X140374952Y-35049333D01*
X140327333Y-35001714D01*
X140279714Y-34906476D01*
X140279714Y-34811238D01*
X140946380Y-34049333D02*
X140422571Y-34049333D01*
X140327333Y-34096952D01*
X140279714Y-34192190D01*
X140279714Y-34382666D01*
X140327333Y-34477904D01*
X140898761Y-34049333D02*
X140946380Y-34144571D01*
X140946380Y-34382666D01*
X140898761Y-34477904D01*
X140803523Y-34525523D01*
X140708285Y-34525523D01*
X140613047Y-34477904D01*
X140565428Y-34382666D01*
X140565428Y-34144571D01*
X140517809Y-34049333D01*
G04 #@! TO.C,J18*
X115946380Y-62125523D02*
X116660666Y-62125523D01*
X116803523Y-62173142D01*
X116898761Y-62268380D01*
X116946380Y-62411238D01*
X116946380Y-62506476D01*
X116946380Y-61125523D02*
X116946380Y-61696952D01*
X116946380Y-61411238D02*
X115946380Y-61411238D01*
X116089238Y-61506476D01*
X116184476Y-61601714D01*
X116232095Y-61696952D01*
X116374952Y-60554095D02*
X116327333Y-60649333D01*
X116279714Y-60696952D01*
X116184476Y-60744571D01*
X116136857Y-60744571D01*
X116041619Y-60696952D01*
X115994000Y-60649333D01*
X115946380Y-60554095D01*
X115946380Y-60363619D01*
X115994000Y-60268380D01*
X116041619Y-60220761D01*
X116136857Y-60173142D01*
X116184476Y-60173142D01*
X116279714Y-60220761D01*
X116327333Y-60268380D01*
X116374952Y-60363619D01*
X116374952Y-60554095D01*
X116422571Y-60649333D01*
X116470190Y-60696952D01*
X116565428Y-60744571D01*
X116755904Y-60744571D01*
X116851142Y-60696952D01*
X116898761Y-60649333D01*
X116946380Y-60554095D01*
X116946380Y-60363619D01*
X116898761Y-60268380D01*
X116851142Y-60220761D01*
X116755904Y-60173142D01*
X116565428Y-60173142D01*
X116470190Y-60220761D01*
X116422571Y-60268380D01*
X116374952Y-60363619D01*
X118446380Y-64744571D02*
X117446380Y-64744571D01*
X118446380Y-64173142D02*
X117874952Y-64601714D01*
X117446380Y-64173142D02*
X118017809Y-64744571D01*
X118446380Y-63316000D02*
X117922571Y-63316000D01*
X117827333Y-63363619D01*
X117779714Y-63458857D01*
X117779714Y-63649333D01*
X117827333Y-63744571D01*
X118398761Y-63316000D02*
X118446380Y-63411238D01*
X118446380Y-63649333D01*
X118398761Y-63744571D01*
X118303523Y-63792190D01*
X118208285Y-63792190D01*
X118113047Y-63744571D01*
X118065428Y-63649333D01*
X118065428Y-63411238D01*
X118017809Y-63316000D01*
X118446380Y-62839809D02*
X117779714Y-62839809D01*
X117874952Y-62839809D02*
X117827333Y-62792190D01*
X117779714Y-62696952D01*
X117779714Y-62554095D01*
X117827333Y-62458857D01*
X117922571Y-62411238D01*
X118446380Y-62411238D01*
X117922571Y-62411238D02*
X117827333Y-62363619D01*
X117779714Y-62268380D01*
X117779714Y-62125523D01*
X117827333Y-62030285D01*
X117922571Y-61982666D01*
X118446380Y-61982666D01*
X118398761Y-61125523D02*
X118446380Y-61220761D01*
X118446380Y-61411238D01*
X118398761Y-61506476D01*
X118303523Y-61554095D01*
X117922571Y-61554095D01*
X117827333Y-61506476D01*
X117779714Y-61411238D01*
X117779714Y-61220761D01*
X117827333Y-61125523D01*
X117922571Y-61077904D01*
X118017809Y-61077904D01*
X118113047Y-61554095D01*
X118446380Y-60649333D02*
X117779714Y-60649333D01*
X117970190Y-60649333D02*
X117874952Y-60601714D01*
X117827333Y-60554095D01*
X117779714Y-60458857D01*
X117779714Y-60363619D01*
X118446380Y-59601714D02*
X117922571Y-59601714D01*
X117827333Y-59649333D01*
X117779714Y-59744571D01*
X117779714Y-59935047D01*
X117827333Y-60030285D01*
X118398761Y-59601714D02*
X118446380Y-59696952D01*
X118446380Y-59935047D01*
X118398761Y-60030285D01*
X118303523Y-60077904D01*
X118208285Y-60077904D01*
X118113047Y-60030285D01*
X118065428Y-59935047D01*
X118065428Y-59696952D01*
X118017809Y-59601714D01*
X118446380Y-57839809D02*
X118446380Y-58411238D01*
X118446380Y-58125523D02*
X117446380Y-58125523D01*
X117589238Y-58220761D01*
X117684476Y-58316000D01*
X117732095Y-58411238D01*
G04 #@! TO.C,J17*
X115446380Y-81705523D02*
X116160666Y-81705523D01*
X116303523Y-81753142D01*
X116398761Y-81848380D01*
X116446380Y-81991238D01*
X116446380Y-82086476D01*
X116446380Y-80705523D02*
X116446380Y-81276952D01*
X116446380Y-80991238D02*
X115446380Y-80991238D01*
X115589238Y-81086476D01*
X115684476Y-81181714D01*
X115732095Y-81276952D01*
X115446380Y-80372190D02*
X115446380Y-79705523D01*
X116446380Y-80134095D01*
X116946380Y-83038857D02*
X117946380Y-82372190D01*
X116946380Y-82372190D02*
X117946380Y-83038857D01*
X117946380Y-81562666D02*
X117422571Y-81562666D01*
X117327333Y-81610285D01*
X117279714Y-81705523D01*
X117279714Y-81896000D01*
X117327333Y-81991238D01*
X117898761Y-81562666D02*
X117946380Y-81657904D01*
X117946380Y-81896000D01*
X117898761Y-81991238D01*
X117803523Y-82038857D01*
X117708285Y-82038857D01*
X117613047Y-81991238D01*
X117565428Y-81896000D01*
X117565428Y-81657904D01*
X117517809Y-81562666D01*
X117279714Y-81181714D02*
X117946380Y-80943619D01*
X117279714Y-80705523D01*
X117946380Y-80324571D02*
X117279714Y-80324571D01*
X116946380Y-80324571D02*
X116994000Y-80372190D01*
X117041619Y-80324571D01*
X116994000Y-80276952D01*
X116946380Y-80324571D01*
X117041619Y-80324571D01*
X117898761Y-79467428D02*
X117946380Y-79562666D01*
X117946380Y-79753142D01*
X117898761Y-79848380D01*
X117803523Y-79896000D01*
X117422571Y-79896000D01*
X117327333Y-79848380D01*
X117279714Y-79753142D01*
X117279714Y-79562666D01*
X117327333Y-79467428D01*
X117422571Y-79419809D01*
X117517809Y-79419809D01*
X117613047Y-79896000D01*
X117946380Y-78991238D02*
X117279714Y-78991238D01*
X117470190Y-78991238D02*
X117374952Y-78943619D01*
X117327333Y-78896000D01*
X117279714Y-78800761D01*
X117279714Y-78705523D01*
G04 #@! TO.C,J21*
X138466380Y-46705523D02*
X139180666Y-46705523D01*
X139323523Y-46753142D01*
X139418761Y-46848380D01*
X139466380Y-46991238D01*
X139466380Y-47086476D01*
X138561619Y-46276952D02*
X138514000Y-46229333D01*
X138466380Y-46134095D01*
X138466380Y-45896000D01*
X138514000Y-45800761D01*
X138561619Y-45753142D01*
X138656857Y-45705523D01*
X138752095Y-45705523D01*
X138894952Y-45753142D01*
X139466380Y-46324571D01*
X139466380Y-45705523D01*
X139466380Y-44753142D02*
X139466380Y-45324571D01*
X139466380Y-45038857D02*
X138466380Y-45038857D01*
X138609238Y-45134095D01*
X138704476Y-45229333D01*
X138752095Y-45324571D01*
X140117571Y-47487666D02*
X140117571Y-47154333D01*
X140641380Y-47011476D02*
X140641380Y-47487666D01*
X139641380Y-47487666D01*
X139641380Y-47011476D01*
X140641380Y-46678142D02*
X139974714Y-46154333D01*
X139974714Y-46678142D02*
X140641380Y-46154333D01*
X139974714Y-45916238D02*
X139974714Y-45535285D01*
X139641380Y-45773380D02*
X140498523Y-45773380D01*
X140593761Y-45725761D01*
X140641380Y-45630523D01*
X140641380Y-45535285D01*
X140641380Y-45201952D02*
X139974714Y-45201952D01*
X140165190Y-45201952D02*
X140069952Y-45154333D01*
X140022333Y-45106714D01*
X139974714Y-45011476D01*
X139974714Y-44916238D01*
X140641380Y-44154333D02*
X140117571Y-44154333D01*
X140022333Y-44201952D01*
X139974714Y-44297190D01*
X139974714Y-44487666D01*
X140022333Y-44582904D01*
X140593761Y-44154333D02*
X140641380Y-44249571D01*
X140641380Y-44487666D01*
X140593761Y-44582904D01*
X140498523Y-44630523D01*
X140403285Y-44630523D01*
X140308047Y-44582904D01*
X140260428Y-44487666D01*
X140260428Y-44249571D01*
X140212809Y-44154333D01*
G04 #@! TO.C,J14*
X138446380Y-57205523D02*
X139160666Y-57205523D01*
X139303523Y-57253142D01*
X139398761Y-57348380D01*
X139446380Y-57491238D01*
X139446380Y-57586476D01*
X139446380Y-56205523D02*
X139446380Y-56776952D01*
X139446380Y-56491238D02*
X138446380Y-56491238D01*
X138589238Y-56586476D01*
X138684476Y-56681714D01*
X138732095Y-56776952D01*
X138779714Y-55348380D02*
X139446380Y-55348380D01*
X138398761Y-55586476D02*
X139113047Y-55824571D01*
X139113047Y-55205523D01*
X140922571Y-61753142D02*
X140922571Y-61419809D01*
X141446380Y-61276952D02*
X141446380Y-61753142D01*
X140446380Y-61753142D01*
X140446380Y-61276952D01*
X140779714Y-60848380D02*
X141446380Y-60848380D01*
X140874952Y-60848380D02*
X140827333Y-60800761D01*
X140779714Y-60705523D01*
X140779714Y-60562666D01*
X140827333Y-60467428D01*
X140922571Y-60419809D01*
X141446380Y-60419809D01*
X141446380Y-59943619D02*
X140446380Y-59943619D01*
X141065428Y-59848380D02*
X141446380Y-59562666D01*
X140779714Y-59562666D02*
X141160666Y-59943619D01*
X141446380Y-58991238D02*
X141398761Y-59086476D01*
X141351142Y-59134095D01*
X141255904Y-59181714D01*
X140970190Y-59181714D01*
X140874952Y-59134095D01*
X140827333Y-59086476D01*
X140779714Y-58991238D01*
X140779714Y-58848380D01*
X140827333Y-58753142D01*
X140874952Y-58705523D01*
X140970190Y-58657904D01*
X141255904Y-58657904D01*
X141351142Y-58705523D01*
X141398761Y-58753142D01*
X141446380Y-58848380D01*
X141446380Y-58991238D01*
X141541619Y-58467428D02*
X141541619Y-57705523D01*
X141446380Y-57038857D02*
X140922571Y-57038857D01*
X140827333Y-57086476D01*
X140779714Y-57181714D01*
X140779714Y-57372190D01*
X140827333Y-57467428D01*
X141398761Y-57038857D02*
X141446380Y-57134095D01*
X141446380Y-57372190D01*
X141398761Y-57467428D01*
X141303523Y-57515047D01*
X141208285Y-57515047D01*
X141113047Y-57467428D01*
X141065428Y-57372190D01*
X141065428Y-57134095D01*
X141017809Y-57038857D01*
X141446380Y-56562666D02*
X140446380Y-56562666D01*
X140827333Y-56562666D02*
X140779714Y-56467428D01*
X140779714Y-56276952D01*
X140827333Y-56181714D01*
X140874952Y-56134095D01*
X140970190Y-56086476D01*
X141255904Y-56086476D01*
X141351142Y-56134095D01*
X141398761Y-56181714D01*
X141446380Y-56276952D01*
X141446380Y-56467428D01*
X141398761Y-56562666D01*
X141398761Y-55705523D02*
X141446380Y-55610285D01*
X141446380Y-55419809D01*
X141398761Y-55324571D01*
X141303523Y-55276952D01*
X141255904Y-55276952D01*
X141160666Y-55324571D01*
X141113047Y-55419809D01*
X141113047Y-55562666D01*
X141065428Y-55657904D01*
X140970190Y-55705523D01*
X140922571Y-55705523D01*
X140827333Y-55657904D01*
X140779714Y-55562666D01*
X140779714Y-55419809D01*
X140827333Y-55324571D01*
X141446380Y-54705523D02*
X141398761Y-54800761D01*
X141351142Y-54848380D01*
X141255904Y-54896000D01*
X140970190Y-54896000D01*
X140874952Y-54848380D01*
X140827333Y-54800761D01*
X140779714Y-54705523D01*
X140779714Y-54562666D01*
X140827333Y-54467428D01*
X140874952Y-54419809D01*
X140970190Y-54372190D01*
X141255904Y-54372190D01*
X141351142Y-54419809D01*
X141398761Y-54467428D01*
X141446380Y-54562666D01*
X141446380Y-54705523D01*
X141446380Y-53800761D02*
X141398761Y-53896000D01*
X141303523Y-53943619D01*
X140446380Y-53943619D01*
X140779714Y-52991238D02*
X141446380Y-52991238D01*
X140779714Y-53419809D02*
X141303523Y-53419809D01*
X141398761Y-53372190D01*
X141446380Y-53276952D01*
X141446380Y-53134095D01*
X141398761Y-53038857D01*
X141351142Y-52991238D01*
X140779714Y-52657904D02*
X140779714Y-52276952D01*
X140446380Y-52515047D02*
X141303523Y-52515047D01*
X141398761Y-52467428D01*
X141446380Y-52372190D01*
X141446380Y-52276952D01*
X140779714Y-51943619D02*
X141446380Y-51943619D01*
X140874952Y-51943619D02*
X140827333Y-51896000D01*
X140779714Y-51800761D01*
X140779714Y-51657904D01*
X140827333Y-51562666D01*
X140922571Y-51515047D01*
X141446380Y-51515047D01*
X140779714Y-51134095D02*
X141446380Y-50896000D01*
X140779714Y-50657904D02*
X141446380Y-50896000D01*
X141684476Y-50991238D01*
X141732095Y-51038857D01*
X141779714Y-51134095D01*
X141541619Y-50515047D02*
X141541619Y-49753142D01*
X141446380Y-48991238D02*
X141446380Y-49562666D01*
X141446380Y-49276952D02*
X140446380Y-49276952D01*
X140589238Y-49372190D01*
X140684476Y-49467428D01*
X140732095Y-49562666D01*
G04 #@! TO.C,J19*
X115966380Y-71705523D02*
X116680666Y-71705523D01*
X116823523Y-71753142D01*
X116918761Y-71848380D01*
X116966380Y-71991238D01*
X116966380Y-72086476D01*
X116966380Y-70705523D02*
X116966380Y-71276952D01*
X116966380Y-70991238D02*
X115966380Y-70991238D01*
X116109238Y-71086476D01*
X116204476Y-71181714D01*
X116252095Y-71276952D01*
X116966380Y-70229333D02*
X116966380Y-70038857D01*
X116918761Y-69943619D01*
X116871142Y-69896000D01*
X116728285Y-69800761D01*
X116537809Y-69753142D01*
X116156857Y-69753142D01*
X116061619Y-69800761D01*
X116014000Y-69848380D01*
X115966380Y-69943619D01*
X115966380Y-70134095D01*
X116014000Y-70229333D01*
X116061619Y-70276952D01*
X116156857Y-70324571D01*
X116394952Y-70324571D01*
X116490190Y-70276952D01*
X116537809Y-70229333D01*
X116585428Y-70134095D01*
X116585428Y-69943619D01*
X116537809Y-69848380D01*
X116490190Y-69800761D01*
X116394952Y-69753142D01*
X118446380Y-74324571D02*
X117446380Y-74324571D01*
X118446380Y-73753142D02*
X117874952Y-74181714D01*
X117446380Y-73753142D02*
X118017809Y-74324571D01*
X118446380Y-72896000D02*
X117922571Y-72896000D01*
X117827333Y-72943619D01*
X117779714Y-73038857D01*
X117779714Y-73229333D01*
X117827333Y-73324571D01*
X118398761Y-72896000D02*
X118446380Y-72991238D01*
X118446380Y-73229333D01*
X118398761Y-73324571D01*
X118303523Y-73372190D01*
X118208285Y-73372190D01*
X118113047Y-73324571D01*
X118065428Y-73229333D01*
X118065428Y-72991238D01*
X118017809Y-72896000D01*
X118446380Y-72419809D02*
X117779714Y-72419809D01*
X117874952Y-72419809D02*
X117827333Y-72372190D01*
X117779714Y-72276952D01*
X117779714Y-72134095D01*
X117827333Y-72038857D01*
X117922571Y-71991238D01*
X118446380Y-71991238D01*
X117922571Y-71991238D02*
X117827333Y-71943619D01*
X117779714Y-71848380D01*
X117779714Y-71705523D01*
X117827333Y-71610285D01*
X117922571Y-71562666D01*
X118446380Y-71562666D01*
X118398761Y-70705523D02*
X118446380Y-70800761D01*
X118446380Y-70991238D01*
X118398761Y-71086476D01*
X118303523Y-71134095D01*
X117922571Y-71134095D01*
X117827333Y-71086476D01*
X117779714Y-70991238D01*
X117779714Y-70800761D01*
X117827333Y-70705523D01*
X117922571Y-70657904D01*
X118017809Y-70657904D01*
X118113047Y-71134095D01*
X118446380Y-70229333D02*
X117779714Y-70229333D01*
X117970190Y-70229333D02*
X117874952Y-70181714D01*
X117827333Y-70134095D01*
X117779714Y-70038857D01*
X117779714Y-69943619D01*
X118446380Y-69181714D02*
X117922571Y-69181714D01*
X117827333Y-69229333D01*
X117779714Y-69324571D01*
X117779714Y-69515047D01*
X117827333Y-69610285D01*
X118398761Y-69181714D02*
X118446380Y-69276952D01*
X118446380Y-69515047D01*
X118398761Y-69610285D01*
X118303523Y-69657904D01*
X118208285Y-69657904D01*
X118113047Y-69610285D01*
X118065428Y-69515047D01*
X118065428Y-69276952D01*
X118017809Y-69181714D01*
X117541619Y-67991238D02*
X117494000Y-67943619D01*
X117446380Y-67848380D01*
X117446380Y-67610285D01*
X117494000Y-67515047D01*
X117541619Y-67467428D01*
X117636857Y-67419809D01*
X117732095Y-67419809D01*
X117874952Y-67467428D01*
X118446380Y-68038857D01*
X118446380Y-67419809D01*
G04 #@! TO.C,J16*
X27746380Y-70955523D02*
X28460666Y-70955523D01*
X28603523Y-71003142D01*
X28698761Y-71098380D01*
X28746380Y-71241238D01*
X28746380Y-71336476D01*
X28746380Y-69955523D02*
X28746380Y-70526952D01*
X28746380Y-70241238D02*
X27746380Y-70241238D01*
X27889238Y-70336476D01*
X27984476Y-70431714D01*
X28032095Y-70526952D01*
X27746380Y-69098380D02*
X27746380Y-69288857D01*
X27794000Y-69384095D01*
X27841619Y-69431714D01*
X27984476Y-69526952D01*
X28174952Y-69574571D01*
X28555904Y-69574571D01*
X28651142Y-69526952D01*
X28698761Y-69479333D01*
X28746380Y-69384095D01*
X28746380Y-69193619D01*
X28698761Y-69098380D01*
X28651142Y-69050761D01*
X28555904Y-69003142D01*
X28317809Y-69003142D01*
X28222571Y-69050761D01*
X28174952Y-69098380D01*
X28127333Y-69193619D01*
X28127333Y-69384095D01*
X28174952Y-69479333D01*
X28222571Y-69526952D01*
X28317809Y-69574571D01*
G04 #@! TO.C,PS1*
D15*
X38211857Y-95810523D02*
X38211857Y-94540523D01*
X38695666Y-94540523D01*
X38816619Y-94601000D01*
X38877095Y-94661476D01*
X38937571Y-94782428D01*
X38937571Y-94963857D01*
X38877095Y-95084809D01*
X38816619Y-95145285D01*
X38695666Y-95205761D01*
X38211857Y-95205761D01*
X39421380Y-95750047D02*
X39602809Y-95810523D01*
X39905190Y-95810523D01*
X40026142Y-95750047D01*
X40086619Y-95689571D01*
X40147095Y-95568619D01*
X40147095Y-95447666D01*
X40086619Y-95326714D01*
X40026142Y-95266238D01*
X39905190Y-95205761D01*
X39663285Y-95145285D01*
X39542333Y-95084809D01*
X39481857Y-95024333D01*
X39421380Y-94903380D01*
X39421380Y-94782428D01*
X39481857Y-94661476D01*
X39542333Y-94601000D01*
X39663285Y-94540523D01*
X39965666Y-94540523D01*
X40147095Y-94601000D01*
X41356619Y-95810523D02*
X40630904Y-95810523D01*
X40993761Y-95810523D02*
X40993761Y-94540523D01*
X40872809Y-94721952D01*
X40751857Y-94842904D01*
X40630904Y-94903380D01*
X55559476Y-110810523D02*
X55136142Y-110205761D01*
X54833761Y-110810523D02*
X54833761Y-109540523D01*
X55317571Y-109540523D01*
X55438523Y-109601000D01*
X55499000Y-109661476D01*
X55559476Y-109782428D01*
X55559476Y-109963857D01*
X55499000Y-110084809D01*
X55438523Y-110145285D01*
X55317571Y-110205761D01*
X54833761Y-110205761D01*
X56103761Y-110810523D02*
X56103761Y-109540523D01*
X56587571Y-109540523D01*
X56708523Y-109601000D01*
X56769000Y-109661476D01*
X56829476Y-109782428D01*
X56829476Y-109963857D01*
X56769000Y-110084809D01*
X56708523Y-110145285D01*
X56587571Y-110205761D01*
X56103761Y-110205761D01*
X57313285Y-110447666D02*
X57918047Y-110447666D01*
X57192333Y-110810523D02*
X57615666Y-109540523D01*
X58039000Y-110810523D01*
X59006619Y-109540523D02*
X58764714Y-109540523D01*
X58643761Y-109601000D01*
X58583285Y-109661476D01*
X58462333Y-109842904D01*
X58401857Y-110084809D01*
X58401857Y-110568619D01*
X58462333Y-110689571D01*
X58522809Y-110750047D01*
X58643761Y-110810523D01*
X58885666Y-110810523D01*
X59006619Y-110750047D01*
X59067095Y-110689571D01*
X59127571Y-110568619D01*
X59127571Y-110266238D01*
X59067095Y-110145285D01*
X59006619Y-110084809D01*
X58885666Y-110024333D01*
X58643761Y-110024333D01*
X58522809Y-110084809D01*
X58462333Y-110145285D01*
X58401857Y-110266238D01*
X59913761Y-109540523D02*
X60034714Y-109540523D01*
X60155666Y-109601000D01*
X60216142Y-109661476D01*
X60276619Y-109782428D01*
X60337095Y-110024333D01*
X60337095Y-110326714D01*
X60276619Y-110568619D01*
X60216142Y-110689571D01*
X60155666Y-110750047D01*
X60034714Y-110810523D01*
X59913761Y-110810523D01*
X59792809Y-110750047D01*
X59732333Y-110689571D01*
X59671857Y-110568619D01*
X59611380Y-110326714D01*
X59611380Y-110024333D01*
X59671857Y-109782428D01*
X59732333Y-109661476D01*
X59792809Y-109601000D01*
X59913761Y-109540523D01*
X60881380Y-110326714D02*
X61849000Y-110326714D01*
X62393285Y-109661476D02*
X62453761Y-109601000D01*
X62574714Y-109540523D01*
X62877095Y-109540523D01*
X62998047Y-109601000D01*
X63058523Y-109661476D01*
X63119000Y-109782428D01*
X63119000Y-109903380D01*
X63058523Y-110084809D01*
X62332809Y-110810523D01*
X63119000Y-110810523D01*
X64207571Y-109963857D02*
X64207571Y-110810523D01*
X63905190Y-109480047D02*
X63602809Y-110387190D01*
X64389000Y-110387190D01*
X65114714Y-109540523D02*
X65235666Y-109540523D01*
X65356619Y-109601000D01*
X65417095Y-109661476D01*
X65477571Y-109782428D01*
X65538047Y-110024333D01*
X65538047Y-110326714D01*
X65477571Y-110568619D01*
X65417095Y-110689571D01*
X65356619Y-110750047D01*
X65235666Y-110810523D01*
X65114714Y-110810523D01*
X64993761Y-110750047D01*
X64933285Y-110689571D01*
X64872809Y-110568619D01*
X64812333Y-110326714D01*
X64812333Y-110024333D01*
X64872809Y-109782428D01*
X64933285Y-109661476D01*
X64993761Y-109601000D01*
X65114714Y-109540523D01*
X66687095Y-109540523D02*
X66082333Y-109540523D01*
X66021857Y-110145285D01*
X66082333Y-110084809D01*
X66203285Y-110024333D01*
X66505666Y-110024333D01*
X66626619Y-110084809D01*
X66687095Y-110145285D01*
X66747571Y-110266238D01*
X66747571Y-110568619D01*
X66687095Y-110689571D01*
X66626619Y-110750047D01*
X66505666Y-110810523D01*
X66203285Y-110810523D01*
X66082333Y-110750047D01*
X66021857Y-110689571D01*
X67231380Y-110750047D02*
X67412809Y-110810523D01*
X67715190Y-110810523D01*
X67836142Y-110750047D01*
X67896619Y-110689571D01*
X67957095Y-110568619D01*
X67957095Y-110447666D01*
X67896619Y-110326714D01*
X67836142Y-110266238D01*
X67715190Y-110205761D01*
X67473285Y-110145285D01*
X67352333Y-110084809D01*
X67291857Y-110024333D01*
X67231380Y-109903380D01*
X67231380Y-109782428D01*
X67291857Y-109661476D01*
X67352333Y-109601000D01*
X67473285Y-109540523D01*
X67775666Y-109540523D01*
X67957095Y-109601000D01*
X68924714Y-110145285D02*
X68501380Y-110145285D01*
X68501380Y-110810523D02*
X68501380Y-109540523D01*
X69106142Y-109540523D01*
X69469000Y-109540523D02*
X69771380Y-110810523D01*
X70013285Y-109903380D01*
X70255190Y-110810523D01*
X70557571Y-109540523D01*
X70739000Y-110931476D02*
X71706619Y-110931476D01*
X72009000Y-110810523D02*
X72009000Y-109540523D01*
X72492809Y-109540523D01*
X72613761Y-109601000D01*
X72674238Y-109661476D01*
X72734714Y-109782428D01*
X72734714Y-109963857D01*
X72674238Y-110084809D01*
X72613761Y-110145285D01*
X72492809Y-110205761D01*
X72009000Y-110205761D01*
D14*
X80254000Y-120307428D02*
X81015904Y-120307428D01*
X80634952Y-120688380D02*
X80634952Y-119926476D01*
X81349238Y-119688380D02*
X81682571Y-120688380D01*
X82015904Y-119688380D01*
X82492095Y-120688380D02*
X82396857Y-120640761D01*
X82349238Y-120593142D01*
X82301619Y-120497904D01*
X82301619Y-120212190D01*
X82349238Y-120116952D01*
X82396857Y-120069333D01*
X82492095Y-120021714D01*
X82634952Y-120021714D01*
X82730190Y-120069333D01*
X82777809Y-120116952D01*
X82825428Y-120212190D01*
X82825428Y-120497904D01*
X82777809Y-120593142D01*
X82730190Y-120640761D01*
X82634952Y-120688380D01*
X82492095Y-120688380D01*
X83682571Y-120021714D02*
X83682571Y-120688380D01*
X83254000Y-120021714D02*
X83254000Y-120545523D01*
X83301619Y-120640761D01*
X83396857Y-120688380D01*
X83539714Y-120688380D01*
X83634952Y-120640761D01*
X83682571Y-120593142D01*
X84015904Y-120021714D02*
X84396857Y-120021714D01*
X84158761Y-119688380D02*
X84158761Y-120545523D01*
X84206380Y-120640761D01*
X84301619Y-120688380D01*
X84396857Y-120688380D01*
X80254000Y-110307428D02*
X81015904Y-110307428D01*
X81349238Y-109688380D02*
X81682571Y-110688380D01*
X82015904Y-109688380D01*
X82492095Y-110688380D02*
X82396857Y-110640761D01*
X82349238Y-110593142D01*
X82301619Y-110497904D01*
X82301619Y-110212190D01*
X82349238Y-110116952D01*
X82396857Y-110069333D01*
X82492095Y-110021714D01*
X82634952Y-110021714D01*
X82730190Y-110069333D01*
X82777809Y-110116952D01*
X82825428Y-110212190D01*
X82825428Y-110497904D01*
X82777809Y-110593142D01*
X82730190Y-110640761D01*
X82634952Y-110688380D01*
X82492095Y-110688380D01*
X83682571Y-110021714D02*
X83682571Y-110688380D01*
X83254000Y-110021714D02*
X83254000Y-110545523D01*
X83301619Y-110640761D01*
X83396857Y-110688380D01*
X83539714Y-110688380D01*
X83634952Y-110640761D01*
X83682571Y-110593142D01*
X84015904Y-110021714D02*
X84396857Y-110021714D01*
X84158761Y-109688380D02*
X84158761Y-110545523D01*
X84206380Y-110640761D01*
X84301619Y-110688380D01*
X84396857Y-110688380D01*
X81254000Y-99188380D02*
X81825428Y-99188380D01*
X81539714Y-100188380D02*
X81539714Y-99188380D01*
X82158761Y-100188380D02*
X82158761Y-99521714D01*
X82158761Y-99712190D02*
X82206380Y-99616952D01*
X82254000Y-99569333D01*
X82349238Y-99521714D01*
X82444476Y-99521714D01*
X82777809Y-100188380D02*
X82777809Y-99521714D01*
X82777809Y-99188380D02*
X82730190Y-99236000D01*
X82777809Y-99283619D01*
X82825428Y-99236000D01*
X82777809Y-99188380D01*
X82777809Y-99283619D01*
X83254000Y-100188380D02*
X83254000Y-99521714D01*
X83254000Y-99616952D02*
X83301619Y-99569333D01*
X83396857Y-99521714D01*
X83539714Y-99521714D01*
X83634952Y-99569333D01*
X83682571Y-99664571D01*
X83682571Y-100188380D01*
X83682571Y-99664571D02*
X83730190Y-99569333D01*
X83825428Y-99521714D01*
X83968285Y-99521714D01*
X84063523Y-99569333D01*
X84111142Y-99664571D01*
X84111142Y-100188380D01*
X43777809Y-103093142D02*
X43730190Y-103140761D01*
X43587333Y-103188380D01*
X43492095Y-103188380D01*
X43349238Y-103140761D01*
X43254000Y-103045523D01*
X43206380Y-102950285D01*
X43158761Y-102759809D01*
X43158761Y-102616952D01*
X43206380Y-102426476D01*
X43254000Y-102331238D01*
X43349238Y-102236000D01*
X43492095Y-102188380D01*
X43587333Y-102188380D01*
X43730190Y-102236000D01*
X43777809Y-102283619D01*
X44063523Y-102188380D02*
X44634952Y-102188380D01*
X44349238Y-103188380D02*
X44349238Y-102188380D01*
X45539714Y-103188380D02*
X45206380Y-102712190D01*
X44968285Y-103188380D02*
X44968285Y-102188380D01*
X45349238Y-102188380D01*
X45444476Y-102236000D01*
X45492095Y-102283619D01*
X45539714Y-102378857D01*
X45539714Y-102521714D01*
X45492095Y-102616952D01*
X45444476Y-102664571D01*
X45349238Y-102712190D01*
X44968285Y-102712190D01*
X46444476Y-103188380D02*
X45968285Y-103188380D01*
X45968285Y-102188380D01*
X43254000Y-112807428D02*
X44015904Y-112807428D01*
X44349238Y-112188380D02*
X44682571Y-113188380D01*
X45015904Y-112188380D01*
X45349238Y-113188380D02*
X45349238Y-112521714D01*
X45349238Y-112188380D02*
X45301619Y-112236000D01*
X45349238Y-112283619D01*
X45396857Y-112236000D01*
X45349238Y-112188380D01*
X45349238Y-112283619D01*
X45825428Y-112521714D02*
X45825428Y-113188380D01*
X45825428Y-112616952D02*
X45873047Y-112569333D01*
X45968285Y-112521714D01*
X46111142Y-112521714D01*
X46206380Y-112569333D01*
X46254000Y-112664571D01*
X46254000Y-113188380D01*
X43254000Y-118307428D02*
X44015904Y-118307428D01*
X43634952Y-118688380D02*
X43634952Y-117926476D01*
X44349238Y-117688380D02*
X44682571Y-118688380D01*
X45015904Y-117688380D01*
X45349238Y-118688380D02*
X45349238Y-118021714D01*
X45349238Y-117688380D02*
X45301619Y-117736000D01*
X45349238Y-117783619D01*
X45396857Y-117736000D01*
X45349238Y-117688380D01*
X45349238Y-117783619D01*
X45825428Y-118021714D02*
X45825428Y-118688380D01*
X45825428Y-118116952D02*
X45873047Y-118069333D01*
X45968285Y-118021714D01*
X46111142Y-118021714D01*
X46206380Y-118069333D01*
X46254000Y-118164571D01*
X46254000Y-118688380D01*
G04 #@! TO.C,D1*
X63808404Y-24298380D02*
X63808404Y-23298380D01*
X64046500Y-23298380D01*
X64189357Y-23346000D01*
X64284595Y-23441238D01*
X64332214Y-23536476D01*
X64379833Y-23726952D01*
X64379833Y-23869809D01*
X64332214Y-24060285D01*
X64284595Y-24155523D01*
X64189357Y-24250761D01*
X64046500Y-24298380D01*
X63808404Y-24298380D01*
X65332214Y-24298380D02*
X64760785Y-24298380D01*
X65046500Y-24298380D02*
X65046500Y-23298380D01*
X64951261Y-23441238D01*
X64856023Y-23536476D01*
X64760785Y-23584095D01*
G04 #@! TO.C,D2*
X55523404Y-24298380D02*
X55523404Y-23298380D01*
X55761500Y-23298380D01*
X55904357Y-23346000D01*
X55999595Y-23441238D01*
X56047214Y-23536476D01*
X56094833Y-23726952D01*
X56094833Y-23869809D01*
X56047214Y-24060285D01*
X55999595Y-24155523D01*
X55904357Y-24250761D01*
X55761500Y-24298380D01*
X55523404Y-24298380D01*
X56475785Y-23393619D02*
X56523404Y-23346000D01*
X56618642Y-23298380D01*
X56856738Y-23298380D01*
X56951976Y-23346000D01*
X56999595Y-23393619D01*
X57047214Y-23488857D01*
X57047214Y-23584095D01*
X56999595Y-23726952D01*
X56428166Y-24298380D01*
X57047214Y-24298380D01*
G04 #@! TO.C,D5*
X133255904Y-140498380D02*
X133255904Y-139498380D01*
X133494000Y-139498380D01*
X133636857Y-139546000D01*
X133732095Y-139641238D01*
X133779714Y-139736476D01*
X133827333Y-139926952D01*
X133827333Y-140069809D01*
X133779714Y-140260285D01*
X133732095Y-140355523D01*
X133636857Y-140450761D01*
X133494000Y-140498380D01*
X133255904Y-140498380D01*
X134732095Y-139498380D02*
X134255904Y-139498380D01*
X134208285Y-139974571D01*
X134255904Y-139926952D01*
X134351142Y-139879333D01*
X134589238Y-139879333D01*
X134684476Y-139926952D01*
X134732095Y-139974571D01*
X134779714Y-140069809D01*
X134779714Y-140307904D01*
X134732095Y-140403142D01*
X134684476Y-140450761D01*
X134589238Y-140498380D01*
X134351142Y-140498380D01*
X134255904Y-140450761D01*
X134208285Y-140403142D01*
X132470190Y-136848380D02*
X131994000Y-136848380D01*
X131994000Y-135848380D01*
X132803523Y-136324571D02*
X133136857Y-136324571D01*
X133279714Y-136848380D02*
X132803523Y-136848380D01*
X132803523Y-135848380D01*
X133279714Y-135848380D01*
X133708285Y-136848380D02*
X133708285Y-135848380D01*
X133946380Y-135848380D01*
X134089238Y-135896000D01*
X134184476Y-135991238D01*
X134232095Y-136086476D01*
X134279714Y-136276952D01*
X134279714Y-136419809D01*
X134232095Y-136610285D01*
X134184476Y-136705523D01*
X134089238Y-136800761D01*
X133946380Y-136848380D01*
X133708285Y-136848380D01*
X134470190Y-136943619D02*
X135232095Y-136943619D01*
X135803523Y-136324571D02*
X135946380Y-136372190D01*
X135994000Y-136419809D01*
X136041619Y-136515047D01*
X136041619Y-136657904D01*
X135994000Y-136753142D01*
X135946380Y-136800761D01*
X135851142Y-136848380D01*
X135470190Y-136848380D01*
X135470190Y-135848380D01*
X135803523Y-135848380D01*
X135898761Y-135896000D01*
X135946380Y-135943619D01*
X135994000Y-136038857D01*
X135994000Y-136134095D01*
X135946380Y-136229333D01*
X135898761Y-136276952D01*
X135803523Y-136324571D01*
X135470190Y-136324571D01*
G04 #@! TO.C,D7*
X108255904Y-162198380D02*
X108255904Y-161198380D01*
X108494000Y-161198380D01*
X108636857Y-161246000D01*
X108732095Y-161341238D01*
X108779714Y-161436476D01*
X108827333Y-161626952D01*
X108827333Y-161769809D01*
X108779714Y-161960285D01*
X108732095Y-162055523D01*
X108636857Y-162150761D01*
X108494000Y-162198380D01*
X108255904Y-162198380D01*
X109160666Y-161198380D02*
X109827333Y-161198380D01*
X109398761Y-162198380D01*
G04 #@! TO.C,D8*
X108193404Y-187498380D02*
X108193404Y-186498380D01*
X108431500Y-186498380D01*
X108574357Y-186546000D01*
X108669595Y-186641238D01*
X108717214Y-186736476D01*
X108764833Y-186926952D01*
X108764833Y-187069809D01*
X108717214Y-187260285D01*
X108669595Y-187355523D01*
X108574357Y-187450761D01*
X108431500Y-187498380D01*
X108193404Y-187498380D01*
X109336261Y-186926952D02*
X109241023Y-186879333D01*
X109193404Y-186831714D01*
X109145785Y-186736476D01*
X109145785Y-186688857D01*
X109193404Y-186593619D01*
X109241023Y-186546000D01*
X109336261Y-186498380D01*
X109526738Y-186498380D01*
X109621976Y-186546000D01*
X109669595Y-186593619D01*
X109717214Y-186688857D01*
X109717214Y-186736476D01*
X109669595Y-186831714D01*
X109621976Y-186879333D01*
X109526738Y-186926952D01*
X109336261Y-186926952D01*
X109241023Y-186974571D01*
X109193404Y-187022190D01*
X109145785Y-187117428D01*
X109145785Y-187307904D01*
X109193404Y-187403142D01*
X109241023Y-187450761D01*
X109336261Y-187498380D01*
X109526738Y-187498380D01*
X109621976Y-187450761D01*
X109669595Y-187403142D01*
X109717214Y-187307904D01*
X109717214Y-187117428D01*
X109669595Y-187022190D01*
X109621976Y-186974571D01*
X109526738Y-186926952D01*
G04 #@! TO.C,J1*
X55060666Y-28848380D02*
X55060666Y-29562666D01*
X55013047Y-29705523D01*
X54917809Y-29800761D01*
X54774952Y-29848380D01*
X54679714Y-29848380D01*
X56060666Y-29848380D02*
X55489238Y-29848380D01*
X55774952Y-29848380D02*
X55774952Y-28848380D01*
X55679714Y-28991238D01*
X55584476Y-29086476D01*
X55489238Y-29134095D01*
G04 #@! TO.C,J2*
X74870666Y-22548380D02*
X74870666Y-23262666D01*
X74823047Y-23405523D01*
X74727809Y-23500761D01*
X74584952Y-23548380D01*
X74489714Y-23548380D01*
X75299238Y-22643619D02*
X75346857Y-22596000D01*
X75442095Y-22548380D01*
X75680190Y-22548380D01*
X75775428Y-22596000D01*
X75823047Y-22643619D01*
X75870666Y-22738857D01*
X75870666Y-22834095D01*
X75823047Y-22976952D01*
X75251619Y-23548380D01*
X75870666Y-23548380D01*
D10*
X67049238Y-15248380D02*
X67049238Y-14248380D01*
X67287333Y-14248380D01*
X67430190Y-14296000D01*
X67525428Y-14391238D01*
X67573047Y-14486476D01*
X67620666Y-14676952D01*
X67620666Y-14819809D01*
X67573047Y-15010285D01*
X67525428Y-15105523D01*
X67430190Y-15200761D01*
X67287333Y-15248380D01*
X67049238Y-15248380D01*
X68049238Y-15248380D02*
X68049238Y-14581714D01*
X68049238Y-14248380D02*
X68001619Y-14296000D01*
X68049238Y-14343619D01*
X68096857Y-14296000D01*
X68049238Y-14248380D01*
X68049238Y-14343619D01*
X68954000Y-14581714D02*
X68954000Y-15391238D01*
X68906380Y-15486476D01*
X68858761Y-15534095D01*
X68763523Y-15581714D01*
X68620666Y-15581714D01*
X68525428Y-15534095D01*
X68954000Y-15200761D02*
X68858761Y-15248380D01*
X68668285Y-15248380D01*
X68573047Y-15200761D01*
X68525428Y-15153142D01*
X68477809Y-15057904D01*
X68477809Y-14772190D01*
X68525428Y-14676952D01*
X68573047Y-14629333D01*
X68668285Y-14581714D01*
X68858761Y-14581714D01*
X68954000Y-14629333D01*
X69430190Y-15248380D02*
X69430190Y-14581714D01*
X69430190Y-14248380D02*
X69382571Y-14296000D01*
X69430190Y-14343619D01*
X69477809Y-14296000D01*
X69430190Y-14248380D01*
X69430190Y-14343619D01*
X69763523Y-14581714D02*
X70144476Y-14581714D01*
X69906380Y-14248380D02*
X69906380Y-15105523D01*
X69954000Y-15200761D01*
X70049238Y-15248380D01*
X70144476Y-15248380D01*
X70906380Y-15248380D02*
X70906380Y-14724571D01*
X70858761Y-14629333D01*
X70763523Y-14581714D01*
X70573047Y-14581714D01*
X70477809Y-14629333D01*
X70906380Y-15200761D02*
X70811142Y-15248380D01*
X70573047Y-15248380D01*
X70477809Y-15200761D01*
X70430190Y-15105523D01*
X70430190Y-15010285D01*
X70477809Y-14915047D01*
X70573047Y-14867428D01*
X70811142Y-14867428D01*
X70906380Y-14819809D01*
X71525428Y-15248380D02*
X71430190Y-15200761D01*
X71382571Y-15105523D01*
X71382571Y-14248380D01*
X72668285Y-14581714D02*
X72668285Y-15581714D01*
X72668285Y-14629333D02*
X72763523Y-14581714D01*
X72954000Y-14581714D01*
X73049238Y-14629333D01*
X73096857Y-14676952D01*
X73144476Y-14772190D01*
X73144476Y-15057904D01*
X73096857Y-15153142D01*
X73049238Y-15200761D01*
X72954000Y-15248380D01*
X72763523Y-15248380D01*
X72668285Y-15200761D01*
X73715904Y-15248380D02*
X73620666Y-15200761D01*
X73573047Y-15153142D01*
X73525428Y-15057904D01*
X73525428Y-14772190D01*
X73573047Y-14676952D01*
X73620666Y-14629333D01*
X73715904Y-14581714D01*
X73858761Y-14581714D01*
X73954000Y-14629333D01*
X74001619Y-14676952D01*
X74049238Y-14772190D01*
X74049238Y-15057904D01*
X74001619Y-15153142D01*
X73954000Y-15200761D01*
X73858761Y-15248380D01*
X73715904Y-15248380D01*
X74382571Y-14581714D02*
X74573047Y-15248380D01*
X74763523Y-14772190D01*
X74954000Y-15248380D01*
X75144476Y-14581714D01*
X75906380Y-15200761D02*
X75811142Y-15248380D01*
X75620666Y-15248380D01*
X75525428Y-15200761D01*
X75477809Y-15105523D01*
X75477809Y-14724571D01*
X75525428Y-14629333D01*
X75620666Y-14581714D01*
X75811142Y-14581714D01*
X75906380Y-14629333D01*
X75954000Y-14724571D01*
X75954000Y-14819809D01*
X75477809Y-14915047D01*
X76382571Y-15248380D02*
X76382571Y-14581714D01*
X76382571Y-14772190D02*
X76430190Y-14676952D01*
X76477809Y-14629333D01*
X76573047Y-14581714D01*
X76668285Y-14581714D01*
X77001619Y-15153142D02*
X77049238Y-15200761D01*
X77001619Y-15248380D01*
X76954000Y-15200761D01*
X77001619Y-15153142D01*
X77001619Y-15248380D01*
X77001619Y-14629333D02*
X77049238Y-14676952D01*
X77001619Y-14724571D01*
X76954000Y-14676952D01*
X77001619Y-14629333D01*
X77001619Y-14724571D01*
X78430190Y-14248380D02*
X78620666Y-14248380D01*
X78715904Y-14296000D01*
X78811142Y-14391238D01*
X78858761Y-14581714D01*
X78858761Y-14915047D01*
X78811142Y-15105523D01*
X78715904Y-15200761D01*
X78620666Y-15248380D01*
X78430190Y-15248380D01*
X78334952Y-15200761D01*
X78239714Y-15105523D01*
X78192095Y-14915047D01*
X78192095Y-14581714D01*
X78239714Y-14391238D01*
X78334952Y-14296000D01*
X78430190Y-14248380D01*
X79287333Y-15248380D02*
X79287333Y-14248380D01*
X79858761Y-15248380D01*
X79858761Y-14248380D01*
X80334952Y-14867428D02*
X81096857Y-14867428D01*
X81763523Y-14248380D02*
X81954000Y-14248380D01*
X82049238Y-14296000D01*
X82144476Y-14391238D01*
X82192095Y-14581714D01*
X82192095Y-14915047D01*
X82144476Y-15105523D01*
X82049238Y-15200761D01*
X81954000Y-15248380D01*
X81763523Y-15248380D01*
X81668285Y-15200761D01*
X81573047Y-15105523D01*
X81525428Y-14915047D01*
X81525428Y-14581714D01*
X81573047Y-14391238D01*
X81668285Y-14296000D01*
X81763523Y-14248380D01*
X82954000Y-14724571D02*
X82620666Y-14724571D01*
X82620666Y-15248380D02*
X82620666Y-14248380D01*
X83096857Y-14248380D01*
X83811142Y-14724571D02*
X83477809Y-14724571D01*
X83477809Y-15248380D02*
X83477809Y-14248380D01*
X83954000Y-14248380D01*
G04 #@! TO.C,J22*
D14*
X101996380Y-175205523D02*
X102710666Y-175205523D01*
X102853523Y-175253142D01*
X102948761Y-175348380D01*
X102996380Y-175491238D01*
X102996380Y-175586476D01*
X102091619Y-174776952D02*
X102044000Y-174729333D01*
X101996380Y-174634095D01*
X101996380Y-174396000D01*
X102044000Y-174300761D01*
X102091619Y-174253142D01*
X102186857Y-174205523D01*
X102282095Y-174205523D01*
X102424952Y-174253142D01*
X102996380Y-174824571D01*
X102996380Y-174205523D01*
X102091619Y-173824571D02*
X102044000Y-173776952D01*
X101996380Y-173681714D01*
X101996380Y-173443619D01*
X102044000Y-173348380D01*
X102091619Y-173300761D01*
X102186857Y-173253142D01*
X102282095Y-173253142D01*
X102424952Y-173300761D01*
X102996380Y-173872190D01*
X102996380Y-173253142D01*
G04 #@! TO.C,J55*
X38896380Y-36305523D02*
X39610666Y-36305523D01*
X39753523Y-36353142D01*
X39848761Y-36448380D01*
X39896380Y-36591238D01*
X39896380Y-36686476D01*
X38896380Y-35353142D02*
X38896380Y-35829333D01*
X39372571Y-35876952D01*
X39324952Y-35829333D01*
X39277333Y-35734095D01*
X39277333Y-35496000D01*
X39324952Y-35400761D01*
X39372571Y-35353142D01*
X39467809Y-35305523D01*
X39705904Y-35305523D01*
X39801142Y-35353142D01*
X39848761Y-35400761D01*
X39896380Y-35496000D01*
X39896380Y-35734095D01*
X39848761Y-35829333D01*
X39801142Y-35876952D01*
X38896380Y-34400761D02*
X38896380Y-34876952D01*
X39372571Y-34924571D01*
X39324952Y-34876952D01*
X39277333Y-34781714D01*
X39277333Y-34543619D01*
X39324952Y-34448380D01*
X39372571Y-34400761D01*
X39467809Y-34353142D01*
X39705904Y-34353142D01*
X39801142Y-34400761D01*
X39848761Y-34448380D01*
X39896380Y-34543619D01*
X39896380Y-34781714D01*
X39848761Y-34876952D01*
X39801142Y-34924571D01*
G04 #@! TO.C,Q5*
X48898761Y-180393619D02*
X48803523Y-180346000D01*
X48708285Y-180250761D01*
X48565428Y-180107904D01*
X48470190Y-180060285D01*
X48374952Y-180060285D01*
X48422571Y-180298380D02*
X48327333Y-180250761D01*
X48232095Y-180155523D01*
X48184476Y-179965047D01*
X48184476Y-179631714D01*
X48232095Y-179441238D01*
X48327333Y-179346000D01*
X48422571Y-179298380D01*
X48613047Y-179298380D01*
X48708285Y-179346000D01*
X48803523Y-179441238D01*
X48851142Y-179631714D01*
X48851142Y-179965047D01*
X48803523Y-180155523D01*
X48708285Y-180250761D01*
X48613047Y-180298380D01*
X48422571Y-180298380D01*
X49755904Y-179298380D02*
X49279714Y-179298380D01*
X49232095Y-179774571D01*
X49279714Y-179726952D01*
X49374952Y-179679333D01*
X49613047Y-179679333D01*
X49708285Y-179726952D01*
X49755904Y-179774571D01*
X49803523Y-179869809D01*
X49803523Y-180107904D01*
X49755904Y-180203142D01*
X49708285Y-180250761D01*
X49613047Y-180298380D01*
X49374952Y-180298380D01*
X49279714Y-180250761D01*
X49232095Y-180203142D01*
G04 #@! TO.C,R6*
X112827333Y-162198380D02*
X112494000Y-161722190D01*
X112255904Y-162198380D02*
X112255904Y-161198380D01*
X112636857Y-161198380D01*
X112732095Y-161246000D01*
X112779714Y-161293619D01*
X112827333Y-161388857D01*
X112827333Y-161531714D01*
X112779714Y-161626952D01*
X112732095Y-161674571D01*
X112636857Y-161722190D01*
X112255904Y-161722190D01*
X113684476Y-161198380D02*
X113494000Y-161198380D01*
X113398761Y-161246000D01*
X113351142Y-161293619D01*
X113255904Y-161436476D01*
X113208285Y-161626952D01*
X113208285Y-162007904D01*
X113255904Y-162103142D01*
X113303523Y-162150761D01*
X113398761Y-162198380D01*
X113589238Y-162198380D01*
X113684476Y-162150761D01*
X113732095Y-162103142D01*
X113779714Y-162007904D01*
X113779714Y-161769809D01*
X113732095Y-161674571D01*
X113684476Y-161626952D01*
X113589238Y-161579333D01*
X113398761Y-161579333D01*
X113303523Y-161626952D01*
X113255904Y-161674571D01*
X113208285Y-161769809D01*
G04 #@! TO.C,R7*
X112827333Y-187498380D02*
X112494000Y-187022190D01*
X112255904Y-187498380D02*
X112255904Y-186498380D01*
X112636857Y-186498380D01*
X112732095Y-186546000D01*
X112779714Y-186593619D01*
X112827333Y-186688857D01*
X112827333Y-186831714D01*
X112779714Y-186926952D01*
X112732095Y-186974571D01*
X112636857Y-187022190D01*
X112255904Y-187022190D01*
X113160666Y-186498380D02*
X113827333Y-186498380D01*
X113398761Y-187498380D01*
G04 #@! TO.C,TP1*
X126732095Y-134848380D02*
X127303523Y-134848380D01*
X127017809Y-135848380D02*
X127017809Y-134848380D01*
X127636857Y-135848380D02*
X127636857Y-134848380D01*
X128017809Y-134848380D01*
X128113047Y-134896000D01*
X128160666Y-134943619D01*
X128208285Y-135038857D01*
X128208285Y-135181714D01*
X128160666Y-135276952D01*
X128113047Y-135324571D01*
X128017809Y-135372190D01*
X127636857Y-135372190D01*
X129160666Y-135848380D02*
X128589238Y-135848380D01*
X128874952Y-135848380D02*
X128874952Y-134848380D01*
X128779714Y-134991238D01*
X128684476Y-135086476D01*
X128589238Y-135134095D01*
G04 #@! TO.C,TP3*
X99732095Y-160518380D02*
X100303523Y-160518380D01*
X100017809Y-161518380D02*
X100017809Y-160518380D01*
X100636857Y-161518380D02*
X100636857Y-160518380D01*
X101017809Y-160518380D01*
X101113047Y-160566000D01*
X101160666Y-160613619D01*
X101208285Y-160708857D01*
X101208285Y-160851714D01*
X101160666Y-160946952D01*
X101113047Y-160994571D01*
X101017809Y-161042190D01*
X100636857Y-161042190D01*
X101541619Y-160518380D02*
X102160666Y-160518380D01*
X101827333Y-160899333D01*
X101970190Y-160899333D01*
X102065428Y-160946952D01*
X102113047Y-160994571D01*
X102160666Y-161089809D01*
X102160666Y-161327904D01*
X102113047Y-161423142D01*
X102065428Y-161470761D01*
X101970190Y-161518380D01*
X101684476Y-161518380D01*
X101589238Y-161470761D01*
X101541619Y-161423142D01*
G04 #@! TO.C,TP4*
X99732095Y-182518380D02*
X100303523Y-182518380D01*
X100017809Y-183518380D02*
X100017809Y-182518380D01*
X100636857Y-183518380D02*
X100636857Y-182518380D01*
X101017809Y-182518380D01*
X101113047Y-182566000D01*
X101160666Y-182613619D01*
X101208285Y-182708857D01*
X101208285Y-182851714D01*
X101160666Y-182946952D01*
X101113047Y-182994571D01*
X101017809Y-183042190D01*
X100636857Y-183042190D01*
X102065428Y-182851714D02*
X102065428Y-183518380D01*
X101827333Y-182470761D02*
X101589238Y-183185047D01*
X102208285Y-183185047D01*
G04 #@! TO.C,J3*
X27746380Y-103979333D02*
X28460666Y-103979333D01*
X28603523Y-104026952D01*
X28698761Y-104122190D01*
X28746380Y-104265047D01*
X28746380Y-104360285D01*
X27746380Y-103598380D02*
X27746380Y-102979333D01*
X28127333Y-103312666D01*
X28127333Y-103169809D01*
X28174952Y-103074571D01*
X28222571Y-103026952D01*
X28317809Y-102979333D01*
X28555904Y-102979333D01*
X28651142Y-103026952D01*
X28698761Y-103074571D01*
X28746380Y-103169809D01*
X28746380Y-103455523D01*
X28698761Y-103550761D01*
X28651142Y-103598380D01*
G04 #@! TO.C,J23*
X27746380Y-176455523D02*
X28460666Y-176455523D01*
X28603523Y-176503142D01*
X28698761Y-176598380D01*
X28746380Y-176741238D01*
X28746380Y-176836476D01*
X27841619Y-176026952D02*
X27794000Y-175979333D01*
X27746380Y-175884095D01*
X27746380Y-175646000D01*
X27794000Y-175550761D01*
X27841619Y-175503142D01*
X27936857Y-175455523D01*
X28032095Y-175455523D01*
X28174952Y-175503142D01*
X28746380Y-176074571D01*
X28746380Y-175455523D01*
X27746380Y-175122190D02*
X27746380Y-174503142D01*
X28127333Y-174836476D01*
X28127333Y-174693619D01*
X28174952Y-174598380D01*
X28222571Y-174550761D01*
X28317809Y-174503142D01*
X28555904Y-174503142D01*
X28651142Y-174550761D01*
X28698761Y-174598380D01*
X28746380Y-174693619D01*
X28746380Y-174979333D01*
X28698761Y-175074571D01*
X28651142Y-175122190D01*
G04 #@! TO.C,R14*
X43446380Y-186848857D02*
X42970190Y-187182190D01*
X43446380Y-187420285D02*
X42446380Y-187420285D01*
X42446380Y-187039333D01*
X42494000Y-186944095D01*
X42541619Y-186896476D01*
X42636857Y-186848857D01*
X42779714Y-186848857D01*
X42874952Y-186896476D01*
X42922571Y-186944095D01*
X42970190Y-187039333D01*
X42970190Y-187420285D01*
X43446380Y-185896476D02*
X43446380Y-186467904D01*
X43446380Y-186182190D02*
X42446380Y-186182190D01*
X42589238Y-186277428D01*
X42684476Y-186372666D01*
X42732095Y-186467904D01*
X42779714Y-185039333D02*
X43446380Y-185039333D01*
X42398761Y-185277428D02*
X43113047Y-185515523D01*
X43113047Y-184896476D01*
G04 #@! TO.C,J4*
X117446380Y-103729333D02*
X118160666Y-103729333D01*
X118303523Y-103776952D01*
X118398761Y-103872190D01*
X118446380Y-104015047D01*
X118446380Y-104110285D01*
X117779714Y-102824571D02*
X118446380Y-102824571D01*
X117398761Y-103062666D02*
X118113047Y-103300761D01*
X118113047Y-102681714D01*
X116396380Y-108657904D02*
X115396380Y-108657904D01*
X116110666Y-108324571D01*
X115396380Y-107991238D01*
X116396380Y-107991238D01*
X116396380Y-107086476D02*
X115872571Y-107086476D01*
X115777333Y-107134095D01*
X115729714Y-107229333D01*
X115729714Y-107419809D01*
X115777333Y-107515047D01*
X116348761Y-107086476D02*
X116396380Y-107181714D01*
X116396380Y-107419809D01*
X116348761Y-107515047D01*
X116253523Y-107562666D01*
X116158285Y-107562666D01*
X116063047Y-107515047D01*
X116015428Y-107419809D01*
X116015428Y-107181714D01*
X115967809Y-107086476D01*
X115729714Y-106610285D02*
X116396380Y-106610285D01*
X115824952Y-106610285D02*
X115777333Y-106562666D01*
X115729714Y-106467428D01*
X115729714Y-106324571D01*
X115777333Y-106229333D01*
X115872571Y-106181714D01*
X116396380Y-106181714D01*
X116396380Y-105705523D02*
X115729714Y-105705523D01*
X115396380Y-105705523D02*
X115444000Y-105753142D01*
X115491619Y-105705523D01*
X115444000Y-105657904D01*
X115396380Y-105705523D01*
X115491619Y-105705523D01*
X115729714Y-105229333D02*
X116729714Y-105229333D01*
X115777333Y-105229333D02*
X115729714Y-105134095D01*
X115729714Y-104943619D01*
X115777333Y-104848380D01*
X115824952Y-104800761D01*
X115920190Y-104753142D01*
X116205904Y-104753142D01*
X116301142Y-104800761D01*
X116348761Y-104848380D01*
X116396380Y-104943619D01*
X116396380Y-105134095D01*
X116348761Y-105229333D01*
X116491619Y-104562666D02*
X116491619Y-103800761D01*
X116348761Y-103610285D02*
X116396380Y-103467428D01*
X116396380Y-103229333D01*
X116348761Y-103134095D01*
X116301142Y-103086476D01*
X116205904Y-103038857D01*
X116110666Y-103038857D01*
X116015428Y-103086476D01*
X115967809Y-103134095D01*
X115920190Y-103229333D01*
X115872571Y-103419809D01*
X115824952Y-103515047D01*
X115777333Y-103562666D01*
X115682095Y-103610285D01*
X115586857Y-103610285D01*
X115491619Y-103562666D01*
X115444000Y-103515047D01*
X115396380Y-103419809D01*
X115396380Y-103181714D01*
X115444000Y-103038857D01*
X115729714Y-102753142D02*
X115729714Y-102372190D01*
X115396380Y-102610285D02*
X116253523Y-102610285D01*
X116348761Y-102562666D01*
X116396380Y-102467428D01*
X116396380Y-102372190D01*
X116348761Y-101657904D02*
X116396380Y-101753142D01*
X116396380Y-101943619D01*
X116348761Y-102038857D01*
X116253523Y-102086476D01*
X115872571Y-102086476D01*
X115777333Y-102038857D01*
X115729714Y-101943619D01*
X115729714Y-101753142D01*
X115777333Y-101657904D01*
X115872571Y-101610285D01*
X115967809Y-101610285D01*
X116063047Y-102086476D01*
X116396380Y-101181714D02*
X115729714Y-101181714D01*
X115920190Y-101181714D02*
X115824952Y-101134095D01*
X115777333Y-101086476D01*
X115729714Y-100991238D01*
X115729714Y-100896000D01*
X116348761Y-100610285D02*
X116396380Y-100467428D01*
X116396380Y-100229333D01*
X116348761Y-100134095D01*
X116301142Y-100086476D01*
X116205904Y-100038857D01*
X116110666Y-100038857D01*
X116015428Y-100086476D01*
X115967809Y-100134095D01*
X115920190Y-100229333D01*
X115872571Y-100419809D01*
X115824952Y-100515047D01*
X115777333Y-100562666D01*
X115682095Y-100610285D01*
X115586857Y-100610285D01*
X115491619Y-100562666D01*
X115444000Y-100515047D01*
X115396380Y-100419809D01*
X115396380Y-100181714D01*
X115444000Y-100038857D01*
X116396380Y-99610285D02*
X115729714Y-99610285D01*
X115396380Y-99610285D02*
X115444000Y-99657904D01*
X115491619Y-99610285D01*
X115444000Y-99562666D01*
X115396380Y-99610285D01*
X115491619Y-99610285D01*
X116396380Y-98991238D02*
X116348761Y-99086476D01*
X116253523Y-99134095D01*
X115396380Y-99134095D01*
X115491619Y-98657904D02*
X115444000Y-98610285D01*
X115396380Y-98515047D01*
X115396380Y-98276952D01*
X115444000Y-98181714D01*
X115491619Y-98134095D01*
X115586857Y-98086476D01*
X115682095Y-98086476D01*
X115824952Y-98134095D01*
X116396380Y-98705523D01*
X116396380Y-98086476D01*
G04 #@! TO.C,J5*
X116446380Y-113729333D02*
X117160666Y-113729333D01*
X117303523Y-113776952D01*
X117398761Y-113872190D01*
X117446380Y-114015047D01*
X117446380Y-114110285D01*
X116446380Y-112776952D02*
X116446380Y-113253142D01*
X116922571Y-113300761D01*
X116874952Y-113253142D01*
X116827333Y-113157904D01*
X116827333Y-112919809D01*
X116874952Y-112824571D01*
X116922571Y-112776952D01*
X117017809Y-112729333D01*
X117255904Y-112729333D01*
X117351142Y-112776952D01*
X117398761Y-112824571D01*
X117446380Y-112919809D01*
X117446380Y-113157904D01*
X117398761Y-113253142D01*
X117351142Y-113300761D01*
X118946380Y-118657904D02*
X117946380Y-118657904D01*
X118660666Y-118324571D01*
X117946380Y-117991238D01*
X118946380Y-117991238D01*
X118946380Y-117086476D02*
X118422571Y-117086476D01*
X118327333Y-117134095D01*
X118279714Y-117229333D01*
X118279714Y-117419809D01*
X118327333Y-117515047D01*
X118898761Y-117086476D02*
X118946380Y-117181714D01*
X118946380Y-117419809D01*
X118898761Y-117515047D01*
X118803523Y-117562666D01*
X118708285Y-117562666D01*
X118613047Y-117515047D01*
X118565428Y-117419809D01*
X118565428Y-117181714D01*
X118517809Y-117086476D01*
X118279714Y-116610285D02*
X118946380Y-116610285D01*
X118374952Y-116610285D02*
X118327333Y-116562666D01*
X118279714Y-116467428D01*
X118279714Y-116324571D01*
X118327333Y-116229333D01*
X118422571Y-116181714D01*
X118946380Y-116181714D01*
X118946380Y-115705523D02*
X118279714Y-115705523D01*
X117946380Y-115705523D02*
X117994000Y-115753142D01*
X118041619Y-115705523D01*
X117994000Y-115657904D01*
X117946380Y-115705523D01*
X118041619Y-115705523D01*
X118279714Y-115229333D02*
X119279714Y-115229333D01*
X118327333Y-115229333D02*
X118279714Y-115134095D01*
X118279714Y-114943619D01*
X118327333Y-114848380D01*
X118374952Y-114800761D01*
X118470190Y-114753142D01*
X118755904Y-114753142D01*
X118851142Y-114800761D01*
X118898761Y-114848380D01*
X118946380Y-114943619D01*
X118946380Y-115134095D01*
X118898761Y-115229333D01*
X119041619Y-114562666D02*
X119041619Y-113800761D01*
X118898761Y-113610285D02*
X118946380Y-113467428D01*
X118946380Y-113229333D01*
X118898761Y-113134095D01*
X118851142Y-113086476D01*
X118755904Y-113038857D01*
X118660666Y-113038857D01*
X118565428Y-113086476D01*
X118517809Y-113134095D01*
X118470190Y-113229333D01*
X118422571Y-113419809D01*
X118374952Y-113515047D01*
X118327333Y-113562666D01*
X118232095Y-113610285D01*
X118136857Y-113610285D01*
X118041619Y-113562666D01*
X117994000Y-113515047D01*
X117946380Y-113419809D01*
X117946380Y-113181714D01*
X117994000Y-113038857D01*
X118279714Y-112753142D02*
X118279714Y-112372190D01*
X117946380Y-112610285D02*
X118803523Y-112610285D01*
X118898761Y-112562666D01*
X118946380Y-112467428D01*
X118946380Y-112372190D01*
X118898761Y-111657904D02*
X118946380Y-111753142D01*
X118946380Y-111943619D01*
X118898761Y-112038857D01*
X118803523Y-112086476D01*
X118422571Y-112086476D01*
X118327333Y-112038857D01*
X118279714Y-111943619D01*
X118279714Y-111753142D01*
X118327333Y-111657904D01*
X118422571Y-111610285D01*
X118517809Y-111610285D01*
X118613047Y-112086476D01*
X118946380Y-111181714D02*
X118279714Y-111181714D01*
X118470190Y-111181714D02*
X118374952Y-111134095D01*
X118327333Y-111086476D01*
X118279714Y-110991238D01*
X118279714Y-110896000D01*
X118898761Y-110610285D02*
X118946380Y-110467428D01*
X118946380Y-110229333D01*
X118898761Y-110134095D01*
X118851142Y-110086476D01*
X118755904Y-110038857D01*
X118660666Y-110038857D01*
X118565428Y-110086476D01*
X118517809Y-110134095D01*
X118470190Y-110229333D01*
X118422571Y-110419809D01*
X118374952Y-110515047D01*
X118327333Y-110562666D01*
X118232095Y-110610285D01*
X118136857Y-110610285D01*
X118041619Y-110562666D01*
X117994000Y-110515047D01*
X117946380Y-110419809D01*
X117946380Y-110181714D01*
X117994000Y-110038857D01*
X118946380Y-109610285D02*
X118279714Y-109610285D01*
X117946380Y-109610285D02*
X117994000Y-109657904D01*
X118041619Y-109610285D01*
X117994000Y-109562666D01*
X117946380Y-109610285D01*
X118041619Y-109610285D01*
X118946380Y-108991238D02*
X118898761Y-109086476D01*
X118803523Y-109134095D01*
X117946380Y-109134095D01*
X118946380Y-108086476D02*
X118946380Y-108657904D01*
X118946380Y-108372190D02*
X117946380Y-108372190D01*
X118089238Y-108467428D01*
X118184476Y-108562666D01*
X118232095Y-108657904D01*
G04 #@! TO.C,J6*
X137946380Y-98729333D02*
X138660666Y-98729333D01*
X138803523Y-98776952D01*
X138898761Y-98872190D01*
X138946380Y-99015047D01*
X138946380Y-99110285D01*
X137946380Y-97824571D02*
X137946380Y-98015047D01*
X137994000Y-98110285D01*
X138041619Y-98157904D01*
X138184476Y-98253142D01*
X138374952Y-98300761D01*
X138755904Y-98300761D01*
X138851142Y-98253142D01*
X138898761Y-98205523D01*
X138946380Y-98110285D01*
X138946380Y-97919809D01*
X138898761Y-97824571D01*
X138851142Y-97776952D01*
X138755904Y-97729333D01*
X138517809Y-97729333D01*
X138422571Y-97776952D01*
X138374952Y-97824571D01*
X138327333Y-97919809D01*
X138327333Y-98110285D01*
X138374952Y-98205523D01*
X138422571Y-98253142D01*
X138517809Y-98300761D01*
X139922571Y-100062666D02*
X139922571Y-99729333D01*
X140446380Y-99586476D02*
X140446380Y-100062666D01*
X139446380Y-100062666D01*
X139446380Y-99586476D01*
X140446380Y-99253142D02*
X139779714Y-98729333D01*
X139779714Y-99253142D02*
X140446380Y-98729333D01*
X139779714Y-98491238D02*
X139779714Y-98110285D01*
X139446380Y-98348380D02*
X140303523Y-98348380D01*
X140398761Y-98300761D01*
X140446380Y-98205523D01*
X140446380Y-98110285D01*
X140446380Y-97776952D02*
X139779714Y-97776952D01*
X139970190Y-97776952D02*
X139874952Y-97729333D01*
X139827333Y-97681714D01*
X139779714Y-97586476D01*
X139779714Y-97491238D01*
X140446380Y-96729333D02*
X139922571Y-96729333D01*
X139827333Y-96776952D01*
X139779714Y-96872190D01*
X139779714Y-97062666D01*
X139827333Y-97157904D01*
X140398761Y-96729333D02*
X140446380Y-96824571D01*
X140446380Y-97062666D01*
X140398761Y-97157904D01*
X140303523Y-97205523D01*
X140208285Y-97205523D01*
X140113047Y-97157904D01*
X140065428Y-97062666D01*
X140065428Y-96824571D01*
X140017809Y-96729333D01*
G04 #@! TO.C,J7*
X139446380Y-107729333D02*
X140160666Y-107729333D01*
X140303523Y-107776952D01*
X140398761Y-107872190D01*
X140446380Y-108015047D01*
X140446380Y-108110285D01*
X139446380Y-107348380D02*
X139446380Y-106681714D01*
X140446380Y-107110285D01*
X138422571Y-109062666D02*
X138422571Y-108729333D01*
X138946380Y-108586476D02*
X138946380Y-109062666D01*
X137946380Y-109062666D01*
X137946380Y-108586476D01*
X138946380Y-108253142D02*
X138279714Y-107729333D01*
X138279714Y-108253142D02*
X138946380Y-107729333D01*
X138279714Y-107491238D02*
X138279714Y-107110285D01*
X137946380Y-107348380D02*
X138803523Y-107348380D01*
X138898761Y-107300761D01*
X138946380Y-107205523D01*
X138946380Y-107110285D01*
X138946380Y-106776952D02*
X138279714Y-106776952D01*
X138470190Y-106776952D02*
X138374952Y-106729333D01*
X138327333Y-106681714D01*
X138279714Y-106586476D01*
X138279714Y-106491238D01*
X138946380Y-105729333D02*
X138422571Y-105729333D01*
X138327333Y-105776952D01*
X138279714Y-105872190D01*
X138279714Y-106062666D01*
X138327333Y-106157904D01*
X138898761Y-105729333D02*
X138946380Y-105824571D01*
X138946380Y-106062666D01*
X138898761Y-106157904D01*
X138803523Y-106205523D01*
X138708285Y-106205523D01*
X138613047Y-106157904D01*
X138565428Y-106062666D01*
X138565428Y-105824571D01*
X138517809Y-105729333D01*
G04 #@! TO.C,J8*
X115446380Y-143729333D02*
X116160666Y-143729333D01*
X116303523Y-143776952D01*
X116398761Y-143872190D01*
X116446380Y-144015047D01*
X116446380Y-144110285D01*
X115874952Y-143110285D02*
X115827333Y-143205523D01*
X115779714Y-143253142D01*
X115684476Y-143300761D01*
X115636857Y-143300761D01*
X115541619Y-143253142D01*
X115494000Y-143205523D01*
X115446380Y-143110285D01*
X115446380Y-142919809D01*
X115494000Y-142824571D01*
X115541619Y-142776952D01*
X115636857Y-142729333D01*
X115684476Y-142729333D01*
X115779714Y-142776952D01*
X115827333Y-142824571D01*
X115874952Y-142919809D01*
X115874952Y-143110285D01*
X115922571Y-143205523D01*
X115970190Y-143253142D01*
X116065428Y-143300761D01*
X116255904Y-143300761D01*
X116351142Y-143253142D01*
X116398761Y-143205523D01*
X116446380Y-143110285D01*
X116446380Y-142919809D01*
X116398761Y-142824571D01*
X116351142Y-142776952D01*
X116255904Y-142729333D01*
X116065428Y-142729333D01*
X115970190Y-142776952D01*
X115922571Y-142824571D01*
X115874952Y-142919809D01*
X118398761Y-145586476D02*
X118446380Y-145443619D01*
X118446380Y-145205523D01*
X118398761Y-145110285D01*
X118351142Y-145062666D01*
X118255904Y-145015047D01*
X118160666Y-145015047D01*
X118065428Y-145062666D01*
X118017809Y-145110285D01*
X117970190Y-145205523D01*
X117922571Y-145396000D01*
X117874952Y-145491238D01*
X117827333Y-145538857D01*
X117732095Y-145586476D01*
X117636857Y-145586476D01*
X117541619Y-145538857D01*
X117494000Y-145491238D01*
X117446380Y-145396000D01*
X117446380Y-145157904D01*
X117494000Y-145015047D01*
X117446380Y-144729333D02*
X117446380Y-144157904D01*
X118446380Y-144443619D02*
X117446380Y-144443619D01*
X118446380Y-143824571D02*
X117446380Y-143824571D01*
X118160666Y-143491238D01*
X117446380Y-143157904D01*
X118446380Y-143157904D01*
X117446380Y-142776952D02*
X117446380Y-142157904D01*
X117827333Y-142491238D01*
X117827333Y-142348380D01*
X117874952Y-142253142D01*
X117922571Y-142205523D01*
X118017809Y-142157904D01*
X118255904Y-142157904D01*
X118351142Y-142205523D01*
X118398761Y-142253142D01*
X118446380Y-142348380D01*
X118446380Y-142634095D01*
X118398761Y-142729333D01*
X118351142Y-142776952D01*
X117541619Y-141776952D02*
X117494000Y-141729333D01*
X117446380Y-141634095D01*
X117446380Y-141396000D01*
X117494000Y-141300761D01*
X117541619Y-141253142D01*
X117636857Y-141205523D01*
X117732095Y-141205523D01*
X117874952Y-141253142D01*
X118446380Y-141824571D01*
X118446380Y-141205523D01*
G04 #@! TO.C,J9*
X115446380Y-93729333D02*
X116160666Y-93729333D01*
X116303523Y-93776952D01*
X116398761Y-93872190D01*
X116446380Y-94015047D01*
X116446380Y-94110285D01*
X116446380Y-93205523D02*
X116446380Y-93015047D01*
X116398761Y-92919809D01*
X116351142Y-92872190D01*
X116208285Y-92776952D01*
X116017809Y-92729333D01*
X115636857Y-92729333D01*
X115541619Y-92776952D01*
X115494000Y-92824571D01*
X115446380Y-92919809D01*
X115446380Y-93110285D01*
X115494000Y-93205523D01*
X115541619Y-93253142D01*
X115636857Y-93300761D01*
X115874952Y-93300761D01*
X115970190Y-93253142D01*
X116017809Y-93205523D01*
X116065428Y-93110285D01*
X116065428Y-92919809D01*
X116017809Y-92824571D01*
X115970190Y-92776952D01*
X115874952Y-92729333D01*
X118446380Y-93824571D02*
X117970190Y-94157904D01*
X118446380Y-94396000D02*
X117446380Y-94396000D01*
X117446380Y-94015047D01*
X117494000Y-93919809D01*
X117541619Y-93872190D01*
X117636857Y-93824571D01*
X117779714Y-93824571D01*
X117874952Y-93872190D01*
X117922571Y-93919809D01*
X117970190Y-94015047D01*
X117970190Y-94396000D01*
X118446380Y-93396000D02*
X117446380Y-93396000D01*
X117446380Y-93015047D01*
X117494000Y-92919809D01*
X117541619Y-92872190D01*
X117636857Y-92824571D01*
X117779714Y-92824571D01*
X117874952Y-92872190D01*
X117922571Y-92919809D01*
X117970190Y-93015047D01*
X117970190Y-93396000D01*
X118446380Y-92396000D02*
X117779714Y-92396000D01*
X117446380Y-92396000D02*
X117494000Y-92443619D01*
X117541619Y-92396000D01*
X117494000Y-92348380D01*
X117446380Y-92396000D01*
X117541619Y-92396000D01*
G04 #@! TO.C,J10*
X115446380Y-124205523D02*
X116160666Y-124205523D01*
X116303523Y-124253142D01*
X116398761Y-124348380D01*
X116446380Y-124491238D01*
X116446380Y-124586476D01*
X116446380Y-123205523D02*
X116446380Y-123776952D01*
X116446380Y-123491238D02*
X115446380Y-123491238D01*
X115589238Y-123586476D01*
X115684476Y-123681714D01*
X115732095Y-123776952D01*
X115446380Y-122586476D02*
X115446380Y-122491238D01*
X115494000Y-122396000D01*
X115541619Y-122348380D01*
X115636857Y-122300761D01*
X115827333Y-122253142D01*
X116065428Y-122253142D01*
X116255904Y-122300761D01*
X116351142Y-122348380D01*
X116398761Y-122396000D01*
X116446380Y-122491238D01*
X116446380Y-122586476D01*
X116398761Y-122681714D01*
X116351142Y-122729333D01*
X116255904Y-122776952D01*
X116065428Y-122824571D01*
X115827333Y-122824571D01*
X115636857Y-122776952D01*
X115541619Y-122729333D01*
X115494000Y-122681714D01*
X115446380Y-122586476D01*
X117946380Y-125015047D02*
X117470190Y-125348380D01*
X117946380Y-125586476D02*
X116946380Y-125586476D01*
X116946380Y-125205523D01*
X116994000Y-125110285D01*
X117041619Y-125062666D01*
X117136857Y-125015047D01*
X117279714Y-125015047D01*
X117374952Y-125062666D01*
X117422571Y-125110285D01*
X117470190Y-125205523D01*
X117470190Y-125586476D01*
X117946380Y-124443619D02*
X117898761Y-124538857D01*
X117851142Y-124586476D01*
X117755904Y-124634095D01*
X117470190Y-124634095D01*
X117374952Y-124586476D01*
X117327333Y-124538857D01*
X117279714Y-124443619D01*
X117279714Y-124300761D01*
X117327333Y-124205523D01*
X117374952Y-124157904D01*
X117470190Y-124110285D01*
X117755904Y-124110285D01*
X117851142Y-124157904D01*
X117898761Y-124205523D01*
X117946380Y-124300761D01*
X117946380Y-124443619D01*
X117279714Y-123253142D02*
X117946380Y-123253142D01*
X117279714Y-123681714D02*
X117803523Y-123681714D01*
X117898761Y-123634095D01*
X117946380Y-123538857D01*
X117946380Y-123396000D01*
X117898761Y-123300761D01*
X117851142Y-123253142D01*
X117279714Y-122919809D02*
X117279714Y-122538857D01*
X116946380Y-122776952D02*
X117803523Y-122776952D01*
X117898761Y-122729333D01*
X117946380Y-122634095D01*
X117946380Y-122538857D01*
X117898761Y-121824571D02*
X117946380Y-121919809D01*
X117946380Y-122110285D01*
X117898761Y-122205523D01*
X117803523Y-122253142D01*
X117422571Y-122253142D01*
X117327333Y-122205523D01*
X117279714Y-122110285D01*
X117279714Y-121919809D01*
X117327333Y-121824571D01*
X117422571Y-121776952D01*
X117517809Y-121776952D01*
X117613047Y-122253142D01*
X117946380Y-121348380D02*
X117279714Y-121348380D01*
X117470190Y-121348380D02*
X117374952Y-121300761D01*
X117327333Y-121253142D01*
X117279714Y-121157904D01*
X117279714Y-121062666D01*
G04 #@! TO.C,J11*
X116946380Y-134205523D02*
X117660666Y-134205523D01*
X117803523Y-134253142D01*
X117898761Y-134348380D01*
X117946380Y-134491238D01*
X117946380Y-134586476D01*
X117946380Y-133205523D02*
X117946380Y-133776952D01*
X117946380Y-133491238D02*
X116946380Y-133491238D01*
X117089238Y-133586476D01*
X117184476Y-133681714D01*
X117232095Y-133776952D01*
X117946380Y-132253142D02*
X117946380Y-132824571D01*
X117946380Y-132538857D02*
X116946380Y-132538857D01*
X117089238Y-132634095D01*
X117184476Y-132729333D01*
X117232095Y-132824571D01*
X116398761Y-135610285D02*
X116446380Y-135467428D01*
X116446380Y-135229333D01*
X116398761Y-135134095D01*
X116351142Y-135086476D01*
X116255904Y-135038857D01*
X116160666Y-135038857D01*
X116065428Y-135086476D01*
X116017809Y-135134095D01*
X115970190Y-135229333D01*
X115922571Y-135419809D01*
X115874952Y-135515047D01*
X115827333Y-135562666D01*
X115732095Y-135610285D01*
X115636857Y-135610285D01*
X115541619Y-135562666D01*
X115494000Y-135515047D01*
X115446380Y-135419809D01*
X115446380Y-135181714D01*
X115494000Y-135038857D01*
X115779714Y-134705523D02*
X116446380Y-134515047D01*
X115970190Y-134324571D01*
X116446380Y-134134095D01*
X115779714Y-133943619D01*
X116446380Y-133562666D02*
X115779714Y-133562666D01*
X115446380Y-133562666D02*
X115494000Y-133610285D01*
X115541619Y-133562666D01*
X115494000Y-133515047D01*
X115446380Y-133562666D01*
X115541619Y-133562666D01*
X115779714Y-133229333D02*
X115779714Y-132848380D01*
X115446380Y-133086476D02*
X116303523Y-133086476D01*
X116398761Y-133038857D01*
X116446380Y-132943619D01*
X116446380Y-132848380D01*
X116398761Y-132086476D02*
X116446380Y-132181714D01*
X116446380Y-132372190D01*
X116398761Y-132467428D01*
X116351142Y-132515047D01*
X116255904Y-132562666D01*
X115970190Y-132562666D01*
X115874952Y-132515047D01*
X115827333Y-132467428D01*
X115779714Y-132372190D01*
X115779714Y-132181714D01*
X115827333Y-132086476D01*
X116446380Y-131657904D02*
X115446380Y-131657904D01*
X116446380Y-131229333D02*
X115922571Y-131229333D01*
X115827333Y-131276952D01*
X115779714Y-131372190D01*
X115779714Y-131515047D01*
X115827333Y-131610285D01*
X115874952Y-131657904D01*
G04 #@! TO.C,J12*
X139446380Y-129705523D02*
X140160666Y-129705523D01*
X140303523Y-129753142D01*
X140398761Y-129848380D01*
X140446380Y-129991238D01*
X140446380Y-130086476D01*
X140446380Y-128705523D02*
X140446380Y-129276952D01*
X140446380Y-128991238D02*
X139446380Y-128991238D01*
X139589238Y-129086476D01*
X139684476Y-129181714D01*
X139732095Y-129276952D01*
X139541619Y-128324571D02*
X139494000Y-128276952D01*
X139446380Y-128181714D01*
X139446380Y-127943619D01*
X139494000Y-127848380D01*
X139541619Y-127800761D01*
X139636857Y-127753142D01*
X139732095Y-127753142D01*
X139874952Y-127800761D01*
X140446380Y-128372190D01*
X140446380Y-127753142D01*
X138372571Y-138015047D02*
X138372571Y-137681714D01*
X138896380Y-137538857D02*
X138896380Y-138015047D01*
X137896380Y-138015047D01*
X137896380Y-137538857D01*
X138229714Y-137110285D02*
X138896380Y-137110285D01*
X138324952Y-137110285D02*
X138277333Y-137062666D01*
X138229714Y-136967428D01*
X138229714Y-136824571D01*
X138277333Y-136729333D01*
X138372571Y-136681714D01*
X138896380Y-136681714D01*
X138896380Y-136205523D02*
X137896380Y-136205523D01*
X138515428Y-136110285D02*
X138896380Y-135824571D01*
X138229714Y-135824571D02*
X138610666Y-136205523D01*
X138896380Y-135253142D02*
X138848761Y-135348380D01*
X138801142Y-135396000D01*
X138705904Y-135443619D01*
X138420190Y-135443619D01*
X138324952Y-135396000D01*
X138277333Y-135348380D01*
X138229714Y-135253142D01*
X138229714Y-135110285D01*
X138277333Y-135015047D01*
X138324952Y-134967428D01*
X138420190Y-134919809D01*
X138705904Y-134919809D01*
X138801142Y-134967428D01*
X138848761Y-135015047D01*
X138896380Y-135110285D01*
X138896380Y-135253142D01*
X138991619Y-134729333D02*
X138991619Y-133967428D01*
X138896380Y-133729333D02*
X138229714Y-133729333D01*
X137896380Y-133729333D02*
X137944000Y-133776952D01*
X137991619Y-133729333D01*
X137944000Y-133681714D01*
X137896380Y-133729333D01*
X137991619Y-133729333D01*
X138229714Y-133253142D02*
X138896380Y-133253142D01*
X138324952Y-133253142D02*
X138277333Y-133205523D01*
X138229714Y-133110285D01*
X138229714Y-132967428D01*
X138277333Y-132872190D01*
X138372571Y-132824571D01*
X138896380Y-132824571D01*
X138896380Y-132348380D02*
X137896380Y-132348380D01*
X138515428Y-132253142D02*
X138896380Y-131967428D01*
X138229714Y-131967428D02*
X138610666Y-132348380D01*
X138896380Y-131538857D02*
X138229714Y-131538857D01*
X138420190Y-131538857D02*
X138324952Y-131491238D01*
X138277333Y-131443619D01*
X138229714Y-131348380D01*
X138229714Y-131253142D01*
X138848761Y-130538857D02*
X138896380Y-130634095D01*
X138896380Y-130824571D01*
X138848761Y-130919809D01*
X138753523Y-130967428D01*
X138372571Y-130967428D01*
X138277333Y-130919809D01*
X138229714Y-130824571D01*
X138229714Y-130634095D01*
X138277333Y-130538857D01*
X138372571Y-130491238D01*
X138467809Y-130491238D01*
X138563047Y-130967428D01*
X138896380Y-130062666D02*
X138229714Y-130062666D01*
X138324952Y-130062666D02*
X138277333Y-130015047D01*
X138229714Y-129919809D01*
X138229714Y-129776952D01*
X138277333Y-129681714D01*
X138372571Y-129634095D01*
X138896380Y-129634095D01*
X138372571Y-129634095D02*
X138277333Y-129586476D01*
X138229714Y-129491238D01*
X138229714Y-129348380D01*
X138277333Y-129253142D01*
X138372571Y-129205523D01*
X138896380Y-129205523D01*
X138848761Y-128348380D02*
X138896380Y-128443619D01*
X138896380Y-128634095D01*
X138848761Y-128729333D01*
X138753523Y-128776952D01*
X138372571Y-128776952D01*
X138277333Y-128729333D01*
X138229714Y-128634095D01*
X138229714Y-128443619D01*
X138277333Y-128348380D01*
X138372571Y-128300761D01*
X138467809Y-128300761D01*
X138563047Y-128776952D01*
X138229714Y-127872190D02*
X138896380Y-127872190D01*
X138324952Y-127872190D02*
X138277333Y-127824571D01*
X138229714Y-127729333D01*
X138229714Y-127586476D01*
X138277333Y-127491238D01*
X138372571Y-127443619D01*
X138896380Y-127443619D01*
X138229714Y-127110285D02*
X138229714Y-126729333D01*
X137896380Y-126967428D02*
X138753523Y-126967428D01*
X138848761Y-126919809D01*
X138896380Y-126824571D01*
X138896380Y-126729333D01*
X138896380Y-125967428D02*
X138372571Y-125967428D01*
X138277333Y-126015047D01*
X138229714Y-126110285D01*
X138229714Y-126300761D01*
X138277333Y-126396000D01*
X138848761Y-125967428D02*
X138896380Y-126062666D01*
X138896380Y-126300761D01*
X138848761Y-126396000D01*
X138753523Y-126443619D01*
X138658285Y-126443619D01*
X138563047Y-126396000D01*
X138515428Y-126300761D01*
X138515428Y-126062666D01*
X138467809Y-125967428D01*
X138896380Y-125348380D02*
X138848761Y-125443619D01*
X138753523Y-125491238D01*
X137896380Y-125491238D01*
X138229714Y-124967428D02*
X138896380Y-124967428D01*
X138324952Y-124967428D02*
X138277333Y-124919809D01*
X138229714Y-124824571D01*
X138229714Y-124681714D01*
X138277333Y-124586476D01*
X138372571Y-124538857D01*
X138896380Y-124538857D01*
X138229714Y-124157904D02*
X138896380Y-123919809D01*
X138229714Y-123681714D02*
X138896380Y-123919809D01*
X139134476Y-124015047D01*
X139182095Y-124062666D01*
X139229714Y-124157904D01*
G04 #@! TO.C,J13*
X138946380Y-119205523D02*
X139660666Y-119205523D01*
X139803523Y-119253142D01*
X139898761Y-119348380D01*
X139946380Y-119491238D01*
X139946380Y-119586476D01*
X139946380Y-118205523D02*
X139946380Y-118776952D01*
X139946380Y-118491238D02*
X138946380Y-118491238D01*
X139089238Y-118586476D01*
X139184476Y-118681714D01*
X139232095Y-118776952D01*
X138946380Y-117872190D02*
X138946380Y-117253142D01*
X139327333Y-117586476D01*
X139327333Y-117443619D01*
X139374952Y-117348380D01*
X139422571Y-117300761D01*
X139517809Y-117253142D01*
X139755904Y-117253142D01*
X139851142Y-117300761D01*
X139898761Y-117348380D01*
X139946380Y-117443619D01*
X139946380Y-117729333D01*
X139898761Y-117824571D01*
X139851142Y-117872190D01*
X140446380Y-125681714D02*
X140446380Y-125110285D01*
X141446380Y-125396000D02*
X140446380Y-125396000D01*
X141446380Y-124634095D02*
X141398761Y-124729333D01*
X141351142Y-124776952D01*
X141255904Y-124824571D01*
X140970190Y-124824571D01*
X140874952Y-124776952D01*
X140827333Y-124729333D01*
X140779714Y-124634095D01*
X140779714Y-124491238D01*
X140827333Y-124396000D01*
X140874952Y-124348380D01*
X140970190Y-124300761D01*
X141255904Y-124300761D01*
X141351142Y-124348380D01*
X141398761Y-124396000D01*
X141446380Y-124491238D01*
X141446380Y-124634095D01*
X141446380Y-123872190D02*
X140779714Y-123872190D01*
X140970190Y-123872190D02*
X140874952Y-123824571D01*
X140827333Y-123776952D01*
X140779714Y-123681714D01*
X140779714Y-123586476D01*
X140779714Y-123253142D02*
X141779714Y-123253142D01*
X140827333Y-123253142D02*
X140779714Y-123157904D01*
X140779714Y-122967428D01*
X140827333Y-122872190D01*
X140874952Y-122824571D01*
X140970190Y-122776952D01*
X141255904Y-122776952D01*
X141351142Y-122824571D01*
X141398761Y-122872190D01*
X141446380Y-122967428D01*
X141446380Y-123157904D01*
X141398761Y-123253142D01*
X141398761Y-121967428D02*
X141446380Y-122062666D01*
X141446380Y-122253142D01*
X141398761Y-122348380D01*
X141303523Y-122396000D01*
X140922571Y-122396000D01*
X140827333Y-122348380D01*
X140779714Y-122253142D01*
X140779714Y-122062666D01*
X140827333Y-121967428D01*
X140922571Y-121919809D01*
X141017809Y-121919809D01*
X141113047Y-122396000D01*
X141446380Y-121062666D02*
X140446380Y-121062666D01*
X141398761Y-121062666D02*
X141446380Y-121157904D01*
X141446380Y-121348380D01*
X141398761Y-121443619D01*
X141351142Y-121491238D01*
X141255904Y-121538857D01*
X140970190Y-121538857D01*
X140874952Y-121491238D01*
X140827333Y-121443619D01*
X140779714Y-121348380D01*
X140779714Y-121157904D01*
X140827333Y-121062666D01*
X140779714Y-120681714D02*
X141446380Y-120443619D01*
X140779714Y-120205523D02*
X141446380Y-120443619D01*
X141684476Y-120538857D01*
X141732095Y-120586476D01*
X141779714Y-120681714D01*
X141398761Y-119776952D02*
X141446380Y-119776952D01*
X141541619Y-119824571D01*
X141589238Y-119872190D01*
X141446380Y-118586476D02*
X140446380Y-118586476D01*
X141446380Y-118157904D02*
X140922571Y-118157904D01*
X140827333Y-118205523D01*
X140779714Y-118300761D01*
X140779714Y-118443619D01*
X140827333Y-118538857D01*
X140874952Y-118586476D01*
X141446380Y-117253142D02*
X140922571Y-117253142D01*
X140827333Y-117300761D01*
X140779714Y-117396000D01*
X140779714Y-117586476D01*
X140827333Y-117681714D01*
X141398761Y-117253142D02*
X141446380Y-117348380D01*
X141446380Y-117586476D01*
X141398761Y-117681714D01*
X141303523Y-117729333D01*
X141208285Y-117729333D01*
X141113047Y-117681714D01*
X141065428Y-117586476D01*
X141065428Y-117348380D01*
X141017809Y-117253142D01*
X141446380Y-116634095D02*
X141398761Y-116729333D01*
X141303523Y-116776952D01*
X140446380Y-116776952D01*
X141446380Y-116110285D02*
X141398761Y-116205523D01*
X141303523Y-116253142D01*
X140446380Y-116253142D01*
X141398761Y-115681714D02*
X141446380Y-115681714D01*
X141541619Y-115729333D01*
X141589238Y-115776952D01*
X141446380Y-114348380D02*
X141398761Y-114443619D01*
X141303523Y-114491238D01*
X140446380Y-114491238D01*
X141446380Y-113538857D02*
X140922571Y-113538857D01*
X140827333Y-113586476D01*
X140779714Y-113681714D01*
X140779714Y-113872190D01*
X140827333Y-113967428D01*
X141398761Y-113538857D02*
X141446380Y-113634095D01*
X141446380Y-113872190D01*
X141398761Y-113967428D01*
X141303523Y-114015047D01*
X141208285Y-114015047D01*
X141113047Y-113967428D01*
X141065428Y-113872190D01*
X141065428Y-113634095D01*
X141017809Y-113538857D01*
X141398761Y-113110285D02*
X141446380Y-113015047D01*
X141446380Y-112824571D01*
X141398761Y-112729333D01*
X141303523Y-112681714D01*
X141255904Y-112681714D01*
X141160666Y-112729333D01*
X141113047Y-112824571D01*
X141113047Y-112967428D01*
X141065428Y-113062666D01*
X140970190Y-113110285D01*
X140922571Y-113110285D01*
X140827333Y-113062666D01*
X140779714Y-112967428D01*
X140779714Y-112824571D01*
X140827333Y-112729333D01*
X141398761Y-111872190D02*
X141446380Y-111967428D01*
X141446380Y-112157904D01*
X141398761Y-112253142D01*
X141303523Y-112300761D01*
X140922571Y-112300761D01*
X140827333Y-112253142D01*
X140779714Y-112157904D01*
X140779714Y-111967428D01*
X140827333Y-111872190D01*
X140922571Y-111824571D01*
X141017809Y-111824571D01*
X141113047Y-112300761D01*
X141446380Y-111396000D02*
X140779714Y-111396000D01*
X140970190Y-111396000D02*
X140874952Y-111348380D01*
X140827333Y-111300761D01*
X140779714Y-111205523D01*
X140779714Y-111110285D01*
G04 #@! TO.C,REF\002A\002A*
X22160666Y-14648380D02*
X21827333Y-14172190D01*
X21589238Y-14648380D02*
X21589238Y-13648380D01*
X21970190Y-13648380D01*
X22065428Y-13696000D01*
X22113047Y-13743619D01*
X22160666Y-13838857D01*
X22160666Y-13981714D01*
X22113047Y-14076952D01*
X22065428Y-14124571D01*
X21970190Y-14172190D01*
X21589238Y-14172190D01*
X22589238Y-14124571D02*
X22922571Y-14124571D01*
X23065428Y-14648380D02*
X22589238Y-14648380D01*
X22589238Y-13648380D01*
X23065428Y-13648380D01*
X23827333Y-14124571D02*
X23494000Y-14124571D01*
X23494000Y-14648380D02*
X23494000Y-13648380D01*
X23970190Y-13648380D01*
X24494000Y-13648380D02*
X24494000Y-13886476D01*
X24255904Y-13791238D02*
X24494000Y-13886476D01*
X24732095Y-13791238D01*
X24351142Y-14076952D02*
X24494000Y-13886476D01*
X24636857Y-14076952D01*
X25255904Y-13648380D02*
X25255904Y-13886476D01*
X25017809Y-13791238D02*
X25255904Y-13886476D01*
X25494000Y-13791238D01*
X25113047Y-14076952D02*
X25255904Y-13886476D01*
X25398761Y-14076952D01*
X137160666Y-14648380D02*
X136827333Y-14172190D01*
X136589238Y-14648380D02*
X136589238Y-13648380D01*
X136970190Y-13648380D01*
X137065428Y-13696000D01*
X137113047Y-13743619D01*
X137160666Y-13838857D01*
X137160666Y-13981714D01*
X137113047Y-14076952D01*
X137065428Y-14124571D01*
X136970190Y-14172190D01*
X136589238Y-14172190D01*
X137589238Y-14124571D02*
X137922571Y-14124571D01*
X138065428Y-14648380D02*
X137589238Y-14648380D01*
X137589238Y-13648380D01*
X138065428Y-13648380D01*
X138827333Y-14124571D02*
X138494000Y-14124571D01*
X138494000Y-14648380D02*
X138494000Y-13648380D01*
X138970190Y-13648380D01*
X139494000Y-13648380D02*
X139494000Y-13886476D01*
X139255904Y-13791238D02*
X139494000Y-13886476D01*
X139732095Y-13791238D01*
X139351142Y-14076952D02*
X139494000Y-13886476D01*
X139636857Y-14076952D01*
X140255904Y-13648380D02*
X140255904Y-13886476D01*
X140017809Y-13791238D02*
X140255904Y-13886476D01*
X140494000Y-13791238D01*
X140113047Y-14076952D02*
X140255904Y-13886476D01*
X140398761Y-14076952D01*
X22160666Y-116148380D02*
X21827333Y-115672190D01*
X21589238Y-116148380D02*
X21589238Y-115148380D01*
X21970190Y-115148380D01*
X22065428Y-115196000D01*
X22113047Y-115243619D01*
X22160666Y-115338857D01*
X22160666Y-115481714D01*
X22113047Y-115576952D01*
X22065428Y-115624571D01*
X21970190Y-115672190D01*
X21589238Y-115672190D01*
X22589238Y-115624571D02*
X22922571Y-115624571D01*
X23065428Y-116148380D02*
X22589238Y-116148380D01*
X22589238Y-115148380D01*
X23065428Y-115148380D01*
X23827333Y-115624571D02*
X23494000Y-115624571D01*
X23494000Y-116148380D02*
X23494000Y-115148380D01*
X23970190Y-115148380D01*
X24494000Y-115148380D02*
X24494000Y-115386476D01*
X24255904Y-115291238D02*
X24494000Y-115386476D01*
X24732095Y-115291238D01*
X24351142Y-115576952D02*
X24494000Y-115386476D01*
X24636857Y-115576952D01*
X25255904Y-115148380D02*
X25255904Y-115386476D01*
X25017809Y-115291238D02*
X25255904Y-115386476D01*
X25494000Y-115291238D01*
X25113047Y-115576952D02*
X25255904Y-115386476D01*
X25398761Y-115576952D01*
X137160666Y-77148380D02*
X136827333Y-76672190D01*
X136589238Y-77148380D02*
X136589238Y-76148380D01*
X136970190Y-76148380D01*
X137065428Y-76196000D01*
X137113047Y-76243619D01*
X137160666Y-76338857D01*
X137160666Y-76481714D01*
X137113047Y-76576952D01*
X137065428Y-76624571D01*
X136970190Y-76672190D01*
X136589238Y-76672190D01*
X137589238Y-76624571D02*
X137922571Y-76624571D01*
X138065428Y-77148380D02*
X137589238Y-77148380D01*
X137589238Y-76148380D01*
X138065428Y-76148380D01*
X138827333Y-76624571D02*
X138494000Y-76624571D01*
X138494000Y-77148380D02*
X138494000Y-76148380D01*
X138970190Y-76148380D01*
X139494000Y-76148380D02*
X139494000Y-76386476D01*
X139255904Y-76291238D02*
X139494000Y-76386476D01*
X139732095Y-76291238D01*
X139351142Y-76576952D02*
X139494000Y-76386476D01*
X139636857Y-76576952D01*
X140255904Y-76148380D02*
X140255904Y-76386476D01*
X140017809Y-76291238D02*
X140255904Y-76386476D01*
X140494000Y-76291238D01*
X140113047Y-76576952D02*
X140255904Y-76386476D01*
X140398761Y-76576952D01*
X137160666Y-188148380D02*
X136827333Y-187672190D01*
X136589238Y-188148380D02*
X136589238Y-187148380D01*
X136970190Y-187148380D01*
X137065428Y-187196000D01*
X137113047Y-187243619D01*
X137160666Y-187338857D01*
X137160666Y-187481714D01*
X137113047Y-187576952D01*
X137065428Y-187624571D01*
X136970190Y-187672190D01*
X136589238Y-187672190D01*
X137589238Y-187624571D02*
X137922571Y-187624571D01*
X138065428Y-188148380D02*
X137589238Y-188148380D01*
X137589238Y-187148380D01*
X138065428Y-187148380D01*
X138827333Y-187624571D02*
X138494000Y-187624571D01*
X138494000Y-188148380D02*
X138494000Y-187148380D01*
X138970190Y-187148380D01*
X139494000Y-187148380D02*
X139494000Y-187386476D01*
X139255904Y-187291238D02*
X139494000Y-187386476D01*
X139732095Y-187291238D01*
X139351142Y-187576952D02*
X139494000Y-187386476D01*
X139636857Y-187576952D01*
X140255904Y-187148380D02*
X140255904Y-187386476D01*
X140017809Y-187291238D02*
X140255904Y-187386476D01*
X140494000Y-187291238D01*
X140113047Y-187576952D02*
X140255904Y-187386476D01*
X140398761Y-187576952D01*
X22160666Y-188148380D02*
X21827333Y-187672190D01*
X21589238Y-188148380D02*
X21589238Y-187148380D01*
X21970190Y-187148380D01*
X22065428Y-187196000D01*
X22113047Y-187243619D01*
X22160666Y-187338857D01*
X22160666Y-187481714D01*
X22113047Y-187576952D01*
X22065428Y-187624571D01*
X21970190Y-187672190D01*
X21589238Y-187672190D01*
X22589238Y-187624571D02*
X22922571Y-187624571D01*
X23065428Y-188148380D02*
X22589238Y-188148380D01*
X22589238Y-187148380D01*
X23065428Y-187148380D01*
X23827333Y-187624571D02*
X23494000Y-187624571D01*
X23494000Y-188148380D02*
X23494000Y-187148380D01*
X23970190Y-187148380D01*
X24494000Y-187148380D02*
X24494000Y-187386476D01*
X24255904Y-187291238D02*
X24494000Y-187386476D01*
X24732095Y-187291238D01*
X24351142Y-187576952D02*
X24494000Y-187386476D01*
X24636857Y-187576952D01*
X25255904Y-187148380D02*
X25255904Y-187386476D01*
X25017809Y-187291238D02*
X25255904Y-187386476D01*
X25494000Y-187291238D01*
X25113047Y-187576952D02*
X25255904Y-187386476D01*
X25398761Y-187576952D01*
G04 #@! TO.C,J79*
X43406476Y-22548380D02*
X43406476Y-23262666D01*
X43358857Y-23405523D01*
X43263619Y-23500761D01*
X43120761Y-23548380D01*
X43025523Y-23548380D01*
X43787428Y-22548380D02*
X44454095Y-22548380D01*
X44025523Y-23548380D01*
X44882666Y-23548380D02*
X45073142Y-23548380D01*
X45168380Y-23500761D01*
X45216000Y-23453142D01*
X45311238Y-23310285D01*
X45358857Y-23119809D01*
X45358857Y-22738857D01*
X45311238Y-22643619D01*
X45263619Y-22596000D01*
X45168380Y-22548380D01*
X44977904Y-22548380D01*
X44882666Y-22596000D01*
X44835047Y-22643619D01*
X44787428Y-22738857D01*
X44787428Y-22976952D01*
X44835047Y-23072190D01*
X44882666Y-23119809D01*
X44977904Y-23167428D01*
X45168380Y-23167428D01*
X45263619Y-23119809D01*
X45311238Y-23072190D01*
X45358857Y-22976952D01*
X40466000Y-14974571D02*
X40608857Y-15022190D01*
X40656476Y-15069809D01*
X40704095Y-15165047D01*
X40704095Y-15307904D01*
X40656476Y-15403142D01*
X40608857Y-15450761D01*
X40513619Y-15498380D01*
X40132666Y-15498380D01*
X40132666Y-14498380D01*
X40466000Y-14498380D01*
X40561238Y-14546000D01*
X40608857Y-14593619D01*
X40656476Y-14688857D01*
X40656476Y-14784095D01*
X40608857Y-14879333D01*
X40561238Y-14926952D01*
X40466000Y-14974571D01*
X40132666Y-14974571D01*
X41561238Y-15498380D02*
X41561238Y-14974571D01*
X41513619Y-14879333D01*
X41418380Y-14831714D01*
X41227904Y-14831714D01*
X41132666Y-14879333D01*
X41561238Y-15450761D02*
X41466000Y-15498380D01*
X41227904Y-15498380D01*
X41132666Y-15450761D01*
X41085047Y-15355523D01*
X41085047Y-15260285D01*
X41132666Y-15165047D01*
X41227904Y-15117428D01*
X41466000Y-15117428D01*
X41561238Y-15069809D01*
X41894571Y-14831714D02*
X42275523Y-14831714D01*
X42037428Y-14498380D02*
X42037428Y-15355523D01*
X42085047Y-15450761D01*
X42180285Y-15498380D01*
X42275523Y-15498380D01*
X42608857Y-15498380D02*
X42608857Y-14498380D01*
X42846952Y-14498380D01*
X42989809Y-14546000D01*
X43085047Y-14641238D01*
X43132666Y-14736476D01*
X43180285Y-14926952D01*
X43180285Y-15069809D01*
X43132666Y-15260285D01*
X43085047Y-15355523D01*
X42989809Y-15450761D01*
X42846952Y-15498380D01*
X42608857Y-15498380D01*
X43608857Y-15498380D02*
X43608857Y-14831714D01*
X43608857Y-14498380D02*
X43561238Y-14546000D01*
X43608857Y-14593619D01*
X43656476Y-14546000D01*
X43608857Y-14498380D01*
X43608857Y-14593619D01*
X44513619Y-14831714D02*
X44513619Y-15641238D01*
X44466000Y-15736476D01*
X44418380Y-15784095D01*
X44323142Y-15831714D01*
X44180285Y-15831714D01*
X44085047Y-15784095D01*
X44513619Y-15450761D02*
X44418380Y-15498380D01*
X44227904Y-15498380D01*
X44132666Y-15450761D01*
X44085047Y-15403142D01*
X44037428Y-15307904D01*
X44037428Y-15022190D01*
X44085047Y-14926952D01*
X44132666Y-14879333D01*
X44227904Y-14831714D01*
X44418380Y-14831714D01*
X44513619Y-14879333D01*
X44751714Y-15593619D02*
X45513619Y-15593619D01*
X45704095Y-15450761D02*
X45846952Y-15498380D01*
X46085047Y-15498380D01*
X46180285Y-15450761D01*
X46227904Y-15403142D01*
X46275523Y-15307904D01*
X46275523Y-15212666D01*
X46227904Y-15117428D01*
X46180285Y-15069809D01*
X46085047Y-15022190D01*
X45894571Y-14974571D01*
X45799333Y-14926952D01*
X45751714Y-14879333D01*
X45704095Y-14784095D01*
X45704095Y-14688857D01*
X45751714Y-14593619D01*
X45799333Y-14546000D01*
X45894571Y-14498380D01*
X46132666Y-14498380D01*
X46275523Y-14546000D01*
X47085047Y-15450761D02*
X46989809Y-15498380D01*
X46799333Y-15498380D01*
X46704095Y-15450761D01*
X46656476Y-15355523D01*
X46656476Y-14974571D01*
X46704095Y-14879333D01*
X46799333Y-14831714D01*
X46989809Y-14831714D01*
X47085047Y-14879333D01*
X47132666Y-14974571D01*
X47132666Y-15069809D01*
X46656476Y-15165047D01*
X47561238Y-14831714D02*
X47561238Y-15498380D01*
X47561238Y-14926952D02*
X47608857Y-14879333D01*
X47704095Y-14831714D01*
X47846952Y-14831714D01*
X47942190Y-14879333D01*
X47989809Y-14974571D01*
X47989809Y-15498380D01*
X48418380Y-15450761D02*
X48513619Y-15498380D01*
X48704095Y-15498380D01*
X48799333Y-15450761D01*
X48846952Y-15355523D01*
X48846952Y-15307904D01*
X48799333Y-15212666D01*
X48704095Y-15165047D01*
X48561238Y-15165047D01*
X48466000Y-15117428D01*
X48418380Y-15022190D01*
X48418380Y-14974571D01*
X48466000Y-14879333D01*
X48561238Y-14831714D01*
X48704095Y-14831714D01*
X48799333Y-14879333D01*
G04 #@! TD*
M02*
