G04 #@! TF.GenerationSoftware,KiCad,Pcbnew,(5.0.2)-1*
G04 #@! TF.CreationDate,2019-05-10T13:06:01+02:00*
G04 #@! TF.ProjectId,moc_main,6d6f635f-6d61-4696-9e2e-6b696361645f,rev?*
G04 #@! TF.SameCoordinates,Original*
G04 #@! TF.FileFunction,Soldermask,Top*
G04 #@! TF.FilePolarity,Negative*
%FSLAX46Y46*%
G04 Gerber Fmt 4.6, Leading zero omitted, Abs format (unit mm)*
G04 Created by KiCad (PCBNEW (5.0.2)-1) date 10.05.2019 13:06:01*
%MOMM*%
%LPD*%
G01*
G04 APERTURE LIST*
%ADD10C,0.100000*%
G04 APERTURE END LIST*
D10*
G36*
X306495405Y-115159974D02*
X307077767Y-115401196D01*
X307601884Y-115751400D01*
X308047600Y-116197116D01*
X308397804Y-116721233D01*
X308639026Y-117303595D01*
X308762000Y-117921826D01*
X308762000Y-118552174D01*
X308639026Y-119170405D01*
X308397804Y-119752767D01*
X308047600Y-120276884D01*
X307601884Y-120722600D01*
X307077767Y-121072804D01*
X306495405Y-121314026D01*
X305877174Y-121437000D01*
X305246826Y-121437000D01*
X304628595Y-121314026D01*
X304046233Y-121072804D01*
X303522116Y-120722600D01*
X303076400Y-120276884D01*
X302726196Y-119752767D01*
X302484974Y-119170405D01*
X302362000Y-118552174D01*
X302362000Y-117921826D01*
X302484974Y-117303595D01*
X302726196Y-116721233D01*
X303076400Y-116197116D01*
X303522116Y-115751400D01*
X304046233Y-115401196D01*
X304628595Y-115159974D01*
X305246826Y-115037000D01*
X305877174Y-115037000D01*
X306495405Y-115159974D01*
X306495405Y-115159974D01*
G37*
G36*
X188385405Y-115159974D02*
X188967767Y-115401196D01*
X189491884Y-115751400D01*
X189937600Y-116197116D01*
X190287804Y-116721233D01*
X190529026Y-117303595D01*
X190652000Y-117921826D01*
X190652000Y-118552174D01*
X190529026Y-119170405D01*
X190287804Y-119752767D01*
X189937600Y-120276884D01*
X189491884Y-120722600D01*
X188967767Y-121072804D01*
X188385405Y-121314026D01*
X187767174Y-121437000D01*
X187136826Y-121437000D01*
X186518595Y-121314026D01*
X185936233Y-121072804D01*
X185412116Y-120722600D01*
X184966400Y-120276884D01*
X184616196Y-119752767D01*
X184374974Y-119170405D01*
X184252000Y-118552174D01*
X184252000Y-117921826D01*
X184374974Y-117303595D01*
X184616196Y-116721233D01*
X184966400Y-116197116D01*
X185412116Y-115751400D01*
X185936233Y-115401196D01*
X186518595Y-115159974D01*
X187136826Y-115037000D01*
X187767174Y-115037000D01*
X188385405Y-115159974D01*
X188385405Y-115159974D01*
G37*
G36*
X21380405Y-115159974D02*
X21962767Y-115401196D01*
X22486884Y-115751400D01*
X22932600Y-116197116D01*
X23282804Y-116721233D01*
X23524026Y-117303595D01*
X23647000Y-117921826D01*
X23647000Y-118552174D01*
X23524026Y-119170405D01*
X23282804Y-119752767D01*
X22932600Y-120276884D01*
X22486884Y-120722600D01*
X21962767Y-121072804D01*
X21380405Y-121314026D01*
X20762174Y-121437000D01*
X20131826Y-121437000D01*
X19513595Y-121314026D01*
X18931233Y-121072804D01*
X18407116Y-120722600D01*
X17961400Y-120276884D01*
X17611196Y-119752767D01*
X17369974Y-119170405D01*
X17247000Y-118552174D01*
X17247000Y-117921826D01*
X17369974Y-117303595D01*
X17611196Y-116721233D01*
X17961400Y-116197116D01*
X18407116Y-115751400D01*
X18931233Y-115401196D01*
X19513595Y-115159974D01*
X20131826Y-115037000D01*
X20762174Y-115037000D01*
X21380405Y-115159974D01*
X21380405Y-115159974D01*
G37*
G36*
X256279764Y-110006402D02*
X256402445Y-110030805D01*
X256633571Y-110126541D01*
X256841581Y-110265529D01*
X257018471Y-110442419D01*
X257018473Y-110442422D01*
X257157459Y-110650429D01*
X257253195Y-110881555D01*
X257302000Y-111126916D01*
X257302000Y-111377084D01*
X257253195Y-111622445D01*
X257157459Y-111853571D01*
X257018471Y-112061581D01*
X256841581Y-112238471D01*
X256841578Y-112238473D01*
X256633571Y-112377459D01*
X256402445Y-112473195D01*
X256279764Y-112497598D01*
X256157086Y-112522000D01*
X255906914Y-112522000D01*
X255784236Y-112497598D01*
X255661555Y-112473195D01*
X255430429Y-112377459D01*
X255222422Y-112238473D01*
X255222419Y-112238471D01*
X255045529Y-112061581D01*
X254906541Y-111853571D01*
X254810805Y-111622445D01*
X254762000Y-111377084D01*
X254762000Y-111126916D01*
X254810805Y-110881555D01*
X254906541Y-110650429D01*
X255045527Y-110442422D01*
X255045529Y-110442419D01*
X255222419Y-110265529D01*
X255430429Y-110126541D01*
X255661555Y-110030805D01*
X255784236Y-110006402D01*
X255906914Y-109982000D01*
X256157086Y-109982000D01*
X256279764Y-110006402D01*
X256279764Y-110006402D01*
G37*
G36*
X263899764Y-110006402D02*
X264022445Y-110030805D01*
X264253571Y-110126541D01*
X264461581Y-110265529D01*
X264638471Y-110442419D01*
X264638473Y-110442422D01*
X264777459Y-110650429D01*
X264873195Y-110881555D01*
X264922000Y-111126916D01*
X264922000Y-111377084D01*
X264873195Y-111622445D01*
X264777459Y-111853571D01*
X264638471Y-112061581D01*
X264461581Y-112238471D01*
X264461578Y-112238473D01*
X264253571Y-112377459D01*
X264022445Y-112473195D01*
X263899764Y-112497598D01*
X263777086Y-112522000D01*
X263526914Y-112522000D01*
X263404236Y-112497598D01*
X263281555Y-112473195D01*
X263050429Y-112377459D01*
X262842422Y-112238473D01*
X262842419Y-112238471D01*
X262665529Y-112061581D01*
X262526541Y-111853571D01*
X262430805Y-111622445D01*
X262382000Y-111377084D01*
X262382000Y-111126916D01*
X262430805Y-110881555D01*
X262526541Y-110650429D01*
X262665527Y-110442422D01*
X262665529Y-110442419D01*
X262842419Y-110265529D01*
X263050429Y-110126541D01*
X263281555Y-110030805D01*
X263404236Y-110006402D01*
X263526914Y-109982000D01*
X263777086Y-109982000D01*
X263899764Y-110006402D01*
X263899764Y-110006402D01*
G37*
G36*
X248659764Y-110006402D02*
X248782445Y-110030805D01*
X249013571Y-110126541D01*
X249221581Y-110265529D01*
X249398471Y-110442419D01*
X249398473Y-110442422D01*
X249537459Y-110650429D01*
X249633195Y-110881555D01*
X249682000Y-111126916D01*
X249682000Y-111377084D01*
X249633195Y-111622445D01*
X249537459Y-111853571D01*
X249398471Y-112061581D01*
X249221581Y-112238471D01*
X249221578Y-112238473D01*
X249013571Y-112377459D01*
X248782445Y-112473195D01*
X248659764Y-112497598D01*
X248537086Y-112522000D01*
X248286914Y-112522000D01*
X248164236Y-112497598D01*
X248041555Y-112473195D01*
X247810429Y-112377459D01*
X247602422Y-112238473D01*
X247602419Y-112238471D01*
X247425529Y-112061581D01*
X247286541Y-111853571D01*
X247190805Y-111622445D01*
X247142000Y-111377084D01*
X247142000Y-111126916D01*
X247190805Y-110881555D01*
X247286541Y-110650429D01*
X247425527Y-110442422D01*
X247425529Y-110442419D01*
X247602419Y-110265529D01*
X247810429Y-110126541D01*
X248041555Y-110030805D01*
X248164236Y-110006402D01*
X248286914Y-109982000D01*
X248537086Y-109982000D01*
X248659764Y-110006402D01*
X248659764Y-110006402D01*
G37*
G36*
X210576645Y-107501533D02*
X210831121Y-107578728D01*
X211065648Y-107704085D01*
X211271212Y-107872787D01*
X211439915Y-108078351D01*
X211565272Y-108312878D01*
X211642467Y-108567354D01*
X211662000Y-108765679D01*
X211662000Y-109498320D01*
X211642467Y-109696645D01*
X211565272Y-109951122D01*
X211439915Y-110185649D01*
X211271213Y-110391213D01*
X211065649Y-110559915D01*
X210831122Y-110685272D01*
X210576646Y-110762467D01*
X210312000Y-110788532D01*
X210047355Y-110762467D01*
X209792879Y-110685272D01*
X209558352Y-110559915D01*
X209352788Y-110391213D01*
X209184085Y-110185649D01*
X209058728Y-109951122D01*
X208981533Y-109696646D01*
X208962000Y-109498321D01*
X208962000Y-108765680D01*
X208981533Y-108567355D01*
X209058728Y-108312879D01*
X209184085Y-108078352D01*
X209352787Y-107872788D01*
X209558351Y-107704085D01*
X209792878Y-107578728D01*
X210047354Y-107501533D01*
X210312000Y-107475468D01*
X210576645Y-107501533D01*
X210576645Y-107501533D01*
G37*
G36*
X214776645Y-107501533D02*
X215031121Y-107578728D01*
X215265648Y-107704085D01*
X215471212Y-107872787D01*
X215639915Y-108078351D01*
X215765272Y-108312878D01*
X215842467Y-108567354D01*
X215862000Y-108765679D01*
X215862000Y-109498320D01*
X215842467Y-109696645D01*
X215765272Y-109951122D01*
X215639915Y-110185649D01*
X215471213Y-110391213D01*
X215265649Y-110559915D01*
X215031122Y-110685272D01*
X214776646Y-110762467D01*
X214512000Y-110788532D01*
X214247355Y-110762467D01*
X213992879Y-110685272D01*
X213758352Y-110559915D01*
X213552788Y-110391213D01*
X213384085Y-110185649D01*
X213258728Y-109951122D01*
X213181533Y-109696646D01*
X213162000Y-109498321D01*
X213162000Y-108765680D01*
X213181533Y-108567355D01*
X213258728Y-108312879D01*
X213384085Y-108078352D01*
X213552787Y-107872788D01*
X213758351Y-107704085D01*
X213992878Y-107578728D01*
X214247354Y-107501533D01*
X214512000Y-107475468D01*
X214776645Y-107501533D01*
X214776645Y-107501533D01*
G37*
G36*
X130016646Y-107771533D02*
X130271122Y-107848728D01*
X130505649Y-107974085D01*
X130711213Y-108142787D01*
X130879915Y-108348351D01*
X131005272Y-108582878D01*
X131082467Y-108837354D01*
X131108532Y-109102000D01*
X131082467Y-109366646D01*
X131005272Y-109621122D01*
X130879915Y-109855649D01*
X130711213Y-110061213D01*
X130505649Y-110229915D01*
X130271122Y-110355272D01*
X130016646Y-110432467D01*
X129818321Y-110452000D01*
X129085679Y-110452000D01*
X128887354Y-110432467D01*
X128632878Y-110355272D01*
X128398351Y-110229915D01*
X128192787Y-110061213D01*
X128024085Y-109855649D01*
X127898728Y-109621122D01*
X127821533Y-109366646D01*
X127795468Y-109102000D01*
X127821533Y-108837354D01*
X127898728Y-108582878D01*
X128024085Y-108348351D01*
X128192787Y-108142787D01*
X128398351Y-107974085D01*
X128632878Y-107848728D01*
X128887354Y-107771533D01*
X129085679Y-107752000D01*
X129818321Y-107752000D01*
X130016646Y-107771533D01*
X130016646Y-107771533D01*
G37*
G36*
X54382637Y-107755439D02*
X54410313Y-107763835D01*
X54435821Y-107777470D01*
X54458181Y-107795819D01*
X54476530Y-107818179D01*
X54490165Y-107843687D01*
X54498561Y-107871363D01*
X54502000Y-107906287D01*
X54502000Y-110297713D01*
X54498561Y-110332637D01*
X54490165Y-110360313D01*
X54476530Y-110385821D01*
X54458181Y-110408181D01*
X54435821Y-110426530D01*
X54410313Y-110440165D01*
X54382637Y-110448561D01*
X54347713Y-110452000D01*
X51356287Y-110452000D01*
X51321363Y-110448561D01*
X51293687Y-110440165D01*
X51268179Y-110426530D01*
X51245819Y-110408181D01*
X51227470Y-110385821D01*
X51213835Y-110360313D01*
X51205439Y-110332637D01*
X51202000Y-110297713D01*
X51202000Y-107906287D01*
X51205439Y-107871363D01*
X51213835Y-107843687D01*
X51227470Y-107818179D01*
X51245819Y-107795819D01*
X51268179Y-107777470D01*
X51293687Y-107763835D01*
X51321363Y-107755439D01*
X51356287Y-107752000D01*
X54347713Y-107752000D01*
X54382637Y-107755439D01*
X54382637Y-107755439D01*
G37*
G36*
X94456646Y-107771533D02*
X94711122Y-107848728D01*
X94945649Y-107974085D01*
X95151213Y-108142787D01*
X95319915Y-108348351D01*
X95445272Y-108582878D01*
X95522467Y-108837354D01*
X95548532Y-109102000D01*
X95522467Y-109366646D01*
X95445272Y-109621122D01*
X95319915Y-109855649D01*
X95151213Y-110061213D01*
X94945649Y-110229915D01*
X94711122Y-110355272D01*
X94456646Y-110432467D01*
X94258321Y-110452000D01*
X93525679Y-110452000D01*
X93327354Y-110432467D01*
X93072878Y-110355272D01*
X92838351Y-110229915D01*
X92632787Y-110061213D01*
X92464085Y-109855649D01*
X92338728Y-109621122D01*
X92261533Y-109366646D01*
X92235468Y-109102000D01*
X92261533Y-108837354D01*
X92338728Y-108582878D01*
X92464085Y-108348351D01*
X92632787Y-108142787D01*
X92838351Y-107974085D01*
X93072878Y-107848728D01*
X93327354Y-107771533D01*
X93525679Y-107752000D01*
X94258321Y-107752000D01*
X94456646Y-107771533D01*
X94456646Y-107771533D01*
G37*
G36*
X89922637Y-107755439D02*
X89950313Y-107763835D01*
X89975821Y-107777470D01*
X89998181Y-107795819D01*
X90016530Y-107818179D01*
X90030165Y-107843687D01*
X90038561Y-107871363D01*
X90042000Y-107906287D01*
X90042000Y-110297713D01*
X90038561Y-110332637D01*
X90030165Y-110360313D01*
X90016530Y-110385821D01*
X89998181Y-110408181D01*
X89975821Y-110426530D01*
X89950313Y-110440165D01*
X89922637Y-110448561D01*
X89887713Y-110452000D01*
X86896287Y-110452000D01*
X86861363Y-110448561D01*
X86833687Y-110440165D01*
X86808179Y-110426530D01*
X86785819Y-110408181D01*
X86767470Y-110385821D01*
X86753835Y-110360313D01*
X86745439Y-110332637D01*
X86742000Y-110297713D01*
X86742000Y-107906287D01*
X86745439Y-107871363D01*
X86753835Y-107843687D01*
X86767470Y-107818179D01*
X86785819Y-107795819D01*
X86808179Y-107777470D01*
X86833687Y-107763835D01*
X86861363Y-107755439D01*
X86896287Y-107752000D01*
X89887713Y-107752000D01*
X89922637Y-107755439D01*
X89922637Y-107755439D01*
G37*
G36*
X125482637Y-107755439D02*
X125510313Y-107763835D01*
X125535821Y-107777470D01*
X125558181Y-107795819D01*
X125576530Y-107818179D01*
X125590165Y-107843687D01*
X125598561Y-107871363D01*
X125602000Y-107906287D01*
X125602000Y-110297713D01*
X125598561Y-110332637D01*
X125590165Y-110360313D01*
X125576530Y-110385821D01*
X125558181Y-110408181D01*
X125535821Y-110426530D01*
X125510313Y-110440165D01*
X125482637Y-110448561D01*
X125447713Y-110452000D01*
X122456287Y-110452000D01*
X122421363Y-110448561D01*
X122393687Y-110440165D01*
X122368179Y-110426530D01*
X122345819Y-110408181D01*
X122327470Y-110385821D01*
X122313835Y-110360313D01*
X122305439Y-110332637D01*
X122302000Y-110297713D01*
X122302000Y-107906287D01*
X122305439Y-107871363D01*
X122313835Y-107843687D01*
X122327470Y-107818179D01*
X122345819Y-107795819D01*
X122368179Y-107777470D01*
X122393687Y-107763835D01*
X122421363Y-107755439D01*
X122456287Y-107752000D01*
X125447713Y-107752000D01*
X125482637Y-107755439D01*
X125482637Y-107755439D01*
G37*
G36*
X161042637Y-107755439D02*
X161070313Y-107763835D01*
X161095821Y-107777470D01*
X161118181Y-107795819D01*
X161136530Y-107818179D01*
X161150165Y-107843687D01*
X161158561Y-107871363D01*
X161162000Y-107906287D01*
X161162000Y-110297713D01*
X161158561Y-110332637D01*
X161150165Y-110360313D01*
X161136530Y-110385821D01*
X161118181Y-110408181D01*
X161095821Y-110426530D01*
X161070313Y-110440165D01*
X161042637Y-110448561D01*
X161007713Y-110452000D01*
X158016287Y-110452000D01*
X157981363Y-110448561D01*
X157953687Y-110440165D01*
X157928179Y-110426530D01*
X157905819Y-110408181D01*
X157887470Y-110385821D01*
X157873835Y-110360313D01*
X157865439Y-110332637D01*
X157862000Y-110297713D01*
X157862000Y-107906287D01*
X157865439Y-107871363D01*
X157873835Y-107843687D01*
X157887470Y-107818179D01*
X157905819Y-107795819D01*
X157928179Y-107777470D01*
X157953687Y-107763835D01*
X157981363Y-107755439D01*
X158016287Y-107752000D01*
X161007713Y-107752000D01*
X161042637Y-107755439D01*
X161042637Y-107755439D01*
G37*
G36*
X165576646Y-107771533D02*
X165831122Y-107848728D01*
X166065649Y-107974085D01*
X166271213Y-108142787D01*
X166439915Y-108348351D01*
X166565272Y-108582878D01*
X166642467Y-108837354D01*
X166668532Y-109102000D01*
X166642467Y-109366646D01*
X166565272Y-109621122D01*
X166439915Y-109855649D01*
X166271213Y-110061213D01*
X166065649Y-110229915D01*
X165831122Y-110355272D01*
X165576646Y-110432467D01*
X165378321Y-110452000D01*
X164645679Y-110452000D01*
X164447354Y-110432467D01*
X164192878Y-110355272D01*
X163958351Y-110229915D01*
X163752787Y-110061213D01*
X163584085Y-109855649D01*
X163458728Y-109621122D01*
X163381533Y-109366646D01*
X163355468Y-109102000D01*
X163381533Y-108837354D01*
X163458728Y-108582878D01*
X163584085Y-108348351D01*
X163752787Y-108142787D01*
X163958351Y-107974085D01*
X164192878Y-107848728D01*
X164447354Y-107771533D01*
X164645679Y-107752000D01*
X165378321Y-107752000D01*
X165576646Y-107771533D01*
X165576646Y-107771533D01*
G37*
G36*
X58916646Y-107771533D02*
X59171122Y-107848728D01*
X59405649Y-107974085D01*
X59611213Y-108142787D01*
X59779915Y-108348351D01*
X59905272Y-108582878D01*
X59982467Y-108837354D01*
X60008532Y-109102000D01*
X59982467Y-109366646D01*
X59905272Y-109621122D01*
X59779915Y-109855649D01*
X59611213Y-110061213D01*
X59405649Y-110229915D01*
X59171122Y-110355272D01*
X58916646Y-110432467D01*
X58718321Y-110452000D01*
X57985679Y-110452000D01*
X57787354Y-110432467D01*
X57532878Y-110355272D01*
X57298351Y-110229915D01*
X57092787Y-110061213D01*
X56924085Y-109855649D01*
X56798728Y-109621122D01*
X56721533Y-109366646D01*
X56695468Y-109102000D01*
X56721533Y-108837354D01*
X56798728Y-108582878D01*
X56924085Y-108348351D01*
X57092787Y-108142787D01*
X57298351Y-107974085D01*
X57532878Y-107848728D01*
X57787354Y-107771533D01*
X57985679Y-107752000D01*
X58718321Y-107752000D01*
X58916646Y-107771533D01*
X58916646Y-107771533D01*
G37*
G36*
X109025352Y-106672743D02*
X109170941Y-106733048D01*
X109301973Y-106820601D01*
X109413399Y-106932027D01*
X109500952Y-107063059D01*
X109561257Y-107208648D01*
X109592000Y-107363205D01*
X109592000Y-107520795D01*
X109561257Y-107675352D01*
X109500952Y-107820941D01*
X109413399Y-107951973D01*
X109301973Y-108063399D01*
X109170941Y-108150952D01*
X109025352Y-108211257D01*
X108870795Y-108242000D01*
X108713205Y-108242000D01*
X108558648Y-108211257D01*
X108413059Y-108150952D01*
X108282027Y-108063399D01*
X108170601Y-107951973D01*
X108083048Y-107820941D01*
X108022743Y-107675352D01*
X107992000Y-107520795D01*
X107992000Y-107363205D01*
X108022743Y-107208648D01*
X108083048Y-107063059D01*
X108170601Y-106932027D01*
X108282027Y-106820601D01*
X108413059Y-106733048D01*
X108558648Y-106672743D01*
X108713205Y-106642000D01*
X108870795Y-106642000D01*
X109025352Y-106672743D01*
X109025352Y-106672743D01*
G37*
G36*
X42905352Y-106672743D02*
X43050941Y-106733048D01*
X43181973Y-106820601D01*
X43293399Y-106932027D01*
X43380952Y-107063059D01*
X43441257Y-107208648D01*
X43472000Y-107363205D01*
X43472000Y-107520795D01*
X43441257Y-107675352D01*
X43380952Y-107820941D01*
X43293399Y-107951973D01*
X43181973Y-108063399D01*
X43050941Y-108150952D01*
X42905352Y-108211257D01*
X42750795Y-108242000D01*
X42593205Y-108242000D01*
X42438648Y-108211257D01*
X42293059Y-108150952D01*
X42162027Y-108063399D01*
X42050601Y-107951973D01*
X41963048Y-107820941D01*
X41902743Y-107675352D01*
X41872000Y-107520795D01*
X41872000Y-107363205D01*
X41902743Y-107208648D01*
X41963048Y-107063059D01*
X42050601Y-106932027D01*
X42162027Y-106820601D01*
X42293059Y-106733048D01*
X42438648Y-106672743D01*
X42593205Y-106642000D01*
X42750795Y-106642000D01*
X42905352Y-106672743D01*
X42905352Y-106672743D01*
G37*
G36*
X37905352Y-106672743D02*
X38050941Y-106733048D01*
X38181973Y-106820601D01*
X38293399Y-106932027D01*
X38380952Y-107063059D01*
X38441257Y-107208648D01*
X38472000Y-107363205D01*
X38472000Y-107520795D01*
X38441257Y-107675352D01*
X38380952Y-107820941D01*
X38293399Y-107951973D01*
X38181973Y-108063399D01*
X38050941Y-108150952D01*
X37905352Y-108211257D01*
X37750795Y-108242000D01*
X37593205Y-108242000D01*
X37438648Y-108211257D01*
X37293059Y-108150952D01*
X37162027Y-108063399D01*
X37050601Y-107951973D01*
X36963048Y-107820941D01*
X36902743Y-107675352D01*
X36872000Y-107520795D01*
X36872000Y-107363205D01*
X36902743Y-107208648D01*
X36963048Y-107063059D01*
X37050601Y-106932027D01*
X37162027Y-106820601D01*
X37293059Y-106733048D01*
X37438648Y-106672743D01*
X37593205Y-106642000D01*
X37750795Y-106642000D01*
X37905352Y-106672743D01*
X37905352Y-106672743D01*
G37*
G36*
X73465352Y-106672743D02*
X73610941Y-106733048D01*
X73741973Y-106820601D01*
X73853399Y-106932027D01*
X73940952Y-107063059D01*
X74001257Y-107208648D01*
X74032000Y-107363205D01*
X74032000Y-107520795D01*
X74001257Y-107675352D01*
X73940952Y-107820941D01*
X73853399Y-107951973D01*
X73741973Y-108063399D01*
X73610941Y-108150952D01*
X73465352Y-108211257D01*
X73310795Y-108242000D01*
X73153205Y-108242000D01*
X72998648Y-108211257D01*
X72853059Y-108150952D01*
X72722027Y-108063399D01*
X72610601Y-107951973D01*
X72523048Y-107820941D01*
X72462743Y-107675352D01*
X72432000Y-107520795D01*
X72432000Y-107363205D01*
X72462743Y-107208648D01*
X72523048Y-107063059D01*
X72610601Y-106932027D01*
X72722027Y-106820601D01*
X72853059Y-106733048D01*
X72998648Y-106672743D01*
X73153205Y-106642000D01*
X73310795Y-106642000D01*
X73465352Y-106672743D01*
X73465352Y-106672743D01*
G37*
G36*
X78465352Y-106672743D02*
X78610941Y-106733048D01*
X78741973Y-106820601D01*
X78853399Y-106932027D01*
X78940952Y-107063059D01*
X79001257Y-107208648D01*
X79032000Y-107363205D01*
X79032000Y-107520795D01*
X79001257Y-107675352D01*
X78940952Y-107820941D01*
X78853399Y-107951973D01*
X78741973Y-108063399D01*
X78610941Y-108150952D01*
X78465352Y-108211257D01*
X78310795Y-108242000D01*
X78153205Y-108242000D01*
X77998648Y-108211257D01*
X77853059Y-108150952D01*
X77722027Y-108063399D01*
X77610601Y-107951973D01*
X77523048Y-107820941D01*
X77462743Y-107675352D01*
X77432000Y-107520795D01*
X77432000Y-107363205D01*
X77462743Y-107208648D01*
X77523048Y-107063059D01*
X77610601Y-106932027D01*
X77722027Y-106820601D01*
X77853059Y-106733048D01*
X77998648Y-106672743D01*
X78153205Y-106642000D01*
X78310795Y-106642000D01*
X78465352Y-106672743D01*
X78465352Y-106672743D01*
G37*
G36*
X114025352Y-106672743D02*
X114170941Y-106733048D01*
X114301973Y-106820601D01*
X114413399Y-106932027D01*
X114500952Y-107063059D01*
X114561257Y-107208648D01*
X114592000Y-107363205D01*
X114592000Y-107520795D01*
X114561257Y-107675352D01*
X114500952Y-107820941D01*
X114413399Y-107951973D01*
X114301973Y-108063399D01*
X114170941Y-108150952D01*
X114025352Y-108211257D01*
X113870795Y-108242000D01*
X113713205Y-108242000D01*
X113558648Y-108211257D01*
X113413059Y-108150952D01*
X113282027Y-108063399D01*
X113170601Y-107951973D01*
X113083048Y-107820941D01*
X113022743Y-107675352D01*
X112992000Y-107520795D01*
X112992000Y-107363205D01*
X113022743Y-107208648D01*
X113083048Y-107063059D01*
X113170601Y-106932027D01*
X113282027Y-106820601D01*
X113413059Y-106733048D01*
X113558648Y-106672743D01*
X113713205Y-106642000D01*
X113870795Y-106642000D01*
X114025352Y-106672743D01*
X114025352Y-106672743D01*
G37*
G36*
X144585352Y-106672743D02*
X144730941Y-106733048D01*
X144861973Y-106820601D01*
X144973399Y-106932027D01*
X145060952Y-107063059D01*
X145121257Y-107208648D01*
X145152000Y-107363205D01*
X145152000Y-107520795D01*
X145121257Y-107675352D01*
X145060952Y-107820941D01*
X144973399Y-107951973D01*
X144861973Y-108063399D01*
X144730941Y-108150952D01*
X144585352Y-108211257D01*
X144430795Y-108242000D01*
X144273205Y-108242000D01*
X144118648Y-108211257D01*
X143973059Y-108150952D01*
X143842027Y-108063399D01*
X143730601Y-107951973D01*
X143643048Y-107820941D01*
X143582743Y-107675352D01*
X143552000Y-107520795D01*
X143552000Y-107363205D01*
X143582743Y-107208648D01*
X143643048Y-107063059D01*
X143730601Y-106932027D01*
X143842027Y-106820601D01*
X143973059Y-106733048D01*
X144118648Y-106672743D01*
X144273205Y-106642000D01*
X144430795Y-106642000D01*
X144585352Y-106672743D01*
X144585352Y-106672743D01*
G37*
G36*
X149585352Y-106672743D02*
X149730941Y-106733048D01*
X149861973Y-106820601D01*
X149973399Y-106932027D01*
X150060952Y-107063059D01*
X150121257Y-107208648D01*
X150152000Y-107363205D01*
X150152000Y-107520795D01*
X150121257Y-107675352D01*
X150060952Y-107820941D01*
X149973399Y-107951973D01*
X149861973Y-108063399D01*
X149730941Y-108150952D01*
X149585352Y-108211257D01*
X149430795Y-108242000D01*
X149273205Y-108242000D01*
X149118648Y-108211257D01*
X148973059Y-108150952D01*
X148842027Y-108063399D01*
X148730601Y-107951973D01*
X148643048Y-107820941D01*
X148582743Y-107675352D01*
X148552000Y-107520795D01*
X148552000Y-107363205D01*
X148582743Y-107208648D01*
X148643048Y-107063059D01*
X148730601Y-106932027D01*
X148842027Y-106820601D01*
X148973059Y-106733048D01*
X149118648Y-106672743D01*
X149273205Y-106642000D01*
X149430795Y-106642000D01*
X149585352Y-106672743D01*
X149585352Y-106672743D01*
G37*
G36*
X58916646Y-103571533D02*
X59171122Y-103648728D01*
X59405649Y-103774085D01*
X59611213Y-103942787D01*
X59779915Y-104148351D01*
X59905272Y-104382878D01*
X59982467Y-104637354D01*
X60008532Y-104902000D01*
X59982467Y-105166646D01*
X59905272Y-105421122D01*
X59779915Y-105655649D01*
X59611213Y-105861213D01*
X59405649Y-106029915D01*
X59171122Y-106155272D01*
X58916646Y-106232467D01*
X58718321Y-106252000D01*
X57985679Y-106252000D01*
X57787354Y-106232467D01*
X57532878Y-106155272D01*
X57298351Y-106029915D01*
X57092787Y-105861213D01*
X56924085Y-105655649D01*
X56798728Y-105421122D01*
X56721533Y-105166646D01*
X56695468Y-104902000D01*
X56721533Y-104637354D01*
X56798728Y-104382878D01*
X56924085Y-104148351D01*
X57092787Y-103942787D01*
X57298351Y-103774085D01*
X57532878Y-103648728D01*
X57787354Y-103571533D01*
X57985679Y-103552000D01*
X58718321Y-103552000D01*
X58916646Y-103571533D01*
X58916646Y-103571533D01*
G37*
G36*
X88956646Y-103571533D02*
X89211122Y-103648728D01*
X89445649Y-103774085D01*
X89651213Y-103942787D01*
X89819915Y-104148351D01*
X89945272Y-104382878D01*
X90022467Y-104637354D01*
X90048532Y-104902000D01*
X90022467Y-105166646D01*
X89945272Y-105421122D01*
X89819915Y-105655649D01*
X89651213Y-105861213D01*
X89445649Y-106029915D01*
X89211122Y-106155272D01*
X88956646Y-106232467D01*
X88758321Y-106252000D01*
X88025679Y-106252000D01*
X87827354Y-106232467D01*
X87572878Y-106155272D01*
X87338351Y-106029915D01*
X87132787Y-105861213D01*
X86964085Y-105655649D01*
X86838728Y-105421122D01*
X86761533Y-105166646D01*
X86735468Y-104902000D01*
X86761533Y-104637354D01*
X86838728Y-104382878D01*
X86964085Y-104148351D01*
X87132787Y-103942787D01*
X87338351Y-103774085D01*
X87572878Y-103648728D01*
X87827354Y-103571533D01*
X88025679Y-103552000D01*
X88758321Y-103552000D01*
X88956646Y-103571533D01*
X88956646Y-103571533D01*
G37*
G36*
X94456646Y-103571533D02*
X94711122Y-103648728D01*
X94945649Y-103774085D01*
X95151213Y-103942787D01*
X95319915Y-104148351D01*
X95445272Y-104382878D01*
X95522467Y-104637354D01*
X95548532Y-104902000D01*
X95522467Y-105166646D01*
X95445272Y-105421122D01*
X95319915Y-105655649D01*
X95151213Y-105861213D01*
X94945649Y-106029915D01*
X94711122Y-106155272D01*
X94456646Y-106232467D01*
X94258321Y-106252000D01*
X93525679Y-106252000D01*
X93327354Y-106232467D01*
X93072878Y-106155272D01*
X92838351Y-106029915D01*
X92632787Y-105861213D01*
X92464085Y-105655649D01*
X92338728Y-105421122D01*
X92261533Y-105166646D01*
X92235468Y-104902000D01*
X92261533Y-104637354D01*
X92338728Y-104382878D01*
X92464085Y-104148351D01*
X92632787Y-103942787D01*
X92838351Y-103774085D01*
X93072878Y-103648728D01*
X93327354Y-103571533D01*
X93525679Y-103552000D01*
X94258321Y-103552000D01*
X94456646Y-103571533D01*
X94456646Y-103571533D01*
G37*
G36*
X53416646Y-103571533D02*
X53671122Y-103648728D01*
X53905649Y-103774085D01*
X54111213Y-103942787D01*
X54279915Y-104148351D01*
X54405272Y-104382878D01*
X54482467Y-104637354D01*
X54508532Y-104902000D01*
X54482467Y-105166646D01*
X54405272Y-105421122D01*
X54279915Y-105655649D01*
X54111213Y-105861213D01*
X53905649Y-106029915D01*
X53671122Y-106155272D01*
X53416646Y-106232467D01*
X53218321Y-106252000D01*
X52485679Y-106252000D01*
X52287354Y-106232467D01*
X52032878Y-106155272D01*
X51798351Y-106029915D01*
X51592787Y-105861213D01*
X51424085Y-105655649D01*
X51298728Y-105421122D01*
X51221533Y-105166646D01*
X51195468Y-104902000D01*
X51221533Y-104637354D01*
X51298728Y-104382878D01*
X51424085Y-104148351D01*
X51592787Y-103942787D01*
X51798351Y-103774085D01*
X52032878Y-103648728D01*
X52287354Y-103571533D01*
X52485679Y-103552000D01*
X53218321Y-103552000D01*
X53416646Y-103571533D01*
X53416646Y-103571533D01*
G37*
G36*
X124516646Y-103571533D02*
X124771122Y-103648728D01*
X125005649Y-103774085D01*
X125211213Y-103942787D01*
X125379915Y-104148351D01*
X125505272Y-104382878D01*
X125582467Y-104637354D01*
X125608532Y-104902000D01*
X125582467Y-105166646D01*
X125505272Y-105421122D01*
X125379915Y-105655649D01*
X125211213Y-105861213D01*
X125005649Y-106029915D01*
X124771122Y-106155272D01*
X124516646Y-106232467D01*
X124318321Y-106252000D01*
X123585679Y-106252000D01*
X123387354Y-106232467D01*
X123132878Y-106155272D01*
X122898351Y-106029915D01*
X122692787Y-105861213D01*
X122524085Y-105655649D01*
X122398728Y-105421122D01*
X122321533Y-105166646D01*
X122295468Y-104902000D01*
X122321533Y-104637354D01*
X122398728Y-104382878D01*
X122524085Y-104148351D01*
X122692787Y-103942787D01*
X122898351Y-103774085D01*
X123132878Y-103648728D01*
X123387354Y-103571533D01*
X123585679Y-103552000D01*
X124318321Y-103552000D01*
X124516646Y-103571533D01*
X124516646Y-103571533D01*
G37*
G36*
X130016646Y-103571533D02*
X130271122Y-103648728D01*
X130505649Y-103774085D01*
X130711213Y-103942787D01*
X130879915Y-104148351D01*
X131005272Y-104382878D01*
X131082467Y-104637354D01*
X131108532Y-104902000D01*
X131082467Y-105166646D01*
X131005272Y-105421122D01*
X130879915Y-105655649D01*
X130711213Y-105861213D01*
X130505649Y-106029915D01*
X130271122Y-106155272D01*
X130016646Y-106232467D01*
X129818321Y-106252000D01*
X129085679Y-106252000D01*
X128887354Y-106232467D01*
X128632878Y-106155272D01*
X128398351Y-106029915D01*
X128192787Y-105861213D01*
X128024085Y-105655649D01*
X127898728Y-105421122D01*
X127821533Y-105166646D01*
X127795468Y-104902000D01*
X127821533Y-104637354D01*
X127898728Y-104382878D01*
X128024085Y-104148351D01*
X128192787Y-103942787D01*
X128398351Y-103774085D01*
X128632878Y-103648728D01*
X128887354Y-103571533D01*
X129085679Y-103552000D01*
X129818321Y-103552000D01*
X130016646Y-103571533D01*
X130016646Y-103571533D01*
G37*
G36*
X165576646Y-103571533D02*
X165831122Y-103648728D01*
X166065649Y-103774085D01*
X166271213Y-103942787D01*
X166439915Y-104148351D01*
X166565272Y-104382878D01*
X166642467Y-104637354D01*
X166668532Y-104902000D01*
X166642467Y-105166646D01*
X166565272Y-105421122D01*
X166439915Y-105655649D01*
X166271213Y-105861213D01*
X166065649Y-106029915D01*
X165831122Y-106155272D01*
X165576646Y-106232467D01*
X165378321Y-106252000D01*
X164645679Y-106252000D01*
X164447354Y-106232467D01*
X164192878Y-106155272D01*
X163958351Y-106029915D01*
X163752787Y-105861213D01*
X163584085Y-105655649D01*
X163458728Y-105421122D01*
X163381533Y-105166646D01*
X163355468Y-104902000D01*
X163381533Y-104637354D01*
X163458728Y-104382878D01*
X163584085Y-104148351D01*
X163752787Y-103942787D01*
X163958351Y-103774085D01*
X164192878Y-103648728D01*
X164447354Y-103571533D01*
X164645679Y-103552000D01*
X165378321Y-103552000D01*
X165576646Y-103571533D01*
X165576646Y-103571533D01*
G37*
G36*
X160076646Y-103571533D02*
X160331122Y-103648728D01*
X160565649Y-103774085D01*
X160771213Y-103942787D01*
X160939915Y-104148351D01*
X161065272Y-104382878D01*
X161142467Y-104637354D01*
X161168532Y-104902000D01*
X161142467Y-105166646D01*
X161065272Y-105421122D01*
X160939915Y-105655649D01*
X160771213Y-105861213D01*
X160565649Y-106029915D01*
X160331122Y-106155272D01*
X160076646Y-106232467D01*
X159878321Y-106252000D01*
X159145679Y-106252000D01*
X158947354Y-106232467D01*
X158692878Y-106155272D01*
X158458351Y-106029915D01*
X158252787Y-105861213D01*
X158084085Y-105655649D01*
X157958728Y-105421122D01*
X157881533Y-105166646D01*
X157855468Y-104902000D01*
X157881533Y-104637354D01*
X157958728Y-104382878D01*
X158084085Y-104148351D01*
X158252787Y-103942787D01*
X158458351Y-103774085D01*
X158692878Y-103648728D01*
X158947354Y-103571533D01*
X159145679Y-103552000D01*
X159878321Y-103552000D01*
X160076646Y-103571533D01*
X160076646Y-103571533D01*
G37*
G36*
X214776645Y-102001533D02*
X215031121Y-102078728D01*
X215265648Y-102204085D01*
X215471212Y-102372787D01*
X215639915Y-102578351D01*
X215765272Y-102812878D01*
X215842467Y-103067354D01*
X215862000Y-103265679D01*
X215862000Y-103998320D01*
X215842467Y-104196645D01*
X215765272Y-104451122D01*
X215639915Y-104685649D01*
X215471213Y-104891213D01*
X215265649Y-105059915D01*
X215031122Y-105185272D01*
X214776646Y-105262467D01*
X214512000Y-105288532D01*
X214247355Y-105262467D01*
X213992879Y-105185272D01*
X213758352Y-105059915D01*
X213552788Y-104891213D01*
X213384085Y-104685649D01*
X213258728Y-104451122D01*
X213181533Y-104196646D01*
X213162000Y-103998321D01*
X213162000Y-103265680D01*
X213181533Y-103067355D01*
X213258728Y-102812879D01*
X213384085Y-102578352D01*
X213552787Y-102372788D01*
X213758351Y-102204085D01*
X213992878Y-102078728D01*
X214247354Y-102001533D01*
X214512000Y-101975468D01*
X214776645Y-102001533D01*
X214776645Y-102001533D01*
G37*
G36*
X211542637Y-101985439D02*
X211570313Y-101993835D01*
X211595821Y-102007470D01*
X211618181Y-102025819D01*
X211636530Y-102048179D01*
X211650165Y-102073687D01*
X211658561Y-102101363D01*
X211662000Y-102136287D01*
X211662000Y-105127713D01*
X211658561Y-105162637D01*
X211650165Y-105190313D01*
X211636530Y-105215821D01*
X211618181Y-105238181D01*
X211595821Y-105256530D01*
X211570313Y-105270165D01*
X211542637Y-105278561D01*
X211507713Y-105282000D01*
X209116287Y-105282000D01*
X209081363Y-105278561D01*
X209053687Y-105270165D01*
X209028179Y-105256530D01*
X209005819Y-105238181D01*
X208987470Y-105215821D01*
X208973835Y-105190313D01*
X208965439Y-105162637D01*
X208962000Y-105127713D01*
X208962000Y-102136287D01*
X208965439Y-102101363D01*
X208973835Y-102073687D01*
X208987470Y-102048179D01*
X209005819Y-102025819D01*
X209028179Y-102007470D01*
X209053687Y-101993835D01*
X209081363Y-101985439D01*
X209116287Y-101982000D01*
X211507713Y-101982000D01*
X211542637Y-101985439D01*
X211542637Y-101985439D01*
G37*
G36*
X283597637Y-99745439D02*
X283625313Y-99753835D01*
X283650821Y-99767470D01*
X283673181Y-99785819D01*
X283691530Y-99808179D01*
X283705165Y-99833687D01*
X283713561Y-99861363D01*
X283717000Y-99896287D01*
X283717000Y-102287713D01*
X283713561Y-102322637D01*
X283705165Y-102350313D01*
X283691530Y-102375821D01*
X283673181Y-102398181D01*
X283650821Y-102416530D01*
X283625313Y-102430165D01*
X283597637Y-102438561D01*
X283562713Y-102442000D01*
X280571287Y-102442000D01*
X280536363Y-102438561D01*
X280508687Y-102430165D01*
X280483179Y-102416530D01*
X280460819Y-102398181D01*
X280442470Y-102375821D01*
X280428835Y-102350313D01*
X280420439Y-102322637D01*
X280417000Y-102287713D01*
X280417000Y-99896287D01*
X280420439Y-99861363D01*
X280428835Y-99833687D01*
X280442470Y-99808179D01*
X280460819Y-99785819D01*
X280483179Y-99767470D01*
X280508687Y-99753835D01*
X280536363Y-99745439D01*
X280571287Y-99742000D01*
X283562713Y-99742000D01*
X283597637Y-99745439D01*
X283597637Y-99745439D01*
G37*
G36*
X288131646Y-99761533D02*
X288386122Y-99838728D01*
X288620649Y-99964085D01*
X288826213Y-100132787D01*
X288994915Y-100338351D01*
X289120272Y-100572878D01*
X289197467Y-100827354D01*
X289223532Y-101092000D01*
X289197467Y-101356646D01*
X289120272Y-101611122D01*
X288994915Y-101845649D01*
X288826213Y-102051213D01*
X288620649Y-102219915D01*
X288386122Y-102345272D01*
X288131646Y-102422467D01*
X287933321Y-102442000D01*
X287200679Y-102442000D01*
X287002354Y-102422467D01*
X286747878Y-102345272D01*
X286513351Y-102219915D01*
X286307787Y-102051213D01*
X286139085Y-101845649D01*
X286013728Y-101611122D01*
X285936533Y-101356646D01*
X285910468Y-101092000D01*
X285936533Y-100827354D01*
X286013728Y-100572878D01*
X286139085Y-100338351D01*
X286307787Y-100132787D01*
X286513351Y-99964085D01*
X286747878Y-99838728D01*
X287002354Y-99761533D01*
X287200679Y-99742000D01*
X287933321Y-99742000D01*
X288131646Y-99761533D01*
X288131646Y-99761533D01*
G37*
G36*
X50852000Y-98892000D02*
X44852000Y-98892000D01*
X44852000Y-92892000D01*
X50852000Y-92892000D01*
X50852000Y-98892000D01*
X50852000Y-98892000D01*
G37*
G36*
X121872000Y-98892000D02*
X115872000Y-98892000D01*
X115872000Y-92892000D01*
X121872000Y-92892000D01*
X121872000Y-98892000D01*
X121872000Y-98892000D01*
G37*
G36*
X157432000Y-98892000D02*
X151432000Y-98892000D01*
X151432000Y-92892000D01*
X157432000Y-92892000D01*
X157432000Y-98892000D01*
X157432000Y-98892000D01*
G37*
G36*
X86312000Y-98892000D02*
X80312000Y-98892000D01*
X80312000Y-92892000D01*
X86312000Y-92892000D01*
X86312000Y-98892000D01*
X86312000Y-98892000D01*
G37*
G36*
X283597637Y-89585439D02*
X283625313Y-89593835D01*
X283650821Y-89607470D01*
X283673181Y-89625819D01*
X283691530Y-89648179D01*
X283705165Y-89673687D01*
X283713561Y-89701363D01*
X283717000Y-89736287D01*
X283717000Y-92127713D01*
X283713561Y-92162637D01*
X283705165Y-92190313D01*
X283691530Y-92215821D01*
X283673181Y-92238181D01*
X283650821Y-92256530D01*
X283625313Y-92270165D01*
X283597637Y-92278561D01*
X283562713Y-92282000D01*
X280571287Y-92282000D01*
X280536363Y-92278561D01*
X280508687Y-92270165D01*
X280483179Y-92256530D01*
X280460819Y-92238181D01*
X280442470Y-92215821D01*
X280428835Y-92190313D01*
X280420439Y-92162637D01*
X280417000Y-92127713D01*
X280417000Y-89736287D01*
X280420439Y-89701363D01*
X280428835Y-89673687D01*
X280442470Y-89648179D01*
X280460819Y-89625819D01*
X280483179Y-89607470D01*
X280508687Y-89593835D01*
X280536363Y-89585439D01*
X280571287Y-89582000D01*
X283562713Y-89582000D01*
X283597637Y-89585439D01*
X283597637Y-89585439D01*
G37*
G36*
X288131646Y-89601533D02*
X288386122Y-89678728D01*
X288620649Y-89804085D01*
X288826213Y-89972787D01*
X288994915Y-90178351D01*
X289120272Y-90412878D01*
X289197467Y-90667354D01*
X289223532Y-90932000D01*
X289197467Y-91196646D01*
X289120272Y-91451122D01*
X288994915Y-91685649D01*
X288826213Y-91891213D01*
X288620649Y-92059915D01*
X288386122Y-92185272D01*
X288131646Y-92262467D01*
X287933321Y-92282000D01*
X287200679Y-92282000D01*
X287002354Y-92262467D01*
X286747878Y-92185272D01*
X286513351Y-92059915D01*
X286307787Y-91891213D01*
X286139085Y-91685649D01*
X286013728Y-91451122D01*
X285936533Y-91196646D01*
X285910468Y-90932000D01*
X285936533Y-90667354D01*
X286013728Y-90412878D01*
X286139085Y-90178351D01*
X286307787Y-89972787D01*
X286513351Y-89804085D01*
X286747878Y-89678728D01*
X287002354Y-89601533D01*
X287200679Y-89582000D01*
X287933321Y-89582000D01*
X288131646Y-89601533D01*
X288131646Y-89601533D01*
G37*
G36*
X102025405Y-85314974D02*
X102607767Y-85556196D01*
X103131884Y-85906400D01*
X103577600Y-86352116D01*
X103927804Y-86876233D01*
X104169026Y-87458595D01*
X104292000Y-88076826D01*
X104292000Y-88707174D01*
X104169026Y-89325405D01*
X103927804Y-89907767D01*
X103577600Y-90431884D01*
X103131884Y-90877600D01*
X102607767Y-91227804D01*
X102025405Y-91469026D01*
X101407174Y-91592000D01*
X100776826Y-91592000D01*
X100158595Y-91469026D01*
X99576233Y-91227804D01*
X99052116Y-90877600D01*
X98606400Y-90431884D01*
X98256196Y-89907767D01*
X98014974Y-89325405D01*
X97892000Y-88707174D01*
X97892000Y-88076826D01*
X98014974Y-87458595D01*
X98256196Y-86876233D01*
X98606400Y-86352116D01*
X99052116Y-85906400D01*
X99576233Y-85556196D01*
X100158595Y-85314974D01*
X100776826Y-85192000D01*
X101407174Y-85192000D01*
X102025405Y-85314974D01*
X102025405Y-85314974D01*
G37*
G36*
X30905405Y-85314974D02*
X31487767Y-85556196D01*
X32011884Y-85906400D01*
X32457600Y-86352116D01*
X32807804Y-86876233D01*
X33049026Y-87458595D01*
X33172000Y-88076826D01*
X33172000Y-88707174D01*
X33049026Y-89325405D01*
X32807804Y-89907767D01*
X32457600Y-90431884D01*
X32011884Y-90877600D01*
X31487767Y-91227804D01*
X30905405Y-91469026D01*
X30287174Y-91592000D01*
X29656826Y-91592000D01*
X29038595Y-91469026D01*
X28456233Y-91227804D01*
X27932116Y-90877600D01*
X27486400Y-90431884D01*
X27136196Y-89907767D01*
X26894974Y-89325405D01*
X26772000Y-88707174D01*
X26772000Y-88076826D01*
X26894974Y-87458595D01*
X27136196Y-86876233D01*
X27486400Y-86352116D01*
X27932116Y-85906400D01*
X28456233Y-85556196D01*
X29038595Y-85314974D01*
X29656826Y-85192000D01*
X30287174Y-85192000D01*
X30905405Y-85314974D01*
X30905405Y-85314974D01*
G37*
G36*
X66465405Y-85314974D02*
X67047767Y-85556196D01*
X67571884Y-85906400D01*
X68017600Y-86352116D01*
X68367804Y-86876233D01*
X68609026Y-87458595D01*
X68732000Y-88076826D01*
X68732000Y-88707174D01*
X68609026Y-89325405D01*
X68367804Y-89907767D01*
X68017600Y-90431884D01*
X67571884Y-90877600D01*
X67047767Y-91227804D01*
X66465405Y-91469026D01*
X65847174Y-91592000D01*
X65216826Y-91592000D01*
X64598595Y-91469026D01*
X64016233Y-91227804D01*
X63492116Y-90877600D01*
X63046400Y-90431884D01*
X62696196Y-89907767D01*
X62454974Y-89325405D01*
X62332000Y-88707174D01*
X62332000Y-88076826D01*
X62454974Y-87458595D01*
X62696196Y-86876233D01*
X63046400Y-86352116D01*
X63492116Y-85906400D01*
X64016233Y-85556196D01*
X64598595Y-85314974D01*
X65216826Y-85192000D01*
X65847174Y-85192000D01*
X66465405Y-85314974D01*
X66465405Y-85314974D01*
G37*
G36*
X138855405Y-85314974D02*
X139437767Y-85556196D01*
X139961884Y-85906400D01*
X140407600Y-86352116D01*
X140757804Y-86876233D01*
X140999026Y-87458595D01*
X141122000Y-88076826D01*
X141122000Y-88707174D01*
X140999026Y-89325405D01*
X140757804Y-89907767D01*
X140407600Y-90431884D01*
X139961884Y-90877600D01*
X139437767Y-91227804D01*
X138855405Y-91469026D01*
X138237174Y-91592000D01*
X137606826Y-91592000D01*
X136988595Y-91469026D01*
X136406233Y-91227804D01*
X135882116Y-90877600D01*
X135436400Y-90431884D01*
X135086196Y-89907767D01*
X134844974Y-89325405D01*
X134722000Y-88707174D01*
X134722000Y-88076826D01*
X134844974Y-87458595D01*
X135086196Y-86876233D01*
X135436400Y-86352116D01*
X135882116Y-85906400D01*
X136406233Y-85556196D01*
X136988595Y-85314974D01*
X137606826Y-85192000D01*
X138237174Y-85192000D01*
X138855405Y-85314974D01*
X138855405Y-85314974D01*
G37*
G36*
X225215405Y-85314974D02*
X225797767Y-85556196D01*
X226321884Y-85906400D01*
X226767600Y-86352116D01*
X227117804Y-86876233D01*
X227359026Y-87458595D01*
X227482000Y-88076826D01*
X227482000Y-88707174D01*
X227359026Y-89325405D01*
X227117804Y-89907767D01*
X226767600Y-90431884D01*
X226321884Y-90877600D01*
X225797767Y-91227804D01*
X225215405Y-91469026D01*
X224597174Y-91592000D01*
X223966826Y-91592000D01*
X223348595Y-91469026D01*
X222766233Y-91227804D01*
X222242116Y-90877600D01*
X221796400Y-90431884D01*
X221446196Y-89907767D01*
X221204974Y-89325405D01*
X221082000Y-88707174D01*
X221082000Y-88076826D01*
X221204974Y-87458595D01*
X221446196Y-86876233D01*
X221796400Y-86352116D01*
X222242116Y-85906400D01*
X222766233Y-85556196D01*
X223348595Y-85314974D01*
X223966826Y-85192000D01*
X224597174Y-85192000D01*
X225215405Y-85314974D01*
X225215405Y-85314974D01*
G37*
G36*
X173145405Y-85314974D02*
X173727767Y-85556196D01*
X174251884Y-85906400D01*
X174697600Y-86352116D01*
X175047804Y-86876233D01*
X175289026Y-87458595D01*
X175412000Y-88076826D01*
X175412000Y-88707174D01*
X175289026Y-89325405D01*
X175047804Y-89907767D01*
X174697600Y-90431884D01*
X174251884Y-90877600D01*
X173727767Y-91227804D01*
X173145405Y-91469026D01*
X172527174Y-91592000D01*
X171896826Y-91592000D01*
X171278595Y-91469026D01*
X170696233Y-91227804D01*
X170172116Y-90877600D01*
X169726400Y-90431884D01*
X169376196Y-89907767D01*
X169134974Y-89325405D01*
X169012000Y-88707174D01*
X169012000Y-88076826D01*
X169134974Y-87458595D01*
X169376196Y-86876233D01*
X169726400Y-86352116D01*
X170172116Y-85906400D01*
X170696233Y-85556196D01*
X171278595Y-85314974D01*
X171896826Y-85192000D01*
X172527174Y-85192000D01*
X173145405Y-85314974D01*
X173145405Y-85314974D01*
G37*
G36*
X86312000Y-83892000D02*
X80312000Y-83892000D01*
X80312000Y-77892000D01*
X86312000Y-77892000D01*
X86312000Y-83892000D01*
X86312000Y-83892000D01*
G37*
G36*
X157432000Y-83892000D02*
X151432000Y-83892000D01*
X151432000Y-77892000D01*
X157432000Y-77892000D01*
X157432000Y-83892000D01*
X157432000Y-83892000D01*
G37*
G36*
X121872000Y-83892000D02*
X115872000Y-83892000D01*
X115872000Y-77892000D01*
X121872000Y-77892000D01*
X121872000Y-83892000D01*
X121872000Y-83892000D01*
G37*
G36*
X50852000Y-83892000D02*
X44852000Y-83892000D01*
X44852000Y-77892000D01*
X50852000Y-77892000D01*
X50852000Y-83892000D01*
X50852000Y-83892000D01*
G37*
G36*
X288131646Y-79441533D02*
X288386122Y-79518728D01*
X288620649Y-79644085D01*
X288826213Y-79812787D01*
X288994915Y-80018351D01*
X289120272Y-80252878D01*
X289197467Y-80507354D01*
X289223532Y-80772000D01*
X289197467Y-81036646D01*
X289120272Y-81291122D01*
X288994915Y-81525649D01*
X288826213Y-81731213D01*
X288620649Y-81899915D01*
X288386122Y-82025272D01*
X288131646Y-82102467D01*
X287933321Y-82122000D01*
X287200679Y-82122000D01*
X287002354Y-82102467D01*
X286747878Y-82025272D01*
X286513351Y-81899915D01*
X286307787Y-81731213D01*
X286139085Y-81525649D01*
X286013728Y-81291122D01*
X285936533Y-81036646D01*
X285910468Y-80772000D01*
X285936533Y-80507354D01*
X286013728Y-80252878D01*
X286139085Y-80018351D01*
X286307787Y-79812787D01*
X286513351Y-79644085D01*
X286747878Y-79518728D01*
X287002354Y-79441533D01*
X287200679Y-79422000D01*
X287933321Y-79422000D01*
X288131646Y-79441533D01*
X288131646Y-79441533D01*
G37*
G36*
X283597637Y-79425439D02*
X283625313Y-79433835D01*
X283650821Y-79447470D01*
X283673181Y-79465819D01*
X283691530Y-79488179D01*
X283705165Y-79513687D01*
X283713561Y-79541363D01*
X283717000Y-79576287D01*
X283717000Y-81967713D01*
X283713561Y-82002637D01*
X283705165Y-82030313D01*
X283691530Y-82055821D01*
X283673181Y-82078181D01*
X283650821Y-82096530D01*
X283625313Y-82110165D01*
X283597637Y-82118561D01*
X283562713Y-82122000D01*
X280571287Y-82122000D01*
X280536363Y-82118561D01*
X280508687Y-82110165D01*
X280483179Y-82096530D01*
X280460819Y-82078181D01*
X280442470Y-82055821D01*
X280428835Y-82030313D01*
X280420439Y-82002637D01*
X280417000Y-81967713D01*
X280417000Y-79576287D01*
X280420439Y-79541363D01*
X280428835Y-79513687D01*
X280442470Y-79488179D01*
X280460819Y-79465819D01*
X280483179Y-79447470D01*
X280508687Y-79433835D01*
X280536363Y-79425439D01*
X280571287Y-79422000D01*
X283562713Y-79422000D01*
X283597637Y-79425439D01*
X283597637Y-79425439D01*
G37*
G36*
X203962000Y-49022000D02*
X203962000Y-71882000D01*
X201422000Y-74422000D01*
X24892000Y-74422000D01*
X22352000Y-71882000D01*
X22352000Y-64262000D01*
X24892000Y-61722000D01*
X188670224Y-61722000D01*
X188694610Y-61719598D01*
X188718059Y-61712485D01*
X188739670Y-61700934D01*
X188758612Y-61685388D01*
X191225388Y-59218612D01*
X191240934Y-59199670D01*
X191252485Y-59178059D01*
X191259598Y-59154610D01*
X191262000Y-59130224D01*
X191262000Y-49022000D01*
X193802000Y-46482000D01*
X201422000Y-46482000D01*
X203962000Y-49022000D01*
X203962000Y-49022000D01*
G37*
G36*
X283597637Y-69265439D02*
X283625313Y-69273835D01*
X283650821Y-69287470D01*
X283673181Y-69305819D01*
X283691530Y-69328179D01*
X283705165Y-69353687D01*
X283713561Y-69381363D01*
X283717000Y-69416287D01*
X283717000Y-71807713D01*
X283713561Y-71842637D01*
X283705165Y-71870313D01*
X283691530Y-71895821D01*
X283673181Y-71918181D01*
X283650821Y-71936530D01*
X283625313Y-71950165D01*
X283597637Y-71958561D01*
X283562713Y-71962000D01*
X280571287Y-71962000D01*
X280536363Y-71958561D01*
X280508687Y-71950165D01*
X280483179Y-71936530D01*
X280460819Y-71918181D01*
X280442470Y-71895821D01*
X280428835Y-71870313D01*
X280420439Y-71842637D01*
X280417000Y-71807713D01*
X280417000Y-69416287D01*
X280420439Y-69381363D01*
X280428835Y-69353687D01*
X280442470Y-69328179D01*
X280460819Y-69305819D01*
X280483179Y-69287470D01*
X280508687Y-69273835D01*
X280536363Y-69265439D01*
X280571287Y-69262000D01*
X283562713Y-69262000D01*
X283597637Y-69265439D01*
X283597637Y-69265439D01*
G37*
G36*
X288131646Y-69281533D02*
X288386122Y-69358728D01*
X288620649Y-69484085D01*
X288826213Y-69652787D01*
X288994915Y-69858351D01*
X289120272Y-70092878D01*
X289197467Y-70347354D01*
X289223532Y-70612000D01*
X289197467Y-70876646D01*
X289120272Y-71131122D01*
X288994915Y-71365649D01*
X288826213Y-71571213D01*
X288620649Y-71739915D01*
X288386122Y-71865272D01*
X288131646Y-71942467D01*
X287933321Y-71962000D01*
X287200679Y-71962000D01*
X287002354Y-71942467D01*
X286747878Y-71865272D01*
X286513351Y-71739915D01*
X286307787Y-71571213D01*
X286139085Y-71365649D01*
X286013728Y-71131122D01*
X285936533Y-70876646D01*
X285910468Y-70612000D01*
X285936533Y-70347354D01*
X286013728Y-70092878D01*
X286139085Y-69858351D01*
X286307787Y-69652787D01*
X286513351Y-69484085D01*
X286747878Y-69358728D01*
X287002354Y-69281533D01*
X287200679Y-69262000D01*
X287933321Y-69262000D01*
X288131646Y-69281533D01*
X288131646Y-69281533D01*
G37*
G36*
X235650000Y-70650000D02*
X233350000Y-70650000D01*
X233350000Y-68150000D01*
X235650000Y-68150000D01*
X235650000Y-70650000D01*
X235650000Y-70650000D01*
G37*
G36*
X235650000Y-66350000D02*
X233350000Y-66350000D01*
X233350000Y-63850000D01*
X235650000Y-63850000D01*
X235650000Y-66350000D01*
X235650000Y-66350000D01*
G37*
G36*
X248878703Y-58913486D02*
X249169883Y-59034097D01*
X249431944Y-59209201D01*
X249654799Y-59432056D01*
X249829903Y-59694117D01*
X249950514Y-59985297D01*
X250012000Y-60294412D01*
X250012000Y-60609588D01*
X249950514Y-60918703D01*
X249829903Y-61209883D01*
X249654799Y-61471944D01*
X249431944Y-61694799D01*
X249169883Y-61869903D01*
X248878703Y-61990514D01*
X248569588Y-62052000D01*
X248254412Y-62052000D01*
X247945297Y-61990514D01*
X247654117Y-61869903D01*
X247392056Y-61694799D01*
X247169201Y-61471944D01*
X246994097Y-61209883D01*
X246873486Y-60918703D01*
X246812000Y-60609588D01*
X246812000Y-60294412D01*
X246873486Y-59985297D01*
X246994097Y-59694117D01*
X247169201Y-59432056D01*
X247392056Y-59209201D01*
X247654117Y-59034097D01*
X247945297Y-58913486D01*
X248254412Y-58852000D01*
X248569588Y-58852000D01*
X248878703Y-58913486D01*
X248878703Y-58913486D01*
G37*
G36*
X264118703Y-58913486D02*
X264409883Y-59034097D01*
X264671944Y-59209201D01*
X264894799Y-59432056D01*
X265069903Y-59694117D01*
X265190514Y-59985297D01*
X265252000Y-60294412D01*
X265252000Y-60609588D01*
X265190514Y-60918703D01*
X265069903Y-61209883D01*
X264894799Y-61471944D01*
X264671944Y-61694799D01*
X264409883Y-61869903D01*
X264118703Y-61990514D01*
X263809588Y-62052000D01*
X263494412Y-62052000D01*
X263185297Y-61990514D01*
X262894117Y-61869903D01*
X262632056Y-61694799D01*
X262409201Y-61471944D01*
X262234097Y-61209883D01*
X262113486Y-60918703D01*
X262052000Y-60609588D01*
X262052000Y-60294412D01*
X262113486Y-59985297D01*
X262234097Y-59694117D01*
X262409201Y-59432056D01*
X262632056Y-59209201D01*
X262894117Y-59034097D01*
X263185297Y-58913486D01*
X263494412Y-58852000D01*
X263809588Y-58852000D01*
X264118703Y-58913486D01*
X264118703Y-58913486D01*
G37*
G36*
X283597637Y-59105439D02*
X283625313Y-59113835D01*
X283650821Y-59127470D01*
X283673181Y-59145819D01*
X283691530Y-59168179D01*
X283705165Y-59193687D01*
X283713561Y-59221363D01*
X283717000Y-59256287D01*
X283717000Y-61647713D01*
X283713561Y-61682637D01*
X283705165Y-61710313D01*
X283691530Y-61735821D01*
X283673181Y-61758181D01*
X283650821Y-61776530D01*
X283625313Y-61790165D01*
X283597637Y-61798561D01*
X283562713Y-61802000D01*
X280571287Y-61802000D01*
X280536363Y-61798561D01*
X280508687Y-61790165D01*
X280483179Y-61776530D01*
X280460819Y-61758181D01*
X280442470Y-61735821D01*
X280428835Y-61710313D01*
X280420439Y-61682637D01*
X280417000Y-61647713D01*
X280417000Y-59256287D01*
X280420439Y-59221363D01*
X280428835Y-59193687D01*
X280442470Y-59168179D01*
X280460819Y-59145819D01*
X280483179Y-59127470D01*
X280508687Y-59113835D01*
X280536363Y-59105439D01*
X280571287Y-59102000D01*
X283562713Y-59102000D01*
X283597637Y-59105439D01*
X283597637Y-59105439D01*
G37*
G36*
X288131646Y-59121533D02*
X288386122Y-59198728D01*
X288620649Y-59324085D01*
X288826213Y-59492787D01*
X288994915Y-59698351D01*
X289120272Y-59932878D01*
X289197467Y-60187354D01*
X289223532Y-60452000D01*
X289197467Y-60716646D01*
X289120272Y-60971122D01*
X288994915Y-61205649D01*
X288826213Y-61411213D01*
X288620649Y-61579915D01*
X288386122Y-61705272D01*
X288131646Y-61782467D01*
X287933321Y-61802000D01*
X287200679Y-61802000D01*
X287002354Y-61782467D01*
X286747878Y-61705272D01*
X286513351Y-61579915D01*
X286307787Y-61411213D01*
X286139085Y-61205649D01*
X286013728Y-60971122D01*
X285936533Y-60716646D01*
X285910468Y-60452000D01*
X285936533Y-60187354D01*
X286013728Y-59932878D01*
X286139085Y-59698351D01*
X286307787Y-59492787D01*
X286513351Y-59324085D01*
X286747878Y-59198728D01*
X287002354Y-59121533D01*
X287200679Y-59102000D01*
X287933321Y-59102000D01*
X288131646Y-59121533D01*
X288131646Y-59121533D01*
G37*
G36*
X252435918Y-59199670D02*
X252592445Y-59230805D01*
X252823571Y-59326541D01*
X253031581Y-59465529D01*
X253208471Y-59642419D01*
X253208473Y-59642422D01*
X253347459Y-59850429D01*
X253443195Y-60081555D01*
X253492000Y-60326916D01*
X253492000Y-60577084D01*
X253443195Y-60822445D01*
X253381610Y-60971124D01*
X253347459Y-61053571D01*
X253208471Y-61261581D01*
X253031581Y-61438471D01*
X253031578Y-61438473D01*
X252823571Y-61577459D01*
X252592445Y-61673195D01*
X252469764Y-61697598D01*
X252347086Y-61722000D01*
X252096914Y-61722000D01*
X251974236Y-61697598D01*
X251851555Y-61673195D01*
X251620429Y-61577459D01*
X251412422Y-61438473D01*
X251412419Y-61438471D01*
X251235529Y-61261581D01*
X251096541Y-61053571D01*
X251062390Y-60971124D01*
X251000805Y-60822445D01*
X250952000Y-60577084D01*
X250952000Y-60326916D01*
X251000805Y-60081555D01*
X251096541Y-59850429D01*
X251235527Y-59642422D01*
X251235529Y-59642419D01*
X251412419Y-59465529D01*
X251620429Y-59326541D01*
X251851555Y-59230805D01*
X252008082Y-59199670D01*
X252096914Y-59182000D01*
X252347086Y-59182000D01*
X252435918Y-59199670D01*
X252435918Y-59199670D01*
G37*
G36*
X260055918Y-59199670D02*
X260212445Y-59230805D01*
X260443571Y-59326541D01*
X260651581Y-59465529D01*
X260828471Y-59642419D01*
X260828473Y-59642422D01*
X260967459Y-59850429D01*
X261063195Y-60081555D01*
X261112000Y-60326916D01*
X261112000Y-60577084D01*
X261063195Y-60822445D01*
X261001610Y-60971124D01*
X260967459Y-61053571D01*
X260828471Y-61261581D01*
X260651581Y-61438471D01*
X260651578Y-61438473D01*
X260443571Y-61577459D01*
X260212445Y-61673195D01*
X260089764Y-61697598D01*
X259967086Y-61722000D01*
X259716914Y-61722000D01*
X259594236Y-61697598D01*
X259471555Y-61673195D01*
X259240429Y-61577459D01*
X259032422Y-61438473D01*
X259032419Y-61438471D01*
X258855529Y-61261581D01*
X258716541Y-61053571D01*
X258682390Y-60971124D01*
X258620805Y-60822445D01*
X258572000Y-60577084D01*
X258572000Y-60326916D01*
X258620805Y-60081555D01*
X258716541Y-59850429D01*
X258855527Y-59642422D01*
X258855529Y-59642419D01*
X259032419Y-59465529D01*
X259240429Y-59326541D01*
X259471555Y-59230805D01*
X259628082Y-59199670D01*
X259716914Y-59182000D01*
X259967086Y-59182000D01*
X260055918Y-59199670D01*
X260055918Y-59199670D01*
G37*
G36*
X256245918Y-59199670D02*
X256402445Y-59230805D01*
X256633571Y-59326541D01*
X256841581Y-59465529D01*
X257018471Y-59642419D01*
X257018473Y-59642422D01*
X257157459Y-59850429D01*
X257253195Y-60081555D01*
X257302000Y-60326916D01*
X257302000Y-60577084D01*
X257253195Y-60822445D01*
X257191610Y-60971124D01*
X257157459Y-61053571D01*
X257018471Y-61261581D01*
X256841581Y-61438471D01*
X256841578Y-61438473D01*
X256633571Y-61577459D01*
X256402445Y-61673195D01*
X256279764Y-61697598D01*
X256157086Y-61722000D01*
X255906914Y-61722000D01*
X255784236Y-61697598D01*
X255661555Y-61673195D01*
X255430429Y-61577459D01*
X255222422Y-61438473D01*
X255222419Y-61438471D01*
X255045529Y-61261581D01*
X254906541Y-61053571D01*
X254872390Y-60971124D01*
X254810805Y-60822445D01*
X254762000Y-60577084D01*
X254762000Y-60326916D01*
X254810805Y-60081555D01*
X254906541Y-59850429D01*
X255045527Y-59642422D01*
X255045529Y-59642419D01*
X255222419Y-59465529D01*
X255430429Y-59326541D01*
X255661555Y-59230805D01*
X255818082Y-59199670D01*
X255906914Y-59182000D01*
X256157086Y-59182000D01*
X256245918Y-59199670D01*
X256245918Y-59199670D01*
G37*
G36*
X235650000Y-61650000D02*
X233350000Y-61650000D01*
X233350000Y-59150000D01*
X235650000Y-59150000D01*
X235650000Y-61650000D01*
X235650000Y-61650000D01*
G37*
G36*
X86312000Y-58252000D02*
X80312000Y-58252000D01*
X80312000Y-52252000D01*
X86312000Y-52252000D01*
X86312000Y-58252000D01*
X86312000Y-58252000D01*
G37*
G36*
X157432000Y-58252000D02*
X151432000Y-58252000D01*
X151432000Y-52252000D01*
X157432000Y-52252000D01*
X157432000Y-58252000D01*
X157432000Y-58252000D01*
G37*
G36*
X50752000Y-58252000D02*
X44752000Y-58252000D01*
X44752000Y-52252000D01*
X50752000Y-52252000D01*
X50752000Y-58252000D01*
X50752000Y-58252000D01*
G37*
G36*
X121872000Y-58252000D02*
X115872000Y-58252000D01*
X115872000Y-52252000D01*
X121872000Y-52252000D01*
X121872000Y-58252000D01*
X121872000Y-58252000D01*
G37*
G36*
X235650000Y-57350000D02*
X233350000Y-57350000D01*
X233350000Y-54850000D01*
X235650000Y-54850000D01*
X235650000Y-57350000D01*
X235650000Y-57350000D01*
G37*
G36*
X283597637Y-48945439D02*
X283625313Y-48953835D01*
X283650821Y-48967470D01*
X283673181Y-48985819D01*
X283691530Y-49008179D01*
X283705165Y-49033687D01*
X283713561Y-49061363D01*
X283717000Y-49096287D01*
X283717000Y-51487713D01*
X283713561Y-51522637D01*
X283705165Y-51550313D01*
X283691530Y-51575821D01*
X283673181Y-51598181D01*
X283650821Y-51616530D01*
X283625313Y-51630165D01*
X283597637Y-51638561D01*
X283562713Y-51642000D01*
X280571287Y-51642000D01*
X280536363Y-51638561D01*
X280508687Y-51630165D01*
X280483179Y-51616530D01*
X280460819Y-51598181D01*
X280442470Y-51575821D01*
X280428835Y-51550313D01*
X280420439Y-51522637D01*
X280417000Y-51487713D01*
X280417000Y-49096287D01*
X280420439Y-49061363D01*
X280428835Y-49033687D01*
X280442470Y-49008179D01*
X280460819Y-48985819D01*
X280483179Y-48967470D01*
X280508687Y-48953835D01*
X280536363Y-48945439D01*
X280571287Y-48942000D01*
X283562713Y-48942000D01*
X283597637Y-48945439D01*
X283597637Y-48945439D01*
G37*
G36*
X288131646Y-48961533D02*
X288386122Y-49038728D01*
X288620649Y-49164085D01*
X288826213Y-49332787D01*
X288994915Y-49538351D01*
X289120272Y-49772878D01*
X289197467Y-50027354D01*
X289223532Y-50292000D01*
X289197467Y-50556646D01*
X289120272Y-50811122D01*
X288994915Y-51045649D01*
X288826213Y-51251213D01*
X288620649Y-51419915D01*
X288386122Y-51545272D01*
X288131646Y-51622467D01*
X287933321Y-51642000D01*
X287200679Y-51642000D01*
X287002354Y-51622467D01*
X286747878Y-51545272D01*
X286513351Y-51419915D01*
X286307787Y-51251213D01*
X286139085Y-51045649D01*
X286013728Y-50811122D01*
X285936533Y-50556646D01*
X285910468Y-50292000D01*
X285936533Y-50027354D01*
X286013728Y-49772878D01*
X286139085Y-49538351D01*
X286307787Y-49332787D01*
X286513351Y-49164085D01*
X286747878Y-49038728D01*
X287002354Y-48961533D01*
X287200679Y-48942000D01*
X287933321Y-48942000D01*
X288131646Y-48961533D01*
X288131646Y-48961533D01*
G37*
G36*
X173145405Y-44674974D02*
X173727767Y-44916196D01*
X174251884Y-45266400D01*
X174697600Y-45712116D01*
X175047804Y-46236233D01*
X175289026Y-46818595D01*
X175412000Y-47436826D01*
X175412000Y-48067174D01*
X175289026Y-48685405D01*
X175047804Y-49267767D01*
X174697600Y-49791884D01*
X174251884Y-50237600D01*
X173727767Y-50587804D01*
X173145405Y-50829026D01*
X172527174Y-50952000D01*
X171896826Y-50952000D01*
X171278595Y-50829026D01*
X170696233Y-50587804D01*
X170172116Y-50237600D01*
X169726400Y-49791884D01*
X169376196Y-49267767D01*
X169134974Y-48685405D01*
X169012000Y-48067174D01*
X169012000Y-47436826D01*
X169134974Y-46818595D01*
X169376196Y-46236233D01*
X169726400Y-45712116D01*
X170172116Y-45266400D01*
X170696233Y-44916196D01*
X171278595Y-44674974D01*
X171896826Y-44552000D01*
X172527174Y-44552000D01*
X173145405Y-44674974D01*
X173145405Y-44674974D01*
G37*
G36*
X102025405Y-44674974D02*
X102607767Y-44916196D01*
X103131884Y-45266400D01*
X103577600Y-45712116D01*
X103927804Y-46236233D01*
X104169026Y-46818595D01*
X104292000Y-47436826D01*
X104292000Y-48067174D01*
X104169026Y-48685405D01*
X103927804Y-49267767D01*
X103577600Y-49791884D01*
X103131884Y-50237600D01*
X102607767Y-50587804D01*
X102025405Y-50829026D01*
X101407174Y-50952000D01*
X100776826Y-50952000D01*
X100158595Y-50829026D01*
X99576233Y-50587804D01*
X99052116Y-50237600D01*
X98606400Y-49791884D01*
X98256196Y-49267767D01*
X98014974Y-48685405D01*
X97892000Y-48067174D01*
X97892000Y-47436826D01*
X98014974Y-46818595D01*
X98256196Y-46236233D01*
X98606400Y-45712116D01*
X99052116Y-45266400D01*
X99576233Y-44916196D01*
X100158595Y-44674974D01*
X100776826Y-44552000D01*
X101407174Y-44552000D01*
X102025405Y-44674974D01*
X102025405Y-44674974D01*
G37*
G36*
X66465405Y-44674974D02*
X67047767Y-44916196D01*
X67571884Y-45266400D01*
X68017600Y-45712116D01*
X68367804Y-46236233D01*
X68609026Y-46818595D01*
X68732000Y-47436826D01*
X68732000Y-48067174D01*
X68609026Y-48685405D01*
X68367804Y-49267767D01*
X68017600Y-49791884D01*
X67571884Y-50237600D01*
X67047767Y-50587804D01*
X66465405Y-50829026D01*
X65847174Y-50952000D01*
X65216826Y-50952000D01*
X64598595Y-50829026D01*
X64016233Y-50587804D01*
X63492116Y-50237600D01*
X63046400Y-49791884D01*
X62696196Y-49267767D01*
X62454974Y-48685405D01*
X62332000Y-48067174D01*
X62332000Y-47436826D01*
X62454974Y-46818595D01*
X62696196Y-46236233D01*
X63046400Y-45712116D01*
X63492116Y-45266400D01*
X64016233Y-44916196D01*
X64598595Y-44674974D01*
X65216826Y-44552000D01*
X65847174Y-44552000D01*
X66465405Y-44674974D01*
X66465405Y-44674974D01*
G37*
G36*
X30905405Y-44674974D02*
X31487767Y-44916196D01*
X32011884Y-45266400D01*
X32457600Y-45712116D01*
X32807804Y-46236233D01*
X33049026Y-46818595D01*
X33172000Y-47436826D01*
X33172000Y-48067174D01*
X33049026Y-48685405D01*
X32807804Y-49267767D01*
X32457600Y-49791884D01*
X32011884Y-50237600D01*
X31487767Y-50587804D01*
X30905405Y-50829026D01*
X30287174Y-50952000D01*
X29656826Y-50952000D01*
X29038595Y-50829026D01*
X28456233Y-50587804D01*
X27932116Y-50237600D01*
X27486400Y-49791884D01*
X27136196Y-49267767D01*
X26894974Y-48685405D01*
X26772000Y-48067174D01*
X26772000Y-47436826D01*
X26894974Y-46818595D01*
X27136196Y-46236233D01*
X27486400Y-45712116D01*
X27932116Y-45266400D01*
X28456233Y-44916196D01*
X29038595Y-44674974D01*
X29656826Y-44552000D01*
X30287174Y-44552000D01*
X30905405Y-44674974D01*
X30905405Y-44674974D01*
G37*
G36*
X137585405Y-44674974D02*
X138167767Y-44916196D01*
X138691884Y-45266400D01*
X139137600Y-45712116D01*
X139487804Y-46236233D01*
X139729026Y-46818595D01*
X139852000Y-47436826D01*
X139852000Y-48067174D01*
X139729026Y-48685405D01*
X139487804Y-49267767D01*
X139137600Y-49791884D01*
X138691884Y-50237600D01*
X138167767Y-50587804D01*
X137585405Y-50829026D01*
X136967174Y-50952000D01*
X136336826Y-50952000D01*
X135718595Y-50829026D01*
X135136233Y-50587804D01*
X134612116Y-50237600D01*
X134166400Y-49791884D01*
X133816196Y-49267767D01*
X133574974Y-48685405D01*
X133452000Y-48067174D01*
X133452000Y-47436826D01*
X133574974Y-46818595D01*
X133816196Y-46236233D01*
X134166400Y-45712116D01*
X134612116Y-45266400D01*
X135136233Y-44916196D01*
X135718595Y-44674974D01*
X136336826Y-44552000D01*
X136967174Y-44552000D01*
X137585405Y-44674974D01*
X137585405Y-44674974D01*
G37*
G36*
X86312000Y-43252000D02*
X80312000Y-43252000D01*
X80312000Y-37252000D01*
X86312000Y-37252000D01*
X86312000Y-43252000D01*
X86312000Y-43252000D01*
G37*
G36*
X50752000Y-43252000D02*
X44752000Y-43252000D01*
X44752000Y-37252000D01*
X50752000Y-37252000D01*
X50752000Y-43252000D01*
X50752000Y-43252000D01*
G37*
G36*
X121872000Y-43252000D02*
X115872000Y-43252000D01*
X115872000Y-37252000D01*
X121872000Y-37252000D01*
X121872000Y-43252000D01*
X121872000Y-43252000D01*
G37*
G36*
X157432000Y-43252000D02*
X151432000Y-43252000D01*
X151432000Y-37252000D01*
X157432000Y-37252000D01*
X157432000Y-43252000D01*
X157432000Y-43252000D01*
G37*
G36*
X219004997Y-32197681D02*
X219536291Y-32303362D01*
X220537227Y-32717963D01*
X221431975Y-33315815D01*
X221438049Y-33319873D01*
X222204127Y-34085951D01*
X222204129Y-34085954D01*
X222806037Y-34986773D01*
X222806037Y-34986774D01*
X223220638Y-35987710D01*
X223432000Y-37050296D01*
X223432000Y-38133704D01*
X223420084Y-38193608D01*
X223220638Y-39196291D01*
X222806037Y-40197227D01*
X222795492Y-40213008D01*
X222204127Y-41098049D01*
X221438049Y-41864127D01*
X221438046Y-41864129D01*
X220537227Y-42466037D01*
X219536291Y-42880638D01*
X219004997Y-42986319D01*
X218473704Y-43092000D01*
X217390296Y-43092000D01*
X216859003Y-42986319D01*
X216327709Y-42880638D01*
X215326773Y-42466037D01*
X214425954Y-41864129D01*
X214425951Y-41864127D01*
X213659873Y-41098049D01*
X213068508Y-40213008D01*
X213057963Y-40197227D01*
X212643362Y-39196291D01*
X212443916Y-38193608D01*
X212432000Y-38133704D01*
X212432000Y-37050296D01*
X212643362Y-35987710D01*
X213057963Y-34986774D01*
X213057963Y-34986773D01*
X213659871Y-34085954D01*
X213659873Y-34085951D01*
X214425951Y-33319873D01*
X214432025Y-33315815D01*
X215326773Y-32717963D01*
X216327709Y-32303362D01*
X216859003Y-32197681D01*
X217390296Y-32092000D01*
X218473704Y-32092000D01*
X219004997Y-32197681D01*
X219004997Y-32197681D01*
G37*
G36*
X198684997Y-32197681D02*
X199216291Y-32303362D01*
X200217227Y-32717963D01*
X201111975Y-33315815D01*
X201118049Y-33319873D01*
X201884127Y-34085951D01*
X201884129Y-34085954D01*
X202486037Y-34986773D01*
X202486037Y-34986774D01*
X202900638Y-35987710D01*
X203112000Y-37050296D01*
X203112000Y-38133704D01*
X203100084Y-38193608D01*
X202900638Y-39196291D01*
X202486037Y-40197227D01*
X202475492Y-40213008D01*
X201884127Y-41098049D01*
X201118049Y-41864127D01*
X201118046Y-41864129D01*
X200217227Y-42466037D01*
X199216291Y-42880638D01*
X198684997Y-42986319D01*
X198153704Y-43092000D01*
X197070296Y-43092000D01*
X196539003Y-42986319D01*
X196007709Y-42880638D01*
X195006773Y-42466037D01*
X194105954Y-41864129D01*
X194105951Y-41864127D01*
X193339873Y-41098049D01*
X192748508Y-40213008D01*
X192737963Y-40197227D01*
X192323362Y-39196291D01*
X192123916Y-38193608D01*
X192112000Y-38133704D01*
X192112000Y-37050296D01*
X192323362Y-35987710D01*
X192737963Y-34986774D01*
X192737963Y-34986773D01*
X193339871Y-34085954D01*
X193339873Y-34085951D01*
X194105951Y-33319873D01*
X194112025Y-33315815D01*
X195006773Y-32717963D01*
X196007709Y-32303362D01*
X196539003Y-32197681D01*
X197070296Y-32092000D01*
X198153704Y-32092000D01*
X198684997Y-32197681D01*
X198684997Y-32197681D01*
G37*
G36*
X282282000Y-41617000D02*
X280582000Y-41617000D01*
X280582000Y-39917000D01*
X282282000Y-39917000D01*
X282282000Y-41617000D01*
X282282000Y-41617000D01*
G37*
G36*
X285915992Y-40071076D02*
X285949883Y-40081357D01*
X285981111Y-40098048D01*
X286008485Y-40120515D01*
X286030952Y-40147889D01*
X286047643Y-40179117D01*
X286057924Y-40213008D01*
X286062000Y-40254391D01*
X286062000Y-41279609D01*
X286057924Y-41320992D01*
X286047643Y-41354883D01*
X286030952Y-41386111D01*
X286008485Y-41413485D01*
X285981111Y-41435952D01*
X285949883Y-41452643D01*
X285915992Y-41462924D01*
X285874609Y-41467000D01*
X285274391Y-41467000D01*
X285233008Y-41462924D01*
X285199117Y-41452643D01*
X285167889Y-41435952D01*
X285140515Y-41413485D01*
X285118048Y-41386111D01*
X285101357Y-41354883D01*
X285091076Y-41320992D01*
X285087000Y-41279609D01*
X285087000Y-40254391D01*
X285091076Y-40213008D01*
X285101357Y-40179117D01*
X285118048Y-40147889D01*
X285140515Y-40120515D01*
X285167889Y-40098048D01*
X285199117Y-40081357D01*
X285233008Y-40071076D01*
X285274391Y-40067000D01*
X285874609Y-40067000D01*
X285915992Y-40071076D01*
X285915992Y-40071076D01*
G37*
G36*
X292235992Y-40071076D02*
X292269883Y-40081357D01*
X292301111Y-40098048D01*
X292328485Y-40120515D01*
X292350952Y-40147889D01*
X292367643Y-40179117D01*
X292377924Y-40213008D01*
X292382000Y-40254391D01*
X292382000Y-41279609D01*
X292377924Y-41320992D01*
X292367643Y-41354883D01*
X292350952Y-41386111D01*
X292328485Y-41413485D01*
X292301111Y-41435952D01*
X292269883Y-41452643D01*
X292235992Y-41462924D01*
X292194609Y-41467000D01*
X291594391Y-41467000D01*
X291553008Y-41462924D01*
X291519117Y-41452643D01*
X291487889Y-41435952D01*
X291460515Y-41413485D01*
X291438048Y-41386111D01*
X291421357Y-41354883D01*
X291411076Y-41320992D01*
X291407000Y-41279609D01*
X291407000Y-40254391D01*
X291411076Y-40213008D01*
X291421357Y-40179117D01*
X291438048Y-40147889D01*
X291460515Y-40120515D01*
X291487889Y-40098048D01*
X291519117Y-40081357D01*
X291553008Y-40071076D01*
X291594391Y-40067000D01*
X292194609Y-40067000D01*
X292235992Y-40071076D01*
X292235992Y-40071076D01*
G37*
G36*
X290360992Y-40071076D02*
X290394883Y-40081357D01*
X290426111Y-40098048D01*
X290453485Y-40120515D01*
X290475952Y-40147889D01*
X290492643Y-40179117D01*
X290502924Y-40213008D01*
X290507000Y-40254391D01*
X290507000Y-41279609D01*
X290502924Y-41320992D01*
X290492643Y-41354883D01*
X290475952Y-41386111D01*
X290453485Y-41413485D01*
X290426111Y-41435952D01*
X290394883Y-41452643D01*
X290360992Y-41462924D01*
X290319609Y-41467000D01*
X289719391Y-41467000D01*
X289678008Y-41462924D01*
X289644117Y-41452643D01*
X289612889Y-41435952D01*
X289585515Y-41413485D01*
X289563048Y-41386111D01*
X289546357Y-41354883D01*
X289536076Y-41320992D01*
X289532000Y-41279609D01*
X289532000Y-40254391D01*
X289536076Y-40213008D01*
X289546357Y-40179117D01*
X289563048Y-40147889D01*
X289585515Y-40120515D01*
X289612889Y-40098048D01*
X289644117Y-40081357D01*
X289678008Y-40071076D01*
X289719391Y-40067000D01*
X290319609Y-40067000D01*
X290360992Y-40071076D01*
X290360992Y-40071076D01*
G37*
G36*
X287790992Y-40071076D02*
X287824883Y-40081357D01*
X287856111Y-40098048D01*
X287883485Y-40120515D01*
X287905952Y-40147889D01*
X287922643Y-40179117D01*
X287932924Y-40213008D01*
X287937000Y-40254391D01*
X287937000Y-41279609D01*
X287932924Y-41320992D01*
X287922643Y-41354883D01*
X287905952Y-41386111D01*
X287883485Y-41413485D01*
X287856111Y-41435952D01*
X287824883Y-41452643D01*
X287790992Y-41462924D01*
X287749609Y-41467000D01*
X287149391Y-41467000D01*
X287108008Y-41462924D01*
X287074117Y-41452643D01*
X287042889Y-41435952D01*
X287015515Y-41413485D01*
X286993048Y-41386111D01*
X286976357Y-41354883D01*
X286966076Y-41320992D01*
X286962000Y-41279609D01*
X286962000Y-40254391D01*
X286966076Y-40213008D01*
X286976357Y-40179117D01*
X286993048Y-40147889D01*
X287015515Y-40120515D01*
X287042889Y-40098048D01*
X287074117Y-40081357D01*
X287108008Y-40071076D01*
X287149391Y-40067000D01*
X287749609Y-40067000D01*
X287790992Y-40071076D01*
X287790992Y-40071076D01*
G37*
G36*
X245989649Y-38069717D02*
X246028827Y-38073576D01*
X246104228Y-38096449D01*
X246179629Y-38119321D01*
X246318608Y-38193608D01*
X246440422Y-38293578D01*
X246540392Y-38415392D01*
X246614679Y-38554371D01*
X246660424Y-38705174D01*
X246675870Y-38862000D01*
X246660424Y-39018826D01*
X246614679Y-39169629D01*
X246540392Y-39308608D01*
X246440422Y-39430422D01*
X246318608Y-39530392D01*
X246179629Y-39604679D01*
X246104227Y-39627552D01*
X246028827Y-39650424D01*
X245989649Y-39654283D01*
X245911295Y-39662000D01*
X245832705Y-39662000D01*
X245754351Y-39654283D01*
X245715173Y-39650424D01*
X245639773Y-39627552D01*
X245564371Y-39604679D01*
X245425392Y-39530392D01*
X245303578Y-39430422D01*
X245203608Y-39308608D01*
X245129321Y-39169629D01*
X245083576Y-39018826D01*
X245068130Y-38862000D01*
X245083576Y-38705174D01*
X245129321Y-38554371D01*
X245203608Y-38415392D01*
X245303578Y-38293578D01*
X245425392Y-38193608D01*
X245564371Y-38119321D01*
X245639773Y-38096448D01*
X245715173Y-38073576D01*
X245754351Y-38069717D01*
X245832705Y-38062000D01*
X245911295Y-38062000D01*
X245989649Y-38069717D01*
X245989649Y-38069717D01*
G37*
G36*
X248529649Y-38069717D02*
X248568827Y-38073576D01*
X248644228Y-38096449D01*
X248719629Y-38119321D01*
X248858608Y-38193608D01*
X248980422Y-38293578D01*
X249080392Y-38415392D01*
X249154679Y-38554371D01*
X249200424Y-38705174D01*
X249215870Y-38862000D01*
X249200424Y-39018826D01*
X249154679Y-39169629D01*
X249080392Y-39308608D01*
X248980422Y-39430422D01*
X248858608Y-39530392D01*
X248719629Y-39604679D01*
X248644227Y-39627552D01*
X248568827Y-39650424D01*
X248529649Y-39654283D01*
X248451295Y-39662000D01*
X248372705Y-39662000D01*
X248294351Y-39654283D01*
X248255173Y-39650424D01*
X248179773Y-39627552D01*
X248104371Y-39604679D01*
X247965392Y-39530392D01*
X247843578Y-39430422D01*
X247743608Y-39308608D01*
X247669321Y-39169629D01*
X247623576Y-39018826D01*
X247608130Y-38862000D01*
X247623576Y-38705174D01*
X247669321Y-38554371D01*
X247743608Y-38415392D01*
X247843578Y-38293578D01*
X247965392Y-38193608D01*
X248104371Y-38119321D01*
X248179773Y-38096448D01*
X248255173Y-38073576D01*
X248294351Y-38069717D01*
X248372705Y-38062000D01*
X248451295Y-38062000D01*
X248529649Y-38069717D01*
X248529649Y-38069717D01*
G37*
G36*
X235829649Y-38069717D02*
X235868827Y-38073576D01*
X235944228Y-38096449D01*
X236019629Y-38119321D01*
X236158608Y-38193608D01*
X236280422Y-38293578D01*
X236380392Y-38415392D01*
X236454679Y-38554371D01*
X236500424Y-38705174D01*
X236515870Y-38862000D01*
X236500424Y-39018826D01*
X236454679Y-39169629D01*
X236380392Y-39308608D01*
X236280422Y-39430422D01*
X236158608Y-39530392D01*
X236019629Y-39604679D01*
X235944227Y-39627552D01*
X235868827Y-39650424D01*
X235829649Y-39654283D01*
X235751295Y-39662000D01*
X235672705Y-39662000D01*
X235594351Y-39654283D01*
X235555173Y-39650424D01*
X235479773Y-39627552D01*
X235404371Y-39604679D01*
X235265392Y-39530392D01*
X235143578Y-39430422D01*
X235043608Y-39308608D01*
X234969321Y-39169629D01*
X234923576Y-39018826D01*
X234908130Y-38862000D01*
X234923576Y-38705174D01*
X234969321Y-38554371D01*
X235043608Y-38415392D01*
X235143578Y-38293578D01*
X235265392Y-38193608D01*
X235404371Y-38119321D01*
X235479773Y-38096448D01*
X235555173Y-38073576D01*
X235594351Y-38069717D01*
X235672705Y-38062000D01*
X235751295Y-38062000D01*
X235829649Y-38069717D01*
X235829649Y-38069717D01*
G37*
G36*
X238369649Y-38069717D02*
X238408827Y-38073576D01*
X238484228Y-38096449D01*
X238559629Y-38119321D01*
X238698608Y-38193608D01*
X238820422Y-38293578D01*
X238920392Y-38415392D01*
X238994679Y-38554371D01*
X239040424Y-38705174D01*
X239055870Y-38862000D01*
X239040424Y-39018826D01*
X238994679Y-39169629D01*
X238920392Y-39308608D01*
X238820422Y-39430422D01*
X238698608Y-39530392D01*
X238559629Y-39604679D01*
X238484227Y-39627552D01*
X238408827Y-39650424D01*
X238369649Y-39654283D01*
X238291295Y-39662000D01*
X238212705Y-39662000D01*
X238134351Y-39654283D01*
X238095173Y-39650424D01*
X238019773Y-39627552D01*
X237944371Y-39604679D01*
X237805392Y-39530392D01*
X237683578Y-39430422D01*
X237583608Y-39308608D01*
X237509321Y-39169629D01*
X237463576Y-39018826D01*
X237448130Y-38862000D01*
X237463576Y-38705174D01*
X237509321Y-38554371D01*
X237583608Y-38415392D01*
X237683578Y-38293578D01*
X237805392Y-38193608D01*
X237944371Y-38119321D01*
X238019773Y-38096448D01*
X238095173Y-38073576D01*
X238134351Y-38069717D01*
X238212705Y-38062000D01*
X238291295Y-38062000D01*
X238369649Y-38069717D01*
X238369649Y-38069717D01*
G37*
G36*
X89922637Y-29895439D02*
X89950313Y-29903835D01*
X89975821Y-29917470D01*
X89998181Y-29935819D01*
X90016530Y-29958179D01*
X90030165Y-29983687D01*
X90038561Y-30011363D01*
X90042000Y-30046287D01*
X90042000Y-32437713D01*
X90038561Y-32472637D01*
X90030165Y-32500313D01*
X90016530Y-32525821D01*
X89998181Y-32548181D01*
X89975821Y-32566530D01*
X89950313Y-32580165D01*
X89922637Y-32588561D01*
X89887713Y-32592000D01*
X86896287Y-32592000D01*
X86861363Y-32588561D01*
X86833687Y-32580165D01*
X86808179Y-32566530D01*
X86785819Y-32548181D01*
X86767470Y-32525821D01*
X86753835Y-32500313D01*
X86745439Y-32472637D01*
X86742000Y-32437713D01*
X86742000Y-30046287D01*
X86745439Y-30011363D01*
X86753835Y-29983687D01*
X86767470Y-29958179D01*
X86785819Y-29935819D01*
X86808179Y-29917470D01*
X86833687Y-29903835D01*
X86861363Y-29895439D01*
X86896287Y-29892000D01*
X89887713Y-29892000D01*
X89922637Y-29895439D01*
X89922637Y-29895439D01*
G37*
G36*
X54362637Y-29895439D02*
X54390313Y-29903835D01*
X54415821Y-29917470D01*
X54438181Y-29935819D01*
X54456530Y-29958179D01*
X54470165Y-29983687D01*
X54478561Y-30011363D01*
X54482000Y-30046287D01*
X54482000Y-32437713D01*
X54478561Y-32472637D01*
X54470165Y-32500313D01*
X54456530Y-32525821D01*
X54438181Y-32548181D01*
X54415821Y-32566530D01*
X54390313Y-32580165D01*
X54362637Y-32588561D01*
X54327713Y-32592000D01*
X51336287Y-32592000D01*
X51301363Y-32588561D01*
X51273687Y-32580165D01*
X51248179Y-32566530D01*
X51225819Y-32548181D01*
X51207470Y-32525821D01*
X51193835Y-32500313D01*
X51185439Y-32472637D01*
X51182000Y-32437713D01*
X51182000Y-30046287D01*
X51185439Y-30011363D01*
X51193835Y-29983687D01*
X51207470Y-29958179D01*
X51225819Y-29935819D01*
X51248179Y-29917470D01*
X51273687Y-29903835D01*
X51301363Y-29895439D01*
X51336287Y-29892000D01*
X54327713Y-29892000D01*
X54362637Y-29895439D01*
X54362637Y-29895439D01*
G37*
G36*
X165576646Y-29911533D02*
X165831122Y-29988728D01*
X166065649Y-30114085D01*
X166271213Y-30282787D01*
X166439915Y-30488351D01*
X166565272Y-30722878D01*
X166642467Y-30977354D01*
X166668532Y-31242000D01*
X166642467Y-31506646D01*
X166565272Y-31761122D01*
X166439915Y-31995649D01*
X166271213Y-32201213D01*
X166065649Y-32369915D01*
X165831122Y-32495272D01*
X165576646Y-32572467D01*
X165378321Y-32592000D01*
X164645679Y-32592000D01*
X164447354Y-32572467D01*
X164192878Y-32495272D01*
X163958351Y-32369915D01*
X163752787Y-32201213D01*
X163584085Y-31995649D01*
X163458728Y-31761122D01*
X163381533Y-31506646D01*
X163355468Y-31242000D01*
X163381533Y-30977354D01*
X163458728Y-30722878D01*
X163584085Y-30488351D01*
X163752787Y-30282787D01*
X163958351Y-30114085D01*
X164192878Y-29988728D01*
X164447354Y-29911533D01*
X164645679Y-29892000D01*
X165378321Y-29892000D01*
X165576646Y-29911533D01*
X165576646Y-29911533D01*
G37*
G36*
X58896646Y-29911533D02*
X59151122Y-29988728D01*
X59385649Y-30114085D01*
X59591213Y-30282787D01*
X59759915Y-30488351D01*
X59885272Y-30722878D01*
X59962467Y-30977354D01*
X59988532Y-31242000D01*
X59962467Y-31506646D01*
X59885272Y-31761122D01*
X59759915Y-31995649D01*
X59591213Y-32201213D01*
X59385649Y-32369915D01*
X59151122Y-32495272D01*
X58896646Y-32572467D01*
X58698321Y-32592000D01*
X57965679Y-32592000D01*
X57767354Y-32572467D01*
X57512878Y-32495272D01*
X57278351Y-32369915D01*
X57072787Y-32201213D01*
X56904085Y-31995649D01*
X56778728Y-31761122D01*
X56701533Y-31506646D01*
X56675468Y-31242000D01*
X56701533Y-30977354D01*
X56778728Y-30722878D01*
X56904085Y-30488351D01*
X57072787Y-30282787D01*
X57278351Y-30114085D01*
X57512878Y-29988728D01*
X57767354Y-29911533D01*
X57965679Y-29892000D01*
X58698321Y-29892000D01*
X58896646Y-29911533D01*
X58896646Y-29911533D01*
G37*
G36*
X94456646Y-29911533D02*
X94711122Y-29988728D01*
X94945649Y-30114085D01*
X95151213Y-30282787D01*
X95319915Y-30488351D01*
X95445272Y-30722878D01*
X95522467Y-30977354D01*
X95548532Y-31242000D01*
X95522467Y-31506646D01*
X95445272Y-31761122D01*
X95319915Y-31995649D01*
X95151213Y-32201213D01*
X94945649Y-32369915D01*
X94711122Y-32495272D01*
X94456646Y-32572467D01*
X94258321Y-32592000D01*
X93525679Y-32592000D01*
X93327354Y-32572467D01*
X93072878Y-32495272D01*
X92838351Y-32369915D01*
X92632787Y-32201213D01*
X92464085Y-31995649D01*
X92338728Y-31761122D01*
X92261533Y-31506646D01*
X92235468Y-31242000D01*
X92261533Y-30977354D01*
X92338728Y-30722878D01*
X92464085Y-30488351D01*
X92632787Y-30282787D01*
X92838351Y-30114085D01*
X93072878Y-29988728D01*
X93327354Y-29911533D01*
X93525679Y-29892000D01*
X94258321Y-29892000D01*
X94456646Y-29911533D01*
X94456646Y-29911533D01*
G37*
G36*
X125482637Y-29895439D02*
X125510313Y-29903835D01*
X125535821Y-29917470D01*
X125558181Y-29935819D01*
X125576530Y-29958179D01*
X125590165Y-29983687D01*
X125598561Y-30011363D01*
X125602000Y-30046287D01*
X125602000Y-32437713D01*
X125598561Y-32472637D01*
X125590165Y-32500313D01*
X125576530Y-32525821D01*
X125558181Y-32548181D01*
X125535821Y-32566530D01*
X125510313Y-32580165D01*
X125482637Y-32588561D01*
X125447713Y-32592000D01*
X122456287Y-32592000D01*
X122421363Y-32588561D01*
X122393687Y-32580165D01*
X122368179Y-32566530D01*
X122345819Y-32548181D01*
X122327470Y-32525821D01*
X122313835Y-32500313D01*
X122305439Y-32472637D01*
X122302000Y-32437713D01*
X122302000Y-30046287D01*
X122305439Y-30011363D01*
X122313835Y-29983687D01*
X122327470Y-29958179D01*
X122345819Y-29935819D01*
X122368179Y-29917470D01*
X122393687Y-29903835D01*
X122421363Y-29895439D01*
X122456287Y-29892000D01*
X125447713Y-29892000D01*
X125482637Y-29895439D01*
X125482637Y-29895439D01*
G37*
G36*
X130016646Y-29911533D02*
X130271122Y-29988728D01*
X130505649Y-30114085D01*
X130711213Y-30282787D01*
X130879915Y-30488351D01*
X131005272Y-30722878D01*
X131082467Y-30977354D01*
X131108532Y-31242000D01*
X131082467Y-31506646D01*
X131005272Y-31761122D01*
X130879915Y-31995649D01*
X130711213Y-32201213D01*
X130505649Y-32369915D01*
X130271122Y-32495272D01*
X130016646Y-32572467D01*
X129818321Y-32592000D01*
X129085679Y-32592000D01*
X128887354Y-32572467D01*
X128632878Y-32495272D01*
X128398351Y-32369915D01*
X128192787Y-32201213D01*
X128024085Y-31995649D01*
X127898728Y-31761122D01*
X127821533Y-31506646D01*
X127795468Y-31242000D01*
X127821533Y-30977354D01*
X127898728Y-30722878D01*
X128024085Y-30488351D01*
X128192787Y-30282787D01*
X128398351Y-30114085D01*
X128632878Y-29988728D01*
X128887354Y-29911533D01*
X129085679Y-29892000D01*
X129818321Y-29892000D01*
X130016646Y-29911533D01*
X130016646Y-29911533D01*
G37*
G36*
X161042637Y-29895439D02*
X161070313Y-29903835D01*
X161095821Y-29917470D01*
X161118181Y-29935819D01*
X161136530Y-29958179D01*
X161150165Y-29983687D01*
X161158561Y-30011363D01*
X161162000Y-30046287D01*
X161162000Y-32437713D01*
X161158561Y-32472637D01*
X161150165Y-32500313D01*
X161136530Y-32525821D01*
X161118181Y-32548181D01*
X161095821Y-32566530D01*
X161070313Y-32580165D01*
X161042637Y-32588561D01*
X161007713Y-32592000D01*
X158016287Y-32592000D01*
X157981363Y-32588561D01*
X157953687Y-32580165D01*
X157928179Y-32566530D01*
X157905819Y-32548181D01*
X157887470Y-32525821D01*
X157873835Y-32500313D01*
X157865439Y-32472637D01*
X157862000Y-32437713D01*
X157862000Y-30046287D01*
X157865439Y-30011363D01*
X157873835Y-29983687D01*
X157887470Y-29958179D01*
X157905819Y-29935819D01*
X157928179Y-29917470D01*
X157953687Y-29903835D01*
X157981363Y-29895439D01*
X158016287Y-29892000D01*
X161007713Y-29892000D01*
X161042637Y-29895439D01*
X161042637Y-29895439D01*
G37*
G36*
X235829649Y-30449717D02*
X235868827Y-30453576D01*
X235944228Y-30476449D01*
X236019629Y-30499321D01*
X236158608Y-30573608D01*
X236280422Y-30673578D01*
X236380392Y-30795392D01*
X236454679Y-30934371D01*
X236500424Y-31085174D01*
X236515870Y-31242000D01*
X236500424Y-31398826D01*
X236454679Y-31549629D01*
X236380392Y-31688608D01*
X236280422Y-31810422D01*
X236158608Y-31910392D01*
X236019629Y-31984679D01*
X235944228Y-32007551D01*
X235868827Y-32030424D01*
X235829649Y-32034283D01*
X235751295Y-32042000D01*
X235672705Y-32042000D01*
X235594351Y-32034283D01*
X235555173Y-32030424D01*
X235479772Y-32007551D01*
X235404371Y-31984679D01*
X235265392Y-31910392D01*
X235143578Y-31810422D01*
X235043608Y-31688608D01*
X234969321Y-31549629D01*
X234923576Y-31398826D01*
X234908130Y-31242000D01*
X234923576Y-31085174D01*
X234969321Y-30934371D01*
X235043608Y-30795392D01*
X235143578Y-30673578D01*
X235265392Y-30573608D01*
X235404371Y-30499321D01*
X235479772Y-30476449D01*
X235555173Y-30453576D01*
X235594351Y-30449717D01*
X235672705Y-30442000D01*
X235751295Y-30442000D01*
X235829649Y-30449717D01*
X235829649Y-30449717D01*
G37*
G36*
X245989649Y-30449717D02*
X246028827Y-30453576D01*
X246104228Y-30476449D01*
X246179629Y-30499321D01*
X246318608Y-30573608D01*
X246440422Y-30673578D01*
X246540392Y-30795392D01*
X246614679Y-30934371D01*
X246660424Y-31085174D01*
X246675870Y-31242000D01*
X246660424Y-31398826D01*
X246614679Y-31549629D01*
X246540392Y-31688608D01*
X246440422Y-31810422D01*
X246318608Y-31910392D01*
X246179629Y-31984679D01*
X246104228Y-32007551D01*
X246028827Y-32030424D01*
X245989649Y-32034283D01*
X245911295Y-32042000D01*
X245832705Y-32042000D01*
X245754351Y-32034283D01*
X245715173Y-32030424D01*
X245639773Y-32007552D01*
X245564371Y-31984679D01*
X245425392Y-31910392D01*
X245303578Y-31810422D01*
X245203608Y-31688608D01*
X245129321Y-31549629D01*
X245083576Y-31398826D01*
X245068130Y-31242000D01*
X245083576Y-31085174D01*
X245129321Y-30934371D01*
X245203608Y-30795392D01*
X245303578Y-30673578D01*
X245425392Y-30573608D01*
X245564371Y-30499321D01*
X245639772Y-30476449D01*
X245715173Y-30453576D01*
X245754351Y-30449717D01*
X245832705Y-30442000D01*
X245911295Y-30442000D01*
X245989649Y-30449717D01*
X245989649Y-30449717D01*
G37*
G36*
X239052000Y-32042000D02*
X237452000Y-32042000D01*
X237452000Y-30442000D01*
X239052000Y-30442000D01*
X239052000Y-32042000D01*
X239052000Y-32042000D01*
G37*
G36*
X249212000Y-32042000D02*
X247612000Y-32042000D01*
X247612000Y-30442000D01*
X249212000Y-30442000D01*
X249212000Y-32042000D01*
X249212000Y-32042000D01*
G37*
G36*
X78465352Y-27932743D02*
X78610941Y-27993048D01*
X78741973Y-28080601D01*
X78853399Y-28192027D01*
X78940952Y-28323059D01*
X79001257Y-28468648D01*
X79032000Y-28623205D01*
X79032000Y-28780795D01*
X79001257Y-28935352D01*
X78940952Y-29080941D01*
X78853399Y-29211973D01*
X78741973Y-29323399D01*
X78610941Y-29410952D01*
X78465352Y-29471257D01*
X78310795Y-29502000D01*
X78153205Y-29502000D01*
X77998648Y-29471257D01*
X77853059Y-29410952D01*
X77722027Y-29323399D01*
X77610601Y-29211973D01*
X77523048Y-29080941D01*
X77462743Y-28935352D01*
X77432000Y-28780795D01*
X77432000Y-28623205D01*
X77462743Y-28468648D01*
X77523048Y-28323059D01*
X77610601Y-28192027D01*
X77722027Y-28080601D01*
X77853059Y-27993048D01*
X77998648Y-27932743D01*
X78153205Y-27902000D01*
X78310795Y-27902000D01*
X78465352Y-27932743D01*
X78465352Y-27932743D01*
G37*
G36*
X37905352Y-27932743D02*
X38050941Y-27993048D01*
X38181973Y-28080601D01*
X38293399Y-28192027D01*
X38380952Y-28323059D01*
X38441257Y-28468648D01*
X38472000Y-28623205D01*
X38472000Y-28780795D01*
X38441257Y-28935352D01*
X38380952Y-29080941D01*
X38293399Y-29211973D01*
X38181973Y-29323399D01*
X38050941Y-29410952D01*
X37905352Y-29471257D01*
X37750795Y-29502000D01*
X37593205Y-29502000D01*
X37438648Y-29471257D01*
X37293059Y-29410952D01*
X37162027Y-29323399D01*
X37050601Y-29211973D01*
X36963048Y-29080941D01*
X36902743Y-28935352D01*
X36872000Y-28780795D01*
X36872000Y-28623205D01*
X36902743Y-28468648D01*
X36963048Y-28323059D01*
X37050601Y-28192027D01*
X37162027Y-28080601D01*
X37293059Y-27993048D01*
X37438648Y-27932743D01*
X37593205Y-27902000D01*
X37750795Y-27902000D01*
X37905352Y-27932743D01*
X37905352Y-27932743D01*
G37*
G36*
X42905352Y-27932743D02*
X43050941Y-27993048D01*
X43181973Y-28080601D01*
X43293399Y-28192027D01*
X43380952Y-28323059D01*
X43441257Y-28468648D01*
X43472000Y-28623205D01*
X43472000Y-28780795D01*
X43441257Y-28935352D01*
X43380952Y-29080941D01*
X43293399Y-29211973D01*
X43181973Y-29323399D01*
X43050941Y-29410952D01*
X42905352Y-29471257D01*
X42750795Y-29502000D01*
X42593205Y-29502000D01*
X42438648Y-29471257D01*
X42293059Y-29410952D01*
X42162027Y-29323399D01*
X42050601Y-29211973D01*
X41963048Y-29080941D01*
X41902743Y-28935352D01*
X41872000Y-28780795D01*
X41872000Y-28623205D01*
X41902743Y-28468648D01*
X41963048Y-28323059D01*
X42050601Y-28192027D01*
X42162027Y-28080601D01*
X42293059Y-27993048D01*
X42438648Y-27932743D01*
X42593205Y-27902000D01*
X42750795Y-27902000D01*
X42905352Y-27932743D01*
X42905352Y-27932743D01*
G37*
G36*
X149585352Y-27932743D02*
X149730941Y-27993048D01*
X149861973Y-28080601D01*
X149973399Y-28192027D01*
X150060952Y-28323059D01*
X150121257Y-28468648D01*
X150152000Y-28623205D01*
X150152000Y-28780795D01*
X150121257Y-28935352D01*
X150060952Y-29080941D01*
X149973399Y-29211973D01*
X149861973Y-29323399D01*
X149730941Y-29410952D01*
X149585352Y-29471257D01*
X149430795Y-29502000D01*
X149273205Y-29502000D01*
X149118648Y-29471257D01*
X148973059Y-29410952D01*
X148842027Y-29323399D01*
X148730601Y-29211973D01*
X148643048Y-29080941D01*
X148582743Y-28935352D01*
X148552000Y-28780795D01*
X148552000Y-28623205D01*
X148582743Y-28468648D01*
X148643048Y-28323059D01*
X148730601Y-28192027D01*
X148842027Y-28080601D01*
X148973059Y-27993048D01*
X149118648Y-27932743D01*
X149273205Y-27902000D01*
X149430795Y-27902000D01*
X149585352Y-27932743D01*
X149585352Y-27932743D01*
G37*
G36*
X109025352Y-27932743D02*
X109170941Y-27993048D01*
X109301973Y-28080601D01*
X109413399Y-28192027D01*
X109500952Y-28323059D01*
X109561257Y-28468648D01*
X109592000Y-28623205D01*
X109592000Y-28780795D01*
X109561257Y-28935352D01*
X109500952Y-29080941D01*
X109413399Y-29211973D01*
X109301973Y-29323399D01*
X109170941Y-29410952D01*
X109025352Y-29471257D01*
X108870795Y-29502000D01*
X108713205Y-29502000D01*
X108558648Y-29471257D01*
X108413059Y-29410952D01*
X108282027Y-29323399D01*
X108170601Y-29211973D01*
X108083048Y-29080941D01*
X108022743Y-28935352D01*
X107992000Y-28780795D01*
X107992000Y-28623205D01*
X108022743Y-28468648D01*
X108083048Y-28323059D01*
X108170601Y-28192027D01*
X108282027Y-28080601D01*
X108413059Y-27993048D01*
X108558648Y-27932743D01*
X108713205Y-27902000D01*
X108870795Y-27902000D01*
X109025352Y-27932743D01*
X109025352Y-27932743D01*
G37*
G36*
X73465352Y-27932743D02*
X73610941Y-27993048D01*
X73741973Y-28080601D01*
X73853399Y-28192027D01*
X73940952Y-28323059D01*
X74001257Y-28468648D01*
X74032000Y-28623205D01*
X74032000Y-28780795D01*
X74001257Y-28935352D01*
X73940952Y-29080941D01*
X73853399Y-29211973D01*
X73741973Y-29323399D01*
X73610941Y-29410952D01*
X73465352Y-29471257D01*
X73310795Y-29502000D01*
X73153205Y-29502000D01*
X72998648Y-29471257D01*
X72853059Y-29410952D01*
X72722027Y-29323399D01*
X72610601Y-29211973D01*
X72523048Y-29080941D01*
X72462743Y-28935352D01*
X72432000Y-28780795D01*
X72432000Y-28623205D01*
X72462743Y-28468648D01*
X72523048Y-28323059D01*
X72610601Y-28192027D01*
X72722027Y-28080601D01*
X72853059Y-27993048D01*
X72998648Y-27932743D01*
X73153205Y-27902000D01*
X73310795Y-27902000D01*
X73465352Y-27932743D01*
X73465352Y-27932743D01*
G37*
G36*
X114025352Y-27932743D02*
X114170941Y-27993048D01*
X114301973Y-28080601D01*
X114413399Y-28192027D01*
X114500952Y-28323059D01*
X114561257Y-28468648D01*
X114592000Y-28623205D01*
X114592000Y-28780795D01*
X114561257Y-28935352D01*
X114500952Y-29080941D01*
X114413399Y-29211973D01*
X114301973Y-29323399D01*
X114170941Y-29410952D01*
X114025352Y-29471257D01*
X113870795Y-29502000D01*
X113713205Y-29502000D01*
X113558648Y-29471257D01*
X113413059Y-29410952D01*
X113282027Y-29323399D01*
X113170601Y-29211973D01*
X113083048Y-29080941D01*
X113022743Y-28935352D01*
X112992000Y-28780795D01*
X112992000Y-28623205D01*
X113022743Y-28468648D01*
X113083048Y-28323059D01*
X113170601Y-28192027D01*
X113282027Y-28080601D01*
X113413059Y-27993048D01*
X113558648Y-27932743D01*
X113713205Y-27902000D01*
X113870795Y-27902000D01*
X114025352Y-27932743D01*
X114025352Y-27932743D01*
G37*
G36*
X144585352Y-27932743D02*
X144730941Y-27993048D01*
X144861973Y-28080601D01*
X144973399Y-28192027D01*
X145060952Y-28323059D01*
X145121257Y-28468648D01*
X145152000Y-28623205D01*
X145152000Y-28780795D01*
X145121257Y-28935352D01*
X145060952Y-29080941D01*
X144973399Y-29211973D01*
X144861973Y-29323399D01*
X144730941Y-29410952D01*
X144585352Y-29471257D01*
X144430795Y-29502000D01*
X144273205Y-29502000D01*
X144118648Y-29471257D01*
X143973059Y-29410952D01*
X143842027Y-29323399D01*
X143730601Y-29211973D01*
X143643048Y-29080941D01*
X143582743Y-28935352D01*
X143552000Y-28780795D01*
X143552000Y-28623205D01*
X143582743Y-28468648D01*
X143643048Y-28323059D01*
X143730601Y-28192027D01*
X143842027Y-28080601D01*
X143973059Y-27993048D01*
X144118648Y-27932743D01*
X144273205Y-27902000D01*
X144430795Y-27902000D01*
X144585352Y-27932743D01*
X144585352Y-27932743D01*
G37*
G36*
X94456646Y-25711533D02*
X94711122Y-25788728D01*
X94945649Y-25914085D01*
X95151213Y-26082787D01*
X95319915Y-26288351D01*
X95445272Y-26522878D01*
X95522467Y-26777354D01*
X95548532Y-27042000D01*
X95522467Y-27306646D01*
X95445272Y-27561122D01*
X95319915Y-27795649D01*
X95151213Y-28001213D01*
X94945649Y-28169915D01*
X94711122Y-28295272D01*
X94456646Y-28372467D01*
X94258321Y-28392000D01*
X93525679Y-28392000D01*
X93327354Y-28372467D01*
X93072878Y-28295272D01*
X92838351Y-28169915D01*
X92632787Y-28001213D01*
X92464085Y-27795649D01*
X92338728Y-27561122D01*
X92261533Y-27306646D01*
X92235468Y-27042000D01*
X92261533Y-26777354D01*
X92338728Y-26522878D01*
X92464085Y-26288351D01*
X92632787Y-26082787D01*
X92838351Y-25914085D01*
X93072878Y-25788728D01*
X93327354Y-25711533D01*
X93525679Y-25692000D01*
X94258321Y-25692000D01*
X94456646Y-25711533D01*
X94456646Y-25711533D01*
G37*
G36*
X53396646Y-25711533D02*
X53651122Y-25788728D01*
X53885649Y-25914085D01*
X54091213Y-26082787D01*
X54259915Y-26288351D01*
X54385272Y-26522878D01*
X54462467Y-26777354D01*
X54488532Y-27042000D01*
X54462467Y-27306646D01*
X54385272Y-27561122D01*
X54259915Y-27795649D01*
X54091213Y-28001213D01*
X53885649Y-28169915D01*
X53651122Y-28295272D01*
X53396646Y-28372467D01*
X53198321Y-28392000D01*
X52465679Y-28392000D01*
X52267354Y-28372467D01*
X52012878Y-28295272D01*
X51778351Y-28169915D01*
X51572787Y-28001213D01*
X51404085Y-27795649D01*
X51278728Y-27561122D01*
X51201533Y-27306646D01*
X51175468Y-27042000D01*
X51201533Y-26777354D01*
X51278728Y-26522878D01*
X51404085Y-26288351D01*
X51572787Y-26082787D01*
X51778351Y-25914085D01*
X52012878Y-25788728D01*
X52267354Y-25711533D01*
X52465679Y-25692000D01*
X53198321Y-25692000D01*
X53396646Y-25711533D01*
X53396646Y-25711533D01*
G37*
G36*
X58896646Y-25711533D02*
X59151122Y-25788728D01*
X59385649Y-25914085D01*
X59591213Y-26082787D01*
X59759915Y-26288351D01*
X59885272Y-26522878D01*
X59962467Y-26777354D01*
X59988532Y-27042000D01*
X59962467Y-27306646D01*
X59885272Y-27561122D01*
X59759915Y-27795649D01*
X59591213Y-28001213D01*
X59385649Y-28169915D01*
X59151122Y-28295272D01*
X58896646Y-28372467D01*
X58698321Y-28392000D01*
X57965679Y-28392000D01*
X57767354Y-28372467D01*
X57512878Y-28295272D01*
X57278351Y-28169915D01*
X57072787Y-28001213D01*
X56904085Y-27795649D01*
X56778728Y-27561122D01*
X56701533Y-27306646D01*
X56675468Y-27042000D01*
X56701533Y-26777354D01*
X56778728Y-26522878D01*
X56904085Y-26288351D01*
X57072787Y-26082787D01*
X57278351Y-25914085D01*
X57512878Y-25788728D01*
X57767354Y-25711533D01*
X57965679Y-25692000D01*
X58698321Y-25692000D01*
X58896646Y-25711533D01*
X58896646Y-25711533D01*
G37*
G36*
X124516646Y-25711533D02*
X124771122Y-25788728D01*
X125005649Y-25914085D01*
X125211213Y-26082787D01*
X125379915Y-26288351D01*
X125505272Y-26522878D01*
X125582467Y-26777354D01*
X125608532Y-27042000D01*
X125582467Y-27306646D01*
X125505272Y-27561122D01*
X125379915Y-27795649D01*
X125211213Y-28001213D01*
X125005649Y-28169915D01*
X124771122Y-28295272D01*
X124516646Y-28372467D01*
X124318321Y-28392000D01*
X123585679Y-28392000D01*
X123387354Y-28372467D01*
X123132878Y-28295272D01*
X122898351Y-28169915D01*
X122692787Y-28001213D01*
X122524085Y-27795649D01*
X122398728Y-27561122D01*
X122321533Y-27306646D01*
X122295468Y-27042000D01*
X122321533Y-26777354D01*
X122398728Y-26522878D01*
X122524085Y-26288351D01*
X122692787Y-26082787D01*
X122898351Y-25914085D01*
X123132878Y-25788728D01*
X123387354Y-25711533D01*
X123585679Y-25692000D01*
X124318321Y-25692000D01*
X124516646Y-25711533D01*
X124516646Y-25711533D01*
G37*
G36*
X160076646Y-25711533D02*
X160331122Y-25788728D01*
X160565649Y-25914085D01*
X160771213Y-26082787D01*
X160939915Y-26288351D01*
X161065272Y-26522878D01*
X161142467Y-26777354D01*
X161168532Y-27042000D01*
X161142467Y-27306646D01*
X161065272Y-27561122D01*
X160939915Y-27795649D01*
X160771213Y-28001213D01*
X160565649Y-28169915D01*
X160331122Y-28295272D01*
X160076646Y-28372467D01*
X159878321Y-28392000D01*
X159145679Y-28392000D01*
X158947354Y-28372467D01*
X158692878Y-28295272D01*
X158458351Y-28169915D01*
X158252787Y-28001213D01*
X158084085Y-27795649D01*
X157958728Y-27561122D01*
X157881533Y-27306646D01*
X157855468Y-27042000D01*
X157881533Y-26777354D01*
X157958728Y-26522878D01*
X158084085Y-26288351D01*
X158252787Y-26082787D01*
X158458351Y-25914085D01*
X158692878Y-25788728D01*
X158947354Y-25711533D01*
X159145679Y-25692000D01*
X159878321Y-25692000D01*
X160076646Y-25711533D01*
X160076646Y-25711533D01*
G37*
G36*
X165576646Y-25711533D02*
X165831122Y-25788728D01*
X166065649Y-25914085D01*
X166271213Y-26082787D01*
X166439915Y-26288351D01*
X166565272Y-26522878D01*
X166642467Y-26777354D01*
X166668532Y-27042000D01*
X166642467Y-27306646D01*
X166565272Y-27561122D01*
X166439915Y-27795649D01*
X166271213Y-28001213D01*
X166065649Y-28169915D01*
X165831122Y-28295272D01*
X165576646Y-28372467D01*
X165378321Y-28392000D01*
X164645679Y-28392000D01*
X164447354Y-28372467D01*
X164192878Y-28295272D01*
X163958351Y-28169915D01*
X163752787Y-28001213D01*
X163584085Y-27795649D01*
X163458728Y-27561122D01*
X163381533Y-27306646D01*
X163355468Y-27042000D01*
X163381533Y-26777354D01*
X163458728Y-26522878D01*
X163584085Y-26288351D01*
X163752787Y-26082787D01*
X163958351Y-25914085D01*
X164192878Y-25788728D01*
X164447354Y-25711533D01*
X164645679Y-25692000D01*
X165378321Y-25692000D01*
X165576646Y-25711533D01*
X165576646Y-25711533D01*
G37*
G36*
X88956646Y-25711533D02*
X89211122Y-25788728D01*
X89445649Y-25914085D01*
X89651213Y-26082787D01*
X89819915Y-26288351D01*
X89945272Y-26522878D01*
X90022467Y-26777354D01*
X90048532Y-27042000D01*
X90022467Y-27306646D01*
X89945272Y-27561122D01*
X89819915Y-27795649D01*
X89651213Y-28001213D01*
X89445649Y-28169915D01*
X89211122Y-28295272D01*
X88956646Y-28372467D01*
X88758321Y-28392000D01*
X88025679Y-28392000D01*
X87827354Y-28372467D01*
X87572878Y-28295272D01*
X87338351Y-28169915D01*
X87132787Y-28001213D01*
X86964085Y-27795649D01*
X86838728Y-27561122D01*
X86761533Y-27306646D01*
X86735468Y-27042000D01*
X86761533Y-26777354D01*
X86838728Y-26522878D01*
X86964085Y-26288351D01*
X87132787Y-26082787D01*
X87338351Y-25914085D01*
X87572878Y-25788728D01*
X87827354Y-25711533D01*
X88025679Y-25692000D01*
X88758321Y-25692000D01*
X88956646Y-25711533D01*
X88956646Y-25711533D01*
G37*
G36*
X130016646Y-25711533D02*
X130271122Y-25788728D01*
X130505649Y-25914085D01*
X130711213Y-26082787D01*
X130879915Y-26288351D01*
X131005272Y-26522878D01*
X131082467Y-26777354D01*
X131108532Y-27042000D01*
X131082467Y-27306646D01*
X131005272Y-27561122D01*
X130879915Y-27795649D01*
X130711213Y-28001213D01*
X130505649Y-28169915D01*
X130271122Y-28295272D01*
X130016646Y-28372467D01*
X129818321Y-28392000D01*
X129085679Y-28392000D01*
X128887354Y-28372467D01*
X128632878Y-28295272D01*
X128398351Y-28169915D01*
X128192787Y-28001213D01*
X128024085Y-27795649D01*
X127898728Y-27561122D01*
X127821533Y-27306646D01*
X127795468Y-27042000D01*
X127821533Y-26777354D01*
X127898728Y-26522878D01*
X128024085Y-26288351D01*
X128192787Y-26082787D01*
X128398351Y-25914085D01*
X128632878Y-25788728D01*
X128887354Y-25711533D01*
X129085679Y-25692000D01*
X129818321Y-25692000D01*
X130016646Y-25711533D01*
X130016646Y-25711533D01*
G37*
G36*
X221948630Y-22709299D02*
X222108855Y-22757903D01*
X222256520Y-22836831D01*
X222385949Y-22943051D01*
X222492169Y-23072480D01*
X222557215Y-23194174D01*
X222571097Y-23220146D01*
X222619700Y-23380372D01*
X222619701Y-23380376D01*
X222632000Y-23505249D01*
X222632000Y-23738752D01*
X222619701Y-23863630D01*
X222571097Y-24023855D01*
X222492169Y-24171520D01*
X222385949Y-24300949D01*
X222256524Y-24407166D01*
X222202778Y-24435893D01*
X222108854Y-24486097D01*
X222065685Y-24499192D01*
X221948629Y-24534701D01*
X221782000Y-24551112D01*
X221615370Y-24534701D01*
X221455145Y-24486097D01*
X221307480Y-24407169D01*
X221178051Y-24300949D01*
X221071834Y-24171524D01*
X221038747Y-24109622D01*
X220992903Y-24023854D01*
X220979104Y-23978363D01*
X220944299Y-23863629D01*
X220932000Y-23738751D01*
X220932000Y-23505248D01*
X220944299Y-23380370D01*
X220992903Y-23220145D01*
X221071831Y-23072480D01*
X221178048Y-22943054D01*
X221307484Y-22836830D01*
X221455146Y-22757903D01*
X221615371Y-22709299D01*
X221782000Y-22692888D01*
X221948630Y-22709299D01*
X221948630Y-22709299D01*
G37*
G36*
X251118630Y-22709299D02*
X251278855Y-22757903D01*
X251426520Y-22836831D01*
X251555949Y-22943051D01*
X251662169Y-23072480D01*
X251727215Y-23194174D01*
X251741097Y-23220146D01*
X251789700Y-23380372D01*
X251789701Y-23380376D01*
X251802000Y-23505249D01*
X251802000Y-23738752D01*
X251789701Y-23863630D01*
X251741097Y-24023855D01*
X251662169Y-24171520D01*
X251555949Y-24300949D01*
X251426524Y-24407166D01*
X251372778Y-24435893D01*
X251278854Y-24486097D01*
X251235685Y-24499192D01*
X251118629Y-24534701D01*
X250952000Y-24551112D01*
X250785370Y-24534701D01*
X250625145Y-24486097D01*
X250477480Y-24407169D01*
X250348051Y-24300949D01*
X250241834Y-24171524D01*
X250208747Y-24109622D01*
X250162903Y-24023854D01*
X250149104Y-23978363D01*
X250114299Y-23863629D01*
X250102000Y-23738751D01*
X250102000Y-23505248D01*
X250114299Y-23380370D01*
X250162903Y-23220145D01*
X250241831Y-23072480D01*
X250348048Y-22943054D01*
X250477484Y-22836830D01*
X250625146Y-22757903D01*
X250785371Y-22709299D01*
X250952000Y-22692888D01*
X251118630Y-22709299D01*
X251118630Y-22709299D01*
G37*
G36*
X235918630Y-22709299D02*
X236078855Y-22757903D01*
X236226520Y-22836831D01*
X236355949Y-22943051D01*
X236462169Y-23072480D01*
X236527215Y-23194174D01*
X236541097Y-23220146D01*
X236589700Y-23380372D01*
X236589701Y-23380376D01*
X236602000Y-23505249D01*
X236602000Y-23738752D01*
X236589701Y-23863630D01*
X236541097Y-24023855D01*
X236462169Y-24171520D01*
X236355949Y-24300949D01*
X236226524Y-24407166D01*
X236172778Y-24435893D01*
X236078854Y-24486097D01*
X236035685Y-24499192D01*
X235918629Y-24534701D01*
X235752000Y-24551112D01*
X235585370Y-24534701D01*
X235425145Y-24486097D01*
X235277480Y-24407169D01*
X235148051Y-24300949D01*
X235041834Y-24171524D01*
X235008747Y-24109622D01*
X234962903Y-24023854D01*
X234949104Y-23978363D01*
X234914299Y-23863629D01*
X234902000Y-23738751D01*
X234902000Y-23505248D01*
X234914299Y-23380370D01*
X234962903Y-23220145D01*
X235041831Y-23072480D01*
X235148048Y-22943054D01*
X235277484Y-22836830D01*
X235425146Y-22757903D01*
X235585371Y-22709299D01*
X235752000Y-22692888D01*
X235918630Y-22709299D01*
X235918630Y-22709299D01*
G37*
G36*
X254171675Y-22700701D02*
X254201907Y-22709872D01*
X254229769Y-22724765D01*
X254254192Y-22744808D01*
X254274235Y-22769231D01*
X254289128Y-22797093D01*
X254298299Y-22827325D01*
X254302000Y-22864905D01*
X254302000Y-24379095D01*
X254298299Y-24416675D01*
X254289128Y-24446907D01*
X254274235Y-24474769D01*
X254254192Y-24499192D01*
X254229769Y-24519235D01*
X254201907Y-24534128D01*
X254171675Y-24543299D01*
X254134095Y-24547000D01*
X252769905Y-24547000D01*
X252732325Y-24543299D01*
X252702093Y-24534128D01*
X252674231Y-24519235D01*
X252649808Y-24499192D01*
X252629765Y-24474769D01*
X252614872Y-24446907D01*
X252605701Y-24416675D01*
X252602000Y-24379095D01*
X252602000Y-22864905D01*
X252605701Y-22827325D01*
X252614872Y-22797093D01*
X252629765Y-22769231D01*
X252649808Y-22744808D01*
X252674231Y-22724765D01*
X252702093Y-22709872D01*
X252732325Y-22700701D01*
X252769905Y-22697000D01*
X254134095Y-22697000D01*
X254171675Y-22700701D01*
X254171675Y-22700701D01*
G37*
G36*
X238971675Y-22700701D02*
X239001907Y-22709872D01*
X239029769Y-22724765D01*
X239054192Y-22744808D01*
X239074235Y-22769231D01*
X239089128Y-22797093D01*
X239098299Y-22827325D01*
X239102000Y-22864905D01*
X239102000Y-24379095D01*
X239098299Y-24416675D01*
X239089128Y-24446907D01*
X239074235Y-24474769D01*
X239054192Y-24499192D01*
X239029769Y-24519235D01*
X239001907Y-24534128D01*
X238971675Y-24543299D01*
X238934095Y-24547000D01*
X237569905Y-24547000D01*
X237532325Y-24543299D01*
X237502093Y-24534128D01*
X237474231Y-24519235D01*
X237449808Y-24499192D01*
X237429765Y-24474769D01*
X237414872Y-24446907D01*
X237405701Y-24416675D01*
X237402000Y-24379095D01*
X237402000Y-22864905D01*
X237405701Y-22827325D01*
X237414872Y-22797093D01*
X237429765Y-22769231D01*
X237449808Y-22744808D01*
X237474231Y-22724765D01*
X237502093Y-22709872D01*
X237532325Y-22700701D01*
X237569905Y-22697000D01*
X238934095Y-22697000D01*
X238971675Y-22700701D01*
X238971675Y-22700701D01*
G37*
G36*
X225001675Y-22700701D02*
X225031907Y-22709872D01*
X225059769Y-22724765D01*
X225084192Y-22744808D01*
X225104235Y-22769231D01*
X225119128Y-22797093D01*
X225128299Y-22827325D01*
X225132000Y-22864905D01*
X225132000Y-24379095D01*
X225128299Y-24416675D01*
X225119128Y-24446907D01*
X225104235Y-24474769D01*
X225084192Y-24499192D01*
X225059769Y-24519235D01*
X225031907Y-24534128D01*
X225001675Y-24543299D01*
X224964095Y-24547000D01*
X223599905Y-24547000D01*
X223562325Y-24543299D01*
X223532093Y-24534128D01*
X223504231Y-24519235D01*
X223479808Y-24499192D01*
X223459765Y-24474769D01*
X223444872Y-24446907D01*
X223435701Y-24416675D01*
X223432000Y-24379095D01*
X223432000Y-22864905D01*
X223435701Y-22827325D01*
X223444872Y-22797093D01*
X223459765Y-22769231D01*
X223479808Y-22744808D01*
X223504231Y-22724765D01*
X223532093Y-22709872D01*
X223562325Y-22700701D01*
X223599905Y-22697000D01*
X224964095Y-22697000D01*
X225001675Y-22700701D01*
X225001675Y-22700701D01*
G37*
G36*
X306495405Y-17369974D02*
X307077767Y-17611196D01*
X307601884Y-17961400D01*
X308047600Y-18407116D01*
X308397804Y-18931233D01*
X308639026Y-19513595D01*
X308762000Y-20131826D01*
X308762000Y-20762174D01*
X308639026Y-21380405D01*
X308397804Y-21962767D01*
X308047600Y-22486884D01*
X307601884Y-22932600D01*
X307077767Y-23282804D01*
X306495405Y-23524026D01*
X305877174Y-23647000D01*
X305246826Y-23647000D01*
X304628595Y-23524026D01*
X304046233Y-23282804D01*
X303522116Y-22932600D01*
X303076400Y-22486884D01*
X302726196Y-21962767D01*
X302484974Y-21380405D01*
X302362000Y-20762174D01*
X302362000Y-20131826D01*
X302484974Y-19513595D01*
X302726196Y-18931233D01*
X303076400Y-18407116D01*
X303522116Y-17961400D01*
X304046233Y-17611196D01*
X304628595Y-17369974D01*
X305246826Y-17247000D01*
X305877174Y-17247000D01*
X306495405Y-17369974D01*
X306495405Y-17369974D01*
G37*
G36*
X188385405Y-17369974D02*
X188967767Y-17611196D01*
X189491884Y-17961400D01*
X189937600Y-18407116D01*
X190287804Y-18931233D01*
X190529026Y-19513595D01*
X190652000Y-20131826D01*
X190652000Y-20762174D01*
X190529026Y-21380405D01*
X190287804Y-21962767D01*
X189937600Y-22486884D01*
X189491884Y-22932600D01*
X188967767Y-23282804D01*
X188385405Y-23524026D01*
X187767174Y-23647000D01*
X187136826Y-23647000D01*
X186518595Y-23524026D01*
X185936233Y-23282804D01*
X185412116Y-22932600D01*
X184966400Y-22486884D01*
X184616196Y-21962767D01*
X184374974Y-21380405D01*
X184252000Y-20762174D01*
X184252000Y-20131826D01*
X184374974Y-19513595D01*
X184616196Y-18931233D01*
X184966400Y-18407116D01*
X185412116Y-17961400D01*
X185936233Y-17611196D01*
X186518595Y-17369974D01*
X187136826Y-17247000D01*
X187767174Y-17247000D01*
X188385405Y-17369974D01*
X188385405Y-17369974D01*
G37*
G36*
X21380405Y-17369974D02*
X21962767Y-17611196D01*
X22486884Y-17961400D01*
X22932600Y-18407116D01*
X23282804Y-18931233D01*
X23524026Y-19513595D01*
X23647000Y-20131826D01*
X23647000Y-20762174D01*
X23524026Y-21380405D01*
X23282804Y-21962767D01*
X22932600Y-22486884D01*
X22486884Y-22932600D01*
X21962767Y-23282804D01*
X21380405Y-23524026D01*
X20762174Y-23647000D01*
X20131826Y-23647000D01*
X19513595Y-23524026D01*
X18931233Y-23282804D01*
X18407116Y-22932600D01*
X17961400Y-22486884D01*
X17611196Y-21962767D01*
X17369974Y-21380405D01*
X17247000Y-20762174D01*
X17247000Y-20131826D01*
X17369974Y-19513595D01*
X17611196Y-18931233D01*
X17961400Y-18407116D01*
X18407116Y-17961400D01*
X18931233Y-17611196D01*
X19513595Y-17369974D01*
X20131826Y-17247000D01*
X20762174Y-17247000D01*
X21380405Y-17369974D01*
X21380405Y-17369974D01*
G37*
G36*
X207448492Y-21656076D02*
X207482383Y-21666357D01*
X207513611Y-21683048D01*
X207540985Y-21705515D01*
X207563452Y-21732889D01*
X207580143Y-21764117D01*
X207590424Y-21798008D01*
X207594500Y-21839391D01*
X207594500Y-22864609D01*
X207590424Y-22905992D01*
X207580143Y-22939883D01*
X207563452Y-22971111D01*
X207540985Y-22998485D01*
X207513611Y-23020952D01*
X207482383Y-23037643D01*
X207448492Y-23047924D01*
X207407109Y-23052000D01*
X206806891Y-23052000D01*
X206765508Y-23047924D01*
X206731617Y-23037643D01*
X206700389Y-23020952D01*
X206673015Y-22998485D01*
X206650548Y-22971111D01*
X206633857Y-22939883D01*
X206623576Y-22905992D01*
X206619500Y-22864609D01*
X206619500Y-21839391D01*
X206623576Y-21798008D01*
X206633857Y-21764117D01*
X206650548Y-21732889D01*
X206673015Y-21705515D01*
X206700389Y-21683048D01*
X206731617Y-21666357D01*
X206765508Y-21656076D01*
X206806891Y-21652000D01*
X207407109Y-21652000D01*
X207448492Y-21656076D01*
X207448492Y-21656076D01*
G37*
G36*
X205573492Y-21656076D02*
X205607383Y-21666357D01*
X205638611Y-21683048D01*
X205665985Y-21705515D01*
X205688452Y-21732889D01*
X205705143Y-21764117D01*
X205715424Y-21798008D01*
X205719500Y-21839391D01*
X205719500Y-22864609D01*
X205715424Y-22905992D01*
X205705143Y-22939883D01*
X205688452Y-22971111D01*
X205665985Y-22998485D01*
X205638611Y-23020952D01*
X205607383Y-23037643D01*
X205573492Y-23047924D01*
X205532109Y-23052000D01*
X204931891Y-23052000D01*
X204890508Y-23047924D01*
X204856617Y-23037643D01*
X204825389Y-23020952D01*
X204798015Y-22998485D01*
X204775548Y-22971111D01*
X204758857Y-22939883D01*
X204748576Y-22905992D01*
X204744500Y-22864609D01*
X204744500Y-21839391D01*
X204748576Y-21798008D01*
X204758857Y-21764117D01*
X204775548Y-21732889D01*
X204798015Y-21705515D01*
X204825389Y-21683048D01*
X204856617Y-21666357D01*
X204890508Y-21656076D01*
X204931891Y-21652000D01*
X205532109Y-21652000D01*
X205573492Y-21656076D01*
X205573492Y-21656076D01*
G37*
G36*
X200493492Y-21656076D02*
X200527383Y-21666357D01*
X200558611Y-21683048D01*
X200585985Y-21705515D01*
X200608452Y-21732889D01*
X200625143Y-21764117D01*
X200635424Y-21798008D01*
X200639500Y-21839391D01*
X200639500Y-22864609D01*
X200635424Y-22905992D01*
X200625143Y-22939883D01*
X200608452Y-22971111D01*
X200585985Y-22998485D01*
X200558611Y-23020952D01*
X200527383Y-23037643D01*
X200493492Y-23047924D01*
X200452109Y-23052000D01*
X199851891Y-23052000D01*
X199810508Y-23047924D01*
X199776617Y-23037643D01*
X199745389Y-23020952D01*
X199718015Y-22998485D01*
X199695548Y-22971111D01*
X199678857Y-22939883D01*
X199668576Y-22905992D01*
X199664500Y-22864609D01*
X199664500Y-21839391D01*
X199668576Y-21798008D01*
X199678857Y-21764117D01*
X199695548Y-21732889D01*
X199718015Y-21705515D01*
X199745389Y-21683048D01*
X199776617Y-21666357D01*
X199810508Y-21656076D01*
X199851891Y-21652000D01*
X200452109Y-21652000D01*
X200493492Y-21656076D01*
X200493492Y-21656076D01*
G37*
G36*
X198618492Y-21656076D02*
X198652383Y-21666357D01*
X198683611Y-21683048D01*
X198710985Y-21705515D01*
X198733452Y-21732889D01*
X198750143Y-21764117D01*
X198760424Y-21798008D01*
X198764500Y-21839391D01*
X198764500Y-22864609D01*
X198760424Y-22905992D01*
X198750143Y-22939883D01*
X198733452Y-22971111D01*
X198710985Y-22998485D01*
X198683611Y-23020952D01*
X198652383Y-23037643D01*
X198618492Y-23047924D01*
X198577109Y-23052000D01*
X197976891Y-23052000D01*
X197935508Y-23047924D01*
X197901617Y-23037643D01*
X197870389Y-23020952D01*
X197843015Y-22998485D01*
X197820548Y-22971111D01*
X197803857Y-22939883D01*
X197793576Y-22905992D01*
X197789500Y-22864609D01*
X197789500Y-21839391D01*
X197793576Y-21798008D01*
X197803857Y-21764117D01*
X197820548Y-21732889D01*
X197843015Y-21705515D01*
X197870389Y-21683048D01*
X197901617Y-21666357D01*
X197935508Y-21656076D01*
X197976891Y-21652000D01*
X198577109Y-21652000D01*
X198618492Y-21656076D01*
X198618492Y-21656076D01*
G37*
M02*
