G04 #@! TF.GenerationSoftware,KiCad,Pcbnew,(5.0.2)-1*
G04 #@! TF.CreationDate,2019-05-10T13:06:01+02:00*
G04 #@! TF.ProjectId,moc_main,6d6f635f-6d61-4696-9e2e-6b696361645f,rev?*
G04 #@! TF.SameCoordinates,Original*
G04 #@! TF.FileFunction,Legend,Bot*
G04 #@! TF.FilePolarity,Positive*
%FSLAX46Y46*%
G04 Gerber Fmt 4.6, Leading zero omitted, Abs format (unit mm)*
G04 Created by KiCad (PCBNEW (5.0.2)-1) date 10.05.2019 13:06:01*
%MOMM*%
%LPD*%
G01*
G04 APERTURE LIST*
%ADD10C,0.120000*%
%ADD11C,0.150000*%
G04 APERTURE END LIST*
D10*
G04 #@! TO.C,R9*
X240219500Y-48010922D02*
X240219500Y-48528078D01*
X241639500Y-48010922D02*
X241639500Y-48528078D01*
G04 #@! TO.C,D17*
X235642000Y-53732000D02*
X235642000Y-48032000D01*
X231342000Y-53732000D02*
X231342000Y-48032000D01*
X235642000Y-53732000D02*
X231342000Y-53732000D01*
G04 #@! TO.C,C23*
X254362000Y-98952000D02*
X254362000Y-101302000D01*
X254362000Y-105772000D02*
X254362000Y-103422000D01*
X248606437Y-105772000D02*
X254362000Y-105772000D01*
X248606437Y-98952000D02*
X254362000Y-98952000D01*
X247542000Y-100016437D02*
X247542000Y-101302000D01*
X247542000Y-104707563D02*
X247542000Y-103422000D01*
X247542000Y-104707563D02*
X248606437Y-105772000D01*
X247542000Y-100016437D02*
X248606437Y-98952000D01*
X246514500Y-104209500D02*
X247302000Y-104209500D01*
X246908250Y-104603250D02*
X246908250Y-103815750D01*
G04 #@! TO.C,C24*
X247852000Y-54360578D02*
X247852000Y-53843422D01*
X246432000Y-54360578D02*
X246432000Y-53843422D01*
G04 #@! TO.C,C25*
X250877000Y-54360578D02*
X250877000Y-53843422D01*
X252297000Y-54360578D02*
X252297000Y-53843422D01*
G04 #@! TO.C,C26*
X245952000Y-73622000D02*
X245952000Y-72622000D01*
X245452000Y-73122000D02*
X246452000Y-73122000D01*
X246692000Y-67416437D02*
X247756437Y-66352000D01*
X246692000Y-73807563D02*
X247756437Y-74872000D01*
X246692000Y-73807563D02*
X246692000Y-72122000D01*
X246692000Y-67416437D02*
X246692000Y-69102000D01*
X247756437Y-66352000D02*
X255212000Y-66352000D01*
X247756437Y-74872000D02*
X255212000Y-74872000D01*
X255212000Y-74872000D02*
X255212000Y-72122000D01*
X255212000Y-66352000D02*
X255212000Y-69102000D01*
G04 #@! TO.C,D9*
X235992000Y-41332000D02*
X240292000Y-41332000D01*
X240292000Y-41332000D02*
X240292000Y-43332000D01*
X240292000Y-43332000D02*
X235992000Y-43332000D01*
G04 #@! TO.C,D12*
X199362000Y-25892000D02*
X195062000Y-25892000D01*
X195062000Y-25892000D02*
X195062000Y-23892000D01*
X195062000Y-23892000D02*
X199362000Y-23892000D01*
G04 #@! TO.C,D13*
X209522000Y-25892000D02*
X205222000Y-25892000D01*
X205222000Y-25892000D02*
X205222000Y-23892000D01*
X205222000Y-23892000D02*
X209522000Y-23892000D01*
D11*
G04 #@! TO.C,Q6*
X229682000Y-50932000D02*
X229682000Y-58932000D01*
X218882000Y-61932000D02*
X218882000Y-47832000D01*
X218882000Y-47832000D02*
X220582000Y-47832000D01*
G04 #@! TO.C,Q7*
X216982000Y-77662000D02*
X215282000Y-77662000D01*
X216982000Y-63562000D02*
X216982000Y-77662000D01*
X206182000Y-74562000D02*
X206182000Y-66562000D01*
G04 #@! TO.C,Q8*
X206182000Y-47832000D02*
X207882000Y-47832000D01*
X206182000Y-61932000D02*
X206182000Y-47832000D01*
X216982000Y-50932000D02*
X216982000Y-58932000D01*
G04 #@! TO.C,Q9*
X229682000Y-77662000D02*
X227982000Y-77662000D01*
X229682000Y-63562000D02*
X229682000Y-77662000D01*
X218882000Y-74562000D02*
X218882000Y-66562000D01*
D10*
G04 #@! TO.C,R8*
X197353422Y-26722000D02*
X197870578Y-26722000D01*
X197353422Y-28142000D02*
X197870578Y-28142000D01*
G04 #@! TO.C,R10*
X238202000Y-48528078D02*
X238202000Y-48010922D01*
X236782000Y-48528078D02*
X236782000Y-48010922D01*
G04 #@! TO.C,R15*
X238930922Y-28142000D02*
X239448078Y-28142000D01*
X238930922Y-26722000D02*
X239448078Y-26722000D01*
G04 #@! TO.C,R16*
X250360922Y-26722000D02*
X250878078Y-26722000D01*
X250360922Y-28142000D02*
X250878078Y-28142000D01*
G04 #@! TO.C,D18*
X232342000Y-73782000D02*
X236642000Y-73782000D01*
X236642000Y-73782000D02*
X236642000Y-79482000D01*
X232342000Y-73782000D02*
X232342000Y-79482000D01*
G04 #@! TO.C,R18*
X202433422Y-76402000D02*
X202950578Y-76402000D01*
X202433422Y-74982000D02*
X202950578Y-74982000D01*
G04 #@! TO.C,R9*
D11*
X239476880Y-48102833D02*
X239000690Y-47769500D01*
X239476880Y-47531404D02*
X238476880Y-47531404D01*
X238476880Y-47912357D01*
X238524500Y-48007595D01*
X238572119Y-48055214D01*
X238667357Y-48102833D01*
X238810214Y-48102833D01*
X238905452Y-48055214D01*
X238953071Y-48007595D01*
X239000690Y-47912357D01*
X239000690Y-47531404D01*
X239476880Y-48579023D02*
X239476880Y-48769500D01*
X239429261Y-48864738D01*
X239381642Y-48912357D01*
X239238785Y-49007595D01*
X239048309Y-49055214D01*
X238667357Y-49055214D01*
X238572119Y-49007595D01*
X238524500Y-48959976D01*
X238476880Y-48864738D01*
X238476880Y-48674261D01*
X238524500Y-48579023D01*
X238572119Y-48531404D01*
X238667357Y-48483785D01*
X238905452Y-48483785D01*
X239000690Y-48531404D01*
X239048309Y-48579023D01*
X239095928Y-48674261D01*
X239095928Y-48864738D01*
X239048309Y-48959976D01*
X239000690Y-49007595D01*
X238905452Y-49055214D01*
G04 #@! TO.C,D17*
X236944380Y-48967714D02*
X235944380Y-48967714D01*
X235944380Y-49205809D01*
X235992000Y-49348666D01*
X236087238Y-49443904D01*
X236182476Y-49491523D01*
X236372952Y-49539142D01*
X236515809Y-49539142D01*
X236706285Y-49491523D01*
X236801523Y-49443904D01*
X236896761Y-49348666D01*
X236944380Y-49205809D01*
X236944380Y-48967714D01*
X236944380Y-50491523D02*
X236944380Y-49920095D01*
X236944380Y-50205809D02*
X235944380Y-50205809D01*
X236087238Y-50110571D01*
X236182476Y-50015333D01*
X236230095Y-49920095D01*
X235944380Y-50824857D02*
X235944380Y-51491523D01*
X236944380Y-51062952D01*
G04 #@! TO.C,C23*
X251594857Y-107069142D02*
X251642476Y-107116761D01*
X251785333Y-107164380D01*
X251880571Y-107164380D01*
X252023428Y-107116761D01*
X252118666Y-107021523D01*
X252166285Y-106926285D01*
X252213904Y-106735809D01*
X252213904Y-106592952D01*
X252166285Y-106402476D01*
X252118666Y-106307238D01*
X252023428Y-106212000D01*
X251880571Y-106164380D01*
X251785333Y-106164380D01*
X251642476Y-106212000D01*
X251594857Y-106259619D01*
X251213904Y-106259619D02*
X251166285Y-106212000D01*
X251071047Y-106164380D01*
X250832952Y-106164380D01*
X250737714Y-106212000D01*
X250690095Y-106259619D01*
X250642476Y-106354857D01*
X250642476Y-106450095D01*
X250690095Y-106592952D01*
X251261523Y-107164380D01*
X250642476Y-107164380D01*
X250309142Y-106164380D02*
X249690095Y-106164380D01*
X250023428Y-106545333D01*
X249880571Y-106545333D01*
X249785333Y-106592952D01*
X249737714Y-106640571D01*
X249690095Y-106735809D01*
X249690095Y-106973904D01*
X249737714Y-107069142D01*
X249785333Y-107116761D01*
X249880571Y-107164380D01*
X250166285Y-107164380D01*
X250261523Y-107116761D01*
X250309142Y-107069142D01*
G04 #@! TO.C,C24*
X249149142Y-53459142D02*
X249196761Y-53411523D01*
X249244380Y-53268666D01*
X249244380Y-53173428D01*
X249196761Y-53030571D01*
X249101523Y-52935333D01*
X249006285Y-52887714D01*
X248815809Y-52840095D01*
X248672952Y-52840095D01*
X248482476Y-52887714D01*
X248387238Y-52935333D01*
X248292000Y-53030571D01*
X248244380Y-53173428D01*
X248244380Y-53268666D01*
X248292000Y-53411523D01*
X248339619Y-53459142D01*
X248339619Y-53840095D02*
X248292000Y-53887714D01*
X248244380Y-53982952D01*
X248244380Y-54221047D01*
X248292000Y-54316285D01*
X248339619Y-54363904D01*
X248434857Y-54411523D01*
X248530095Y-54411523D01*
X248672952Y-54363904D01*
X249244380Y-53792476D01*
X249244380Y-54411523D01*
X248577714Y-55268666D02*
X249244380Y-55268666D01*
X248196761Y-55030571D02*
X248911047Y-54792476D01*
X248911047Y-55411523D01*
G04 #@! TO.C,C25*
X253594142Y-53459142D02*
X253641761Y-53411523D01*
X253689380Y-53268666D01*
X253689380Y-53173428D01*
X253641761Y-53030571D01*
X253546523Y-52935333D01*
X253451285Y-52887714D01*
X253260809Y-52840095D01*
X253117952Y-52840095D01*
X252927476Y-52887714D01*
X252832238Y-52935333D01*
X252737000Y-53030571D01*
X252689380Y-53173428D01*
X252689380Y-53268666D01*
X252737000Y-53411523D01*
X252784619Y-53459142D01*
X252784619Y-53840095D02*
X252737000Y-53887714D01*
X252689380Y-53982952D01*
X252689380Y-54221047D01*
X252737000Y-54316285D01*
X252784619Y-54363904D01*
X252879857Y-54411523D01*
X252975095Y-54411523D01*
X253117952Y-54363904D01*
X253689380Y-53792476D01*
X253689380Y-54411523D01*
X252689380Y-55316285D02*
X252689380Y-54840095D01*
X253165571Y-54792476D01*
X253117952Y-54840095D01*
X253070333Y-54935333D01*
X253070333Y-55173428D01*
X253117952Y-55268666D01*
X253165571Y-55316285D01*
X253260809Y-55363904D01*
X253498904Y-55363904D01*
X253594142Y-55316285D01*
X253641761Y-55268666D01*
X253689380Y-55173428D01*
X253689380Y-54935333D01*
X253641761Y-54840095D01*
X253594142Y-54792476D01*
G04 #@! TO.C,C26*
X251594857Y-76169142D02*
X251642476Y-76216761D01*
X251785333Y-76264380D01*
X251880571Y-76264380D01*
X252023428Y-76216761D01*
X252118666Y-76121523D01*
X252166285Y-76026285D01*
X252213904Y-75835809D01*
X252213904Y-75692952D01*
X252166285Y-75502476D01*
X252118666Y-75407238D01*
X252023428Y-75312000D01*
X251880571Y-75264380D01*
X251785333Y-75264380D01*
X251642476Y-75312000D01*
X251594857Y-75359619D01*
X251213904Y-75359619D02*
X251166285Y-75312000D01*
X251071047Y-75264380D01*
X250832952Y-75264380D01*
X250737714Y-75312000D01*
X250690095Y-75359619D01*
X250642476Y-75454857D01*
X250642476Y-75550095D01*
X250690095Y-75692952D01*
X251261523Y-76264380D01*
X250642476Y-76264380D01*
X249785333Y-75264380D02*
X249975809Y-75264380D01*
X250071047Y-75312000D01*
X250118666Y-75359619D01*
X250213904Y-75502476D01*
X250261523Y-75692952D01*
X250261523Y-76073904D01*
X250213904Y-76169142D01*
X250166285Y-76216761D01*
X250071047Y-76264380D01*
X249880571Y-76264380D01*
X249785333Y-76216761D01*
X249737714Y-76169142D01*
X249690095Y-76073904D01*
X249690095Y-75835809D01*
X249737714Y-75740571D01*
X249785333Y-75692952D01*
X249880571Y-75645333D01*
X250071047Y-75645333D01*
X250166285Y-75692952D01*
X250213904Y-75740571D01*
X250261523Y-75835809D01*
G04 #@! TO.C,D9*
X238480095Y-40784380D02*
X238480095Y-39784380D01*
X238242000Y-39784380D01*
X238099142Y-39832000D01*
X238003904Y-39927238D01*
X237956285Y-40022476D01*
X237908666Y-40212952D01*
X237908666Y-40355809D01*
X237956285Y-40546285D01*
X238003904Y-40641523D01*
X238099142Y-40736761D01*
X238242000Y-40784380D01*
X238480095Y-40784380D01*
X237432476Y-40784380D02*
X237242000Y-40784380D01*
X237146761Y-40736761D01*
X237099142Y-40689142D01*
X237003904Y-40546285D01*
X236956285Y-40355809D01*
X236956285Y-39974857D01*
X237003904Y-39879619D01*
X237051523Y-39832000D01*
X237146761Y-39784380D01*
X237337238Y-39784380D01*
X237432476Y-39832000D01*
X237480095Y-39879619D01*
X237527714Y-39974857D01*
X237527714Y-40212952D01*
X237480095Y-40308190D01*
X237432476Y-40355809D01*
X237337238Y-40403428D01*
X237146761Y-40403428D01*
X237051523Y-40355809D01*
X237003904Y-40308190D01*
X236956285Y-40212952D01*
G04 #@! TO.C,D12*
X194381285Y-24709380D02*
X194381285Y-23709380D01*
X194143190Y-23709380D01*
X194000333Y-23757000D01*
X193905095Y-23852238D01*
X193857476Y-23947476D01*
X193809857Y-24137952D01*
X193809857Y-24280809D01*
X193857476Y-24471285D01*
X193905095Y-24566523D01*
X194000333Y-24661761D01*
X194143190Y-24709380D01*
X194381285Y-24709380D01*
X192857476Y-24709380D02*
X193428904Y-24709380D01*
X193143190Y-24709380D02*
X193143190Y-23709380D01*
X193238428Y-23852238D01*
X193333666Y-23947476D01*
X193428904Y-23995095D01*
X192476523Y-23804619D02*
X192428904Y-23757000D01*
X192333666Y-23709380D01*
X192095571Y-23709380D01*
X192000333Y-23757000D01*
X191952714Y-23804619D01*
X191905095Y-23899857D01*
X191905095Y-23995095D01*
X191952714Y-24137952D01*
X192524142Y-24709380D01*
X191905095Y-24709380D01*
G04 #@! TO.C,D13*
X213431285Y-24709380D02*
X213431285Y-23709380D01*
X213193190Y-23709380D01*
X213050333Y-23757000D01*
X212955095Y-23852238D01*
X212907476Y-23947476D01*
X212859857Y-24137952D01*
X212859857Y-24280809D01*
X212907476Y-24471285D01*
X212955095Y-24566523D01*
X213050333Y-24661761D01*
X213193190Y-24709380D01*
X213431285Y-24709380D01*
X211907476Y-24709380D02*
X212478904Y-24709380D01*
X212193190Y-24709380D02*
X212193190Y-23709380D01*
X212288428Y-23852238D01*
X212383666Y-23947476D01*
X212478904Y-23995095D01*
X211574142Y-23709380D02*
X210955095Y-23709380D01*
X211288428Y-24090333D01*
X211145571Y-24090333D01*
X211050333Y-24137952D01*
X211002714Y-24185571D01*
X210955095Y-24280809D01*
X210955095Y-24518904D01*
X211002714Y-24614142D01*
X211050333Y-24661761D01*
X211145571Y-24709380D01*
X211431285Y-24709380D01*
X211526523Y-24661761D01*
X211574142Y-24614142D01*
G04 #@! TO.C,Q6*
X218579619Y-54786761D02*
X218532000Y-54691523D01*
X218436761Y-54596285D01*
X218293904Y-54453428D01*
X218246285Y-54358190D01*
X218246285Y-54262952D01*
X218484380Y-54310571D02*
X218436761Y-54215333D01*
X218341523Y-54120095D01*
X218151047Y-54072476D01*
X217817714Y-54072476D01*
X217627238Y-54120095D01*
X217532000Y-54215333D01*
X217484380Y-54310571D01*
X217484380Y-54501047D01*
X217532000Y-54596285D01*
X217627238Y-54691523D01*
X217817714Y-54739142D01*
X218151047Y-54739142D01*
X218341523Y-54691523D01*
X218436761Y-54596285D01*
X218484380Y-54501047D01*
X218484380Y-54310571D01*
X217484380Y-55596285D02*
X217484380Y-55405809D01*
X217532000Y-55310571D01*
X217579619Y-55262952D01*
X217722476Y-55167714D01*
X217912952Y-55120095D01*
X218293904Y-55120095D01*
X218389142Y-55167714D01*
X218436761Y-55215333D01*
X218484380Y-55310571D01*
X218484380Y-55501047D01*
X218436761Y-55596285D01*
X218389142Y-55643904D01*
X218293904Y-55691523D01*
X218055809Y-55691523D01*
X217960571Y-55643904D01*
X217912952Y-55596285D01*
X217865333Y-55501047D01*
X217865333Y-55310571D01*
X217912952Y-55215333D01*
X217960571Y-55167714D01*
X218055809Y-55120095D01*
G04 #@! TO.C,Q7*
X218379619Y-70516761D02*
X218332000Y-70421523D01*
X218236761Y-70326285D01*
X218093904Y-70183428D01*
X218046285Y-70088190D01*
X218046285Y-69992952D01*
X218284380Y-70040571D02*
X218236761Y-69945333D01*
X218141523Y-69850095D01*
X217951047Y-69802476D01*
X217617714Y-69802476D01*
X217427238Y-69850095D01*
X217332000Y-69945333D01*
X217284380Y-70040571D01*
X217284380Y-70231047D01*
X217332000Y-70326285D01*
X217427238Y-70421523D01*
X217617714Y-70469142D01*
X217951047Y-70469142D01*
X218141523Y-70421523D01*
X218236761Y-70326285D01*
X218284380Y-70231047D01*
X218284380Y-70040571D01*
X217284380Y-70802476D02*
X217284380Y-71469142D01*
X218284380Y-71040571D01*
G04 #@! TO.C,Q8*
X205879619Y-54786761D02*
X205832000Y-54691523D01*
X205736761Y-54596285D01*
X205593904Y-54453428D01*
X205546285Y-54358190D01*
X205546285Y-54262952D01*
X205784380Y-54310571D02*
X205736761Y-54215333D01*
X205641523Y-54120095D01*
X205451047Y-54072476D01*
X205117714Y-54072476D01*
X204927238Y-54120095D01*
X204832000Y-54215333D01*
X204784380Y-54310571D01*
X204784380Y-54501047D01*
X204832000Y-54596285D01*
X204927238Y-54691523D01*
X205117714Y-54739142D01*
X205451047Y-54739142D01*
X205641523Y-54691523D01*
X205736761Y-54596285D01*
X205784380Y-54501047D01*
X205784380Y-54310571D01*
X205212952Y-55310571D02*
X205165333Y-55215333D01*
X205117714Y-55167714D01*
X205022476Y-55120095D01*
X204974857Y-55120095D01*
X204879619Y-55167714D01*
X204832000Y-55215333D01*
X204784380Y-55310571D01*
X204784380Y-55501047D01*
X204832000Y-55596285D01*
X204879619Y-55643904D01*
X204974857Y-55691523D01*
X205022476Y-55691523D01*
X205117714Y-55643904D01*
X205165333Y-55596285D01*
X205212952Y-55501047D01*
X205212952Y-55310571D01*
X205260571Y-55215333D01*
X205308190Y-55167714D01*
X205403428Y-55120095D01*
X205593904Y-55120095D01*
X205689142Y-55167714D01*
X205736761Y-55215333D01*
X205784380Y-55310571D01*
X205784380Y-55501047D01*
X205736761Y-55596285D01*
X205689142Y-55643904D01*
X205593904Y-55691523D01*
X205403428Y-55691523D01*
X205308190Y-55643904D01*
X205260571Y-55596285D01*
X205212952Y-55501047D01*
G04 #@! TO.C,Q9*
X231079619Y-70516761D02*
X231032000Y-70421523D01*
X230936761Y-70326285D01*
X230793904Y-70183428D01*
X230746285Y-70088190D01*
X230746285Y-69992952D01*
X230984380Y-70040571D02*
X230936761Y-69945333D01*
X230841523Y-69850095D01*
X230651047Y-69802476D01*
X230317714Y-69802476D01*
X230127238Y-69850095D01*
X230032000Y-69945333D01*
X229984380Y-70040571D01*
X229984380Y-70231047D01*
X230032000Y-70326285D01*
X230127238Y-70421523D01*
X230317714Y-70469142D01*
X230651047Y-70469142D01*
X230841523Y-70421523D01*
X230936761Y-70326285D01*
X230984380Y-70231047D01*
X230984380Y-70040571D01*
X230984380Y-70945333D02*
X230984380Y-71135809D01*
X230936761Y-71231047D01*
X230889142Y-71278666D01*
X230746285Y-71373904D01*
X230555809Y-71421523D01*
X230174857Y-71421523D01*
X230079619Y-71373904D01*
X230032000Y-71326285D01*
X229984380Y-71231047D01*
X229984380Y-71040571D01*
X230032000Y-70945333D01*
X230079619Y-70897714D01*
X230174857Y-70850095D01*
X230412952Y-70850095D01*
X230508190Y-70897714D01*
X230555809Y-70945333D01*
X230603428Y-71040571D01*
X230603428Y-71231047D01*
X230555809Y-71326285D01*
X230508190Y-71373904D01*
X230412952Y-71421523D01*
G04 #@! TO.C,R8*
X199048666Y-29789380D02*
X199382000Y-29313190D01*
X199620095Y-29789380D02*
X199620095Y-28789380D01*
X199239142Y-28789380D01*
X199143904Y-28837000D01*
X199096285Y-28884619D01*
X199048666Y-28979857D01*
X199048666Y-29122714D01*
X199096285Y-29217952D01*
X199143904Y-29265571D01*
X199239142Y-29313190D01*
X199620095Y-29313190D01*
X198477238Y-29217952D02*
X198572476Y-29170333D01*
X198620095Y-29122714D01*
X198667714Y-29027476D01*
X198667714Y-28979857D01*
X198620095Y-28884619D01*
X198572476Y-28837000D01*
X198477238Y-28789380D01*
X198286761Y-28789380D01*
X198191523Y-28837000D01*
X198143904Y-28884619D01*
X198096285Y-28979857D01*
X198096285Y-29027476D01*
X198143904Y-29122714D01*
X198191523Y-29170333D01*
X198286761Y-29217952D01*
X198477238Y-29217952D01*
X198572476Y-29265571D01*
X198620095Y-29313190D01*
X198667714Y-29408428D01*
X198667714Y-29598904D01*
X198620095Y-29694142D01*
X198572476Y-29741761D01*
X198477238Y-29789380D01*
X198286761Y-29789380D01*
X198191523Y-29741761D01*
X198143904Y-29694142D01*
X198096285Y-29598904D01*
X198096285Y-29408428D01*
X198143904Y-29313190D01*
X198191523Y-29265571D01*
X198286761Y-29217952D01*
G04 #@! TO.C,R10*
X239594380Y-47626642D02*
X239118190Y-47293309D01*
X239594380Y-47055214D02*
X238594380Y-47055214D01*
X238594380Y-47436166D01*
X238642000Y-47531404D01*
X238689619Y-47579023D01*
X238784857Y-47626642D01*
X238927714Y-47626642D01*
X239022952Y-47579023D01*
X239070571Y-47531404D01*
X239118190Y-47436166D01*
X239118190Y-47055214D01*
X239594380Y-48579023D02*
X239594380Y-48007595D01*
X239594380Y-48293309D02*
X238594380Y-48293309D01*
X238737238Y-48198071D01*
X238832476Y-48102833D01*
X238880095Y-48007595D01*
X238594380Y-49198071D02*
X238594380Y-49293309D01*
X238642000Y-49388547D01*
X238689619Y-49436166D01*
X238784857Y-49483785D01*
X238975333Y-49531404D01*
X239213428Y-49531404D01*
X239403904Y-49483785D01*
X239499142Y-49436166D01*
X239546761Y-49388547D01*
X239594380Y-49293309D01*
X239594380Y-49198071D01*
X239546761Y-49102833D01*
X239499142Y-49055214D01*
X239403904Y-49007595D01*
X239213428Y-48959976D01*
X238975333Y-48959976D01*
X238784857Y-49007595D01*
X238689619Y-49055214D01*
X238642000Y-49102833D01*
X238594380Y-49198071D01*
G04 #@! TO.C,R15*
X243339857Y-29789380D02*
X243673190Y-29313190D01*
X243911285Y-29789380D02*
X243911285Y-28789380D01*
X243530333Y-28789380D01*
X243435095Y-28837000D01*
X243387476Y-28884619D01*
X243339857Y-28979857D01*
X243339857Y-29122714D01*
X243387476Y-29217952D01*
X243435095Y-29265571D01*
X243530333Y-29313190D01*
X243911285Y-29313190D01*
X242387476Y-29789380D02*
X242958904Y-29789380D01*
X242673190Y-29789380D02*
X242673190Y-28789380D01*
X242768428Y-28932238D01*
X242863666Y-29027476D01*
X242958904Y-29075095D01*
X241482714Y-28789380D02*
X241958904Y-28789380D01*
X242006523Y-29265571D01*
X241958904Y-29217952D01*
X241863666Y-29170333D01*
X241625571Y-29170333D01*
X241530333Y-29217952D01*
X241482714Y-29265571D01*
X241435095Y-29360809D01*
X241435095Y-29598904D01*
X241482714Y-29694142D01*
X241530333Y-29741761D01*
X241625571Y-29789380D01*
X241863666Y-29789380D01*
X241958904Y-29741761D01*
X242006523Y-29694142D01*
G04 #@! TO.C,R16*
X251262357Y-29534380D02*
X251595690Y-29058190D01*
X251833785Y-29534380D02*
X251833785Y-28534380D01*
X251452833Y-28534380D01*
X251357595Y-28582000D01*
X251309976Y-28629619D01*
X251262357Y-28724857D01*
X251262357Y-28867714D01*
X251309976Y-28962952D01*
X251357595Y-29010571D01*
X251452833Y-29058190D01*
X251833785Y-29058190D01*
X250309976Y-29534380D02*
X250881404Y-29534380D01*
X250595690Y-29534380D02*
X250595690Y-28534380D01*
X250690928Y-28677238D01*
X250786166Y-28772476D01*
X250881404Y-28820095D01*
X249452833Y-28534380D02*
X249643309Y-28534380D01*
X249738547Y-28582000D01*
X249786166Y-28629619D01*
X249881404Y-28772476D01*
X249929023Y-28962952D01*
X249929023Y-29343904D01*
X249881404Y-29439142D01*
X249833785Y-29486761D01*
X249738547Y-29534380D01*
X249548071Y-29534380D01*
X249452833Y-29486761D01*
X249405214Y-29439142D01*
X249357595Y-29343904D01*
X249357595Y-29105809D01*
X249405214Y-29010571D01*
X249452833Y-28962952D01*
X249548071Y-28915333D01*
X249738547Y-28915333D01*
X249833785Y-28962952D01*
X249881404Y-29010571D01*
X249929023Y-29105809D01*
G04 #@! TO.C,D18*
X231944380Y-76117714D02*
X230944380Y-76117714D01*
X230944380Y-76355809D01*
X230992000Y-76498666D01*
X231087238Y-76593904D01*
X231182476Y-76641523D01*
X231372952Y-76689142D01*
X231515809Y-76689142D01*
X231706285Y-76641523D01*
X231801523Y-76593904D01*
X231896761Y-76498666D01*
X231944380Y-76355809D01*
X231944380Y-76117714D01*
X231944380Y-77641523D02*
X231944380Y-77070095D01*
X231944380Y-77355809D02*
X230944380Y-77355809D01*
X231087238Y-77260571D01*
X231182476Y-77165333D01*
X231230095Y-77070095D01*
X231372952Y-78212952D02*
X231325333Y-78117714D01*
X231277714Y-78070095D01*
X231182476Y-78022476D01*
X231134857Y-78022476D01*
X231039619Y-78070095D01*
X230992000Y-78117714D01*
X230944380Y-78212952D01*
X230944380Y-78403428D01*
X230992000Y-78498666D01*
X231039619Y-78546285D01*
X231134857Y-78593904D01*
X231182476Y-78593904D01*
X231277714Y-78546285D01*
X231325333Y-78498666D01*
X231372952Y-78403428D01*
X231372952Y-78212952D01*
X231420571Y-78117714D01*
X231468190Y-78070095D01*
X231563428Y-78022476D01*
X231753904Y-78022476D01*
X231849142Y-78070095D01*
X231896761Y-78117714D01*
X231944380Y-78212952D01*
X231944380Y-78403428D01*
X231896761Y-78498666D01*
X231849142Y-78546285D01*
X231753904Y-78593904D01*
X231563428Y-78593904D01*
X231468190Y-78546285D01*
X231420571Y-78498666D01*
X231372952Y-78403428D01*
G04 #@! TO.C,R18*
X203334857Y-77794380D02*
X203668190Y-77318190D01*
X203906285Y-77794380D02*
X203906285Y-76794380D01*
X203525333Y-76794380D01*
X203430095Y-76842000D01*
X203382476Y-76889619D01*
X203334857Y-76984857D01*
X203334857Y-77127714D01*
X203382476Y-77222952D01*
X203430095Y-77270571D01*
X203525333Y-77318190D01*
X203906285Y-77318190D01*
X202382476Y-77794380D02*
X202953904Y-77794380D01*
X202668190Y-77794380D02*
X202668190Y-76794380D01*
X202763428Y-76937238D01*
X202858666Y-77032476D01*
X202953904Y-77080095D01*
X201811047Y-77222952D02*
X201906285Y-77175333D01*
X201953904Y-77127714D01*
X202001523Y-77032476D01*
X202001523Y-76984857D01*
X201953904Y-76889619D01*
X201906285Y-76842000D01*
X201811047Y-76794380D01*
X201620571Y-76794380D01*
X201525333Y-76842000D01*
X201477714Y-76889619D01*
X201430095Y-76984857D01*
X201430095Y-77032476D01*
X201477714Y-77127714D01*
X201525333Y-77175333D01*
X201620571Y-77222952D01*
X201811047Y-77222952D01*
X201906285Y-77270571D01*
X201953904Y-77318190D01*
X202001523Y-77413428D01*
X202001523Y-77603904D01*
X201953904Y-77699142D01*
X201906285Y-77746761D01*
X201811047Y-77794380D01*
X201620571Y-77794380D01*
X201525333Y-77746761D01*
X201477714Y-77699142D01*
X201430095Y-77603904D01*
X201430095Y-77413428D01*
X201477714Y-77318190D01*
X201525333Y-77270571D01*
X201620571Y-77222952D01*
G04 #@! TD*
M02*
