G04 #@! TF.GenerationSoftware,KiCad,Pcbnew,(5.0.2)-1*
G04 #@! TF.CreationDate,2019-05-10T13:06:01+02:00*
G04 #@! TF.ProjectId,moc_main,6d6f635f-6d61-4696-9e2e-6b696361645f,rev?*
G04 #@! TF.SameCoordinates,Original*
G04 #@! TF.FileFunction,Paste,Bot*
G04 #@! TF.FilePolarity,Positive*
%FSLAX46Y46*%
G04 Gerber Fmt 4.6, Leading zero omitted, Abs format (unit mm)*
G04 Created by KiCad (PCBNEW (5.0.2)-1) date 10.05.2019 13:06:01*
%MOMM*%
%LPD*%
G01*
G04 APERTURE LIST*
%ADD10C,0.100000*%
%ADD11C,0.975000*%
%ADD12R,2.300000X2.500000*%
%ADD13C,1.600000*%
%ADD14C,2.500000*%
%ADD15R,1.300000X1.700000*%
%ADD16C,1.000000*%
%ADD17R,0.600000X2.600000*%
G04 APERTURE END LIST*
D10*
G04 #@! TO.C,R9*
G36*
X241409642Y-46845674D02*
X241433303Y-46849184D01*
X241456507Y-46854996D01*
X241479029Y-46863054D01*
X241500653Y-46873282D01*
X241521170Y-46885579D01*
X241540383Y-46899829D01*
X241558107Y-46915893D01*
X241574171Y-46933617D01*
X241588421Y-46952830D01*
X241600718Y-46973347D01*
X241610946Y-46994971D01*
X241619004Y-47017493D01*
X241624816Y-47040697D01*
X241628326Y-47064358D01*
X241629500Y-47088250D01*
X241629500Y-47575750D01*
X241628326Y-47599642D01*
X241624816Y-47623303D01*
X241619004Y-47646507D01*
X241610946Y-47669029D01*
X241600718Y-47690653D01*
X241588421Y-47711170D01*
X241574171Y-47730383D01*
X241558107Y-47748107D01*
X241540383Y-47764171D01*
X241521170Y-47778421D01*
X241500653Y-47790718D01*
X241479029Y-47800946D01*
X241456507Y-47809004D01*
X241433303Y-47814816D01*
X241409642Y-47818326D01*
X241385750Y-47819500D01*
X240473250Y-47819500D01*
X240449358Y-47818326D01*
X240425697Y-47814816D01*
X240402493Y-47809004D01*
X240379971Y-47800946D01*
X240358347Y-47790718D01*
X240337830Y-47778421D01*
X240318617Y-47764171D01*
X240300893Y-47748107D01*
X240284829Y-47730383D01*
X240270579Y-47711170D01*
X240258282Y-47690653D01*
X240248054Y-47669029D01*
X240239996Y-47646507D01*
X240234184Y-47623303D01*
X240230674Y-47599642D01*
X240229500Y-47575750D01*
X240229500Y-47088250D01*
X240230674Y-47064358D01*
X240234184Y-47040697D01*
X240239996Y-47017493D01*
X240248054Y-46994971D01*
X240258282Y-46973347D01*
X240270579Y-46952830D01*
X240284829Y-46933617D01*
X240300893Y-46915893D01*
X240318617Y-46899829D01*
X240337830Y-46885579D01*
X240358347Y-46873282D01*
X240379971Y-46863054D01*
X240402493Y-46854996D01*
X240425697Y-46849184D01*
X240449358Y-46845674D01*
X240473250Y-46844500D01*
X241385750Y-46844500D01*
X241409642Y-46845674D01*
X241409642Y-46845674D01*
G37*
D11*
X240929500Y-47332000D03*
D10*
G36*
X241409642Y-48720674D02*
X241433303Y-48724184D01*
X241456507Y-48729996D01*
X241479029Y-48738054D01*
X241500653Y-48748282D01*
X241521170Y-48760579D01*
X241540383Y-48774829D01*
X241558107Y-48790893D01*
X241574171Y-48808617D01*
X241588421Y-48827830D01*
X241600718Y-48848347D01*
X241610946Y-48869971D01*
X241619004Y-48892493D01*
X241624816Y-48915697D01*
X241628326Y-48939358D01*
X241629500Y-48963250D01*
X241629500Y-49450750D01*
X241628326Y-49474642D01*
X241624816Y-49498303D01*
X241619004Y-49521507D01*
X241610946Y-49544029D01*
X241600718Y-49565653D01*
X241588421Y-49586170D01*
X241574171Y-49605383D01*
X241558107Y-49623107D01*
X241540383Y-49639171D01*
X241521170Y-49653421D01*
X241500653Y-49665718D01*
X241479029Y-49675946D01*
X241456507Y-49684004D01*
X241433303Y-49689816D01*
X241409642Y-49693326D01*
X241385750Y-49694500D01*
X240473250Y-49694500D01*
X240449358Y-49693326D01*
X240425697Y-49689816D01*
X240402493Y-49684004D01*
X240379971Y-49675946D01*
X240358347Y-49665718D01*
X240337830Y-49653421D01*
X240318617Y-49639171D01*
X240300893Y-49623107D01*
X240284829Y-49605383D01*
X240270579Y-49586170D01*
X240258282Y-49565653D01*
X240248054Y-49544029D01*
X240239996Y-49521507D01*
X240234184Y-49498303D01*
X240230674Y-49474642D01*
X240229500Y-49450750D01*
X240229500Y-48963250D01*
X240230674Y-48939358D01*
X240234184Y-48915697D01*
X240239996Y-48892493D01*
X240248054Y-48869971D01*
X240258282Y-48848347D01*
X240270579Y-48827830D01*
X240284829Y-48808617D01*
X240300893Y-48790893D01*
X240318617Y-48774829D01*
X240337830Y-48760579D01*
X240358347Y-48748282D01*
X240379971Y-48738054D01*
X240402493Y-48729996D01*
X240425697Y-48724184D01*
X240449358Y-48720674D01*
X240473250Y-48719500D01*
X241385750Y-48719500D01*
X241409642Y-48720674D01*
X241409642Y-48720674D01*
G37*
D11*
X240929500Y-49207000D03*
G04 #@! TD*
D12*
G04 #@! TO.C,D17*
X233492000Y-48032000D03*
X233492000Y-52332000D03*
G04 #@! TD*
D10*
G04 #@! TO.C,C23*
G36*
X249676504Y-101563204D02*
X249700773Y-101566804D01*
X249724571Y-101572765D01*
X249747671Y-101581030D01*
X249769849Y-101591520D01*
X249790893Y-101604133D01*
X249810598Y-101618747D01*
X249828777Y-101635223D01*
X249845253Y-101653402D01*
X249859867Y-101673107D01*
X249872480Y-101694151D01*
X249882970Y-101716329D01*
X249891235Y-101739429D01*
X249897196Y-101763227D01*
X249900796Y-101787496D01*
X249902000Y-101812000D01*
X249902000Y-102912000D01*
X249900796Y-102936504D01*
X249897196Y-102960773D01*
X249891235Y-102984571D01*
X249882970Y-103007671D01*
X249872480Y-103029849D01*
X249859867Y-103050893D01*
X249845253Y-103070598D01*
X249828777Y-103088777D01*
X249810598Y-103105253D01*
X249790893Y-103119867D01*
X249769849Y-103132480D01*
X249747671Y-103142970D01*
X249724571Y-103151235D01*
X249700773Y-103157196D01*
X249676504Y-103160796D01*
X249652000Y-103162000D01*
X246652000Y-103162000D01*
X246627496Y-103160796D01*
X246603227Y-103157196D01*
X246579429Y-103151235D01*
X246556329Y-103142970D01*
X246534151Y-103132480D01*
X246513107Y-103119867D01*
X246493402Y-103105253D01*
X246475223Y-103088777D01*
X246458747Y-103070598D01*
X246444133Y-103050893D01*
X246431520Y-103029849D01*
X246421030Y-103007671D01*
X246412765Y-102984571D01*
X246406804Y-102960773D01*
X246403204Y-102936504D01*
X246402000Y-102912000D01*
X246402000Y-101812000D01*
X246403204Y-101787496D01*
X246406804Y-101763227D01*
X246412765Y-101739429D01*
X246421030Y-101716329D01*
X246431520Y-101694151D01*
X246444133Y-101673107D01*
X246458747Y-101653402D01*
X246475223Y-101635223D01*
X246493402Y-101618747D01*
X246513107Y-101604133D01*
X246534151Y-101591520D01*
X246556329Y-101581030D01*
X246579429Y-101572765D01*
X246603227Y-101566804D01*
X246627496Y-101563204D01*
X246652000Y-101562000D01*
X249652000Y-101562000D01*
X249676504Y-101563204D01*
X249676504Y-101563204D01*
G37*
D13*
X248152000Y-102362000D03*
D10*
G36*
X255276504Y-101563204D02*
X255300773Y-101566804D01*
X255324571Y-101572765D01*
X255347671Y-101581030D01*
X255369849Y-101591520D01*
X255390893Y-101604133D01*
X255410598Y-101618747D01*
X255428777Y-101635223D01*
X255445253Y-101653402D01*
X255459867Y-101673107D01*
X255472480Y-101694151D01*
X255482970Y-101716329D01*
X255491235Y-101739429D01*
X255497196Y-101763227D01*
X255500796Y-101787496D01*
X255502000Y-101812000D01*
X255502000Y-102912000D01*
X255500796Y-102936504D01*
X255497196Y-102960773D01*
X255491235Y-102984571D01*
X255482970Y-103007671D01*
X255472480Y-103029849D01*
X255459867Y-103050893D01*
X255445253Y-103070598D01*
X255428777Y-103088777D01*
X255410598Y-103105253D01*
X255390893Y-103119867D01*
X255369849Y-103132480D01*
X255347671Y-103142970D01*
X255324571Y-103151235D01*
X255300773Y-103157196D01*
X255276504Y-103160796D01*
X255252000Y-103162000D01*
X252252000Y-103162000D01*
X252227496Y-103160796D01*
X252203227Y-103157196D01*
X252179429Y-103151235D01*
X252156329Y-103142970D01*
X252134151Y-103132480D01*
X252113107Y-103119867D01*
X252093402Y-103105253D01*
X252075223Y-103088777D01*
X252058747Y-103070598D01*
X252044133Y-103050893D01*
X252031520Y-103029849D01*
X252021030Y-103007671D01*
X252012765Y-102984571D01*
X252006804Y-102960773D01*
X252003204Y-102936504D01*
X252002000Y-102912000D01*
X252002000Y-101812000D01*
X252003204Y-101787496D01*
X252006804Y-101763227D01*
X252012765Y-101739429D01*
X252021030Y-101716329D01*
X252031520Y-101694151D01*
X252044133Y-101673107D01*
X252058747Y-101653402D01*
X252075223Y-101635223D01*
X252093402Y-101618747D01*
X252113107Y-101604133D01*
X252134151Y-101591520D01*
X252156329Y-101581030D01*
X252179429Y-101572765D01*
X252203227Y-101566804D01*
X252227496Y-101563204D01*
X252252000Y-101562000D01*
X255252000Y-101562000D01*
X255276504Y-101563204D01*
X255276504Y-101563204D01*
G37*
D13*
X253752000Y-102362000D03*
G04 #@! TD*
D10*
G04 #@! TO.C,C24*
G36*
X247622142Y-54553174D02*
X247645803Y-54556684D01*
X247669007Y-54562496D01*
X247691529Y-54570554D01*
X247713153Y-54580782D01*
X247733670Y-54593079D01*
X247752883Y-54607329D01*
X247770607Y-54623393D01*
X247786671Y-54641117D01*
X247800921Y-54660330D01*
X247813218Y-54680847D01*
X247823446Y-54702471D01*
X247831504Y-54724993D01*
X247837316Y-54748197D01*
X247840826Y-54771858D01*
X247842000Y-54795750D01*
X247842000Y-55283250D01*
X247840826Y-55307142D01*
X247837316Y-55330803D01*
X247831504Y-55354007D01*
X247823446Y-55376529D01*
X247813218Y-55398153D01*
X247800921Y-55418670D01*
X247786671Y-55437883D01*
X247770607Y-55455607D01*
X247752883Y-55471671D01*
X247733670Y-55485921D01*
X247713153Y-55498218D01*
X247691529Y-55508446D01*
X247669007Y-55516504D01*
X247645803Y-55522316D01*
X247622142Y-55525826D01*
X247598250Y-55527000D01*
X246685750Y-55527000D01*
X246661858Y-55525826D01*
X246638197Y-55522316D01*
X246614993Y-55516504D01*
X246592471Y-55508446D01*
X246570847Y-55498218D01*
X246550330Y-55485921D01*
X246531117Y-55471671D01*
X246513393Y-55455607D01*
X246497329Y-55437883D01*
X246483079Y-55418670D01*
X246470782Y-55398153D01*
X246460554Y-55376529D01*
X246452496Y-55354007D01*
X246446684Y-55330803D01*
X246443174Y-55307142D01*
X246442000Y-55283250D01*
X246442000Y-54795750D01*
X246443174Y-54771858D01*
X246446684Y-54748197D01*
X246452496Y-54724993D01*
X246460554Y-54702471D01*
X246470782Y-54680847D01*
X246483079Y-54660330D01*
X246497329Y-54641117D01*
X246513393Y-54623393D01*
X246531117Y-54607329D01*
X246550330Y-54593079D01*
X246570847Y-54580782D01*
X246592471Y-54570554D01*
X246614993Y-54562496D01*
X246638197Y-54556684D01*
X246661858Y-54553174D01*
X246685750Y-54552000D01*
X247598250Y-54552000D01*
X247622142Y-54553174D01*
X247622142Y-54553174D01*
G37*
D11*
X247142000Y-55039500D03*
D10*
G36*
X247622142Y-52678174D02*
X247645803Y-52681684D01*
X247669007Y-52687496D01*
X247691529Y-52695554D01*
X247713153Y-52705782D01*
X247733670Y-52718079D01*
X247752883Y-52732329D01*
X247770607Y-52748393D01*
X247786671Y-52766117D01*
X247800921Y-52785330D01*
X247813218Y-52805847D01*
X247823446Y-52827471D01*
X247831504Y-52849993D01*
X247837316Y-52873197D01*
X247840826Y-52896858D01*
X247842000Y-52920750D01*
X247842000Y-53408250D01*
X247840826Y-53432142D01*
X247837316Y-53455803D01*
X247831504Y-53479007D01*
X247823446Y-53501529D01*
X247813218Y-53523153D01*
X247800921Y-53543670D01*
X247786671Y-53562883D01*
X247770607Y-53580607D01*
X247752883Y-53596671D01*
X247733670Y-53610921D01*
X247713153Y-53623218D01*
X247691529Y-53633446D01*
X247669007Y-53641504D01*
X247645803Y-53647316D01*
X247622142Y-53650826D01*
X247598250Y-53652000D01*
X246685750Y-53652000D01*
X246661858Y-53650826D01*
X246638197Y-53647316D01*
X246614993Y-53641504D01*
X246592471Y-53633446D01*
X246570847Y-53623218D01*
X246550330Y-53610921D01*
X246531117Y-53596671D01*
X246513393Y-53580607D01*
X246497329Y-53562883D01*
X246483079Y-53543670D01*
X246470782Y-53523153D01*
X246460554Y-53501529D01*
X246452496Y-53479007D01*
X246446684Y-53455803D01*
X246443174Y-53432142D01*
X246442000Y-53408250D01*
X246442000Y-52920750D01*
X246443174Y-52896858D01*
X246446684Y-52873197D01*
X246452496Y-52849993D01*
X246460554Y-52827471D01*
X246470782Y-52805847D01*
X246483079Y-52785330D01*
X246497329Y-52766117D01*
X246513393Y-52748393D01*
X246531117Y-52732329D01*
X246550330Y-52718079D01*
X246570847Y-52705782D01*
X246592471Y-52695554D01*
X246614993Y-52687496D01*
X246638197Y-52681684D01*
X246661858Y-52678174D01*
X246685750Y-52677000D01*
X247598250Y-52677000D01*
X247622142Y-52678174D01*
X247622142Y-52678174D01*
G37*
D11*
X247142000Y-53164500D03*
G04 #@! TD*
D10*
G04 #@! TO.C,C25*
G36*
X252067142Y-52678174D02*
X252090803Y-52681684D01*
X252114007Y-52687496D01*
X252136529Y-52695554D01*
X252158153Y-52705782D01*
X252178670Y-52718079D01*
X252197883Y-52732329D01*
X252215607Y-52748393D01*
X252231671Y-52766117D01*
X252245921Y-52785330D01*
X252258218Y-52805847D01*
X252268446Y-52827471D01*
X252276504Y-52849993D01*
X252282316Y-52873197D01*
X252285826Y-52896858D01*
X252287000Y-52920750D01*
X252287000Y-53408250D01*
X252285826Y-53432142D01*
X252282316Y-53455803D01*
X252276504Y-53479007D01*
X252268446Y-53501529D01*
X252258218Y-53523153D01*
X252245921Y-53543670D01*
X252231671Y-53562883D01*
X252215607Y-53580607D01*
X252197883Y-53596671D01*
X252178670Y-53610921D01*
X252158153Y-53623218D01*
X252136529Y-53633446D01*
X252114007Y-53641504D01*
X252090803Y-53647316D01*
X252067142Y-53650826D01*
X252043250Y-53652000D01*
X251130750Y-53652000D01*
X251106858Y-53650826D01*
X251083197Y-53647316D01*
X251059993Y-53641504D01*
X251037471Y-53633446D01*
X251015847Y-53623218D01*
X250995330Y-53610921D01*
X250976117Y-53596671D01*
X250958393Y-53580607D01*
X250942329Y-53562883D01*
X250928079Y-53543670D01*
X250915782Y-53523153D01*
X250905554Y-53501529D01*
X250897496Y-53479007D01*
X250891684Y-53455803D01*
X250888174Y-53432142D01*
X250887000Y-53408250D01*
X250887000Y-52920750D01*
X250888174Y-52896858D01*
X250891684Y-52873197D01*
X250897496Y-52849993D01*
X250905554Y-52827471D01*
X250915782Y-52805847D01*
X250928079Y-52785330D01*
X250942329Y-52766117D01*
X250958393Y-52748393D01*
X250976117Y-52732329D01*
X250995330Y-52718079D01*
X251015847Y-52705782D01*
X251037471Y-52695554D01*
X251059993Y-52687496D01*
X251083197Y-52681684D01*
X251106858Y-52678174D01*
X251130750Y-52677000D01*
X252043250Y-52677000D01*
X252067142Y-52678174D01*
X252067142Y-52678174D01*
G37*
D11*
X251587000Y-53164500D03*
D10*
G36*
X252067142Y-54553174D02*
X252090803Y-54556684D01*
X252114007Y-54562496D01*
X252136529Y-54570554D01*
X252158153Y-54580782D01*
X252178670Y-54593079D01*
X252197883Y-54607329D01*
X252215607Y-54623393D01*
X252231671Y-54641117D01*
X252245921Y-54660330D01*
X252258218Y-54680847D01*
X252268446Y-54702471D01*
X252276504Y-54724993D01*
X252282316Y-54748197D01*
X252285826Y-54771858D01*
X252287000Y-54795750D01*
X252287000Y-55283250D01*
X252285826Y-55307142D01*
X252282316Y-55330803D01*
X252276504Y-55354007D01*
X252268446Y-55376529D01*
X252258218Y-55398153D01*
X252245921Y-55418670D01*
X252231671Y-55437883D01*
X252215607Y-55455607D01*
X252197883Y-55471671D01*
X252178670Y-55485921D01*
X252158153Y-55498218D01*
X252136529Y-55508446D01*
X252114007Y-55516504D01*
X252090803Y-55522316D01*
X252067142Y-55525826D01*
X252043250Y-55527000D01*
X251130750Y-55527000D01*
X251106858Y-55525826D01*
X251083197Y-55522316D01*
X251059993Y-55516504D01*
X251037471Y-55508446D01*
X251015847Y-55498218D01*
X250995330Y-55485921D01*
X250976117Y-55471671D01*
X250958393Y-55455607D01*
X250942329Y-55437883D01*
X250928079Y-55418670D01*
X250915782Y-55398153D01*
X250905554Y-55376529D01*
X250897496Y-55354007D01*
X250891684Y-55330803D01*
X250888174Y-55307142D01*
X250887000Y-55283250D01*
X250887000Y-54795750D01*
X250888174Y-54771858D01*
X250891684Y-54748197D01*
X250897496Y-54724993D01*
X250905554Y-54702471D01*
X250915782Y-54680847D01*
X250928079Y-54660330D01*
X250942329Y-54641117D01*
X250958393Y-54623393D01*
X250976117Y-54607329D01*
X250995330Y-54593079D01*
X251015847Y-54580782D01*
X251037471Y-54570554D01*
X251059993Y-54562496D01*
X251083197Y-54556684D01*
X251106858Y-54553174D01*
X251130750Y-54552000D01*
X252043250Y-54552000D01*
X252067142Y-54553174D01*
X252067142Y-54553174D01*
G37*
D11*
X251587000Y-55039500D03*
G04 #@! TD*
D10*
G04 #@! TO.C,C26*
G36*
X255726504Y-69363204D02*
X255750773Y-69366804D01*
X255774571Y-69372765D01*
X255797671Y-69381030D01*
X255819849Y-69391520D01*
X255840893Y-69404133D01*
X255860598Y-69418747D01*
X255878777Y-69435223D01*
X255895253Y-69453402D01*
X255909867Y-69473107D01*
X255922480Y-69494151D01*
X255932970Y-69516329D01*
X255941235Y-69539429D01*
X255947196Y-69563227D01*
X255950796Y-69587496D01*
X255952000Y-69612000D01*
X255952000Y-71612000D01*
X255950796Y-71636504D01*
X255947196Y-71660773D01*
X255941235Y-71684571D01*
X255932970Y-71707671D01*
X255922480Y-71729849D01*
X255909867Y-71750893D01*
X255895253Y-71770598D01*
X255878777Y-71788777D01*
X255860598Y-71805253D01*
X255840893Y-71819867D01*
X255819849Y-71832480D01*
X255797671Y-71842970D01*
X255774571Y-71851235D01*
X255750773Y-71857196D01*
X255726504Y-71860796D01*
X255702000Y-71862000D01*
X252702000Y-71862000D01*
X252677496Y-71860796D01*
X252653227Y-71857196D01*
X252629429Y-71851235D01*
X252606329Y-71842970D01*
X252584151Y-71832480D01*
X252563107Y-71819867D01*
X252543402Y-71805253D01*
X252525223Y-71788777D01*
X252508747Y-71770598D01*
X252494133Y-71750893D01*
X252481520Y-71729849D01*
X252471030Y-71707671D01*
X252462765Y-71684571D01*
X252456804Y-71660773D01*
X252453204Y-71636504D01*
X252452000Y-71612000D01*
X252452000Y-69612000D01*
X252453204Y-69587496D01*
X252456804Y-69563227D01*
X252462765Y-69539429D01*
X252471030Y-69516329D01*
X252481520Y-69494151D01*
X252494133Y-69473107D01*
X252508747Y-69453402D01*
X252525223Y-69435223D01*
X252543402Y-69418747D01*
X252563107Y-69404133D01*
X252584151Y-69391520D01*
X252606329Y-69381030D01*
X252629429Y-69372765D01*
X252653227Y-69366804D01*
X252677496Y-69363204D01*
X252702000Y-69362000D01*
X255702000Y-69362000D01*
X255726504Y-69363204D01*
X255726504Y-69363204D01*
G37*
D14*
X254202000Y-70612000D03*
D10*
G36*
X249226504Y-69363204D02*
X249250773Y-69366804D01*
X249274571Y-69372765D01*
X249297671Y-69381030D01*
X249319849Y-69391520D01*
X249340893Y-69404133D01*
X249360598Y-69418747D01*
X249378777Y-69435223D01*
X249395253Y-69453402D01*
X249409867Y-69473107D01*
X249422480Y-69494151D01*
X249432970Y-69516329D01*
X249441235Y-69539429D01*
X249447196Y-69563227D01*
X249450796Y-69587496D01*
X249452000Y-69612000D01*
X249452000Y-71612000D01*
X249450796Y-71636504D01*
X249447196Y-71660773D01*
X249441235Y-71684571D01*
X249432970Y-71707671D01*
X249422480Y-71729849D01*
X249409867Y-71750893D01*
X249395253Y-71770598D01*
X249378777Y-71788777D01*
X249360598Y-71805253D01*
X249340893Y-71819867D01*
X249319849Y-71832480D01*
X249297671Y-71842970D01*
X249274571Y-71851235D01*
X249250773Y-71857196D01*
X249226504Y-71860796D01*
X249202000Y-71862000D01*
X246202000Y-71862000D01*
X246177496Y-71860796D01*
X246153227Y-71857196D01*
X246129429Y-71851235D01*
X246106329Y-71842970D01*
X246084151Y-71832480D01*
X246063107Y-71819867D01*
X246043402Y-71805253D01*
X246025223Y-71788777D01*
X246008747Y-71770598D01*
X245994133Y-71750893D01*
X245981520Y-71729849D01*
X245971030Y-71707671D01*
X245962765Y-71684571D01*
X245956804Y-71660773D01*
X245953204Y-71636504D01*
X245952000Y-71612000D01*
X245952000Y-69612000D01*
X245953204Y-69587496D01*
X245956804Y-69563227D01*
X245962765Y-69539429D01*
X245971030Y-69516329D01*
X245981520Y-69494151D01*
X245994133Y-69473107D01*
X246008747Y-69453402D01*
X246025223Y-69435223D01*
X246043402Y-69418747D01*
X246063107Y-69404133D01*
X246084151Y-69391520D01*
X246106329Y-69381030D01*
X246129429Y-69372765D01*
X246153227Y-69366804D01*
X246177496Y-69363204D01*
X246202000Y-69362000D01*
X249202000Y-69362000D01*
X249226504Y-69363204D01*
X249226504Y-69363204D01*
G37*
D14*
X247702000Y-70612000D03*
G04 #@! TD*
D15*
G04 #@! TO.C,D9*
X239492000Y-42332000D03*
X235992000Y-42332000D03*
G04 #@! TD*
G04 #@! TO.C,D12*
X195862000Y-24892000D03*
X199362000Y-24892000D03*
G04 #@! TD*
G04 #@! TO.C,D13*
X206022000Y-24892000D03*
X209522000Y-24892000D03*
G04 #@! TD*
D16*
G04 #@! TO.C,Q6*
X228482000Y-60902000D03*
X227282000Y-60902000D03*
X226082000Y-60902000D03*
X224882000Y-60902000D03*
X223682000Y-60902000D03*
X222482000Y-60902000D03*
X221282000Y-60902000D03*
X220082000Y-60902000D03*
X227282000Y-59602000D03*
X226082000Y-59602000D03*
X224882000Y-59602000D03*
X223682000Y-59602000D03*
X222482000Y-59602000D03*
X221282000Y-59602000D03*
X221282000Y-58402000D03*
X222482000Y-58402000D03*
X223682000Y-58402000D03*
X226082000Y-58402000D03*
X224882000Y-58402000D03*
X227282000Y-58402000D03*
X227282000Y-57202000D03*
X226082000Y-57202000D03*
X224882000Y-57202000D03*
X223682000Y-57202000D03*
X222482000Y-57202000D03*
X221282000Y-57202000D03*
X220082000Y-56002000D03*
X221282000Y-56002000D03*
X222482000Y-56002000D03*
X223682000Y-56002000D03*
X226082000Y-56002000D03*
X224882000Y-56002000D03*
X227282000Y-56002000D03*
X228482000Y-56002000D03*
X228482000Y-54802000D03*
X227282000Y-54802000D03*
X226082000Y-54802000D03*
X224882000Y-54802000D03*
X223682000Y-54802000D03*
X222482000Y-54802000D03*
X221282000Y-54802000D03*
X220082000Y-54802000D03*
D17*
X220082000Y-49632000D03*
X221282000Y-49632000D03*
X222482000Y-49632000D03*
X228482000Y-49632000D03*
X227282000Y-49632000D03*
X226082000Y-49632000D03*
X224882000Y-49632000D03*
X223682000Y-49632000D03*
G04 #@! TD*
G04 #@! TO.C,Q7*
X212182000Y-75862000D03*
X210982000Y-75862000D03*
X209782000Y-75862000D03*
X208582000Y-75862000D03*
X207382000Y-75862000D03*
X213382000Y-75862000D03*
X214582000Y-75862000D03*
X215782000Y-75862000D03*
D16*
X215782000Y-70692000D03*
X214582000Y-70692000D03*
X213382000Y-70692000D03*
X212182000Y-70692000D03*
X210982000Y-70692000D03*
X209782000Y-70692000D03*
X208582000Y-70692000D03*
X207382000Y-70692000D03*
X207382000Y-69492000D03*
X208582000Y-69492000D03*
X210982000Y-69492000D03*
X209782000Y-69492000D03*
X212182000Y-69492000D03*
X213382000Y-69492000D03*
X214582000Y-69492000D03*
X215782000Y-69492000D03*
X214582000Y-68292000D03*
X213382000Y-68292000D03*
X212182000Y-68292000D03*
X210982000Y-68292000D03*
X209782000Y-68292000D03*
X208582000Y-68292000D03*
X208582000Y-67092000D03*
X210982000Y-67092000D03*
X209782000Y-67092000D03*
X212182000Y-67092000D03*
X213382000Y-67092000D03*
X214582000Y-67092000D03*
X214582000Y-65892000D03*
X213382000Y-65892000D03*
X212182000Y-65892000D03*
X210982000Y-65892000D03*
X209782000Y-65892000D03*
X208582000Y-65892000D03*
X215782000Y-64592000D03*
X214582000Y-64592000D03*
X213382000Y-64592000D03*
X212182000Y-64592000D03*
X210982000Y-64592000D03*
X209782000Y-64592000D03*
X208582000Y-64592000D03*
X207382000Y-64592000D03*
G04 #@! TD*
D17*
G04 #@! TO.C,Q8*
X210982000Y-49632000D03*
X212182000Y-49632000D03*
X213382000Y-49632000D03*
X214582000Y-49632000D03*
X215782000Y-49632000D03*
X209782000Y-49632000D03*
X208582000Y-49632000D03*
X207382000Y-49632000D03*
D16*
X207382000Y-54802000D03*
X208582000Y-54802000D03*
X209782000Y-54802000D03*
X210982000Y-54802000D03*
X212182000Y-54802000D03*
X213382000Y-54802000D03*
X214582000Y-54802000D03*
X215782000Y-54802000D03*
X215782000Y-56002000D03*
X214582000Y-56002000D03*
X212182000Y-56002000D03*
X213382000Y-56002000D03*
X210982000Y-56002000D03*
X209782000Y-56002000D03*
X208582000Y-56002000D03*
X207382000Y-56002000D03*
X208582000Y-57202000D03*
X209782000Y-57202000D03*
X210982000Y-57202000D03*
X212182000Y-57202000D03*
X213382000Y-57202000D03*
X214582000Y-57202000D03*
X214582000Y-58402000D03*
X212182000Y-58402000D03*
X213382000Y-58402000D03*
X210982000Y-58402000D03*
X209782000Y-58402000D03*
X208582000Y-58402000D03*
X208582000Y-59602000D03*
X209782000Y-59602000D03*
X210982000Y-59602000D03*
X212182000Y-59602000D03*
X213382000Y-59602000D03*
X214582000Y-59602000D03*
X207382000Y-60902000D03*
X208582000Y-60902000D03*
X209782000Y-60902000D03*
X210982000Y-60902000D03*
X212182000Y-60902000D03*
X213382000Y-60902000D03*
X214582000Y-60902000D03*
X215782000Y-60902000D03*
G04 #@! TD*
D17*
G04 #@! TO.C,Q9*
X224882000Y-75862000D03*
X223682000Y-75862000D03*
X222482000Y-75862000D03*
X221282000Y-75862000D03*
X220082000Y-75862000D03*
X226082000Y-75862000D03*
X227282000Y-75862000D03*
X228482000Y-75862000D03*
D16*
X228482000Y-70692000D03*
X227282000Y-70692000D03*
X226082000Y-70692000D03*
X224882000Y-70692000D03*
X223682000Y-70692000D03*
X222482000Y-70692000D03*
X221282000Y-70692000D03*
X220082000Y-70692000D03*
X220082000Y-69492000D03*
X221282000Y-69492000D03*
X223682000Y-69492000D03*
X222482000Y-69492000D03*
X224882000Y-69492000D03*
X226082000Y-69492000D03*
X227282000Y-69492000D03*
X228482000Y-69492000D03*
X227282000Y-68292000D03*
X226082000Y-68292000D03*
X224882000Y-68292000D03*
X223682000Y-68292000D03*
X222482000Y-68292000D03*
X221282000Y-68292000D03*
X221282000Y-67092000D03*
X223682000Y-67092000D03*
X222482000Y-67092000D03*
X224882000Y-67092000D03*
X226082000Y-67092000D03*
X227282000Y-67092000D03*
X227282000Y-65892000D03*
X226082000Y-65892000D03*
X224882000Y-65892000D03*
X223682000Y-65892000D03*
X222482000Y-65892000D03*
X221282000Y-65892000D03*
X228482000Y-64592000D03*
X227282000Y-64592000D03*
X226082000Y-64592000D03*
X224882000Y-64592000D03*
X223682000Y-64592000D03*
X222482000Y-64592000D03*
X221282000Y-64592000D03*
X220082000Y-64592000D03*
G04 #@! TD*
D10*
G04 #@! TO.C,R8*
G36*
X198817142Y-26733174D02*
X198840803Y-26736684D01*
X198864007Y-26742496D01*
X198886529Y-26750554D01*
X198908153Y-26760782D01*
X198928670Y-26773079D01*
X198947883Y-26787329D01*
X198965607Y-26803393D01*
X198981671Y-26821117D01*
X198995921Y-26840330D01*
X199008218Y-26860847D01*
X199018446Y-26882471D01*
X199026504Y-26904993D01*
X199032316Y-26928197D01*
X199035826Y-26951858D01*
X199037000Y-26975750D01*
X199037000Y-27888250D01*
X199035826Y-27912142D01*
X199032316Y-27935803D01*
X199026504Y-27959007D01*
X199018446Y-27981529D01*
X199008218Y-28003153D01*
X198995921Y-28023670D01*
X198981671Y-28042883D01*
X198965607Y-28060607D01*
X198947883Y-28076671D01*
X198928670Y-28090921D01*
X198908153Y-28103218D01*
X198886529Y-28113446D01*
X198864007Y-28121504D01*
X198840803Y-28127316D01*
X198817142Y-28130826D01*
X198793250Y-28132000D01*
X198305750Y-28132000D01*
X198281858Y-28130826D01*
X198258197Y-28127316D01*
X198234993Y-28121504D01*
X198212471Y-28113446D01*
X198190847Y-28103218D01*
X198170330Y-28090921D01*
X198151117Y-28076671D01*
X198133393Y-28060607D01*
X198117329Y-28042883D01*
X198103079Y-28023670D01*
X198090782Y-28003153D01*
X198080554Y-27981529D01*
X198072496Y-27959007D01*
X198066684Y-27935803D01*
X198063174Y-27912142D01*
X198062000Y-27888250D01*
X198062000Y-26975750D01*
X198063174Y-26951858D01*
X198066684Y-26928197D01*
X198072496Y-26904993D01*
X198080554Y-26882471D01*
X198090782Y-26860847D01*
X198103079Y-26840330D01*
X198117329Y-26821117D01*
X198133393Y-26803393D01*
X198151117Y-26787329D01*
X198170330Y-26773079D01*
X198190847Y-26760782D01*
X198212471Y-26750554D01*
X198234993Y-26742496D01*
X198258197Y-26736684D01*
X198281858Y-26733174D01*
X198305750Y-26732000D01*
X198793250Y-26732000D01*
X198817142Y-26733174D01*
X198817142Y-26733174D01*
G37*
D11*
X198549500Y-27432000D03*
D10*
G36*
X196942142Y-26733174D02*
X196965803Y-26736684D01*
X196989007Y-26742496D01*
X197011529Y-26750554D01*
X197033153Y-26760782D01*
X197053670Y-26773079D01*
X197072883Y-26787329D01*
X197090607Y-26803393D01*
X197106671Y-26821117D01*
X197120921Y-26840330D01*
X197133218Y-26860847D01*
X197143446Y-26882471D01*
X197151504Y-26904993D01*
X197157316Y-26928197D01*
X197160826Y-26951858D01*
X197162000Y-26975750D01*
X197162000Y-27888250D01*
X197160826Y-27912142D01*
X197157316Y-27935803D01*
X197151504Y-27959007D01*
X197143446Y-27981529D01*
X197133218Y-28003153D01*
X197120921Y-28023670D01*
X197106671Y-28042883D01*
X197090607Y-28060607D01*
X197072883Y-28076671D01*
X197053670Y-28090921D01*
X197033153Y-28103218D01*
X197011529Y-28113446D01*
X196989007Y-28121504D01*
X196965803Y-28127316D01*
X196942142Y-28130826D01*
X196918250Y-28132000D01*
X196430750Y-28132000D01*
X196406858Y-28130826D01*
X196383197Y-28127316D01*
X196359993Y-28121504D01*
X196337471Y-28113446D01*
X196315847Y-28103218D01*
X196295330Y-28090921D01*
X196276117Y-28076671D01*
X196258393Y-28060607D01*
X196242329Y-28042883D01*
X196228079Y-28023670D01*
X196215782Y-28003153D01*
X196205554Y-27981529D01*
X196197496Y-27959007D01*
X196191684Y-27935803D01*
X196188174Y-27912142D01*
X196187000Y-27888250D01*
X196187000Y-26975750D01*
X196188174Y-26951858D01*
X196191684Y-26928197D01*
X196197496Y-26904993D01*
X196205554Y-26882471D01*
X196215782Y-26860847D01*
X196228079Y-26840330D01*
X196242329Y-26821117D01*
X196258393Y-26803393D01*
X196276117Y-26787329D01*
X196295330Y-26773079D01*
X196315847Y-26760782D01*
X196337471Y-26750554D01*
X196359993Y-26742496D01*
X196383197Y-26736684D01*
X196406858Y-26733174D01*
X196430750Y-26732000D01*
X196918250Y-26732000D01*
X196942142Y-26733174D01*
X196942142Y-26733174D01*
G37*
D11*
X196674500Y-27432000D03*
G04 #@! TD*
D10*
G04 #@! TO.C,R10*
G36*
X237972142Y-48720674D02*
X237995803Y-48724184D01*
X238019007Y-48729996D01*
X238041529Y-48738054D01*
X238063153Y-48748282D01*
X238083670Y-48760579D01*
X238102883Y-48774829D01*
X238120607Y-48790893D01*
X238136671Y-48808617D01*
X238150921Y-48827830D01*
X238163218Y-48848347D01*
X238173446Y-48869971D01*
X238181504Y-48892493D01*
X238187316Y-48915697D01*
X238190826Y-48939358D01*
X238192000Y-48963250D01*
X238192000Y-49450750D01*
X238190826Y-49474642D01*
X238187316Y-49498303D01*
X238181504Y-49521507D01*
X238173446Y-49544029D01*
X238163218Y-49565653D01*
X238150921Y-49586170D01*
X238136671Y-49605383D01*
X238120607Y-49623107D01*
X238102883Y-49639171D01*
X238083670Y-49653421D01*
X238063153Y-49665718D01*
X238041529Y-49675946D01*
X238019007Y-49684004D01*
X237995803Y-49689816D01*
X237972142Y-49693326D01*
X237948250Y-49694500D01*
X237035750Y-49694500D01*
X237011858Y-49693326D01*
X236988197Y-49689816D01*
X236964993Y-49684004D01*
X236942471Y-49675946D01*
X236920847Y-49665718D01*
X236900330Y-49653421D01*
X236881117Y-49639171D01*
X236863393Y-49623107D01*
X236847329Y-49605383D01*
X236833079Y-49586170D01*
X236820782Y-49565653D01*
X236810554Y-49544029D01*
X236802496Y-49521507D01*
X236796684Y-49498303D01*
X236793174Y-49474642D01*
X236792000Y-49450750D01*
X236792000Y-48963250D01*
X236793174Y-48939358D01*
X236796684Y-48915697D01*
X236802496Y-48892493D01*
X236810554Y-48869971D01*
X236820782Y-48848347D01*
X236833079Y-48827830D01*
X236847329Y-48808617D01*
X236863393Y-48790893D01*
X236881117Y-48774829D01*
X236900330Y-48760579D01*
X236920847Y-48748282D01*
X236942471Y-48738054D01*
X236964993Y-48729996D01*
X236988197Y-48724184D01*
X237011858Y-48720674D01*
X237035750Y-48719500D01*
X237948250Y-48719500D01*
X237972142Y-48720674D01*
X237972142Y-48720674D01*
G37*
D11*
X237492000Y-49207000D03*
D10*
G36*
X237972142Y-46845674D02*
X237995803Y-46849184D01*
X238019007Y-46854996D01*
X238041529Y-46863054D01*
X238063153Y-46873282D01*
X238083670Y-46885579D01*
X238102883Y-46899829D01*
X238120607Y-46915893D01*
X238136671Y-46933617D01*
X238150921Y-46952830D01*
X238163218Y-46973347D01*
X238173446Y-46994971D01*
X238181504Y-47017493D01*
X238187316Y-47040697D01*
X238190826Y-47064358D01*
X238192000Y-47088250D01*
X238192000Y-47575750D01*
X238190826Y-47599642D01*
X238187316Y-47623303D01*
X238181504Y-47646507D01*
X238173446Y-47669029D01*
X238163218Y-47690653D01*
X238150921Y-47711170D01*
X238136671Y-47730383D01*
X238120607Y-47748107D01*
X238102883Y-47764171D01*
X238083670Y-47778421D01*
X238063153Y-47790718D01*
X238041529Y-47800946D01*
X238019007Y-47809004D01*
X237995803Y-47814816D01*
X237972142Y-47818326D01*
X237948250Y-47819500D01*
X237035750Y-47819500D01*
X237011858Y-47818326D01*
X236988197Y-47814816D01*
X236964993Y-47809004D01*
X236942471Y-47800946D01*
X236920847Y-47790718D01*
X236900330Y-47778421D01*
X236881117Y-47764171D01*
X236863393Y-47748107D01*
X236847329Y-47730383D01*
X236833079Y-47711170D01*
X236820782Y-47690653D01*
X236810554Y-47669029D01*
X236802496Y-47646507D01*
X236796684Y-47623303D01*
X236793174Y-47599642D01*
X236792000Y-47575750D01*
X236792000Y-47088250D01*
X236793174Y-47064358D01*
X236796684Y-47040697D01*
X236802496Y-47017493D01*
X236810554Y-46994971D01*
X236820782Y-46973347D01*
X236833079Y-46952830D01*
X236847329Y-46933617D01*
X236863393Y-46915893D01*
X236881117Y-46899829D01*
X236900330Y-46885579D01*
X236920847Y-46873282D01*
X236942471Y-46863054D01*
X236964993Y-46854996D01*
X236988197Y-46849184D01*
X237011858Y-46845674D01*
X237035750Y-46844500D01*
X237948250Y-46844500D01*
X237972142Y-46845674D01*
X237972142Y-46845674D01*
G37*
D11*
X237492000Y-47332000D03*
G04 #@! TD*
D10*
G04 #@! TO.C,R15*
G36*
X238519642Y-26733174D02*
X238543303Y-26736684D01*
X238566507Y-26742496D01*
X238589029Y-26750554D01*
X238610653Y-26760782D01*
X238631170Y-26773079D01*
X238650383Y-26787329D01*
X238668107Y-26803393D01*
X238684171Y-26821117D01*
X238698421Y-26840330D01*
X238710718Y-26860847D01*
X238720946Y-26882471D01*
X238729004Y-26904993D01*
X238734816Y-26928197D01*
X238738326Y-26951858D01*
X238739500Y-26975750D01*
X238739500Y-27888250D01*
X238738326Y-27912142D01*
X238734816Y-27935803D01*
X238729004Y-27959007D01*
X238720946Y-27981529D01*
X238710718Y-28003153D01*
X238698421Y-28023670D01*
X238684171Y-28042883D01*
X238668107Y-28060607D01*
X238650383Y-28076671D01*
X238631170Y-28090921D01*
X238610653Y-28103218D01*
X238589029Y-28113446D01*
X238566507Y-28121504D01*
X238543303Y-28127316D01*
X238519642Y-28130826D01*
X238495750Y-28132000D01*
X238008250Y-28132000D01*
X237984358Y-28130826D01*
X237960697Y-28127316D01*
X237937493Y-28121504D01*
X237914971Y-28113446D01*
X237893347Y-28103218D01*
X237872830Y-28090921D01*
X237853617Y-28076671D01*
X237835893Y-28060607D01*
X237819829Y-28042883D01*
X237805579Y-28023670D01*
X237793282Y-28003153D01*
X237783054Y-27981529D01*
X237774996Y-27959007D01*
X237769184Y-27935803D01*
X237765674Y-27912142D01*
X237764500Y-27888250D01*
X237764500Y-26975750D01*
X237765674Y-26951858D01*
X237769184Y-26928197D01*
X237774996Y-26904993D01*
X237783054Y-26882471D01*
X237793282Y-26860847D01*
X237805579Y-26840330D01*
X237819829Y-26821117D01*
X237835893Y-26803393D01*
X237853617Y-26787329D01*
X237872830Y-26773079D01*
X237893347Y-26760782D01*
X237914971Y-26750554D01*
X237937493Y-26742496D01*
X237960697Y-26736684D01*
X237984358Y-26733174D01*
X238008250Y-26732000D01*
X238495750Y-26732000D01*
X238519642Y-26733174D01*
X238519642Y-26733174D01*
G37*
D11*
X238252000Y-27432000D03*
D10*
G36*
X240394642Y-26733174D02*
X240418303Y-26736684D01*
X240441507Y-26742496D01*
X240464029Y-26750554D01*
X240485653Y-26760782D01*
X240506170Y-26773079D01*
X240525383Y-26787329D01*
X240543107Y-26803393D01*
X240559171Y-26821117D01*
X240573421Y-26840330D01*
X240585718Y-26860847D01*
X240595946Y-26882471D01*
X240604004Y-26904993D01*
X240609816Y-26928197D01*
X240613326Y-26951858D01*
X240614500Y-26975750D01*
X240614500Y-27888250D01*
X240613326Y-27912142D01*
X240609816Y-27935803D01*
X240604004Y-27959007D01*
X240595946Y-27981529D01*
X240585718Y-28003153D01*
X240573421Y-28023670D01*
X240559171Y-28042883D01*
X240543107Y-28060607D01*
X240525383Y-28076671D01*
X240506170Y-28090921D01*
X240485653Y-28103218D01*
X240464029Y-28113446D01*
X240441507Y-28121504D01*
X240418303Y-28127316D01*
X240394642Y-28130826D01*
X240370750Y-28132000D01*
X239883250Y-28132000D01*
X239859358Y-28130826D01*
X239835697Y-28127316D01*
X239812493Y-28121504D01*
X239789971Y-28113446D01*
X239768347Y-28103218D01*
X239747830Y-28090921D01*
X239728617Y-28076671D01*
X239710893Y-28060607D01*
X239694829Y-28042883D01*
X239680579Y-28023670D01*
X239668282Y-28003153D01*
X239658054Y-27981529D01*
X239649996Y-27959007D01*
X239644184Y-27935803D01*
X239640674Y-27912142D01*
X239639500Y-27888250D01*
X239639500Y-26975750D01*
X239640674Y-26951858D01*
X239644184Y-26928197D01*
X239649996Y-26904993D01*
X239658054Y-26882471D01*
X239668282Y-26860847D01*
X239680579Y-26840330D01*
X239694829Y-26821117D01*
X239710893Y-26803393D01*
X239728617Y-26787329D01*
X239747830Y-26773079D01*
X239768347Y-26760782D01*
X239789971Y-26750554D01*
X239812493Y-26742496D01*
X239835697Y-26736684D01*
X239859358Y-26733174D01*
X239883250Y-26732000D01*
X240370750Y-26732000D01*
X240394642Y-26733174D01*
X240394642Y-26733174D01*
G37*
D11*
X240127000Y-27432000D03*
G04 #@! TD*
D10*
G04 #@! TO.C,R16*
G36*
X251824642Y-26733174D02*
X251848303Y-26736684D01*
X251871507Y-26742496D01*
X251894029Y-26750554D01*
X251915653Y-26760782D01*
X251936170Y-26773079D01*
X251955383Y-26787329D01*
X251973107Y-26803393D01*
X251989171Y-26821117D01*
X252003421Y-26840330D01*
X252015718Y-26860847D01*
X252025946Y-26882471D01*
X252034004Y-26904993D01*
X252039816Y-26928197D01*
X252043326Y-26951858D01*
X252044500Y-26975750D01*
X252044500Y-27888250D01*
X252043326Y-27912142D01*
X252039816Y-27935803D01*
X252034004Y-27959007D01*
X252025946Y-27981529D01*
X252015718Y-28003153D01*
X252003421Y-28023670D01*
X251989171Y-28042883D01*
X251973107Y-28060607D01*
X251955383Y-28076671D01*
X251936170Y-28090921D01*
X251915653Y-28103218D01*
X251894029Y-28113446D01*
X251871507Y-28121504D01*
X251848303Y-28127316D01*
X251824642Y-28130826D01*
X251800750Y-28132000D01*
X251313250Y-28132000D01*
X251289358Y-28130826D01*
X251265697Y-28127316D01*
X251242493Y-28121504D01*
X251219971Y-28113446D01*
X251198347Y-28103218D01*
X251177830Y-28090921D01*
X251158617Y-28076671D01*
X251140893Y-28060607D01*
X251124829Y-28042883D01*
X251110579Y-28023670D01*
X251098282Y-28003153D01*
X251088054Y-27981529D01*
X251079996Y-27959007D01*
X251074184Y-27935803D01*
X251070674Y-27912142D01*
X251069500Y-27888250D01*
X251069500Y-26975750D01*
X251070674Y-26951858D01*
X251074184Y-26928197D01*
X251079996Y-26904993D01*
X251088054Y-26882471D01*
X251098282Y-26860847D01*
X251110579Y-26840330D01*
X251124829Y-26821117D01*
X251140893Y-26803393D01*
X251158617Y-26787329D01*
X251177830Y-26773079D01*
X251198347Y-26760782D01*
X251219971Y-26750554D01*
X251242493Y-26742496D01*
X251265697Y-26736684D01*
X251289358Y-26733174D01*
X251313250Y-26732000D01*
X251800750Y-26732000D01*
X251824642Y-26733174D01*
X251824642Y-26733174D01*
G37*
D11*
X251557000Y-27432000D03*
D10*
G36*
X249949642Y-26733174D02*
X249973303Y-26736684D01*
X249996507Y-26742496D01*
X250019029Y-26750554D01*
X250040653Y-26760782D01*
X250061170Y-26773079D01*
X250080383Y-26787329D01*
X250098107Y-26803393D01*
X250114171Y-26821117D01*
X250128421Y-26840330D01*
X250140718Y-26860847D01*
X250150946Y-26882471D01*
X250159004Y-26904993D01*
X250164816Y-26928197D01*
X250168326Y-26951858D01*
X250169500Y-26975750D01*
X250169500Y-27888250D01*
X250168326Y-27912142D01*
X250164816Y-27935803D01*
X250159004Y-27959007D01*
X250150946Y-27981529D01*
X250140718Y-28003153D01*
X250128421Y-28023670D01*
X250114171Y-28042883D01*
X250098107Y-28060607D01*
X250080383Y-28076671D01*
X250061170Y-28090921D01*
X250040653Y-28103218D01*
X250019029Y-28113446D01*
X249996507Y-28121504D01*
X249973303Y-28127316D01*
X249949642Y-28130826D01*
X249925750Y-28132000D01*
X249438250Y-28132000D01*
X249414358Y-28130826D01*
X249390697Y-28127316D01*
X249367493Y-28121504D01*
X249344971Y-28113446D01*
X249323347Y-28103218D01*
X249302830Y-28090921D01*
X249283617Y-28076671D01*
X249265893Y-28060607D01*
X249249829Y-28042883D01*
X249235579Y-28023670D01*
X249223282Y-28003153D01*
X249213054Y-27981529D01*
X249204996Y-27959007D01*
X249199184Y-27935803D01*
X249195674Y-27912142D01*
X249194500Y-27888250D01*
X249194500Y-26975750D01*
X249195674Y-26951858D01*
X249199184Y-26928197D01*
X249204996Y-26904993D01*
X249213054Y-26882471D01*
X249223282Y-26860847D01*
X249235579Y-26840330D01*
X249249829Y-26821117D01*
X249265893Y-26803393D01*
X249283617Y-26787329D01*
X249302830Y-26773079D01*
X249323347Y-26760782D01*
X249344971Y-26750554D01*
X249367493Y-26742496D01*
X249390697Y-26736684D01*
X249414358Y-26733174D01*
X249438250Y-26732000D01*
X249925750Y-26732000D01*
X249949642Y-26733174D01*
X249949642Y-26733174D01*
G37*
D11*
X249682000Y-27432000D03*
G04 #@! TD*
D12*
G04 #@! TO.C,D18*
X234492000Y-75182000D03*
X234492000Y-79482000D03*
G04 #@! TD*
D10*
G04 #@! TO.C,R18*
G36*
X202022142Y-74993174D02*
X202045803Y-74996684D01*
X202069007Y-75002496D01*
X202091529Y-75010554D01*
X202113153Y-75020782D01*
X202133670Y-75033079D01*
X202152883Y-75047329D01*
X202170607Y-75063393D01*
X202186671Y-75081117D01*
X202200921Y-75100330D01*
X202213218Y-75120847D01*
X202223446Y-75142471D01*
X202231504Y-75164993D01*
X202237316Y-75188197D01*
X202240826Y-75211858D01*
X202242000Y-75235750D01*
X202242000Y-76148250D01*
X202240826Y-76172142D01*
X202237316Y-76195803D01*
X202231504Y-76219007D01*
X202223446Y-76241529D01*
X202213218Y-76263153D01*
X202200921Y-76283670D01*
X202186671Y-76302883D01*
X202170607Y-76320607D01*
X202152883Y-76336671D01*
X202133670Y-76350921D01*
X202113153Y-76363218D01*
X202091529Y-76373446D01*
X202069007Y-76381504D01*
X202045803Y-76387316D01*
X202022142Y-76390826D01*
X201998250Y-76392000D01*
X201510750Y-76392000D01*
X201486858Y-76390826D01*
X201463197Y-76387316D01*
X201439993Y-76381504D01*
X201417471Y-76373446D01*
X201395847Y-76363218D01*
X201375330Y-76350921D01*
X201356117Y-76336671D01*
X201338393Y-76320607D01*
X201322329Y-76302883D01*
X201308079Y-76283670D01*
X201295782Y-76263153D01*
X201285554Y-76241529D01*
X201277496Y-76219007D01*
X201271684Y-76195803D01*
X201268174Y-76172142D01*
X201267000Y-76148250D01*
X201267000Y-75235750D01*
X201268174Y-75211858D01*
X201271684Y-75188197D01*
X201277496Y-75164993D01*
X201285554Y-75142471D01*
X201295782Y-75120847D01*
X201308079Y-75100330D01*
X201322329Y-75081117D01*
X201338393Y-75063393D01*
X201356117Y-75047329D01*
X201375330Y-75033079D01*
X201395847Y-75020782D01*
X201417471Y-75010554D01*
X201439993Y-75002496D01*
X201463197Y-74996684D01*
X201486858Y-74993174D01*
X201510750Y-74992000D01*
X201998250Y-74992000D01*
X202022142Y-74993174D01*
X202022142Y-74993174D01*
G37*
D11*
X201754500Y-75692000D03*
D10*
G36*
X203897142Y-74993174D02*
X203920803Y-74996684D01*
X203944007Y-75002496D01*
X203966529Y-75010554D01*
X203988153Y-75020782D01*
X204008670Y-75033079D01*
X204027883Y-75047329D01*
X204045607Y-75063393D01*
X204061671Y-75081117D01*
X204075921Y-75100330D01*
X204088218Y-75120847D01*
X204098446Y-75142471D01*
X204106504Y-75164993D01*
X204112316Y-75188197D01*
X204115826Y-75211858D01*
X204117000Y-75235750D01*
X204117000Y-76148250D01*
X204115826Y-76172142D01*
X204112316Y-76195803D01*
X204106504Y-76219007D01*
X204098446Y-76241529D01*
X204088218Y-76263153D01*
X204075921Y-76283670D01*
X204061671Y-76302883D01*
X204045607Y-76320607D01*
X204027883Y-76336671D01*
X204008670Y-76350921D01*
X203988153Y-76363218D01*
X203966529Y-76373446D01*
X203944007Y-76381504D01*
X203920803Y-76387316D01*
X203897142Y-76390826D01*
X203873250Y-76392000D01*
X203385750Y-76392000D01*
X203361858Y-76390826D01*
X203338197Y-76387316D01*
X203314993Y-76381504D01*
X203292471Y-76373446D01*
X203270847Y-76363218D01*
X203250330Y-76350921D01*
X203231117Y-76336671D01*
X203213393Y-76320607D01*
X203197329Y-76302883D01*
X203183079Y-76283670D01*
X203170782Y-76263153D01*
X203160554Y-76241529D01*
X203152496Y-76219007D01*
X203146684Y-76195803D01*
X203143174Y-76172142D01*
X203142000Y-76148250D01*
X203142000Y-75235750D01*
X203143174Y-75211858D01*
X203146684Y-75188197D01*
X203152496Y-75164993D01*
X203160554Y-75142471D01*
X203170782Y-75120847D01*
X203183079Y-75100330D01*
X203197329Y-75081117D01*
X203213393Y-75063393D01*
X203231117Y-75047329D01*
X203250330Y-75033079D01*
X203270847Y-75020782D01*
X203292471Y-75010554D01*
X203314993Y-75002496D01*
X203338197Y-74996684D01*
X203361858Y-74993174D01*
X203385750Y-74992000D01*
X203873250Y-74992000D01*
X203897142Y-74993174D01*
X203897142Y-74993174D01*
G37*
D11*
X203629500Y-75692000D03*
G04 #@! TD*
M02*
