M48
INCH,TZ
T1C0.0157
T2C0.0315
T3C0.0335
T4C0.0394
T5C0.0551
T6C0.0620
T7C0.0840
T8C0.1260
T9C0.2165
%
G90
G05
T1
X78062Y-8800
X79431Y-29800
X79800Y-10200
X81538Y-8800
X91926Y-18910
X92320Y-31292
X92323Y-24705
X114919Y-16050
T2
X56831Y-11300
X58800Y-11300
X96800Y-12300
X96800Y-15300
X97800Y-12300
X97800Y-15300
X92800Y-12300
X92800Y-15300
X93800Y-12300
X93800Y-15300
X28831Y-11300
X30800Y-11300
X42831Y-11300
X44800Y-11300
X14831Y-42300
X16800Y-42300
X56831Y-42300
X58800Y-42300
X28831Y-42300
X30800Y-42300
X42831Y-42300
X44800Y-42300
X14831Y-11300
X16800Y-11300
T3
X98800Y-9300
X99784Y-9300
X87316Y-9300
X88300Y-9300
X92816Y-9300
X93800Y-9300
T4
X110800Y-16050
T5
X111050Y-39800
X113215Y-39800
X34800Y-41300
X34800Y-42954
X36965Y-41300
X36965Y-42954
X111050Y-19800
X113215Y-19800
X111050Y-35800
X113215Y-35800
X111050Y-23800
X113215Y-23800
X62800Y-41300
X62800Y-42954
X64965Y-41300
X64965Y-42954
X20800Y-10646
X20800Y-12300
X22965Y-10646
X22965Y-12300
X48800Y-10646
X48800Y-12300
X50965Y-10646
X50965Y-12300
X34800Y-10646
X34800Y-12300
X36965Y-10646
X36965Y-12300
X20808Y-41300
X20808Y-42954
X22973Y-41300
X22973Y-42954
X48800Y-41300
X48800Y-42954
X50965Y-41300
X50965Y-42954
X111050Y-31800
X113215Y-31800
X111050Y-27800
X113215Y-27800
X82800Y-40800
X82800Y-42965
X84454Y-40800
X84454Y-42965
X62800Y-10646
X62800Y-12300
X64965Y-10646
X64965Y-12300
T6
X97800Y-43800
X99300Y-23800
X100800Y-23800
X100800Y-43800
X102300Y-23800
X103800Y-43800
T7
X97800Y-23800
X103800Y-23800
T8
X67800Y-18800
X8050Y-8050
X25800Y-26800
X11800Y-18800
X54300Y-34800
X39800Y-18800
X8050Y-46550
X11800Y-34800
X77800Y-26800
X120300Y-8050
X25800Y-34800
X53800Y-26800
X11800Y-26800
X120300Y-46550
X53800Y-18800
X25800Y-18800
X67800Y-34800
X39800Y-34800
X77800Y-21300
X73800Y-46550
X88300Y-34800
X39800Y-26800
X73800Y-8050
T9
X77800Y-14800
X85800Y-14800
T0
M30
